<?xml version="1.0" encoding="UTF-8" standalone="no"?>
<!DOCTYPE svg PUBLIC "-//W3C//DTD SVG 1.1//EN"
 "http://www.w3.org/Graphics/SVG/1.1/DTD/svg11.dtd">
<!-- Generated by graphviz version 2.43.0 (0)
 -->
<!-- Title: SlowConverter::calculateMemoryUsage Pages: 1 -->
<svg width="365pt" height="118pt"
 viewBox="0.00 0.00 365.00 117.67" xmlns="http://www.w3.org/2000/svg" xmlns:xlink="http://www.w3.org/1999/xlink">
<g id="graph0" class="graph" transform="scale(1 1) rotate(0) translate(4 113.67)">
<title>SlowConverter::calculateMemoryUsage</title>
<!-- Node1 -->
<g id="node1" class="node">
<title>Node1</title>
<g id="a_node1"><a xlink:title=" ">
<polygon fill="#bfbfbf" stroke="black" points="0,-52 0,-82 138,-82 138,-52 0,-52"/>
<text text-anchor="start" x="8" y="-70" font-family="Helvetica,sans-Serif" font-size="10.00">SlowConverter::calculate</text>
<text text-anchor="middle" x="69" y="-59" font-family="Helvetica,sans-Serif" font-size="10.00">MemoryUsage</text>
</a>
</g>
</g>
<!-- Node2 -->
<g id="node2" class="node">
<title>Node2</title>
<g id="a_node2"><a xlink:href="Util_8cc.html#a44138b2ce897aad07f85d5e13bad9682" target="_top" xlink:title=" ">
<polygon fill="none" stroke="black" points="300,-76.5 300,-95.5 353,-95.5 353,-76.5 300,-76.5"/>
<text text-anchor="middle" x="326.5" y="-83.5" font-family="Helvetica,sans-Serif" font-size="10.00">product</text>
</a>
</g>
</g>
<!-- Node1&#45;&gt;Node2 -->
<g id="edge1" class="edge">
<title>Node1&#45;&gt;Node2</title>
<path fill="none" stroke="midnightblue" d="M102.44,-82.19C122.55,-90.76 149.2,-100.61 174,-105 211.64,-111.66 222.16,-110.38 260,-105 269.92,-103.59 280.44,-101.04 290.07,-98.25"/>
<polygon fill="midnightblue" stroke="midnightblue" points="291.19,-101.57 299.73,-95.3 289.15,-94.87 291.19,-101.57"/>
</g>
<!-- Node3 -->
<g id="node3" class="node">
<title>Node3</title>
<g id="a_node3"><a xlink:href="structMipMaps.html#ac92a944add158f9c9cf4d0120fbb2bd9" target="_top" xlink:title=" ">
<polygon fill="none" stroke="black" points="174,-38.5 174,-57.5 260,-57.5 260,-38.5 174,-38.5"/>
<text text-anchor="middle" x="217" y="-45.5" font-family="Helvetica,sans-Serif" font-size="10.00">MipMaps::size</text>
</a>
</g>
</g>
<!-- Node1&#45;&gt;Node3 -->
<g id="edge2" class="edge">
<title>Node1&#45;&gt;Node3</title>
<path fill="none" stroke="midnightblue" d="M138.3,-58.11C146.95,-56.99 155.69,-55.85 164.03,-54.76"/>
<polygon fill="midnightblue" stroke="midnightblue" points="164.51,-58.23 173.98,-53.47 163.61,-51.29 164.51,-58.23"/>
</g>
<!-- Node5 -->
<g id="node5" class="node">
<title>Node5</title>
<g id="a_node5"><a xlink:href="structStats.html#a993cdac7c839c6354dbe264b1c9c913a" target="_top" xlink:title=" ">
<polygon fill="none" stroke="black" points="183.5,-76.5 183.5,-95.5 250.5,-95.5 250.5,-76.5 183.5,-76.5"/>
<text text-anchor="middle" x="217" y="-83.5" font-family="Helvetica,sans-Serif" font-size="10.00">Stats::size</text>
</a>
</g>
</g>
<!-- Node1&#45;&gt;Node5 -->
<g id="edge5" class="edge">
<title>Node1&#45;&gt;Node5</title>
<path fill="none" stroke="midnightblue" d="M138.3,-75.89C150.22,-77.44 162.31,-79.01 173.29,-80.44"/>
<polygon fill="midnightblue" stroke="midnightblue" points="173.07,-83.94 183.44,-81.76 173.97,-77 173.07,-83.94"/>
</g>
<!-- Node6 -->
<g id="node6" class="node">
<title>Node6</title>
<g id="a_node6"><a xlink:href="Util_8cc.html#a7f2c6ac257cf9618bce2b682aff786b1" target="_top" xlink:title=" ">
<polygon fill="none" stroke="black" points="187,-0.5 187,-19.5 247,-19.5 247,-0.5 187,-0.5"/>
<text text-anchor="middle" x="217" y="-7.5" font-family="Helvetica,sans-Serif" font-size="10.00">trimAxes</text>
</a>
</g>
</g>
<!-- Node1&#45;&gt;Node6 -->
<g id="edge7" class="edge">
<title>Node1&#45;&gt;Node6</title>
<path fill="none" stroke="midnightblue" d="M108.74,-51.87C131.45,-43.01 159.88,-31.91 181.77,-23.36"/>
<polygon fill="midnightblue" stroke="midnightblue" points="183.27,-26.53 191.32,-19.64 180.73,-20.01 183.27,-26.53"/>
</g>
<!-- Node3&#45;&gt;Node2 -->
<g id="edge4" class="edge">
<title>Node3&#45;&gt;Node2</title>
<path fill="none" stroke="midnightblue" d="M245.13,-57.59C258.77,-62.41 275.48,-68.32 290.12,-73.49"/>
<polygon fill="midnightblue" stroke="midnightblue" points="289.27,-76.9 299.86,-76.94 291.6,-70.3 289.27,-76.9"/>
</g>
<!-- Node4 -->
<g id="node4" class="node">
<title>Node4</title>
<g id="a_node4"><a xlink:href="Util_8cc.html#abf3f2f44765d44aa9bdb97699f569b14" target="_top" xlink:title=" ">
<polygon fill="none" stroke="black" points="296,-38.5 296,-57.5 357,-57.5 357,-38.5 296,-38.5"/>
<text text-anchor="middle" x="326.5" y="-45.5" font-family="Helvetica,sans-Serif" font-size="10.00">mipDims</text>
</a>
</g>
</g>
<!-- Node3&#45;&gt;Node4 -->
<g id="edge3" class="edge">
<title>Node3&#45;&gt;Node4</title>
<path fill="none" stroke="midnightblue" d="M260.18,-48C268.53,-48 277.28,-48 285.56,-48"/>
<polygon fill="midnightblue" stroke="midnightblue" points="285.73,-51.5 295.73,-48 285.73,-44.5 285.73,-51.5"/>
</g>
<!-- Node5&#45;&gt;Node2 -->
<g id="edge6" class="edge">
<title>Node5&#45;&gt;Node2</title>
<path fill="none" stroke="midnightblue" d="M250.55,-86C262.9,-86 277.05,-86 289.69,-86"/>
<polygon fill="midnightblue" stroke="midnightblue" points="289.89,-89.5 299.89,-86 289.89,-82.5 289.89,-89.5"/>
</g>
</g>
</svg>
