<?xml version="1.0" encoding="UTF-8" standalone="no"?>
<!DOCTYPE svg PUBLIC "-//W3C//DTD SVG 1.1//EN"
 "http://www.w3.org/Graphics/SVG/1.1/DTD/svg11.dtd">
<!-- Generated by graphviz version 2.43.0 (0)
 -->
<!-- Title: SlowConverter::copyAndCalculate Pages: 1 -->
<svg width="667pt" height="845pt"
 viewBox="0.00 0.00 667.00 845.00" xmlns="http://www.w3.org/2000/svg" xmlns:xlink="http://www.w3.org/1999/xlink">
<g id="graph0" class="graph" transform="scale(1 1) rotate(0) translate(4 841)">
<title>SlowConverter::copyAndCalculate</title>
<!-- Node1 -->
<g id="node1" class="node">
<title>Node1</title>
<g id="a_node1"><a xlink:title=" ">
<polygon fill="#bfbfbf" stroke="black" points="0,-380.5 0,-399.5 182,-399.5 182,-380.5 0,-380.5"/>
<text text-anchor="middle" x="91" y="-387.5" font-family="Helvetica,sans-Serif" font-size="10.00">SlowConverter::copyAndCalculate</text>
</a>
</g>
</g>
<!-- Node2 -->
<g id="node2" class="node">
<title>Node2</title>
<g id="a_node2"><a xlink:href="structMipMaps.html#ae1239035de009bfe349402884f3a0cd7" target="_top" xlink:title=" ">
<polygon fill="none" stroke="black" points="235,-817.5 235,-836.5 359,-836.5 359,-817.5 235,-817.5"/>
<text text-anchor="middle" x="297" y="-824.5" font-family="Helvetica,sans-Serif" font-size="10.00">MipMaps::accumulate</text>
</a>
</g>
</g>
<!-- Node1&#45;&gt;Node2 -->
<g id="edge1" class="edge">
<title>Node1&#45;&gt;Node2</title>
<path fill="none" stroke="midnightblue" d="M91.69,-399.64C90.61,-450.44 92.56,-689.14 218,-808 220.43,-810.3 223.09,-812.34 225.91,-814.14"/>
<polygon fill="midnightblue" stroke="midnightblue" points="224.34,-817.27 234.82,-818.87 227.62,-811.09 224.34,-817.27"/>
</g>
<!-- Node3 -->
<g id="node3" class="node">
<title>Node3</title>
<g id="a_node3"><a xlink:href="structStatsCounter.html#a7f3263e39dd0c0958aca44c4971921b9" target="_top" xlink:title=" ">
<polygon fill="none" stroke="black" points="225.5,-768 225.5,-798 368.5,-798 368.5,-768 225.5,-768"/>
<text text-anchor="start" x="233.5" y="-786" font-family="Helvetica,sans-Serif" font-size="10.00">StatsCounter::accumulate</text>
<text text-anchor="middle" x="297" y="-775" font-family="Helvetica,sans-Serif" font-size="10.00">Finite</text>
</a>
</g>
</g>
<!-- Node1&#45;&gt;Node3 -->
<g id="edge2" class="edge">
<title>Node1&#45;&gt;Node3</title>
<path fill="none" stroke="midnightblue" d="M92.26,-399.63C94.06,-446.45 108.18,-652.49 218,-759 219.11,-760.08 220.27,-761.11 221.47,-762.09"/>
<polygon fill="midnightblue" stroke="midnightblue" points="219.72,-765.13 229.93,-767.94 223.7,-759.38 219.72,-765.13"/>
</g>
<!-- Node4 -->
<g id="node4" class="node">
<title>Node4</title>
<g id="a_node4"><a xlink:href="structStatsCounter.html#ae46f62677162147d2983578f44d0daa1" target="_top" xlink:title=" ">
<polygon fill="none" stroke="black" points="225.5,-719 225.5,-749 368.5,-749 368.5,-719 225.5,-719"/>
<text text-anchor="start" x="233.5" y="-737" font-family="Helvetica,sans-Serif" font-size="10.00">StatsCounter::accumulate</text>
<text text-anchor="middle" x="297" y="-726" font-family="Helvetica,sans-Serif" font-size="10.00">FiniteLazy</text>
</a>
</g>
</g>
<!-- Node1&#45;&gt;Node4 -->
<g id="edge3" class="edge">
<title>Node1&#45;&gt;Node4</title>
<path fill="none" stroke="midnightblue" d="M92.84,-399.78C97.1,-443.07 120.1,-619.32 218,-710 219.29,-711.19 220.63,-712.32 222.02,-713.4"/>
<polygon fill="midnightblue" stroke="midnightblue" points="220.21,-716.39 230.48,-718.97 224.06,-710.55 220.21,-716.39"/>
</g>
<!-- Node5 -->
<g id="node5" class="node">
<title>Node5</title>
<g id="a_node5"><a xlink:href="structStatsCounter.html#a40e77c71ae8251eeb3fceca1e8377d77" target="_top" xlink:title=" ">
<polygon fill="none" stroke="black" points="225.5,-670 225.5,-700 368.5,-700 368.5,-670 225.5,-670"/>
<text text-anchor="start" x="233.5" y="-688" font-family="Helvetica,sans-Serif" font-size="10.00">StatsCounter::accumulate</text>
<text text-anchor="middle" x="297" y="-677" font-family="Helvetica,sans-Serif" font-size="10.00">FiniteLazyFirst</text>
</a>
</g>
</g>
<!-- Node1&#45;&gt;Node5 -->
<g id="edge4" class="edge">
<title>Node1&#45;&gt;Node5</title>
<path fill="none" stroke="midnightblue" d="M93.61,-399.52C100.64,-438.12 132.22,-584.43 218,-660 219.78,-661.57 221.65,-663.03 223.61,-664.41"/>
<polygon fill="midnightblue" stroke="midnightblue" points="222.25,-667.68 232.62,-669.87 225.88,-661.7 222.25,-667.68"/>
</g>
<!-- Node6 -->
<g id="node6" class="node">
<title>Node6</title>
<g id="a_node6"><a xlink:href="structStats.html#af9cdfe1bbc46996391d3c91e13e5144b" target="_top" xlink:title=" ">
<polygon fill="none" stroke="black" points="219.5,-631.5 219.5,-650.5 374.5,-650.5 374.5,-631.5 219.5,-631.5"/>
<text text-anchor="middle" x="297" y="-638.5" font-family="Helvetica,sans-Serif" font-size="10.00">Stats::accumulateHistogram</text>
</a>
</g>
</g>
<!-- Node1&#45;&gt;Node6 -->
<g id="edge5" class="edge">
<title>Node1&#45;&gt;Node6</title>
<path fill="none" stroke="midnightblue" d="M94.27,-399.79C103.13,-435.67 138.83,-561.05 218,-622 220.33,-623.79 222.8,-625.42 225.39,-626.9"/>
<polygon fill="midnightblue" stroke="midnightblue" points="223.99,-630.11 234.51,-631.35 227.06,-623.82 223.99,-630.11"/>
</g>
<!-- Node7 -->
<g id="node7" class="node">
<title>Node7</title>
<g id="a_node7"><a xlink:href="structStatsCounter.html#a4e340c91159ae365eae26187f80fa877" target="_top" xlink:title=" ">
<polygon fill="none" stroke="black" points="225.5,-582 225.5,-612 368.5,-612 368.5,-582 225.5,-582"/>
<text text-anchor="start" x="233.5" y="-600" font-family="Helvetica,sans-Serif" font-size="10.00">StatsCounter::accumulate</text>
<text text-anchor="middle" x="297" y="-589" font-family="Helvetica,sans-Serif" font-size="10.00">NonFinite</text>
</a>
</g>
</g>
<!-- Node1&#45;&gt;Node7 -->
<g id="edge6" class="edge">
<title>Node1&#45;&gt;Node7</title>
<path fill="none" stroke="midnightblue" d="M95.86,-399.64C108.52,-429.98 151.76,-524.39 218,-573 220.05,-574.5 222.19,-575.91 224.41,-577.24"/>
<polygon fill="midnightblue" stroke="midnightblue" points="222.79,-580.34 233.27,-581.92 226.07,-574.15 222.79,-580.34"/>
</g>
<!-- Node8 -->
<g id="node8" class="node">
<title>Node8</title>
<g id="a_node8"><a xlink:href="structStats.html#aa0a825cd6a5b3881c4a3ca466576fded" target="_top" xlink:title=" ">
<polygon fill="none" stroke="black" points="227,-533 227,-563 367,-563 367,-533 227,-533"/>
<text text-anchor="start" x="235" y="-551" font-family="Helvetica,sans-Serif" font-size="10.00">Stats::accumulateStatsTo</text>
<text text-anchor="middle" x="297" y="-540" font-family="Helvetica,sans-Serif" font-size="10.00">Counter</text>
</a>
</g>
</g>
<!-- Node1&#45;&gt;Node8 -->
<g id="edge7" class="edge">
<title>Node1&#45;&gt;Node8</title>
<path fill="none" stroke="midnightblue" d="M98.44,-399.6C115.21,-423.89 162.8,-488.29 218,-523 221.2,-525.01 224.57,-526.87 228.05,-528.6"/>
<polygon fill="midnightblue" stroke="midnightblue" points="226.9,-531.92 237.46,-532.84 229.78,-525.54 226.9,-531.92"/>
</g>
<!-- Node9 -->
<g id="node9" class="node">
<title>Node9</title>
<g id="a_node9"><a xlink:href="structMipMaps.html#aa2506b4101051310fa0e3b85da8eb6e2" target="_top" xlink:title=" ">
<polygon fill="none" stroke="black" points="241.5,-494.5 241.5,-513.5 352.5,-513.5 352.5,-494.5 241.5,-494.5"/>
<text text-anchor="middle" x="297" y="-501.5" font-family="Helvetica,sans-Serif" font-size="10.00">MipMaps::calculate</text>
</a>
</g>
</g>
<!-- Node1&#45;&gt;Node9 -->
<g id="edge8" class="edge">
<title>Node1&#45;&gt;Node9</title>
<path fill="none" stroke="midnightblue" d="M101.83,-399.71C121.89,-418.98 169.72,-462.13 218,-485 223.04,-487.39 228.41,-489.49 233.88,-491.35"/>
<polygon fill="midnightblue" stroke="midnightblue" points="233.2,-494.8 243.79,-494.41 235.27,-488.11 233.2,-494.8"/>
</g>
<!-- Node10 -->
<g id="node10" class="node">
<title>Node10</title>
<g id="a_node10"><a xlink:href="structStats.html#a9a2fbf756586a53e577d65b0e2108694" target="_top" xlink:title=" ">
<polygon fill="none" stroke="black" points="218.5,-456.5 218.5,-475.5 375.5,-475.5 375.5,-456.5 218.5,-456.5"/>
<text text-anchor="middle" x="297" y="-463.5" font-family="Helvetica,sans-Serif" font-size="10.00">Stats::clearHistogramBuffers</text>
</a>
</g>
</g>
<!-- Node1&#45;&gt;Node10 -->
<g id="edge9" class="edge">
<title>Node1&#45;&gt;Node10</title>
<path fill="none" stroke="midnightblue" d="M113.61,-399.64C138.52,-410.58 180.81,-428.64 218,-442 229.14,-446 241.31,-449.95 252.66,-453.45"/>
<polygon fill="midnightblue" stroke="midnightblue" points="251.79,-456.84 262.37,-456.4 253.82,-450.14 251.79,-456.84"/>
</g>
<!-- Node11 -->
<g id="node11" class="node">
<title>Node11</title>
<g id="a_node11"><a xlink:href="Util_8cc.html#a44138b2ce897aad07f85d5e13bad9682" target="_top" xlink:title=" ">
<polygon fill="none" stroke="black" points="447,-418.5 447,-437.5 500,-437.5 500,-418.5 447,-418.5"/>
<text text-anchor="middle" x="473.5" y="-425.5" font-family="Helvetica,sans-Serif" font-size="10.00">product</text>
</a>
</g>
</g>
<!-- Node1&#45;&gt;Node11 -->
<g id="edge16" class="edge">
<title>Node1&#45;&gt;Node11</title>
<path fill="none" stroke="midnightblue" d="M148.96,-399.52C170.54,-402.88 195.36,-406.45 218,-409 295.73,-417.75 387.29,-423.47 436.63,-426.17"/>
<polygon fill="midnightblue" stroke="midnightblue" points="436.62,-429.68 446.79,-426.72 437,-422.69 436.62,-429.68"/>
</g>
<!-- Node12 -->
<g id="node12" class="node">
<title>Node12</title>
<g id="a_node12"><a xlink:href="structStats.html#a867eaa3876e3f1034e605cca66f9224a" target="_top" xlink:title=" ">
<polygon fill="none" stroke="black" points="218,-380.5 218,-399.5 376,-399.5 376,-380.5 218,-380.5"/>
<text text-anchor="middle" x="297" y="-387.5" font-family="Helvetica,sans-Serif" font-size="10.00">Stats::copyStatsFromCounter</text>
</a>
</g>
</g>
<!-- Node1&#45;&gt;Node12 -->
<g id="edge11" class="edge">
<title>Node1&#45;&gt;Node12</title>
<path fill="none" stroke="midnightblue" d="M182.07,-390C190.57,-390 199.18,-390 207.66,-390"/>
<polygon fill="midnightblue" stroke="midnightblue" points="207.93,-393.5 217.93,-390 207.93,-386.5 207.93,-393.5"/>
</g>
<!-- Node13 -->
<g id="node13" class="node">
<title>Node13</title>
<g id="a_node13"><a xlink:href="structMipMaps.html#a2dc892b175561f17a8dca34f562bdee5" target="_top" xlink:title=" ">
<polygon fill="none" stroke="black" points="231,-304.5 231,-323.5 363,-323.5 363,-304.5 231,-304.5"/>
<text text-anchor="middle" x="297" y="-311.5" font-family="Helvetica,sans-Serif" font-size="10.00">MipMaps::createBuffers</text>
</a>
</g>
</g>
<!-- Node1&#45;&gt;Node13 -->
<g id="edge12" class="edge">
<title>Node1&#45;&gt;Node13</title>
<path fill="none" stroke="midnightblue" d="M110.34,-380.39C134.49,-368.05 178.5,-346.61 218,-333 225.32,-330.48 233.13,-328.16 240.89,-326.06"/>
<polygon fill="midnightblue" stroke="midnightblue" points="241.82,-329.44 250.63,-323.54 240.07,-322.66 241.82,-329.44"/>
</g>
<!-- Node15 -->
<g id="node15" class="node">
<title>Node15</title>
<g id="a_node15"><a xlink:href="structStats.html#aa23cf0c75f62b2f900f38fe7f2a112c9" target="_top" xlink:title=" ">
<polygon fill="none" stroke="black" points="240.5,-342.5 240.5,-361.5 353.5,-361.5 353.5,-342.5 240.5,-342.5"/>
<text text-anchor="middle" x="297" y="-349.5" font-family="Helvetica,sans-Serif" font-size="10.00">Stats::createBuffers</text>
</a>
</g>
</g>
<!-- Node1&#45;&gt;Node15 -->
<g id="edge14" class="edge">
<title>Node1&#45;&gt;Node15</title>
<path fill="none" stroke="midnightblue" d="M143.21,-380.46C170.98,-375.29 205.49,-368.86 234.68,-363.42"/>
<polygon fill="midnightblue" stroke="midnightblue" points="235.57,-366.82 244.76,-361.54 234.29,-359.93 235.57,-366.82"/>
</g>
<!-- Node16 -->
<g id="node16" class="node">
<title>Node16</title>
<g id="a_node16"><a xlink:href="Util_8cc.html#a21d336ae79f0bd1dcde9d229e7cf0e9e" target="_top" xlink:title=" ">
<polygon fill="none" stroke="black" points="257.5,-266.5 257.5,-285.5 336.5,-285.5 336.5,-266.5 257.5,-266.5"/>
<text text-anchor="middle" x="297" y="-273.5" font-family="Helvetica,sans-Serif" font-size="10.00">readFitsData</text>
</a>
</g>
</g>
<!-- Node1&#45;&gt;Node16 -->
<g id="edge17" class="edge">
<title>Node1&#45;&gt;Node16</title>
<path fill="none" stroke="midnightblue" d="M101.83,-380.29C121.89,-361.02 169.72,-317.87 218,-295 227.16,-290.66 237.42,-287.25 247.4,-284.59"/>
<polygon fill="midnightblue" stroke="midnightblue" points="248.37,-287.96 257.25,-282.18 246.7,-281.16 248.37,-287.96"/>
</g>
<!-- Node17 -->
<g id="node17" class="node">
<title>Node17</title>
<g id="a_node17"><a xlink:href="Util_8cc.html#ac6141d44d6bdca7e2c4817e0ed2613b0" target="_top" xlink:title=" ">
<polygon fill="none" stroke="black" points="254.5,-228.5 254.5,-247.5 339.5,-247.5 339.5,-228.5 254.5,-228.5"/>
<text text-anchor="middle" x="297" y="-235.5" font-family="Helvetica,sans-Serif" font-size="10.00">readHdf5Data</text>
</a>
</g>
</g>
<!-- Node1&#45;&gt;Node17 -->
<g id="edge18" class="edge">
<title>Node1&#45;&gt;Node17</title>
<path fill="none" stroke="midnightblue" d="M98.29,-380.16C114.73,-355.32 161.6,-289.72 218,-257 226.06,-252.33 235.22,-248.8 244.37,-246.14"/>
<polygon fill="midnightblue" stroke="midnightblue" points="245.43,-249.47 254.23,-243.57 243.67,-242.7 245.43,-249.47"/>
</g>
<!-- Node18 -->
<g id="node18" class="node">
<title>Node18</title>
<g id="a_node18"><a xlink:href="structMipMaps.html#a2a6d05ff95d38766a9a883e98e1dca4f" target="_top" xlink:title=" ">
<polygon fill="none" stroke="black" points="234,-190.5 234,-209.5 360,-209.5 360,-190.5 234,-190.5"/>
<text text-anchor="middle" x="297" y="-197.5" font-family="Helvetica,sans-Serif" font-size="10.00">MipMaps::resetBuffers</text>
</a>
</g>
</g>
<!-- Node1&#45;&gt;Node18 -->
<g id="edge19" class="edge">
<title>Node1&#45;&gt;Node18</title>
<path fill="none" stroke="midnightblue" d="M96.12,-380.42C109.22,-351.16 152.92,-262.32 218,-219 221.08,-216.95 224.36,-215.12 227.77,-213.48"/>
<polygon fill="midnightblue" stroke="midnightblue" points="229.16,-216.7 237.03,-209.61 226.46,-210.24 229.16,-216.7"/>
</g>
<!-- Node19 -->
<g id="node19" class="node">
<title>Node19</title>
<g id="a_node19"><a xlink:href="structTimer.html#af8cfe574b7520624a579653a720b87e8" target="_top" xlink:title=" ">
<polygon fill="none" stroke="black" points="260,-152.5 260,-171.5 334,-171.5 334,-152.5 260,-152.5"/>
<text text-anchor="middle" x="297" y="-159.5" font-family="Helvetica,sans-Serif" font-size="10.00">Timer::start</text>
</a>
</g>
</g>
<!-- Node1&#45;&gt;Node19 -->
<g id="edge20" class="edge">
<title>Node1&#45;&gt;Node19</title>
<path fill="none" stroke="midnightblue" d="M94.87,-380.26C105.25,-346.72 144.25,-235.18 218,-181 227.2,-174.24 238.5,-169.86 249.61,-167.03"/>
<polygon fill="midnightblue" stroke="midnightblue" points="250.67,-170.38 259.7,-164.84 249.19,-163.54 250.67,-170.38"/>
</g>
<!-- Node22 -->
<g id="node22" class="node">
<title>Node22</title>
<g id="a_node22"><a xlink:href="Util_8cc.html#a7f2c6ac257cf9618bce2b682aff786b1" target="_top" xlink:title=" ">
<polygon fill="none" stroke="black" points="267,-114.5 267,-133.5 327,-133.5 327,-114.5 267,-114.5"/>
<text text-anchor="middle" x="297" y="-121.5" font-family="Helvetica,sans-Serif" font-size="10.00">trimAxes</text>
</a>
</g>
</g>
<!-- Node1&#45;&gt;Node22 -->
<g id="edge23" class="edge">
<title>Node1&#45;&gt;Node22</title>
<path fill="none" stroke="midnightblue" d="M93.9,-380.37C101.73,-343.28 135.11,-208.53 218,-143 228.98,-134.32 243.34,-129.53 256.75,-126.91"/>
<polygon fill="midnightblue" stroke="midnightblue" points="257.43,-130.34 266.74,-125.3 256.31,-123.43 257.43,-130.34"/>
</g>
<!-- Node23 -->
<g id="node23" class="node">
<title>Node23</title>
<g id="a_node23"><a xlink:href="structStats.html#ac39934ff1c0817c2416411a34b856f66" target="_top" xlink:title=" ">
<polygon fill="none" stroke="black" points="261,-76.5 261,-95.5 333,-95.5 333,-76.5 261,-76.5"/>
<text text-anchor="middle" x="297" y="-83.5" font-family="Helvetica,sans-Serif" font-size="10.00">Stats::write</text>
</a>
</g>
</g>
<!-- Node1&#45;&gt;Node23 -->
<g id="edge24" class="edge">
<title>Node1&#45;&gt;Node23</title>
<path fill="none" stroke="midnightblue" d="M93.2,-380.33C98.78,-339.8 125.89,-182.07 218,-105 227.18,-97.32 238.97,-92.66 250.59,-89.85"/>
<polygon fill="midnightblue" stroke="midnightblue" points="251.58,-93.22 260.7,-87.83 250.2,-86.36 251.58,-93.22"/>
</g>
<!-- Node25 -->
<g id="node25" class="node">
<title>Node25</title>
<g id="a_node25"><a xlink:href="Util_8cc.html#a957a4202599a841d7f7f34ef7c938ed2" target="_top" xlink:title=" ">
<polygon fill="none" stroke="black" points="571,-76.5 571,-95.5 659,-95.5 659,-76.5 571,-76.5"/>
<text text-anchor="middle" x="615" y="-83.5" font-family="Helvetica,sans-Serif" font-size="10.00">writeHdf5Data</text>
</a>
</g>
</g>
<!-- Node1&#45;&gt;Node25 -->
<g id="edge31" class="edge">
<title>Node1&#45;&gt;Node25</title>
<path fill="none" stroke="midnightblue" d="M92.18,-380.3C93.59,-335.01 106.18,-143.41 218,-67 276.16,-27.26 465.05,-58.71 535,-67 547.26,-68.45 560.36,-71.13 572.31,-74.03"/>
<polygon fill="midnightblue" stroke="midnightblue" points="571.47,-77.43 582.02,-76.49 573.19,-70.64 571.47,-77.43"/>
</g>
<!-- Node28 -->
<g id="node28" class="node">
<title>Node28</title>
<g id="a_node28"><a xlink:href="structMipMaps.html#a41b4f4458fc0ad329657f5f990c44363" target="_top" xlink:title=" ">
<polygon fill="none" stroke="black" points="251,-0.5 251,-19.5 343,-19.5 343,-0.5 251,-0.5"/>
<text text-anchor="middle" x="297" y="-7.5" font-family="Helvetica,sans-Serif" font-size="10.00">MipMaps::write</text>
</a>
</g>
</g>
<!-- Node1&#45;&gt;Node28 -->
<g id="edge30" class="edge">
<title>Node1&#45;&gt;Node28</title>
<path fill="none" stroke="midnightblue" d="M92.4,-380.4C94.81,-334.61 111.3,-136.34 218,-34 224.61,-27.66 232.85,-22.99 241.48,-19.56"/>
<polygon fill="midnightblue" stroke="midnightblue" points="242.63,-22.86 250.94,-16.29 240.34,-16.25 242.63,-22.86"/>
</g>
<!-- Node10&#45;&gt;Node11 -->
<g id="edge10" class="edge">
<title>Node10&#45;&gt;Node11</title>
<path fill="none" stroke="midnightblue" d="M342.03,-456.41C371.4,-450.02 409.5,-441.72 436.94,-435.74"/>
<polygon fill="midnightblue" stroke="midnightblue" points="437.87,-439.12 446.89,-433.58 436.38,-432.28 437.87,-439.12"/>
</g>
<!-- Node14 -->
<g id="node14" class="node">
<title>Node14</title>
<g id="a_node14"><a xlink:href="Util_8cc.html#abf3f2f44765d44aa9bdb97699f569b14" target="_top" xlink:title=" ">
<polygon fill="none" stroke="black" points="443,-304.5 443,-323.5 504,-323.5 504,-304.5 443,-304.5"/>
<text text-anchor="middle" x="473.5" y="-311.5" font-family="Helvetica,sans-Serif" font-size="10.00">mipDims</text>
</a>
</g>
</g>
<!-- Node13&#45;&gt;Node14 -->
<g id="edge13" class="edge">
<title>Node13&#45;&gt;Node14</title>
<path fill="none" stroke="midnightblue" d="M363.47,-314C386.7,-314 412.12,-314 432.57,-314"/>
<polygon fill="midnightblue" stroke="midnightblue" points="432.77,-317.5 442.77,-314 432.77,-310.5 432.77,-317.5"/>
</g>
<!-- Node15&#45;&gt;Node11 -->
<g id="edge15" class="edge">
<title>Node15&#45;&gt;Node11</title>
<path fill="none" stroke="midnightblue" d="M346.97,-361.59C356.75,-364.15 366.83,-367.27 376,-371 403.11,-382.02 431.67,-399.77 450.62,-412.53"/>
<polygon fill="midnightblue" stroke="midnightblue" points="448.88,-415.58 459.1,-418.34 452.83,-409.8 448.88,-415.58"/>
</g>
<!-- Node20 -->
<g id="node20" class="node">
<title>Node20</title>
<g id="a_node20"><a xlink:href="structTimerCounter.html#a85a66d3086790b9f2bb18d8e714388cf" target="_top" xlink:title=" ">
<polygon fill="none" stroke="black" points="417.5,-152.5 417.5,-171.5 529.5,-171.5 529.5,-152.5 417.5,-152.5"/>
<text text-anchor="middle" x="473.5" y="-159.5" font-family="Helvetica,sans-Serif" font-size="10.00">TimerCounter::start</text>
</a>
</g>
</g>
<!-- Node19&#45;&gt;Node20 -->
<g id="edge21" class="edge">
<title>Node19&#45;&gt;Node20</title>
<path fill="none" stroke="midnightblue" d="M334.16,-162C355.3,-162 382.63,-162 407.4,-162"/>
<polygon fill="midnightblue" stroke="midnightblue" points="407.48,-165.5 417.48,-162 407.48,-158.5 407.48,-165.5"/>
</g>
<!-- Node21 -->
<g id="node21" class="node">
<title>Node21</title>
<g id="a_node21"><a xlink:href="structTimerCounter.html#a063980125f92baa0c122454502b876e8" target="_top" xlink:title=" ">
<polygon fill="none" stroke="black" points="418.5,-190.5 418.5,-209.5 528.5,-209.5 528.5,-190.5 418.5,-190.5"/>
<text text-anchor="middle" x="473.5" y="-197.5" font-family="Helvetica,sans-Serif" font-size="10.00">TimerCounter::stop</text>
</a>
</g>
</g>
<!-- Node19&#45;&gt;Node21 -->
<g id="edge22" class="edge">
<title>Node19&#45;&gt;Node21</title>
<path fill="none" stroke="midnightblue" d="M334.16,-169.87C358.61,-175.2 391.32,-182.32 418.8,-188.31"/>
<polygon fill="midnightblue" stroke="midnightblue" points="418.15,-191.75 428.66,-190.45 419.64,-184.91 418.15,-191.75"/>
</g>
<!-- Node24 -->
<g id="node24" class="node">
<title>Node24</title>
<g id="a_node24"><a xlink:href="structStats.html#afa9ca35960c7a71ef00827b491dbe348" target="_top" xlink:title=" ">
<polygon fill="none" stroke="black" points="424.5,-76.5 424.5,-95.5 522.5,-95.5 522.5,-76.5 424.5,-76.5"/>
<text text-anchor="middle" x="473.5" y="-83.5" font-family="Helvetica,sans-Serif" font-size="10.00">Stats::writeBasic</text>
</a>
</g>
</g>
<!-- Node23&#45;&gt;Node24 -->
<g id="edge25" class="edge">
<title>Node23&#45;&gt;Node24</title>
<path fill="none" stroke="midnightblue" d="M333.31,-86C356.54,-86 387.48,-86 414.29,-86"/>
<polygon fill="midnightblue" stroke="midnightblue" points="414.34,-89.5 424.34,-86 414.34,-82.5 414.34,-89.5"/>
</g>
<!-- Node26 -->
<g id="node26" class="node">
<title>Node26</title>
<g id="a_node26"><a xlink:href="structStats.html#afbfc12603fb2ed178fc8e77dc1a65708" target="_top" xlink:title=" ">
<polygon fill="none" stroke="black" points="412,-114.5 412,-133.5 535,-133.5 535,-114.5 412,-114.5"/>
<text text-anchor="middle" x="473.5" y="-121.5" font-family="Helvetica,sans-Serif" font-size="10.00">Stats::writeHistogram</text>
</a>
</g>
</g>
<!-- Node23&#45;&gt;Node26 -->
<g id="edge27" class="edge">
<title>Node23&#45;&gt;Node26</title>
<path fill="none" stroke="midnightblue" d="M333.31,-93.69C357.79,-99.02 390.85,-106.22 418.6,-112.26"/>
<polygon fill="midnightblue" stroke="midnightblue" points="418.05,-115.72 428.56,-114.43 419.54,-108.88 418.05,-115.72"/>
</g>
<!-- Node24&#45;&gt;Node25 -->
<g id="edge26" class="edge">
<title>Node24&#45;&gt;Node25</title>
<path fill="none" stroke="midnightblue" d="M522.51,-86C534.7,-86 547.88,-86 560.33,-86"/>
<polygon fill="midnightblue" stroke="midnightblue" points="560.58,-89.5 570.58,-86 560.58,-82.5 560.58,-89.5"/>
</g>
<!-- Node26&#45;&gt;Node25 -->
<g id="edge29" class="edge">
<title>Node26&#45;&gt;Node25</title>
<path fill="none" stroke="midnightblue" d="M509.7,-114.41C527.71,-109.51 549.83,-103.48 569.06,-98.24"/>
<polygon fill="midnightblue" stroke="midnightblue" points="570.08,-101.59 578.81,-95.59 568.24,-94.84 570.08,-101.59"/>
</g>
<!-- Node27 -->
<g id="node27" class="node">
<title>Node27</title>
<g id="a_node27"><a xlink:href="Util_8cc.html#a8170ae742eedc980579141210ecb5aa8" target="_top" xlink:title=" ">
<polygon fill="none" stroke="black" points="590,-114.5 590,-133.5 640,-133.5 640,-114.5 590,-114.5"/>
<text text-anchor="middle" x="615" y="-121.5" font-family="Helvetica,sans-Serif" font-size="10.00">extend</text>
</a>
</g>
</g>
<!-- Node26&#45;&gt;Node27 -->
<g id="edge28" class="edge">
<title>Node26&#45;&gt;Node27</title>
<path fill="none" stroke="midnightblue" d="M535.28,-124C550.46,-124 566.22,-124 579.61,-124"/>
<polygon fill="midnightblue" stroke="midnightblue" points="579.78,-127.5 589.78,-124 579.78,-120.5 579.78,-127.5"/>
</g>
</g>
</svg>
