<?xml version="1.0" encoding="UTF-8" standalone="no"?>
<!DOCTYPE svg PUBLIC "-//W3C//DTD SVG 1.1//EN"
 "http://www.w3.org/Graphics/SVG/1.1/DTD/svg11.dtd">
<!-- Generated by graphviz version 2.43.0 (0)
 -->
<!-- Title: FastConverter::copyAndCalculate Pages: 1 -->
<svg width="663pt" height="868pt"
 viewBox="0.00 0.00 663.00 868.00" xmlns="http://www.w3.org/2000/svg" xmlns:xlink="http://www.w3.org/1999/xlink">
<g id="graph0" class="graph" transform="scale(1 1) rotate(0) translate(4 864)">
<title>FastConverter::copyAndCalculate</title>
<!-- Node1 -->
<g id="node1" class="node">
<title>Node1</title>
<g id="a_node1"><a xlink:title=" ">
<polygon fill="#bfbfbf" stroke="black" points="0,-386.5 0,-405.5 178,-405.5 178,-386.5 0,-386.5"/>
<text text-anchor="middle" x="89" y="-393.5" font-family="Helvetica,sans-Serif" font-size="10.00">FastConverter::copyAndCalculate</text>
</a>
</g>
</g>
<!-- Node2 -->
<g id="node2" class="node">
<title>Node2</title>
<g id="a_node2"><a xlink:href="structMipMaps.html#ae1239035de009bfe349402884f3a0cd7" target="_top" xlink:title=" ">
<polygon fill="none" stroke="black" points="231,-840.5 231,-859.5 355,-859.5 355,-840.5 231,-840.5"/>
<text text-anchor="middle" x="293" y="-847.5" font-family="Helvetica,sans-Serif" font-size="10.00">MipMaps::accumulate</text>
</a>
</g>
</g>
<!-- Node1&#45;&gt;Node2 -->
<g id="edge1" class="edge">
<title>Node1&#45;&gt;Node2</title>
<path fill="none" stroke="midnightblue" d="M91.45,-405.84C100.27,-464.53 148.63,-768.12 214,-831 216.41,-833.32 219.05,-835.37 221.87,-837.18"/>
<polygon fill="midnightblue" stroke="midnightblue" points="220.28,-840.3 230.75,-841.94 223.58,-834.13 220.28,-840.3"/>
</g>
<!-- Node3 -->
<g id="node3" class="node">
<title>Node3</title>
<g id="a_node3"><a xlink:href="structStatsCounter.html#a7f3263e39dd0c0958aca44c4971921b9" target="_top" xlink:title=" ">
<polygon fill="none" stroke="black" points="221.5,-791 221.5,-821 364.5,-821 364.5,-791 221.5,-791"/>
<text text-anchor="start" x="229.5" y="-809" font-family="Helvetica,sans-Serif" font-size="10.00">StatsCounter::accumulate</text>
<text text-anchor="middle" x="293" y="-798" font-family="Helvetica,sans-Serif" font-size="10.00">Finite</text>
</a>
</g>
</g>
<!-- Node1&#45;&gt;Node3 -->
<g id="edge2" class="edge">
<title>Node1&#45;&gt;Node3</title>
<path fill="none" stroke="midnightblue" d="M90.04,-405.73C90.79,-454.01 100.58,-669.97 214,-782 214.96,-782.95 215.96,-783.87 217,-784.74"/>
<polygon fill="midnightblue" stroke="midnightblue" points="215.32,-787.85 225.49,-790.79 219.38,-782.14 215.32,-787.85"/>
</g>
<!-- Node4 -->
<g id="node4" class="node">
<title>Node4</title>
<g id="a_node4"><a xlink:href="structStatsCounter.html#ae46f62677162147d2983578f44d0daa1" target="_top" xlink:title=" ">
<polygon fill="none" stroke="black" points="221.5,-742 221.5,-772 364.5,-772 364.5,-742 221.5,-742"/>
<text text-anchor="start" x="229.5" y="-760" font-family="Helvetica,sans-Serif" font-size="10.00">StatsCounter::accumulate</text>
<text text-anchor="middle" x="293" y="-749" font-family="Helvetica,sans-Serif" font-size="10.00">FiniteLazy</text>
</a>
</g>
</g>
<!-- Node1&#45;&gt;Node4 -->
<g id="edge3" class="edge">
<title>Node1&#45;&gt;Node4</title>
<path fill="none" stroke="midnightblue" d="M90.56,-405.68C93.63,-450.14 112.4,-636.75 214,-733 215.12,-734.07 216.3,-735.08 217.51,-736.06"/>
<polygon fill="midnightblue" stroke="midnightblue" points="215.79,-739.12 226.02,-741.85 219.72,-733.33 215.79,-739.12"/>
</g>
<!-- Node5 -->
<g id="node5" class="node">
<title>Node5</title>
<g id="a_node5"><a xlink:href="structStatsCounter.html#a40e77c71ae8251eeb3fceca1e8377d77" target="_top" xlink:title=" ">
<polygon fill="none" stroke="black" points="221.5,-693 221.5,-723 364.5,-723 364.5,-693 221.5,-693"/>
<text text-anchor="start" x="229.5" y="-711" font-family="Helvetica,sans-Serif" font-size="10.00">StatsCounter::accumulate</text>
<text text-anchor="middle" x="293" y="-700" font-family="Helvetica,sans-Serif" font-size="10.00">FiniteLazyFirst</text>
</a>
</g>
</g>
<!-- Node1&#45;&gt;Node5 -->
<g id="edge4" class="edge">
<title>Node1&#45;&gt;Node5</title>
<path fill="none" stroke="midnightblue" d="M91.26,-405.56C97.04,-445.67 124.74,-602.06 214,-683 215.71,-684.55 217.52,-686.01 219.41,-687.37"/>
<polygon fill="midnightblue" stroke="midnightblue" points="217.78,-690.48 228.12,-692.8 221.48,-684.54 217.78,-690.48"/>
</g>
<!-- Node6 -->
<g id="node6" class="node">
<title>Node6</title>
<g id="a_node6"><a xlink:href="structStats.html#af9cdfe1bbc46996391d3c91e13e5144b" target="_top" xlink:title=" ">
<polygon fill="none" stroke="black" points="215.5,-654.5 215.5,-673.5 370.5,-673.5 370.5,-654.5 215.5,-654.5"/>
<text text-anchor="middle" x="293" y="-661.5" font-family="Helvetica,sans-Serif" font-size="10.00">Stats::accumulateHistogram</text>
</a>
</g>
</g>
<!-- Node1&#45;&gt;Node6 -->
<g id="edge5" class="edge">
<title>Node1&#45;&gt;Node6</title>
<path fill="none" stroke="midnightblue" d="M91.79,-405.71C99.22,-443.08 131.17,-578.85 214,-645 216.1,-646.67 218.32,-648.2 220.64,-649.6"/>
<polygon fill="midnightblue" stroke="midnightblue" points="219.48,-652.94 229.98,-654.36 222.66,-646.7 219.48,-652.94"/>
</g>
<!-- Node7 -->
<g id="node7" class="node">
<title>Node7</title>
<g id="a_node7"><a xlink:href="structStatsCounter.html#a4e340c91159ae365eae26187f80fa877" target="_top" xlink:title=" ">
<polygon fill="none" stroke="black" points="221.5,-605 221.5,-635 364.5,-635 364.5,-605 221.5,-605"/>
<text text-anchor="start" x="229.5" y="-623" font-family="Helvetica,sans-Serif" font-size="10.00">StatsCounter::accumulate</text>
<text text-anchor="middle" x="293" y="-612" font-family="Helvetica,sans-Serif" font-size="10.00">NonFinite</text>
</a>
</g>
</g>
<!-- Node1&#45;&gt;Node7 -->
<g id="edge6" class="edge">
<title>Node1&#45;&gt;Node7</title>
<path fill="none" stroke="midnightblue" d="M93.17,-405.62C104.26,-437.75 144.46,-542.34 214,-596 215.82,-597.41 217.73,-598.73 219.7,-599.98"/>
<polygon fill="midnightblue" stroke="midnightblue" points="218.26,-603.18 228.7,-604.97 221.65,-597.06 218.26,-603.18"/>
</g>
<!-- Node8 -->
<g id="node8" class="node">
<title>Node8</title>
<g id="a_node8"><a xlink:href="structStats.html#a1306832f91002d4e848b497f930117ad" target="_top" xlink:title=" ">
<polygon fill="none" stroke="black" points="225.5,-556 225.5,-586 360.5,-586 360.5,-556 225.5,-556"/>
<text text-anchor="start" x="233.5" y="-574" font-family="Helvetica,sans-Serif" font-size="10.00">Stats::accumulatePartial</text>
<text text-anchor="middle" x="293" y="-563" font-family="Helvetica,sans-Serif" font-size="10.00">Histogram</text>
</a>
</g>
</g>
<!-- Node1&#45;&gt;Node8 -->
<g id="edge7" class="edge">
<title>Node1&#45;&gt;Node8</title>
<path fill="none" stroke="midnightblue" d="M95.26,-405.79C110.17,-432.58 155.41,-507.69 214,-547 216.29,-548.54 218.69,-549.98 221.16,-551.33"/>
<polygon fill="midnightblue" stroke="midnightblue" points="219.85,-554.59 230.37,-555.85 222.93,-548.31 219.85,-554.59"/>
</g>
<!-- Node9 -->
<g id="node9" class="node">
<title>Node9</title>
<g id="a_node9"><a xlink:href="structStats.html#aa0a825cd6a5b3881c4a3ca466576fded" target="_top" xlink:title=" ">
<polygon fill="none" stroke="black" points="223,-507 223,-537 363,-537 363,-507 223,-507"/>
<text text-anchor="start" x="231" y="-525" font-family="Helvetica,sans-Serif" font-size="10.00">Stats::accumulateStatsTo</text>
<text text-anchor="middle" x="293" y="-514" font-family="Helvetica,sans-Serif" font-size="10.00">Counter</text>
</a>
</g>
</g>
<!-- Node1&#45;&gt;Node9 -->
<g id="edge8" class="edge">
<title>Node1&#45;&gt;Node9</title>
<path fill="none" stroke="midnightblue" d="M99.36,-405.77C118.89,-425.64 166.16,-471.06 214,-497 217.97,-499.16 222.17,-501.16 226.46,-503.02"/>
<polygon fill="midnightblue" stroke="midnightblue" points="225.39,-506.36 235.97,-506.86 228.01,-499.87 225.39,-506.36"/>
</g>
<!-- Node10 -->
<g id="node10" class="node">
<title>Node10</title>
<g id="a_node10"><a xlink:href="structMipMaps.html#aa2506b4101051310fa0e3b85da8eb6e2" target="_top" xlink:title=" ">
<polygon fill="none" stroke="black" points="237.5,-468.5 237.5,-487.5 348.5,-487.5 348.5,-468.5 237.5,-468.5"/>
<text text-anchor="middle" x="293" y="-475.5" font-family="Helvetica,sans-Serif" font-size="10.00">MipMaps::calculate</text>
</a>
</g>
</g>
<!-- Node1&#45;&gt;Node10 -->
<g id="edge9" class="edge">
<title>Node1&#45;&gt;Node10</title>
<path fill="none" stroke="midnightblue" d="M105.9,-405.6C128.99,-419.17 173.46,-444 214,-459 220.83,-461.53 228.12,-463.82 235.4,-465.86"/>
<polygon fill="midnightblue" stroke="midnightblue" points="234.71,-469.29 245.28,-468.48 236.51,-462.53 234.71,-469.29"/>
</g>
<!-- Node11 -->
<g id="node11" class="node">
<title>Node11</title>
<g id="a_node11"><a xlink:href="structStats.html#a9a2fbf756586a53e577d65b0e2108694" target="_top" xlink:title=" ">
<polygon fill="none" stroke="black" points="214.5,-430.5 214.5,-449.5 371.5,-449.5 371.5,-430.5 214.5,-430.5"/>
<text text-anchor="middle" x="293" y="-437.5" font-family="Helvetica,sans-Serif" font-size="10.00">Stats::clearHistogramBuffers</text>
</a>
</g>
</g>
<!-- Node1&#45;&gt;Node11 -->
<g id="edge10" class="edge">
<title>Node1&#45;&gt;Node11</title>
<path fill="none" stroke="midnightblue" d="M133.83,-405.55C164.54,-412.24 205.75,-421.21 238.41,-428.33"/>
<polygon fill="midnightblue" stroke="midnightblue" points="237.74,-431.76 248.25,-430.47 239.23,-424.92 237.74,-431.76"/>
</g>
<!-- Node13 -->
<g id="node13" class="node">
<title>Node13</title>
<g id="a_node13"><a xlink:href="structStats.html#a72232bc7c02bb605fc415af0f25f6c2f" target="_top" xlink:title=" ">
<polygon fill="none" stroke="black" points="226,-381 226,-411 360,-411 360,-381 226,-381"/>
<text text-anchor="start" x="234" y="-399" font-family="Helvetica,sans-Serif" font-size="10.00">Stats::consolidatePartial</text>
<text text-anchor="middle" x="293" y="-388" font-family="Helvetica,sans-Serif" font-size="10.00">Histogram</text>
</a>
</g>
</g>
<!-- Node1&#45;&gt;Node13 -->
<g id="edge12" class="edge">
<title>Node1&#45;&gt;Node13</title>
<path fill="none" stroke="midnightblue" d="M178.01,-396C190.55,-396 203.37,-396 215.66,-396"/>
<polygon fill="midnightblue" stroke="midnightblue" points="215.85,-399.5 225.85,-396 215.85,-392.5 215.85,-399.5"/>
</g>
<!-- Node14 -->
<g id="node14" class="node">
<title>Node14</title>
<g id="a_node14"><a xlink:href="structStats.html#a867eaa3876e3f1034e605cca66f9224a" target="_top" xlink:title=" ">
<polygon fill="none" stroke="black" points="214,-342.5 214,-361.5 372,-361.5 372,-342.5 214,-342.5"/>
<text text-anchor="middle" x="293" y="-349.5" font-family="Helvetica,sans-Serif" font-size="10.00">Stats::copyStatsFromCounter</text>
</a>
</g>
</g>
<!-- Node1&#45;&gt;Node14 -->
<g id="edge13" class="edge">
<title>Node1&#45;&gt;Node14</title>
<path fill="none" stroke="midnightblue" d="M133.83,-386.45C164.54,-379.76 205.75,-370.79 238.41,-363.67"/>
<polygon fill="midnightblue" stroke="midnightblue" points="239.23,-367.08 248.25,-361.53 237.74,-360.24 239.23,-367.08"/>
</g>
<!-- Node15 -->
<g id="node15" class="node">
<title>Node15</title>
<g id="a_node15"><a xlink:href="structMipMaps.html#a2dc892b175561f17a8dca34f562bdee5" target="_top" xlink:title=" ">
<polygon fill="none" stroke="black" points="227,-266.5 227,-285.5 359,-285.5 359,-266.5 227,-266.5"/>
<text text-anchor="middle" x="293" y="-273.5" font-family="Helvetica,sans-Serif" font-size="10.00">MipMaps::createBuffers</text>
</a>
</g>
</g>
<!-- Node1&#45;&gt;Node15 -->
<g id="edge14" class="edge">
<title>Node1&#45;&gt;Node15</title>
<path fill="none" stroke="midnightblue" d="M98.92,-386.26C117.99,-366.03 165.02,-319.34 214,-295 218.84,-292.6 224,-290.49 229.27,-288.63"/>
<polygon fill="midnightblue" stroke="midnightblue" points="230.38,-291.95 238.84,-285.57 228.25,-285.28 230.38,-291.95"/>
</g>
<!-- Node17 -->
<g id="node17" class="node">
<title>Node17</title>
<g id="a_node17"><a xlink:href="structStats.html#aa23cf0c75f62b2f900f38fe7f2a112c9" target="_top" xlink:title=" ">
<polygon fill="none" stroke="black" points="236.5,-304.5 236.5,-323.5 349.5,-323.5 349.5,-304.5 236.5,-304.5"/>
<text text-anchor="middle" x="293" y="-311.5" font-family="Helvetica,sans-Serif" font-size="10.00">Stats::createBuffers</text>
</a>
</g>
</g>
<!-- Node1&#45;&gt;Node17 -->
<g id="edge16" class="edge">
<title>Node1&#45;&gt;Node17</title>
<path fill="none" stroke="midnightblue" d="M105.9,-386.4C128.99,-372.83 173.46,-348 214,-333 220.83,-330.47 228.12,-328.18 235.4,-326.14"/>
<polygon fill="midnightblue" stroke="midnightblue" points="236.51,-329.47 245.28,-323.52 234.71,-322.71 236.51,-329.47"/>
</g>
<!-- Node18 -->
<g id="node18" class="node">
<title>Node18</title>
<g id="a_node18"><a xlink:href="Util_8cc.html#a21d336ae79f0bd1dcde9d229e7cf0e9e" target="_top" xlink:title=" ">
<polygon fill="none" stroke="black" points="253.5,-228.5 253.5,-247.5 332.5,-247.5 332.5,-228.5 253.5,-228.5"/>
<text text-anchor="middle" x="293" y="-235.5" font-family="Helvetica,sans-Serif" font-size="10.00">readFitsData</text>
</a>
</g>
</g>
<!-- Node1&#45;&gt;Node18 -->
<g id="edge18" class="edge">
<title>Node1&#45;&gt;Node18</title>
<path fill="none" stroke="midnightblue" d="M95.58,-386.46C110.95,-361.07 156.61,-291.45 214,-257 222.87,-251.67 233.16,-247.84 243.3,-245.08"/>
<polygon fill="midnightblue" stroke="midnightblue" points="244.42,-248.41 253.32,-242.66 242.78,-241.6 244.42,-248.41"/>
</g>
<!-- Node19 -->
<g id="node19" class="node">
<title>Node19</title>
<g id="a_node19"><a xlink:href="structMipMaps.html#a2a6d05ff95d38766a9a883e98e1dca4f" target="_top" xlink:title=" ">
<polygon fill="none" stroke="black" points="230,-190.5 230,-209.5 356,-209.5 356,-190.5 230,-190.5"/>
<text text-anchor="middle" x="293" y="-197.5" font-family="Helvetica,sans-Serif" font-size="10.00">MipMaps::resetBuffers</text>
</a>
</g>
</g>
<!-- Node1&#45;&gt;Node19 -->
<g id="edge19" class="edge">
<title>Node1&#45;&gt;Node19</title>
<path fill="none" stroke="midnightblue" d="M93.91,-386.09C106.38,-355.81 148.32,-263.87 214,-219 216.91,-217.01 220,-215.23 223.22,-213.64"/>
<polygon fill="midnightblue" stroke="midnightblue" points="224.74,-216.79 232.54,-209.62 221.97,-210.37 224.74,-216.79"/>
</g>
<!-- Node20 -->
<g id="node20" class="node">
<title>Node20</title>
<g id="a_node20"><a xlink:href="structTimer.html#af8cfe574b7520624a579653a720b87e8" target="_top" xlink:title=" ">
<polygon fill="none" stroke="black" points="256,-152.5 256,-171.5 330,-171.5 330,-152.5 256,-152.5"/>
<text text-anchor="middle" x="293" y="-159.5" font-family="Helvetica,sans-Serif" font-size="10.00">Timer::start</text>
</a>
</g>
</g>
<!-- Node1&#45;&gt;Node20 -->
<g id="edge20" class="edge">
<title>Node1&#45;&gt;Node20</title>
<path fill="none" stroke="midnightblue" d="M92.55,-386.46C102.11,-352.57 139.19,-237.09 214,-181 223.14,-174.15 234.41,-169.74 245.52,-166.91"/>
<polygon fill="midnightblue" stroke="midnightblue" points="246.58,-170.26 255.62,-164.73 245.1,-163.42 246.58,-170.26"/>
</g>
<!-- Node23 -->
<g id="node23" class="node">
<title>Node23</title>
<g id="a_node23"><a xlink:href="Util_8cc.html#a7f2c6ac257cf9618bce2b682aff786b1" target="_top" xlink:title=" ">
<polygon fill="none" stroke="black" points="263,-114.5 263,-133.5 323,-133.5 323,-114.5 263,-114.5"/>
<text text-anchor="middle" x="293" y="-121.5" font-family="Helvetica,sans-Serif" font-size="10.00">trimAxes</text>
</a>
</g>
</g>
<!-- Node1&#45;&gt;Node23 -->
<g id="edge23" class="edge">
<title>Node1&#45;&gt;Node23</title>
<path fill="none" stroke="midnightblue" d="M91.69,-386.4C98.83,-348.81 130.12,-210.42 214,-143 224.91,-134.23 239.26,-129.42 252.67,-126.81"/>
<polygon fill="midnightblue" stroke="midnightblue" points="253.35,-130.24 262.68,-125.21 252.25,-123.33 253.35,-130.24"/>
</g>
<!-- Node24 -->
<g id="node24" class="node">
<title>Node24</title>
<g id="a_node24"><a xlink:href="structStats.html#ac39934ff1c0817c2416411a34b856f66" target="_top" xlink:title=" ">
<polygon fill="none" stroke="black" points="257,-76.5 257,-95.5 329,-95.5 329,-76.5 257,-76.5"/>
<text text-anchor="middle" x="293" y="-83.5" font-family="Helvetica,sans-Serif" font-size="10.00">Stats::write</text>
</a>
</g>
</g>
<!-- Node1&#45;&gt;Node24 -->
<g id="edge24" class="edge">
<title>Node1&#45;&gt;Node24</title>
<path fill="none" stroke="midnightblue" d="M91.03,-386.42C95.94,-345.51 120.82,-184.04 214,-105 223.13,-97.26 234.9,-92.57 246.53,-89.77"/>
<polygon fill="midnightblue" stroke="midnightblue" points="247.51,-93.14 256.63,-87.75 246.14,-86.27 247.51,-93.14"/>
</g>
<!-- Node26 -->
<g id="node26" class="node">
<title>Node26</title>
<g id="a_node26"><a xlink:href="Util_8cc.html#a957a4202599a841d7f7f34ef7c938ed2" target="_top" xlink:title=" ">
<polygon fill="none" stroke="black" points="567,-76.5 567,-95.5 655,-95.5 655,-76.5 567,-76.5"/>
<text text-anchor="middle" x="611" y="-83.5" font-family="Helvetica,sans-Serif" font-size="10.00">writeHdf5Data</text>
</a>
</g>
</g>
<!-- Node1&#45;&gt;Node26 -->
<g id="edge31" class="edge">
<title>Node1&#45;&gt;Node26</title>
<path fill="none" stroke="midnightblue" d="M90.04,-386.44C90.81,-340.93 100.8,-145.31 214,-67 271.93,-26.92 461.05,-58.71 531,-67 543.26,-68.45 556.36,-71.13 568.31,-74.03"/>
<polygon fill="midnightblue" stroke="midnightblue" points="567.47,-77.43 578.02,-76.49 569.19,-70.64 567.47,-77.43"/>
</g>
<!-- Node29 -->
<g id="node29" class="node">
<title>Node29</title>
<g id="a_node29"><a xlink:href="structMipMaps.html#a41b4f4458fc0ad329657f5f990c44363" target="_top" xlink:title=" ">
<polygon fill="none" stroke="black" points="247,-0.5 247,-19.5 339,-19.5 339,-0.5 247,-0.5"/>
<text text-anchor="middle" x="293" y="-7.5" font-family="Helvetica,sans-Serif" font-size="10.00">MipMaps::write</text>
</a>
</g>
</g>
<!-- Node1&#45;&gt;Node29 -->
<g id="edge30" class="edge">
<title>Node1&#45;&gt;Node29</title>
<path fill="none" stroke="midnightblue" d="M90.28,-386.25C92.15,-339.72 106.42,-138.25 214,-34 220.58,-27.63 228.8,-22.94 237.43,-19.5"/>
<polygon fill="midnightblue" stroke="midnightblue" points="238.58,-22.81 246.88,-16.23 236.29,-16.19 238.58,-22.81"/>
</g>
<!-- Node12 -->
<g id="node12" class="node">
<title>Node12</title>
<g id="a_node12"><a xlink:href="Util_8cc.html#a44138b2ce897aad07f85d5e13bad9682" target="_top" xlink:title=" ">
<polygon fill="none" stroke="black" points="443,-367.5 443,-386.5 496,-386.5 496,-367.5 443,-367.5"/>
<text text-anchor="middle" x="469.5" y="-374.5" font-family="Helvetica,sans-Serif" font-size="10.00">product</text>
</a>
</g>
</g>
<!-- Node11&#45;&gt;Node12 -->
<g id="edge11" class="edge">
<title>Node11&#45;&gt;Node12</title>
<path fill="none" stroke="midnightblue" d="M339.38,-430.48C350.18,-427.79 361.6,-424.6 372,-421 395.96,-412.7 422.07,-400.6 441.09,-391.18"/>
<polygon fill="midnightblue" stroke="midnightblue" points="442.7,-394.29 450.07,-386.67 439.56,-388.03 442.7,-394.29"/>
</g>
<!-- Node16 -->
<g id="node16" class="node">
<title>Node16</title>
<g id="a_node16"><a xlink:href="Util_8cc.html#abf3f2f44765d44aa9bdb97699f569b14" target="_top" xlink:title=" ">
<polygon fill="none" stroke="black" points="439,-266.5 439,-285.5 500,-285.5 500,-266.5 439,-266.5"/>
<text text-anchor="middle" x="469.5" y="-273.5" font-family="Helvetica,sans-Serif" font-size="10.00">mipDims</text>
</a>
</g>
</g>
<!-- Node15&#45;&gt;Node16 -->
<g id="edge15" class="edge">
<title>Node15&#45;&gt;Node16</title>
<path fill="none" stroke="midnightblue" d="M359.47,-276C382.7,-276 408.12,-276 428.57,-276"/>
<polygon fill="midnightblue" stroke="midnightblue" points="428.77,-279.5 438.77,-276 428.77,-272.5 428.77,-279.5"/>
</g>
<!-- Node17&#45;&gt;Node12 -->
<g id="edge17" class="edge">
<title>Node17&#45;&gt;Node12</title>
<path fill="none" stroke="midnightblue" d="M339.38,-323.52C350.18,-326.21 361.6,-329.4 372,-333 395.96,-341.3 422.07,-353.4 441.09,-362.82"/>
<polygon fill="midnightblue" stroke="midnightblue" points="439.56,-365.97 450.07,-367.33 442.7,-359.71 439.56,-365.97"/>
</g>
<!-- Node21 -->
<g id="node21" class="node">
<title>Node21</title>
<g id="a_node21"><a xlink:href="structTimerCounter.html#a85a66d3086790b9f2bb18d8e714388cf" target="_top" xlink:title=" ">
<polygon fill="none" stroke="black" points="413.5,-152.5 413.5,-171.5 525.5,-171.5 525.5,-152.5 413.5,-152.5"/>
<text text-anchor="middle" x="469.5" y="-159.5" font-family="Helvetica,sans-Serif" font-size="10.00">TimerCounter::start</text>
</a>
</g>
</g>
<!-- Node20&#45;&gt;Node21 -->
<g id="edge21" class="edge">
<title>Node20&#45;&gt;Node21</title>
<path fill="none" stroke="midnightblue" d="M330.16,-162C351.3,-162 378.63,-162 403.4,-162"/>
<polygon fill="midnightblue" stroke="midnightblue" points="403.48,-165.5 413.48,-162 403.48,-158.5 403.48,-165.5"/>
</g>
<!-- Node22 -->
<g id="node22" class="node">
<title>Node22</title>
<g id="a_node22"><a xlink:href="structTimerCounter.html#a063980125f92baa0c122454502b876e8" target="_top" xlink:title=" ">
<polygon fill="none" stroke="black" points="414.5,-190.5 414.5,-209.5 524.5,-209.5 524.5,-190.5 414.5,-190.5"/>
<text text-anchor="middle" x="469.5" y="-197.5" font-family="Helvetica,sans-Serif" font-size="10.00">TimerCounter::stop</text>
</a>
</g>
</g>
<!-- Node20&#45;&gt;Node22 -->
<g id="edge22" class="edge">
<title>Node20&#45;&gt;Node22</title>
<path fill="none" stroke="midnightblue" d="M330.16,-169.87C354.61,-175.2 387.32,-182.32 414.8,-188.31"/>
<polygon fill="midnightblue" stroke="midnightblue" points="414.15,-191.75 424.66,-190.45 415.64,-184.91 414.15,-191.75"/>
</g>
<!-- Node25 -->
<g id="node25" class="node">
<title>Node25</title>
<g id="a_node25"><a xlink:href="structStats.html#afa9ca35960c7a71ef00827b491dbe348" target="_top" xlink:title=" ">
<polygon fill="none" stroke="black" points="420.5,-76.5 420.5,-95.5 518.5,-95.5 518.5,-76.5 420.5,-76.5"/>
<text text-anchor="middle" x="469.5" y="-83.5" font-family="Helvetica,sans-Serif" font-size="10.00">Stats::writeBasic</text>
</a>
</g>
</g>
<!-- Node24&#45;&gt;Node25 -->
<g id="edge25" class="edge">
<title>Node24&#45;&gt;Node25</title>
<path fill="none" stroke="midnightblue" d="M329.31,-86C352.54,-86 383.48,-86 410.29,-86"/>
<polygon fill="midnightblue" stroke="midnightblue" points="410.34,-89.5 420.34,-86 410.34,-82.5 410.34,-89.5"/>
</g>
<!-- Node27 -->
<g id="node27" class="node">
<title>Node27</title>
<g id="a_node27"><a xlink:href="structStats.html#afbfc12603fb2ed178fc8e77dc1a65708" target="_top" xlink:title=" ">
<polygon fill="none" stroke="black" points="408,-114.5 408,-133.5 531,-133.5 531,-114.5 408,-114.5"/>
<text text-anchor="middle" x="469.5" y="-121.5" font-family="Helvetica,sans-Serif" font-size="10.00">Stats::writeHistogram</text>
</a>
</g>
</g>
<!-- Node24&#45;&gt;Node27 -->
<g id="edge27" class="edge">
<title>Node24&#45;&gt;Node27</title>
<path fill="none" stroke="midnightblue" d="M329.31,-93.69C353.79,-99.02 386.85,-106.22 414.6,-112.26"/>
<polygon fill="midnightblue" stroke="midnightblue" points="414.05,-115.72 424.56,-114.43 415.54,-108.88 414.05,-115.72"/>
</g>
<!-- Node25&#45;&gt;Node26 -->
<g id="edge26" class="edge">
<title>Node25&#45;&gt;Node26</title>
<path fill="none" stroke="midnightblue" d="M518.51,-86C530.7,-86 543.88,-86 556.33,-86"/>
<polygon fill="midnightblue" stroke="midnightblue" points="556.58,-89.5 566.58,-86 556.58,-82.5 556.58,-89.5"/>
</g>
<!-- Node27&#45;&gt;Node26 -->
<g id="edge29" class="edge">
<title>Node27&#45;&gt;Node26</title>
<path fill="none" stroke="midnightblue" d="M505.7,-114.41C523.71,-109.51 545.83,-103.48 565.06,-98.24"/>
<polygon fill="midnightblue" stroke="midnightblue" points="566.08,-101.59 574.81,-95.59 564.24,-94.84 566.08,-101.59"/>
</g>
<!-- Node28 -->
<g id="node28" class="node">
<title>Node28</title>
<g id="a_node28"><a xlink:href="Util_8cc.html#a8170ae742eedc980579141210ecb5aa8" target="_top" xlink:title=" ">
<polygon fill="none" stroke="black" points="586,-114.5 586,-133.5 636,-133.5 636,-114.5 586,-114.5"/>
<text text-anchor="middle" x="611" y="-121.5" font-family="Helvetica,sans-Serif" font-size="10.00">extend</text>
</a>
</g>
</g>
<!-- Node27&#45;&gt;Node28 -->
<g id="edge28" class="edge">
<title>Node27&#45;&gt;Node28</title>
<path fill="none" stroke="midnightblue" d="M531.28,-124C546.46,-124 562.22,-124 575.61,-124"/>
<polygon fill="midnightblue" stroke="midnightblue" points="575.78,-127.5 585.78,-124 575.78,-120.5 575.78,-127.5"/>
</g>
</g>
</svg>
