<?xml version="1.0" encoding="UTF-8" standalone="no"?>
<!DOCTYPE svg PUBLIC "-//W3C//DTD SVG 1.1//EN"
 "http://www.w3.org/Graphics/SVG/1.1/DTD/svg11.dtd">
<!-- Generated by graphviz version 2.43.0 (0)
 -->
<!-- Title: Converter::convert Pages: 1 -->
<!--zoomable 446 -->
<svg id="main" version="1.1" xmlns="http://www.w3.org/2000/svg" xmlns:xlink="http://www.w3.org/1999/xlink" xml:space="preserve" onload="init(evt)">
<style type="text/css"><![CDATA[
.edge:hover path { stroke: red; }
.edge:hover polygon { stroke: red; fill: red; }
]]></style>
<script type="text/javascript"><![CDATA[
var edges = document.getElementsByTagName('g');
if (edges && edges.length) {
  for (var i=0;i<edges.length;i++) {
    if (edges[i].id.substr(0,4)=='edge') {
      edges[i].setAttribute('class','edge');
    }
  }
}
]]></script>
        <defs>
                <circle id="rim" cx="0" cy="0" r="7"/>
                <circle id="rim2" cx="0" cy="0" r="3.5"/>
                <g id="zoomPlus">
                        <use xlink:href="#rim" fill="#404040">
                                <set attributeName="fill" to="#808080" begin="zoomplus.mouseover" end="zoomplus.mouseout"/>
                        </use>
                        <path d="M-4,0h8M0,-4v8" fill="none" stroke="white" stroke-width="1.5" pointer-events="none"/>
                </g>
                <g id="zoomMin">
                        <use xlink:href="#rim" fill="#404040">
                                <set attributeName="fill" to="#808080" begin="zoomminus.mouseover" end="zoomminus.mouseout"/>
                        </use>
                        <path d="M-4,0h8" fill="none" stroke="white" stroke-width="1.5" pointer-events="none"/>
                </g>
                <g id="dirArrow">
                        <path fill="none" stroke="white" stroke-width="1.5" d="M0,-3.0v7 M-2.5,-0.5L0,-3.0L2.5,-0.5"/>
                </g>
               <g id="resetDef">
                       <use xlink:href="#rim2" fill="#404040">
                               <set attributeName="fill" to="#808080" begin="reset.mouseover" end="reset.mouseout"/>
                       </use>
               </g>
        </defs>

<script type="text/javascript">
var viewWidth = 629;
var viewHeight = 446;
var sectionId = 'dynsection-5';
</script>
<script xlink:href="svgpan.js"/>
<svg id="graph" class="graph">
<g id="viewport">
<title>Converter::convert</title>
<!-- Node1 -->
<g id="node1" class="node">
<title>Node1</title>
<g id="a_node1"><a xlink:title=" ">
<polygon fill="#bfbfbf" stroke="black" points="0,-209.5 0,-228.5 107,-228.5 107,-209.5 0,-209.5"/>
<text text-anchor="middle" x="53.5" y="-216.5" font-family="Helvetica,sans-Serif" font-size="10.00">Converter::convert</text>
</a>
</g>
</g>
<!-- Node2 -->
<g id="node2" class="node">
<title>Node2</title>
<g id="a_node2"><a xlink:href="classConverter.html#afdfd2d6327c5c937a453d3717c5154ab" target="_top" xlink:title=" ">
<polygon fill="none" stroke="black" points="143,-418.5 143,-437.5 301,-437.5 301,-418.5 143,-418.5"/>
<text text-anchor="middle" x="222" y="-425.5" font-family="Helvetica,sans-Serif" font-size="10.00">Converter::copyAndCalculate</text>
</a>
</g>
</g>
<!-- Node1&#45;&gt;Node2 -->
<g id="edge1" class="edge">
<title>Node1&#45;&gt;Node2</title>
<path fill="none" stroke="midnightblue" d="M56,-228.68C61.4,-260.03 82.79,-359.62 143,-409 145.07,-410.7 147.28,-412.25 149.58,-413.67"/>
<polygon fill="midnightblue" stroke="midnightblue" points="148.39,-417 158.88,-418.49 151.61,-410.78 148.39,-417"/>
</g>
<!-- Node3 -->
<g id="node3" class="node">
<title>Node3</title>
<g id="a_node3"><a xlink:href="structMipMaps.html#a70c15557e2d578da4010ab23618a55f8" target="_top" xlink:title=" ">
<polygon fill="none" stroke="black" points="151.5,-380.5 151.5,-399.5 292.5,-399.5 292.5,-380.5 151.5,-380.5"/>
<text text-anchor="middle" x="222" y="-387.5" font-family="Helvetica,sans-Serif" font-size="10.00">MipMaps::createDatasets</text>
</a>
</g>
</g>
<!-- Node1&#45;&gt;Node3 -->
<g id="edge2" class="edge">
<title>Node1&#45;&gt;Node3</title>
<path fill="none" stroke="midnightblue" d="M57.52,-228.54C66.27,-254.64 94.19,-327.83 143,-366 148.4,-370.22 154.54,-373.71 160.96,-376.58"/>
<polygon fill="midnightblue" stroke="midnightblue" points="159.91,-379.93 170.49,-380.37 162.49,-373.42 159.91,-379.93"/>
</g>
<!-- Node4 -->
<g id="node4" class="node">
<title>Node4</title>
<g id="a_node4"><a xlink:href="structStats.html#a0c985afe392acd9894a95be91d165158" target="_top" xlink:title=" ">
<polygon fill="none" stroke="black" points="161,-304.5 161,-323.5 283,-323.5 283,-304.5 161,-304.5"/>
<text text-anchor="middle" x="222" y="-311.5" font-family="Helvetica,sans-Serif" font-size="10.00">Stats::createDatasets</text>
</a>
</g>
</g>
<!-- Node1&#45;&gt;Node4 -->
<g id="edge3" class="edge">
<title>Node1&#45;&gt;Node4</title>
<path fill="none" stroke="midnightblue" d="M62.75,-228.56C77.28,-244.78 109.13,-277.61 143,-295 147.61,-297.37 152.52,-299.45 157.56,-301.27"/>
<polygon fill="midnightblue" stroke="midnightblue" points="156.75,-304.69 167.34,-304.48 158.93,-298.04 156.75,-304.69"/>
</g>
<!-- Node5 -->
<g id="node5" class="node">
<title>Node5</title>
<g id="a_node5"><a xlink:href="Util_8cc.html#a86d0996d4270e7e332c7913164ee8779" target="_top" xlink:title=" ">
<polygon fill="none" stroke="black" points="342,-342.5 342,-361.5 451,-361.5 451,-342.5 342,-342.5"/>
<text text-anchor="middle" x="396.5" y="-349.5" font-family="Helvetica,sans-Serif" font-size="10.00">createHdf5Dataset</text>
</a>
</g>
</g>
<!-- Node1&#45;&gt;Node5 -->
<g id="edge8" class="edge">
<title>Node1&#45;&gt;Node5</title>
<path fill="none" stroke="midnightblue" d="M58.55,-228.54C68.8,-251.35 98.19,-308.93 143,-333 201.21,-364.27 278.12,-365.37 331.69,-360.95"/>
<polygon fill="midnightblue" stroke="midnightblue" points="332.11,-364.42 341.75,-360.03 331.47,-357.45 332.11,-364.42"/>
</g>
<!-- Node9 -->
<g id="node9" class="node">
<title>Node9</title>
<g id="a_node9"><a xlink:href="structTimer.html#a5705f56b34fe5f20acd94da7abe328bf" target="_top" xlink:title=" ">
<polygon fill="none" stroke="black" points="185,-266.5 185,-285.5 259,-285.5 259,-266.5 185,-266.5"/>
<text text-anchor="middle" x="222" y="-273.5" font-family="Helvetica,sans-Serif" font-size="10.00">Timer::print</text>
</a>
</g>
</g>
<!-- Node1&#45;&gt;Node9 -->
<g id="edge9" class="edge">
<title>Node1&#45;&gt;Node9</title>
<path fill="none" stroke="midnightblue" d="M74.17,-228.57C91.86,-236.91 118.73,-248.9 143,-257 153.22,-260.41 164.38,-263.5 174.98,-266.14"/>
<polygon fill="midnightblue" stroke="midnightblue" points="174.38,-269.59 184.92,-268.53 176.02,-262.79 174.38,-269.59"/>
</g>
<!-- Node13 -->
<g id="node13" class="node">
<title>Node13</title>
<g id="a_node13"><a xlink:href="Util_8cc.html#a44138b2ce897aad07f85d5e13bad9682" target="_top" xlink:title=" ">
<polygon fill="none" stroke="black" points="195.5,-228.5 195.5,-247.5 248.5,-247.5 248.5,-228.5 195.5,-228.5"/>
<text text-anchor="middle" x="222" y="-235.5" font-family="Helvetica,sans-Serif" font-size="10.00">product</text>
</a>
</g>
</g>
<!-- Node1&#45;&gt;Node13 -->
<g id="edge14" class="edge">
<title>Node1&#45;&gt;Node13</title>
<path fill="none" stroke="midnightblue" d="M107.18,-225.01C132.51,-227.9 162.23,-231.29 184.95,-233.89"/>
<polygon fill="midnightblue" stroke="midnightblue" points="184.83,-237.4 195.17,-235.05 185.63,-230.44 184.83,-237.4"/>
</g>
<!-- Node14 -->
<g id="node14" class="node">
<title>Node14</title>
<g id="a_node14"><a xlink:href="Util_8cc.html#a498940cbcfdd9029a3b054bb00f8f3bc" target="_top" xlink:title=" ">
<polygon fill="none" stroke="black" points="173,-190.5 173,-209.5 271,-209.5 271,-190.5 173,-190.5"/>
<text text-anchor="middle" x="222" y="-197.5" font-family="Helvetica,sans-Serif" font-size="10.00">readFitsAttribute</text>
</a>
</g>
</g>
<!-- Node1&#45;&gt;Node14 -->
<g id="edge15" class="edge">
<title>Node1&#45;&gt;Node14</title>
<path fill="none" stroke="midnightblue" d="M107.18,-212.99C124.86,-210.97 144.68,-208.71 162.77,-206.65"/>
<polygon fill="midnightblue" stroke="midnightblue" points="163.36,-210.1 172.9,-205.49 162.56,-203.15 163.36,-210.1"/>
</g>
<!-- Node15 -->
<g id="node15" class="node">
<title>Node15</title>
<g id="a_node15"><a xlink:href="Util_8cc.html#af1a11bfd29dbde09db8a5b97db12a698" target="_top" xlink:title=" ">
<polygon fill="none" stroke="black" points="176.5,-152.5 176.5,-171.5 267.5,-171.5 267.5,-152.5 176.5,-152.5"/>
<text text-anchor="middle" x="222" y="-159.5" font-family="Helvetica,sans-Serif" font-size="10.00">readFitsHeader</text>
</a>
</g>
</g>
<!-- Node1&#45;&gt;Node15 -->
<g id="edge16" class="edge">
<title>Node1&#45;&gt;Node15</title>
<path fill="none" stroke="midnightblue" d="M74.17,-209.43C91.86,-201.09 118.73,-189.1 143,-181 150.61,-178.46 158.75,-176.1 166.78,-173.97"/>
<polygon fill="midnightblue" stroke="midnightblue" points="167.68,-177.35 176.5,-171.48 165.94,-170.57 167.68,-177.35"/>
</g>
<!-- Node16 -->
<g id="node16" class="node">
<title>Node16</title>
<g id="a_node16"><a xlink:href="Util_8cc.html#a7e39cb40945ed242e0ab39742ea8c9eb" target="_top" xlink:title=" ">
<polygon fill="none" stroke="black" points="158.5,-114.5 158.5,-133.5 285.5,-133.5 285.5,-114.5 158.5,-114.5"/>
<text text-anchor="middle" x="222" y="-121.5" font-family="Helvetica,sans-Serif" font-size="10.00">readFitsStringAttribute</text>
</a>
</g>
</g>
<!-- Node1&#45;&gt;Node16 -->
<g id="edge17" class="edge">
<title>Node1&#45;&gt;Node16</title>
<path fill="none" stroke="midnightblue" d="M62.75,-209.44C77.28,-193.22 109.13,-160.39 143,-143 147.61,-140.63 152.52,-138.55 157.56,-136.73"/>
<polygon fill="midnightblue" stroke="midnightblue" points="158.93,-139.96 167.34,-133.52 156.75,-133.31 158.93,-139.96"/>
</g>
<!-- Node17 -->
<g id="node17" class="node">
<title>Node17</title>
<g id="a_node17"><a xlink:href="structTimer.html#af8cfe574b7520624a579653a720b87e8" target="_top" xlink:title=" ">
<polygon fill="none" stroke="black" points="185,-76.5 185,-95.5 259,-95.5 259,-76.5 185,-76.5"/>
<text text-anchor="middle" x="222" y="-83.5" font-family="Helvetica,sans-Serif" font-size="10.00">Timer::start</text>
</a>
</g>
</g>
<!-- Node1&#45;&gt;Node17 -->
<g id="edge18" class="edge">
<title>Node1&#45;&gt;Node17</title>
<path fill="none" stroke="midnightblue" d="M59.15,-209.27C70.28,-187.04 100.73,-132.38 143,-105 152.49,-98.85 163.81,-94.69 174.83,-91.88"/>
<polygon fill="midnightblue" stroke="midnightblue" points="175.82,-95.24 184.82,-89.65 174.29,-88.41 175.82,-95.24"/>
</g>
<!-- Node19 -->
<g id="node19" class="node">
<title>Node19</title>
<g id="a_node19"><a xlink:href="Util_8cc.html#a4a78e05131d2390178c5560d12a9f72c" target="_top" xlink:title=" ">
<polygon fill="none" stroke="black" points="187,-38.5 187,-57.5 257,-57.5 257,-38.5 187,-38.5"/>
<text text-anchor="middle" x="222" y="-45.5" font-family="Helvetica,sans-Serif" font-size="10.00">useChunks</text>
</a>
</g>
</g>
<!-- Node1&#45;&gt;Node19 -->
<g id="edge21" class="edge">
<title>Node1&#45;&gt;Node19</title>
<path fill="none" stroke="midnightblue" d="M57.18,-209.37C65.23,-182.33 91.86,-105.18 143,-67 152.86,-59.64 165.2,-55.1 177.13,-52.3"/>
<polygon fill="midnightblue" stroke="midnightblue" points="177.86,-55.72 186.99,-50.34 176.5,-48.86 177.86,-55.72"/>
</g>
<!-- Node20 -->
<g id="node20" class="node">
<title>Node20</title>
<g id="a_node20"><a xlink:href="Util_8cc.html#acb3139dd2873c39fe26bd725ac0de520" target="_top" xlink:title=" ">
<polygon fill="none" stroke="black" points="168.5,-0.5 168.5,-19.5 275.5,-19.5 275.5,-0.5 168.5,-0.5"/>
<text text-anchor="middle" x="222" y="-7.5" font-family="Helvetica,sans-Serif" font-size="10.00">writeHdf5Attribute</text>
</a>
</g>
</g>
<!-- Node1&#45;&gt;Node20 -->
<g id="edge22" class="edge">
<title>Node1&#45;&gt;Node20</title>
<path fill="none" stroke="midnightblue" d="M56,-209.32C61.4,-177.97 82.79,-78.38 143,-29 147.69,-25.15 153.05,-22.06 158.71,-19.58"/>
<polygon fill="midnightblue" stroke="midnightblue" points="160.29,-22.73 168.44,-15.97 157.85,-16.17 160.29,-22.73"/>
</g>
<!-- Node4&#45;&gt;Node5 -->
<g id="edge4" class="edge">
<title>Node4&#45;&gt;Node5</title>
<path fill="none" stroke="midnightblue" d="M266.53,-323.59C289.6,-328.67 318.13,-334.96 342.48,-340.32"/>
<polygon fill="midnightblue" stroke="midnightblue" points="341.77,-343.75 352.28,-342.48 343.27,-336.91 341.77,-343.75"/>
</g>
<!-- Node8 -->
<g id="node8" class="node">
<title>Node8</title>
<g id="a_node8"><a xlink:href="Util_8cc.html#a8170ae742eedc980579141210ecb5aa8" target="_top" xlink:title=" ">
<polygon fill="none" stroke="black" points="371.5,-304.5 371.5,-323.5 421.5,-323.5 421.5,-304.5 371.5,-304.5"/>
<text text-anchor="middle" x="396.5" y="-311.5" font-family="Helvetica,sans-Serif" font-size="10.00">extend</text>
</a>
</g>
</g>
<!-- Node4&#45;&gt;Node8 -->
<g id="edge7" class="edge">
<title>Node4&#45;&gt;Node8</title>
<path fill="none" stroke="midnightblue" d="M283.33,-314C309.38,-314 338.91,-314 361.13,-314"/>
<polygon fill="midnightblue" stroke="midnightblue" points="361.4,-317.5 371.4,-314 361.4,-310.5 361.4,-317.5"/>
</g>
<!-- Node6 -->
<g id="node6" class="node">
<title>Node6</title>
<g id="a_node6"><a xlink:href="Util_8cc.html#a5c5e223a4731b09382b4ae60312119db" target="_top" xlink:title=" ">
<polygon fill="none" stroke="black" points="522.5,-351.5 522.5,-370.5 590.5,-370.5 590.5,-351.5 522.5,-351.5"/>
<text text-anchor="middle" x="556.5" y="-358.5" font-family="Helvetica,sans-Serif" font-size="10.00">hdf5Exists</text>
</a>
</g>
</g>
<!-- Node5&#45;&gt;Node6 -->
<g id="edge5" class="edge">
<title>Node5&#45;&gt;Node6</title>
<path fill="none" stroke="midnightblue" d="M451.43,-355.07C471.2,-356.2 493.29,-357.46 512.02,-358.52"/>
<polygon fill="midnightblue" stroke="midnightblue" points="511.87,-362.02 522.05,-359.09 512.26,-355.03 511.87,-362.02"/>
</g>
<!-- Node7 -->
<g id="node7" class="node">
<title>Node7</title>
<g id="a_node7"><a xlink:href="Util_8cc.html#a19b14bd24f332d5d68ab9cfcf406a877" target="_top" xlink:title=" ">
<polygon fill="none" stroke="black" points="537.5,-313.5 537.5,-332.5 575.5,-332.5 575.5,-313.5 537.5,-313.5"/>
<text text-anchor="middle" x="556.5" y="-320.5" font-family="Helvetica,sans-Serif" font-size="10.00">split</text>
</a>
</g>
</g>
<!-- Node5&#45;&gt;Node7 -->
<g id="edge6" class="edge">
<title>Node5&#45;&gt;Node7</title>
<path fill="none" stroke="midnightblue" d="M449.67,-342.42C475.51,-337.68 505.69,-332.14 527.19,-328.2"/>
<polygon fill="midnightblue" stroke="midnightblue" points="528.08,-331.59 537.29,-326.34 526.82,-324.71 528.08,-331.59"/>
</g>
<!-- Node10 -->
<g id="node10" class="node">
<title>Node10</title>
<g id="a_node10"><a xlink:href="structTimerCounter.html#aded1e4ae6eb21daa55136022db2563cf" target="_top" xlink:title=" ">
<polygon fill="none" stroke="black" points="492,-256.5 492,-275.5 621,-275.5 621,-256.5 492,-256.5"/>
<text text-anchor="middle" x="556.5" y="-263.5" font-family="Helvetica,sans-Serif" font-size="10.00">TimerCounter::seconds</text>
</a>
</g>
</g>
<!-- Node9&#45;&gt;Node10 -->
<g id="edge10" class="edge">
<title>Node9&#45;&gt;Node10</title>
<path fill="none" stroke="midnightblue" d="M259.22,-274.91C312.29,-273.31 412.36,-270.3 481.42,-268.23"/>
<polygon fill="midnightblue" stroke="midnightblue" points="481.91,-271.72 491.8,-267.92 481.7,-264.72 481.91,-271.72"/>
</g>
<!-- Node11 -->
<g id="node11" class="node">
<title>Node11</title>
<g id="a_node11"><a xlink:href="structTimerCounter.html#a1b4b0bf7a178ec92cdf6c4703deedcc8" target="_top" xlink:title=" ">
<polygon fill="none" stroke="black" points="337,-228.5 337,-247.5 456,-247.5 456,-228.5 337,-228.5"/>
<text text-anchor="middle" x="396.5" y="-235.5" font-family="Helvetica,sans-Serif" font-size="10.00">TimerCounter::speed</text>
</a>
</g>
</g>
<!-- Node9&#45;&gt;Node11 -->
<g id="edge11" class="edge">
<title>Node9&#45;&gt;Node11</title>
<path fill="none" stroke="midnightblue" d="M259.16,-268.03C283.25,-262.73 315.32,-255.66 342.3,-249.72"/>
<polygon fill="midnightblue" stroke="midnightblue" points="343.36,-253.07 352.37,-247.5 341.85,-246.23 343.36,-253.07"/>
</g>
<!-- Node12 -->
<g id="node12" class="node">
<title>Node12</title>
<g id="a_node12"><a xlink:href="structTimerCounter.html#a063980125f92baa0c122454502b876e8" target="_top" xlink:title=" ">
<polygon fill="none" stroke="black" points="341.5,-152.5 341.5,-171.5 451.5,-171.5 451.5,-152.5 341.5,-152.5"/>
<text text-anchor="middle" x="396.5" y="-159.5" font-family="Helvetica,sans-Serif" font-size="10.00">TimerCounter::stop</text>
</a>
</g>
</g>
<!-- Node9&#45;&gt;Node12 -->
<g id="edge13" class="edge">
<title>Node9&#45;&gt;Node12</title>
<path fill="none" stroke="midnightblue" d="M259.19,-271.63C272.94,-268.86 288.34,-264.34 301,-257 321.12,-245.33 320.67,-235.57 337,-219 350.59,-205.22 366.32,-189.93 378.04,-178.66"/>
<polygon fill="midnightblue" stroke="midnightblue" points="380.65,-181.01 385.44,-171.56 375.8,-175.96 380.65,-181.01"/>
</g>
<!-- Node11&#45;&gt;Node10 -->
<g id="edge12" class="edge">
<title>Node11&#45;&gt;Node10</title>
<path fill="none" stroke="midnightblue" d="M451.43,-247.56C464.4,-249.86 478.37,-252.33 491.73,-254.7"/>
<polygon fill="midnightblue" stroke="midnightblue" points="491.35,-258.19 501.81,-256.49 492.57,-251.29 491.35,-258.19"/>
</g>
<!-- Node17&#45;&gt;Node12 -->
<g id="edge20" class="edge">
<title>Node17&#45;&gt;Node12</title>
<path fill="none" stroke="midnightblue" d="M259.06,-92.39C272.51,-95.39 287.73,-99.53 301,-105 327.64,-115.98 355.59,-133.73 374.12,-146.51"/>
<polygon fill="midnightblue" stroke="midnightblue" points="372.22,-149.45 382.42,-152.33 376.24,-143.72 372.22,-149.45"/>
</g>
<!-- Node18 -->
<g id="node18" class="node">
<title>Node18</title>
<g id="a_node18"><a xlink:href="structTimerCounter.html#a85a66d3086790b9f2bb18d8e714388cf" target="_top" xlink:title=" ">
<polygon fill="none" stroke="black" points="340.5,-76.5 340.5,-95.5 452.5,-95.5 452.5,-76.5 340.5,-76.5"/>
<text text-anchor="middle" x="396.5" y="-83.5" font-family="Helvetica,sans-Serif" font-size="10.00">TimerCounter::start</text>
</a>
</g>
</g>
<!-- Node17&#45;&gt;Node18 -->
<g id="edge19" class="edge">
<title>Node17&#45;&gt;Node18</title>
<path fill="none" stroke="midnightblue" d="M259.16,-86C279.74,-86 306.13,-86 330.2,-86"/>
<polygon fill="midnightblue" stroke="midnightblue" points="330.35,-89.5 340.35,-86 330.35,-82.5 330.35,-89.5"/>
</g>
</g>
</svg>
        <g id="navigator" transform="translate(0 0)" fill="#404254">
                <rect fill="#f2f5e9" fill-opacity="0.5" stroke="#606060" stroke-width=".5" x="0" y="0" width="60" height="60"/>
                <use id="zoomplus" xlink:href="#zoomPlus" x="17" y="9" onmousedown="handleZoom(evt,'in')"/>
                <use id="zoomminus" xlink:href="#zoomMin" x="42" y="9" onmousedown="handleZoom(evt,'out')"/>
                <use id="reset" xlink:href="#resetDef" x="30" y="36" onmousedown="handleReset()"/>
                <g id="arrowUp" xlink:href="#dirArrow" transform="translate(30 24)" onmousedown="handlePan(0,-1)">
                  <use xlink:href="#rim" fill="#404040">
                        <set attributeName="fill" to="#808080" begin="arrowUp.mouseover" end="arrowUp.mouseout"/>
                  </use>
                  <path fill="none" stroke="white" stroke-width="1.5" d="M0,-3.0v7 M-2.5,-0.5L0,-3.0L2.5,-0.5"/>
                </g>
                <g id="arrowRight" xlink:href="#dirArrow" transform="rotate(90) translate(36 -43)" onmousedown="handlePan(1,0)">
                  <use xlink:href="#rim" fill="#404040">
                        <set attributeName="fill" to="#808080" begin="arrowRight.mouseover" end="arrowRight.mouseout"/>
                  </use>
                  <path fill="none" stroke="white" stroke-width="1.5" d="M0,-3.0v7 M-2.5,-0.5L0,-3.0L2.5,-0.5"/>
                </g>
                <g id="arrowDown" xlink:href="#dirArrow" transform="rotate(180) translate(-30 -48)" onmousedown="handlePan(0,1)">
                  <use xlink:href="#rim" fill="#404040">
                        <set attributeName="fill" to="#808080" begin="arrowDown.mouseover" end="arrowDown.mouseout"/>
                  </use>
                  <path fill="none" stroke="white" stroke-width="1.5" d="M0,-3.0v7 M-2.5,-0.5L0,-3.0L2.5,-0.5"/>
                </g>
                <g id="arrowLeft" xlink:href="#dirArrow" transform="rotate(270) translate(-36 17)" onmousedown="handlePan(-1,0)">
                  <use xlink:href="#rim" fill="#404040">
                        <set attributeName="fill" to="#808080" begin="arrowLeft.mouseover" end="arrowLeft.mouseout"/>
                  </use>
                  <path fill="none" stroke="white" stroke-width="1.5" d="M0,-3.0v7 M-2.5,-0.5L0,-3.0L2.5,-0.5"/>
                </g>
        </g>
        <svg viewBox="0 0 15 15" width="100%" height="30px" preserveAspectRatio="xMaxYMin meet">
         <g id="arrow_out" transform="scale(0.3 0.3)">
          <a xlink:href="classConverter_ab6c99a9eaa83aea8e2964365e6bbc66c_cgraph_org.svg" target="_base">
           <rect id="button" ry="5" rx="5" y="6" x="6" height="38" width="38"
                fill="#f2f5e9" fill-opacity="0.5" stroke="#606060" stroke-width="1.0"/>
           <path id="arrow"
             d="M 11.500037,31.436501 C 11.940474,20.09759 22.043105,11.32322 32.158766,21.979434 L 37.068811,17.246167 C 37.068811,17.246167 37.088388,32 37.088388,32 L 22.160133,31.978069 C 22.160133,31.978069 26.997745,27.140456 26.997745,27.140456 C 18.528582,18.264221 13.291696,25.230495 11.500037,31.436501 z"
             style="fill:#404040;"/>
          </a>
         </g>
        </svg>
</svg>
