<?xml version="1.0" encoding="UTF-8" standalone="no"?>
<!DOCTYPE svg PUBLIC "-//W3C//DTD SVG 1.1//EN"
 "http://www.w3.org/Graphics/SVG/1.1/DTD/svg11.dtd">
<!-- Generated by graphviz version 2.43.0 (0)
 -->
<!-- Title: FastConverter Pages: 1 -->
<svg width="1288pt" height="978pt"
 viewBox="0.00 0.00 1288.00 978.00" xmlns="http://www.w3.org/2000/svg" xmlns:xlink="http://www.w3.org/1999/xlink">
<g id="graph0" class="graph" transform="scale(1 1) rotate(0) translate(4 974)">
<title>FastConverter</title>
<!-- Node1 -->
<g id="node1" class="node">
<title>Node1</title>
<g id="a_node1"><a xlink:title=" ">
<polygon fill="#bfbfbf" stroke="black" points="1196,-326.5 1196,-345.5 1280,-345.5 1280,-326.5 1196,-326.5"/>
<text text-anchor="middle" x="1238" y="-333.5" font-family="Helvetica,sans-Serif" font-size="10.00">FastConverter</text>
</a>
</g>
</g>
<!-- Node2 -->
<g id="node2" class="node">
<title>Node2</title>
<g id="a_node2"><a xlink:href="classConverter.html" target="_top" xlink:title=" ">
<polygon fill="none" stroke="black" points="1094,-326.5 1094,-345.5 1159,-345.5 1159,-326.5 1094,-326.5"/>
<text text-anchor="middle" x="1126.5" y="-333.5" font-family="Helvetica,sans-Serif" font-size="10.00">Converter</text>
</a>
</g>
</g>
<!-- Node2&#45;&gt;Node1 -->
<g id="edge1" class="edge">
<title>Node2&#45;&gt;Node1</title>
<path fill="none" stroke="midnightblue" d="M1169.38,-336C1177.98,-336 1187.03,-336 1195.61,-336"/>
<polygon fill="midnightblue" stroke="midnightblue" points="1169.17,-332.5 1159.17,-336 1169.17,-339.5 1169.17,-332.5"/>
</g>
<!-- Node3 -->
<g id="node3" class="node">
<title>Node3</title>
<g id="a_node3"><a xlink:title=" ">
<polygon fill="none" stroke="#bfbfbf" points="936,-943.5 936,-962.5 991,-962.5 991,-943.5 936,-943.5"/>
<text text-anchor="middle" x="963.5" y="-950.5" font-family="Helvetica,sans-Serif" font-size="10.00">fitsfile *</text>
</a>
</g>
</g>
<!-- Node3&#45;&gt;Node2 -->
<g id="edge2" class="edge">
<title>Node3&#45;&gt;Node2</title>
<path fill="none" stroke="#9a32cd" stroke-dasharray="5,2" d="M1001.63,-955.5C1026.46,-954.98 1057.81,-949.69 1076,-929 1116.15,-883.31 1124.32,-419.85 1125.37,-345.92"/>
<polygon fill="#9a32cd" stroke="#9a32cd" points="1001.45,-952 991.44,-955.46 1001.43,-959 1001.45,-952"/>
<text text-anchor="middle" x="1044" y="-957" font-family="Helvetica,sans-Serif" font-size="10.00"> inputFilePtr</text>
</g>
<!-- Node4 -->
<g id="node4" class="node">
<title>Node4</title>
<g id="a_node4"><a xlink:title=" ">
<polygon fill="none" stroke="#bfbfbf" points="182.5,-272.5 182.5,-291.5 229.5,-291.5 229.5,-272.5 182.5,-272.5"/>
<text text-anchor="middle" x="206" y="-279.5" font-family="Helvetica,sans-Serif" font-size="10.00">float *</text>
</a>
</g>
</g>
<!-- Node4&#45;&gt;Node2 -->
<g id="edge3" class="edge">
<title>Node4&#45;&gt;Node2</title>
<path fill="none" stroke="#9a32cd" stroke-dasharray="5,2" d="M239.66,-281.07C255.98,-280.65 276.03,-280.21 294,-280 351.77,-279.34 366.23,-279.06 424,-280 587.18,-282.67 628.35,-278.68 791,-292 902.79,-301.16 1034.51,-321.24 1093.79,-330.77"/>
<polygon fill="#9a32cd" stroke="#9a32cd" points="239.43,-277.58 229.53,-281.34 239.62,-284.57 239.43,-277.58"/>
<text text-anchor="middle" x="710.5" y="-306" font-family="Helvetica,sans-Serif" font-size="10.00"> rotatedCube</text>
<text text-anchor="middle" x="710.5" y="-295" font-family="Helvetica,sans-Serif" font-size="10.00">standardCube</text>
</g>
<!-- Node14 -->
<g id="node14" class="node">
<title>Node14</title>
<g id="a_node14"><a xlink:href="structStats.html" target="_top" xlink:title=" ">
<polygon fill="none" stroke="black" points="463,-430.5 463,-449.5 504,-449.5 504,-430.5 463,-430.5"/>
<text text-anchor="middle" x="483.5" y="-437.5" font-family="Helvetica,sans-Serif" font-size="10.00">Stats</text>
</a>
</g>
</g>
<!-- Node4&#45;&gt;Node14 -->
<g id="edge15" class="edge">
<title>Node4&#45;&gt;Node14</title>
<path fill="none" stroke="#9a32cd" stroke-dasharray="5,2" d="M239.82,-279.85C285.69,-278.58 369.45,-282.75 424,-324 460.34,-351.48 475.75,-407.82 480.64,-430.36"/>
<polygon fill="#9a32cd" stroke="#9a32cd" points="239.41,-276.37 229.56,-280.25 239.68,-283.36 239.41,-276.37"/>
<text text-anchor="middle" x="359" y="-338" font-family="Helvetica,sans-Serif" font-size="10.00"> maxVals</text>
<text text-anchor="middle" x="359" y="-327" font-family="Helvetica,sans-Serif" font-size="10.00">minVals</text>
</g>
<!-- Node5 -->
<g id="node5" class="node">
<title>Node5</title>
<g id="a_node5"><a xlink:title=" ">
<polygon fill="none" stroke="#bfbfbf" points="143.5,-787.5 143.5,-806.5 268.5,-806.5 268.5,-787.5 143.5,-787.5"/>
<text text-anchor="middle" x="206" y="-794.5" font-family="Helvetica,sans-Serif" font-size="10.00">std::vector&lt; hsize_t &gt;</text>
</a>
</g>
</g>
<!-- Node5&#45;&gt;Node2 -->
<g id="edge4" class="edge">
<title>Node5&#45;&gt;Node2</title>
<path fill="none" stroke="#9a32cd" stroke-dasharray="5,2" d="M236.43,-810.64C253.01,-817.77 274.28,-826.03 294,-831 375.84,-851.63 398.1,-854 482.5,-854 482.5,-854 482.5,-854 964.5,-854 1043.7,-854 1044.94,-787.85 1076,-715 1105.73,-645.26 1121.82,-398.07 1124.94,-345.77"/>
<polygon fill="#9a32cd" stroke="#9a32cd" points="237.83,-807.43 227.26,-806.6 235.01,-813.83 237.83,-807.43"/>
<text text-anchor="middle" x="710.5" y="-879" font-family="Helvetica,sans-Serif" font-size="10.00"> standardDims</text>
<text text-anchor="middle" x="710.5" y="-868" font-family="Helvetica,sans-Serif" font-size="10.00">swizzledDims</text>
<text text-anchor="middle" x="710.5" y="-857" font-family="Helvetica,sans-Serif" font-size="10.00">tileDims</text>
</g>
<!-- Node5&#45;&gt;Node14 -->
<g id="edge16" class="edge">
<title>Node5&#45;&gt;Node14</title>
<path fill="none" stroke="#9a32cd" stroke-dasharray="5,2" d="M258.42,-783.6C264.7,-780.7 270.74,-777.21 276,-773 287.84,-763.52 281.99,-753.26 294,-744 341.87,-707.08 383.01,-748.43 424,-704 459.65,-665.36 477.7,-492.21 481.66,-449.53"/>
<polygon fill="#9a32cd" stroke="#9a32cd" points="257.04,-780.38 249.12,-787.43 259.7,-786.86 257.04,-780.38"/>
<text text-anchor="middle" x="359" y="-758" font-family="Helvetica,sans-Serif" font-size="10.00"> basicDatasetDims</text>
<text text-anchor="middle" x="359" y="-747" font-family="Helvetica,sans-Serif" font-size="10.00">fullBasicBufferDims</text>
</g>
<!-- Node17 -->
<g id="node17" class="node">
<title>Node17</title>
<g id="a_node17"><a xlink:href="structMipMaps.html" target="_top" xlink:title=" ">
<polygon fill="none" stroke="black" points="933,-695.5 933,-714.5 994,-714.5 994,-695.5 933,-695.5"/>
<text text-anchor="middle" x="963.5" y="-702.5" font-family="Helvetica,sans-Serif" font-size="10.00">MipMaps</text>
</a>
</g>
</g>
<!-- Node5&#45;&gt;Node17 -->
<g id="edge23" class="edge">
<title>Node5&#45;&gt;Node17</title>
<path fill="none" stroke="#9a32cd" stroke-dasharray="5,2" d="M254.75,-808.7C267.43,-811.31 281.17,-813.69 294,-815 351.48,-820.88 366.49,-820.51 424,-815 645.26,-793.79 699.56,-774.67 915,-720 921.2,-718.43 927.79,-716.51 934.02,-714.58"/>
<polygon fill="#9a32cd" stroke="#9a32cd" points="255.36,-805.26 244.85,-806.58 253.9,-812.1 255.36,-805.26"/>
<text text-anchor="middle" x="577.5" y="-815" font-family="Helvetica,sans-Serif" font-size="10.00"> chunkDims</text>
<text text-anchor="middle" x="577.5" y="-804" font-family="Helvetica,sans-Serif" font-size="10.00">standardDims</text>
</g>
<!-- Node19 -->
<g id="node19" class="node">
<title>Node19</title>
<g id="a_node19"><a xlink:href="structMipMap.html" target="_top" xlink:title=" ">
<polygon fill="none" stroke="black" points="455.5,-689.5 455.5,-708.5 511.5,-708.5 511.5,-689.5 455.5,-689.5"/>
<text text-anchor="middle" x="483.5" y="-696.5" font-family="Helvetica,sans-Serif" font-size="10.00">MipMap</text>
</a>
</g>
</g>
<!-- Node5&#45;&gt;Node19 -->
<g id="edge26" class="edge">
<title>Node5&#45;&gt;Node19</title>
<path fill="none" stroke="#9a32cd" stroke-dasharray="5,2" d="M278.71,-793.76C332.04,-790.31 399.62,-783.4 424,-770 450.17,-755.61 469.32,-724.36 477.75,-708.56"/>
<polygon fill="#9a32cd" stroke="#9a32cd" points="278.35,-790.28 268.59,-794.39 278.79,-797.27 278.35,-790.28"/>
<text text-anchor="middle" x="359" y="-806" font-family="Helvetica,sans-Serif" font-size="10.00"> bufferDims</text>
<text text-anchor="middle" x="359" y="-795" font-family="Helvetica,sans-Serif" font-size="10.00">datasetDims</text>
</g>
<!-- Node6 -->
<g id="node6" class="node">
<title>Node6</title>
<g id="a_node6"><a xlink:title=" ">
<polygon fill="none" stroke="#bfbfbf" points="0,-745.5 0,-764.5 51,-764.5 51,-745.5 0,-745.5"/>
<text text-anchor="middle" x="25.5" y="-752.5" font-family="Helvetica,sans-Serif" font-size="10.00">hsize_t</text>
</a>
</g>
</g>
<!-- Node6&#45;&gt;Node2 -->
<g id="edge6" class="edge">
<title>Node6&#45;&gt;Node2</title>
<path fill="none" stroke="#9a32cd" stroke-dasharray="5,2" d="M35.82,-773.47C58.51,-815.56 121.01,-915 205,-915 205,-915 205,-915 964.5,-915 1038.28,-915 1045.76,-859.3 1076,-792 1113.69,-708.1 1123.67,-404.33 1125.25,-345.8"/>
<polygon fill="#9a32cd" stroke="#9a32cd" points="38.87,-771.76 31.13,-764.53 32.67,-775.01 38.87,-771.76"/>
<text text-anchor="middle" x="577.5" y="-962" font-family="Helvetica,sans-Serif" font-size="10.00"> depth</text>
<text text-anchor="middle" x="577.5" y="-951" font-family="Helvetica,sans-Serif" font-size="10.00">height</text>
<text text-anchor="middle" x="577.5" y="-940" font-family="Helvetica,sans-Serif" font-size="10.00">numBins</text>
<text text-anchor="middle" x="577.5" y="-929" font-family="Helvetica,sans-Serif" font-size="10.00">stokes</text>
<text text-anchor="middle" x="577.5" y="-918" font-family="Helvetica,sans-Serif" font-size="10.00">width</text>
</g>
<!-- Node6&#45;&gt;Node5 -->
<g id="edge5" class="edge">
<title>Node6&#45;&gt;Node5</title>
<path fill="none" stroke="#9a32cd" stroke-dasharray="5,2" d="M61.22,-763.17C90.84,-770.14 133.47,-780.17 164.62,-787.5"/>
<polygon fill="#9a32cd" stroke="#9a32cd" points="61.86,-759.72 51.32,-760.84 60.25,-766.54 61.86,-759.72"/>
<text text-anchor="middle" x="93.5" y="-779" font-family="Helvetica,sans-Serif" font-size="10.00"> elements</text>
</g>
<!-- Node6&#45;&gt;Node14 -->
<g id="edge18" class="edge">
<title>Node6&#45;&gt;Node14</title>
<path fill="none" stroke="#9a32cd" stroke-dasharray="5,2" d="M27.96,-735.35C32.87,-684.58 53.5,-548.59 136,-485 187.11,-445.61 360.03,-456.48 424,-448 436.91,-446.29 451.4,-444.31 462.74,-442.74"/>
<polygon fill="#9a32cd" stroke="#9a32cd" points="24.47,-735.07 27.09,-745.34 31.44,-735.68 24.47,-735.07"/>
<text text-anchor="middle" x="206" y="-499" font-family="Helvetica,sans-Serif" font-size="10.00"> numBins</text>
<text text-anchor="middle" x="206" y="-488" font-family="Helvetica,sans-Serif" font-size="10.00">partialHistMultiplier</text>
</g>
<!-- Node6&#45;&gt;Node19 -->
<g id="edge28" class="edge">
<title>Node6&#45;&gt;Node19</title>
<path fill="none" stroke="#9a32cd" stroke-dasharray="5,2" d="M60.95,-742.86C82.29,-735.86 110.42,-727.57 136,-723 197.22,-712.07 384.7,-703.17 455.26,-700.13"/>
<polygon fill="#9a32cd" stroke="#9a32cd" points="59.73,-739.58 51.36,-746.07 61.95,-746.22 59.73,-739.58"/>
<text text-anchor="middle" x="206" y="-770" font-family="Helvetica,sans-Serif" font-size="10.00"> bufferSize</text>
<text text-anchor="middle" x="206" y="-759" font-family="Helvetica,sans-Serif" font-size="10.00">depth</text>
<text text-anchor="middle" x="206" y="-748" font-family="Helvetica,sans-Serif" font-size="10.00">height</text>
<text text-anchor="middle" x="206" y="-737" font-family="Helvetica,sans-Serif" font-size="10.00">stokes</text>
<text text-anchor="middle" x="206" y="-726" font-family="Helvetica,sans-Serif" font-size="10.00">width</text>
</g>
<!-- Node7 -->
<g id="node7" class="node">
<title>Node7</title>
<g id="a_node7"><a xlink:title=" ">
<polygon fill="none" stroke="#bfbfbf" points="940,-38.5 940,-57.5 987,-57.5 987,-38.5 940,-38.5"/>
<text text-anchor="middle" x="963.5" y="-45.5" font-family="Helvetica,sans-Serif" font-size="10.00">H5File</text>
</a>
</g>
</g>
<!-- Node7&#45;&gt;Node2 -->
<g id="edge7" class="edge">
<title>Node7&#45;&gt;Node2</title>
<path fill="none" stroke="#9a32cd" stroke-dasharray="5,2" d="M997.47,-42.31C1022.26,-40.04 1055.37,-41.61 1076,-61 1115.68,-98.29 1123.83,-281.67 1125.24,-326.23"/>
<polygon fill="#9a32cd" stroke="#9a32cd" points="996.94,-38.85 987.41,-43.48 997.75,-45.8 996.94,-38.85"/>
<text text-anchor="middle" x="1044" y="-64" font-family="Helvetica,sans-Serif" font-size="10.00"> outputFile</text>
</g>
<!-- Node8 -->
<g id="node8" class="node">
<title>Node8</title>
<g id="a_node8"><a xlink:title=" ">
<polygon fill="none" stroke="#bfbfbf" points="178,-645.5 178,-664.5 234,-664.5 234,-645.5 178,-645.5"/>
<text text-anchor="middle" x="206" y="-652.5" font-family="Helvetica,sans-Serif" font-size="10.00">DataSet</text>
</a>
</g>
</g>
<!-- Node8&#45;&gt;Node2 -->
<g id="edge8" class="edge">
<title>Node8&#45;&gt;Node2</title>
<path fill="none" stroke="#9a32cd" stroke-dasharray="5,2" d="M244.65,-655C297.7,-655 397.48,-655 482.5,-655 482.5,-655 482.5,-655 964.5,-655 1106.87,-655 1123.37,-398.62 1125.26,-345.55"/>
<polygon fill="#9a32cd" stroke="#9a32cd" points="244.37,-651.5 234.37,-655 244.37,-658.5 244.37,-651.5"/>
<text text-anchor="middle" x="710.5" y="-669" font-family="Helvetica,sans-Serif" font-size="10.00"> standardDataSet</text>
<text text-anchor="middle" x="710.5" y="-658" font-family="Helvetica,sans-Serif" font-size="10.00">swizzledDataSet</text>
</g>
<!-- Node8&#45;&gt;Node14 -->
<g id="edge19" class="edge">
<title>Node8&#45;&gt;Node14</title>
<path fill="none" stroke="#9a32cd" stroke-dasharray="5,2" d="M220.73,-637.47C236.36,-618.82 263.7,-589.99 294,-575 346.59,-548.99 376.67,-586.68 424,-552 459.57,-525.94 475.35,-471.76 480.48,-449.68"/>
<polygon fill="#9a32cd" stroke="#9a32cd" points="218,-635.27 214.4,-645.24 223.43,-639.7 218,-635.27"/>
<text text-anchor="middle" x="359" y="-633" font-family="Helvetica,sans-Serif" font-size="10.00"> histDset</text>
<text text-anchor="middle" x="359" y="-622" font-family="Helvetica,sans-Serif" font-size="10.00">maxDset</text>
<text text-anchor="middle" x="359" y="-611" font-family="Helvetica,sans-Serif" font-size="10.00">minDset</text>
<text text-anchor="middle" x="359" y="-600" font-family="Helvetica,sans-Serif" font-size="10.00">nanDset</text>
<text text-anchor="middle" x="359" y="-589" font-family="Helvetica,sans-Serif" font-size="10.00">ssqDset</text>
<text text-anchor="middle" x="359" y="-578" font-family="Helvetica,sans-Serif" font-size="10.00">sumDset</text>
</g>
<!-- Node8&#45;&gt;Node19 -->
<g id="edge29" class="edge">
<title>Node8&#45;&gt;Node19</title>
<path fill="none" stroke="#9a32cd" stroke-dasharray="5,2" d="M244.14,-660.66C287.37,-667.28 360.9,-678.66 424,-689 434.27,-690.68 445.54,-692.59 455.43,-694.29"/>
<polygon fill="#9a32cd" stroke="#9a32cd" points="244.5,-657.17 234.08,-659.12 243.44,-664.09 244.5,-657.17"/>
<text text-anchor="middle" x="359" y="-692" font-family="Helvetica,sans-Serif" font-size="10.00"> dataset</text>
</g>
<!-- Node9 -->
<g id="node9" class="node">
<title>Node9</title>
<g id="a_node9"><a xlink:title=" ">
<polygon fill="none" stroke="#bfbfbf" points="191.5,-173.5 191.5,-192.5 220.5,-192.5 220.5,-173.5 191.5,-173.5"/>
<text text-anchor="middle" x="206" y="-180.5" font-family="Helvetica,sans-Serif" font-size="10.00">int</text>
</a>
</g>
</g>
<!-- Node9&#45;&gt;Node2 -->
<g id="edge9" class="edge">
<title>Node9&#45;&gt;Node2</title>
<path fill="none" stroke="#9a32cd" stroke-dasharray="5,2" d="M230.62,-177.92C310.07,-161.58 574.83,-113.16 791,-144 921.61,-162.63 976.29,-140.61 1076,-227 1107.26,-254.08 1119.83,-304.93 1123.88,-326.22"/>
<polygon fill="#9a32cd" stroke="#9a32cd" points="229.73,-174.53 220.66,-180 231.16,-181.38 229.73,-174.53"/>
<text text-anchor="middle" x="710.5" y="-147" font-family="Helvetica,sans-Serif" font-size="10.00"> N</text>
</g>
<!-- Node9&#45;&gt;Node19 -->
<g id="edge30" class="edge">
<title>Node9&#45;&gt;Node19</title>
<path fill="none" stroke="#9a32cd" stroke-dasharray="5,2" d="M230.91,-187.53C282.08,-197.72 399.51,-224.04 424,-255 452.23,-290.69 436.21,-413.86 442,-459 453.56,-549.11 474.27,-657.14 480.61,-689.44"/>
<polygon fill="#9a32cd" stroke="#9a32cd" points="231.27,-184.03 220.78,-185.55 229.93,-190.9 231.27,-184.03"/>
<text text-anchor="middle" x="359" y="-269" font-family="Helvetica,sans-Serif" font-size="10.00"> count</text>
<text text-anchor="middle" x="359" y="-258" font-family="Helvetica,sans-Serif" font-size="10.00">mip</text>
</g>
<!-- Node22 -->
<g id="node22" class="node">
<title>Node22</title>
<g id="a_node22"><a xlink:href="structTimerCounter.html" target="_top" xlink:title=" ">
<polygon fill="none" stroke="black" points="442,-173.5 442,-192.5 525,-192.5 525,-173.5 442,-173.5"/>
<text text-anchor="middle" x="483.5" y="-180.5" font-family="Helvetica,sans-Serif" font-size="10.00">TimerCounter</text>
</a>
</g>
</g>
<!-- Node9&#45;&gt;Node22 -->
<g id="edge34" class="edge">
<title>Node9&#45;&gt;Node22</title>
<path fill="none" stroke="#9a32cd" stroke-dasharray="5,2" d="M230.81,-183C277.89,-183 383.4,-183 441.75,-183"/>
<polygon fill="#9a32cd" stroke="#9a32cd" points="230.66,-179.5 220.66,-183 230.66,-186.5 230.66,-179.5"/>
<text text-anchor="middle" x="359" y="-186" font-family="Helvetica,sans-Serif" font-size="10.00"> value</text>
</g>
<!-- Node10 -->
<g id="node10" class="node">
<title>Node10</title>
<g id="a_node10"><a xlink:title=" ">
<polygon fill="none" stroke="#bfbfbf" points="940.5,-0.5 940.5,-19.5 986.5,-19.5 986.5,-0.5 940.5,-0.5"/>
<text text-anchor="middle" x="963.5" y="-7.5" font-family="Helvetica,sans-Serif" font-size="10.00">Group</text>
</a>
</g>
</g>
<!-- Node10&#45;&gt;Node2 -->
<g id="edge10" class="edge">
<title>Node10&#45;&gt;Node2</title>
<path fill="none" stroke="#9a32cd" stroke-dasharray="5,2" d="M996.82,-5.59C1021.84,-4.13 1055.57,-6.72 1076,-27 1119.67,-70.34 1124.81,-278.88 1125.42,-326.36"/>
<polygon fill="#9a32cd" stroke="#9a32cd" points="996.37,-2.12 986.69,-6.43 996.95,-9.09 996.37,-2.12"/>
<text text-anchor="middle" x="1044" y="-30" font-family="Helvetica,sans-Serif" font-size="10.00"> outputGroup</text>
</g>
<!-- Node11 -->
<g id="node11" class="node">
<title>Node11</title>
<g id="a_node11"><a xlink:title=" ">
<polygon fill="none" stroke="#bfbfbf" points="451,-76.5 451,-95.5 516,-95.5 516,-76.5 451,-76.5"/>
<text text-anchor="middle" x="483.5" y="-83.5" font-family="Helvetica,sans-Serif" font-size="10.00">std::string</text>
</a>
</g>
</g>
<!-- Node11&#45;&gt;Node2 -->
<g id="edge11" class="edge">
<title>Node11&#45;&gt;Node2</title>
<path fill="none" stroke="#9a32cd" stroke-dasharray="5,2" d="M526.38,-81.69C648.18,-70.14 998.53,-44.3 1076,-120 1106.34,-149.64 1121.14,-288.47 1124.66,-326.4"/>
<polygon fill="#9a32cd" stroke="#9a32cd" points="525.94,-78.21 516.33,-82.66 526.62,-85.18 525.94,-78.21"/>
<text text-anchor="middle" x="862" y="-97" font-family="Helvetica,sans-Serif" font-size="10.00"> outputFileName</text>
<text text-anchor="middle" x="862" y="-86" font-family="Helvetica,sans-Serif" font-size="10.00">swizzledName</text>
<text text-anchor="middle" x="862" y="-75" font-family="Helvetica,sans-Serif" font-size="10.00">tempOutputFileName</text>
</g>
<!-- Node21 -->
<g id="node21" class="node">
<title>Node21</title>
<g id="a_node21"><a xlink:title=" ">
<polygon fill="none" stroke="#bfbfbf" points="630,-164 630,-194 791,-194 791,-164 630,-164"/>
<text text-anchor="start" x="638" y="-182" font-family="Helvetica,sans-Serif" font-size="10.00">std::unordered_map</text>
<text text-anchor="middle" x="710.5" y="-171" font-family="Helvetica,sans-Serif" font-size="10.00">&lt; std::string, TimerCounter &gt;</text>
</a>
</g>
</g>
<!-- Node11&#45;&gt;Node21 -->
<g id="edge36" class="edge">
<title>Node11&#45;&gt;Node21</title>
<path fill="none" stroke="#9a32cd" stroke-dasharray="5,2" d="M514.85,-99.64C544.16,-112.7 589.88,-132.76 630,-149 642.44,-154.04 656.09,-159.29 668.5,-163.96"/>
<polygon fill="#9a32cd" stroke="#9a32cd" points="516.13,-96.38 505.57,-95.5 513.27,-102.77 516.13,-96.38"/>
<text text-anchor="middle" x="577.5" y="-143" font-family="Helvetica,sans-Serif" font-size="10.00"> keys</text>
</g>
<!-- Node12 -->
<g id="node12" class="node">
<title>Node12</title>
<g id="a_node12"><a xlink:title=" ">
<polygon fill="none" stroke="#bfbfbf" points="154,-55 154,-85 258,-85 258,-55 154,-55"/>
<text text-anchor="start" x="162" y="-73" font-family="Helvetica,sans-Serif" font-size="10.00">std::basic_string&lt;</text>
<text text-anchor="middle" x="206" y="-62" font-family="Helvetica,sans-Serif" font-size="10.00"> Char &gt;</text>
</a>
</g>
</g>
<!-- Node12&#45;&gt;Node11 -->
<g id="edge12" class="edge">
<title>Node12&#45;&gt;Node11</title>
<path fill="none" stroke="midnightblue" d="M268.42,-73.57C324.96,-76.85 406.57,-81.59 450.91,-84.17"/>
<polygon fill="midnightblue" stroke="midnightblue" points="268.36,-70.06 258.17,-72.97 267.95,-77.05 268.36,-70.06"/>
</g>
<!-- Node13 -->
<g id="node13" class="node">
<title>Node13</title>
<g id="a_node13"><a xlink:title=" ">
<polygon fill="none" stroke="#bfbfbf" points="187,-342.5 187,-361.5 225,-361.5 225,-342.5 187,-342.5"/>
<text text-anchor="middle" x="206" y="-349.5" font-family="Helvetica,sans-Serif" font-size="10.00">bool</text>
</a>
</g>
</g>
<!-- Node13&#45;&gt;Node2 -->
<g id="edge13" class="edge">
<title>Node13&#45;&gt;Node2</title>
<path fill="none" stroke="#9a32cd" stroke-dasharray="5,2" d="M235.03,-349.29C284.8,-344.73 391.89,-336 482.5,-336 482.5,-336 482.5,-336 964.5,-336 1009.36,-336 1061.26,-336 1093.73,-336"/>
<polygon fill="#9a32cd" stroke="#9a32cd" points="234.66,-345.81 225.03,-350.23 235.31,-352.78 234.66,-345.81"/>
<text text-anchor="middle" x="710.5" y="-339" font-family="Helvetica,sans-Serif" font-size="10.00"> progress</text>
</g>
<!-- Node13&#45;&gt;Node14 -->
<g id="edge20" class="edge">
<title>Node13&#45;&gt;Node14</title>
<path fill="none" stroke="#9a32cd" stroke-dasharray="5,2" d="M235.03,-349.94C278.08,-347.98 361.97,-349.02 424,-380 447.43,-391.7 466.83,-416.61 476.29,-430.37"/>
<polygon fill="#9a32cd" stroke="#9a32cd" points="234.8,-346.45 225.01,-350.49 235.18,-353.44 234.8,-346.45"/>
<text text-anchor="middle" x="359" y="-394" font-family="Helvetica,sans-Serif" font-size="10.00"> buffersAllocated</text>
<text text-anchor="middle" x="359" y="-383" font-family="Helvetica,sans-Serif" font-size="10.00">histogramBuffersAllocated</text>
</g>
<!-- Node14&#45;&gt;Node2 -->
<g id="edge14" class="edge">
<title>Node14&#45;&gt;Node2</title>
<path fill="none" stroke="#9a32cd" stroke-dasharray="5,2" d="M514.26,-436.8C601.31,-427.16 862.79,-396.18 1076,-350 1081.85,-348.73 1088.03,-347.17 1093.96,-345.55"/>
<polygon fill="#9a32cd" stroke="#9a32cd" points="513.62,-433.35 504.06,-437.92 514.39,-440.31 513.62,-433.35"/>
<text text-anchor="middle" x="862" y="-423" font-family="Helvetica,sans-Serif" font-size="10.00"> statsXY</text>
<text text-anchor="middle" x="862" y="-412" font-family="Helvetica,sans-Serif" font-size="10.00">statsXYZ</text>
<text text-anchor="middle" x="862" y="-401" font-family="Helvetica,sans-Serif" font-size="10.00">statsZ</text>
</g>
<!-- Node15 -->
<g id="node15" class="node">
<title>Node15</title>
<g id="a_node15"><a xlink:title=" ">
<polygon fill="none" stroke="#bfbfbf" points="177,-516.5 177,-535.5 235,-535.5 235,-516.5 177,-516.5"/>
<text text-anchor="middle" x="206" y="-523.5" font-family="Helvetica,sans-Serif" font-size="10.00">double *</text>
</a>
</g>
</g>
<!-- Node15&#45;&gt;Node14 -->
<g id="edge17" class="edge">
<title>Node15&#45;&gt;Node14</title>
<path fill="none" stroke="#9a32cd" stroke-dasharray="5,2" d="M240.87,-512.93C256.81,-507.14 276.2,-500.61 294,-496 350.8,-481.28 368.77,-492.81 424,-473 440.24,-467.17 457.26,-457.05 468.72,-449.55"/>
<polygon fill="#9a32cd" stroke="#9a32cd" points="239.6,-509.67 231.44,-516.42 242.03,-516.24 239.6,-509.67"/>
<text text-anchor="middle" x="359" y="-510" font-family="Helvetica,sans-Serif" font-size="10.00"> sums</text>
<text text-anchor="middle" x="359" y="-499" font-family="Helvetica,sans-Serif" font-size="10.00">sumsSq</text>
</g>
<!-- Node15&#45;&gt;Node19 -->
<g id="edge27" class="edge">
<title>Node15&#45;&gt;Node19</title>
<path fill="none" stroke="#9a32cd" stroke-dasharray="5,2" d="M245.06,-523.83C299.66,-521.5 396.66,-520.54 424,-541 473.41,-577.99 481.11,-661.34 482.29,-689.5"/>
<polygon fill="#9a32cd" stroke="#9a32cd" points="244.89,-520.33 235.06,-524.29 245.21,-527.32 244.89,-520.33"/>
<text text-anchor="middle" x="359" y="-544" font-family="Helvetica,sans-Serif" font-size="10.00"> vals</text>
</g>
<!-- Node16 -->
<g id="node16" class="node">
<title>Node16</title>
<g id="a_node16"><a xlink:title=" ">
<polygon fill="none" stroke="#bfbfbf" points="176.5,-404.5 176.5,-423.5 235.5,-423.5 235.5,-404.5 176.5,-404.5"/>
<text text-anchor="middle" x="206" y="-411.5" font-family="Helvetica,sans-Serif" font-size="10.00">int64_t *</text>
</a>
</g>
</g>
<!-- Node16&#45;&gt;Node14 -->
<g id="edge21" class="edge">
<title>Node16&#45;&gt;Node14</title>
<path fill="none" stroke="#9a32cd" stroke-dasharray="5,2" d="M246.03,-409.57C289.85,-405.65 362.82,-402.33 424,-415 438.49,-418 453.84,-424.71 465.18,-430.42"/>
<polygon fill="#9a32cd" stroke="#9a32cd" points="245.44,-406.11 235.81,-410.54 246.1,-413.08 245.44,-406.11"/>
<text text-anchor="middle" x="359" y="-440" font-family="Helvetica,sans-Serif" font-size="10.00"> histograms</text>
<text text-anchor="middle" x="359" y="-429" font-family="Helvetica,sans-Serif" font-size="10.00">nanCounts</text>
<text text-anchor="middle" x="359" y="-418" font-family="Helvetica,sans-Serif" font-size="10.00">partialHistograms</text>
</g>
<!-- Node17&#45;&gt;Node2 -->
<g id="edge22" class="edge">
<title>Node17&#45;&gt;Node2</title>
<path fill="none" stroke="#9a32cd" stroke-dasharray="5,2" d="M1004.16,-702.46C1028.51,-698.72 1058.34,-689.84 1076,-669 1118.98,-618.28 1124.66,-394.72 1125.39,-345.58"/>
<polygon fill="#9a32cd" stroke="#9a32cd" points="1003.57,-699.01 994.1,-703.76 1004.47,-705.95 1003.57,-699.01"/>
<text text-anchor="middle" x="1044" y="-703" font-family="Helvetica,sans-Serif" font-size="10.00"> mipMaps</text>
</g>
<!-- Node18 -->
<g id="node18" class="node">
<title>Node18</title>
<g id="a_node18"><a xlink:title=" ">
<polygon fill="none" stroke="#bfbfbf" points="645.5,-695.5 645.5,-714.5 775.5,-714.5 775.5,-695.5 645.5,-695.5"/>
<text text-anchor="middle" x="710.5" y="-702.5" font-family="Helvetica,sans-Serif" font-size="10.00">std::vector&lt; MipMap &gt;</text>
</a>
</g>
</g>
<!-- Node18&#45;&gt;Node17 -->
<g id="edge24" class="edge">
<title>Node18&#45;&gt;Node17</title>
<path fill="none" stroke="#9a32cd" stroke-dasharray="5,2" d="M786.1,-705C835.27,-705 896.99,-705 932.87,-705"/>
<polygon fill="#9a32cd" stroke="#9a32cd" points="785.81,-701.5 775.81,-705 785.81,-708.5 785.81,-701.5"/>
<text text-anchor="middle" x="862" y="-708" font-family="Helvetica,sans-Serif" font-size="10.00"> mipMaps</text>
</g>
<!-- Node19&#45;&gt;Node18 -->
<g id="edge25" class="edge">
<title>Node19&#45;&gt;Node18</title>
<path fill="none" stroke="#9a32cd" stroke-dasharray="5,2" d="M521.9,-700C555.38,-700.89 605.19,-702.22 645.07,-703.28"/>
<polygon fill="#9a32cd" stroke="#9a32cd" points="521.73,-696.49 511.64,-699.72 521.54,-703.49 521.73,-696.49"/>
<text text-anchor="middle" x="577.5" y="-705" font-family="Helvetica,sans-Serif" font-size="10.00"> elements</text>
</g>
<!-- Node20 -->
<g id="node20" class="node">
<title>Node20</title>
<g id="a_node20"><a xlink:href="structTimer.html" target="_top" xlink:title=" ">
<polygon fill="none" stroke="black" points="941,-221.5 941,-240.5 986,-240.5 986,-221.5 941,-221.5"/>
<text text-anchor="middle" x="963.5" y="-228.5" font-family="Helvetica,sans-Serif" font-size="10.00">Timer</text>
</a>
</g>
</g>
<!-- Node20&#45;&gt;Node2 -->
<g id="edge31" class="edge">
<title>Node20&#45;&gt;Node2</title>
<path fill="none" stroke="#9a32cd" stroke-dasharray="5,2" d="M996.54,-230.55C1020.42,-231.72 1052.78,-236.64 1076,-253 1102.19,-271.46 1116.86,-308.58 1122.61,-326.24"/>
<polygon fill="#9a32cd" stroke="#9a32cd" points="996.32,-227.04 986.23,-230.25 996.12,-234.04 996.32,-227.04"/>
<text text-anchor="middle" x="1044" y="-256" font-family="Helvetica,sans-Serif" font-size="10.00"> timer</text>
</g>
<!-- Node21&#45;&gt;Node20 -->
<g id="edge32" class="edge">
<title>Node21&#45;&gt;Node20</title>
<path fill="none" stroke="#9a32cd" stroke-dasharray="5,2" d="M801.19,-184.04C837.19,-187.82 878.68,-194.44 915,-206 926.54,-209.67 938.61,-216.06 947.7,-221.46"/>
<polygon fill="#9a32cd" stroke="#9a32cd" points="801.49,-180.55 791.19,-183.05 800.8,-187.52 801.49,-180.55"/>
<text text-anchor="middle" x="862" y="-209" font-family="Helvetica,sans-Serif" font-size="10.00"> counters</text>
</g>
<!-- Node22&#45;&gt;Node20 -->
<g id="edge37" class="edge">
<title>Node22&#45;&gt;Node20</title>
<path fill="none" stroke="#9a32cd" stroke-dasharray="5,2" d="M534.31,-194.52C537.25,-195.05 540.16,-195.56 543,-196 581.36,-202 591.31,-200.65 630,-204 747.13,-214.14 887.58,-225.18 940.71,-229.31"/>
<polygon fill="#9a32cd" stroke="#9a32cd" points="534.82,-191.05 524.34,-192.56 533.48,-197.92 534.82,-191.05"/>
<text text-anchor="middle" x="710.5" y="-220" font-family="Helvetica,sans-Serif" font-size="10.00"> activeCounter</text>
</g>
<!-- Node22&#45;&gt;Node21 -->
<g id="edge33" class="edge">
<title>Node22&#45;&gt;Node21</title>
<path fill="none" stroke="#9a32cd" stroke-dasharray="5,2" d="M535.55,-182.09C563.41,-181.6 598.52,-180.97 629.89,-180.42"/>
<polygon fill="#9a32cd" stroke="#9a32cd" points="535.18,-178.6 525.25,-182.28 535.31,-185.6 535.18,-178.6"/>
<text text-anchor="middle" x="577.5" y="-184" font-family="Helvetica,sans-Serif" font-size="10.00"> elements</text>
</g>
<!-- Node23 -->
<g id="node23" class="node">
<title>Node23</title>
<g id="a_node23"><a xlink:title=" ">
<polygon fill="none" stroke="#bfbfbf" points="136,-104 136,-134 276,-134 276,-104 136,-104"/>
<text text-anchor="start" x="144" y="-122" font-family="Helvetica,sans-Serif" font-size="10.00">time_point&lt; std::chrono</text>
<text text-anchor="middle" x="206" y="-111" font-family="Helvetica,sans-Serif" font-size="10.00">::high_resolution_clock &gt;</text>
</a>
</g>
</g>
<!-- Node23&#45;&gt;Node22 -->
<g id="edge35" class="edge">
<title>Node23&#45;&gt;Node22</title>
<path fill="none" stroke="#9a32cd" stroke-dasharray="5,2" d="M286,-136.26C327.2,-145.41 378.39,-157 424,-168 431.13,-169.72 438.74,-171.62 446.03,-173.48"/>
<polygon fill="#9a32cd" stroke="#9a32cd" points="286.54,-132.8 276.02,-134.05 285.02,-139.63 286.54,-132.8"/>
<text text-anchor="middle" x="359" y="-171" font-family="Helvetica,sans-Serif" font-size="10.00"> startTime</text>
</g>
</g>
</svg>
