<?xml version="1.0" encoding="UTF-8" standalone="no"?>
<!DOCTYPE svg PUBLIC "-//W3C//DTD SVG 1.1//EN"
 "http://www.w3.org/Graphics/SVG/1.1/DTD/svg11.dtd">
<!-- Generated by graphviz version 2.43.0 (0)
 -->
<!-- Title: Converter::Converter Pages: 1 -->
<svg width="386pt" height="142pt"
 viewBox="0.00 0.00 386.00 142.00" xmlns="http://www.w3.org/2000/svg" xmlns:xlink="http://www.w3.org/1999/xlink">
<g id="graph0" class="graph" transform="scale(1 1) rotate(0) translate(4 138)">
<title>Converter::Converter</title>
<!-- Node1 -->
<g id="node1" class="node">
<title>Node1</title>
<g id="a_node1"><a xlink:title=" ">
<polygon fill="#bfbfbf" stroke="black" points="0,-57.5 0,-76.5 119,-76.5 119,-57.5 0,-57.5"/>
<text text-anchor="middle" x="59.5" y="-64.5" font-family="Helvetica,sans-Serif" font-size="10.00">Converter::Converter</text>
</a>
</g>
</g>
<!-- Node2 -->
<g id="node2" class="node">
<title>Node2</title>
<g id="a_node2"><a xlink:href="Util_8cc.html#a228b57d167d49ccc291c74a6fceaf468" target="_top" xlink:title=" ">
<polygon fill="none" stroke="black" points="155,-114.5 155,-133.5 230,-133.5 230,-114.5 155,-114.5"/>
<text text-anchor="middle" x="192.5" y="-121.5" font-family="Helvetica,sans-Serif" font-size="10.00">getFitsDims</text>
</a>
</g>
</g>
<!-- Node1&#45;&gt;Node2 -->
<g id="edge1" class="edge">
<title>Node1&#45;&gt;Node2</title>
<path fill="none" stroke="midnightblue" d="M82.43,-76.54C103.68,-85.79 136.14,-99.91 160.12,-110.35"/>
<polygon fill="midnightblue" stroke="midnightblue" points="158.94,-113.65 169.5,-114.43 161.73,-107.23 158.94,-113.65"/>
</g>
<!-- Node3 -->
<g id="node3" class="node">
<title>Node3</title>
<g id="a_node3"><a xlink:href="Util_8cc.html#a2941b27cc1c3c8447a339882e2a72a75" target="_top" xlink:title=" ">
<polygon fill="none" stroke="black" points="155,-76.5 155,-95.5 230,-95.5 230,-76.5 155,-76.5"/>
<text text-anchor="middle" x="192.5" y="-83.5" font-family="Helvetica,sans-Serif" font-size="10.00">openFitsFile</text>
</a>
</g>
</g>
<!-- Node1&#45;&gt;Node3 -->
<g id="edge2" class="edge">
<title>Node1&#45;&gt;Node3</title>
<path fill="none" stroke="midnightblue" d="M119.1,-75.5C127.72,-76.75 136.51,-78.02 144.84,-79.23"/>
<polygon fill="midnightblue" stroke="midnightblue" points="144.35,-82.7 154.75,-80.67 145.36,-75.77 144.35,-82.7"/>
</g>
<!-- Node4 -->
<g id="node4" class="node">
<title>Node4</title>
<g id="a_node4"><a xlink:href="structTimer.html#af8cfe574b7520624a579653a720b87e8" target="_top" xlink:title=" ">
<polygon fill="none" stroke="black" points="155.5,-38.5 155.5,-57.5 229.5,-57.5 229.5,-38.5 155.5,-38.5"/>
<text text-anchor="middle" x="192.5" y="-45.5" font-family="Helvetica,sans-Serif" font-size="10.00">Timer::start</text>
</a>
</g>
</g>
<!-- Node1&#45;&gt;Node4 -->
<g id="edge3" class="edge">
<title>Node1&#45;&gt;Node4</title>
<path fill="none" stroke="midnightblue" d="M119.1,-58.5C127.92,-57.22 136.9,-55.92 145.4,-54.69"/>
<polygon fill="midnightblue" stroke="midnightblue" points="146.1,-58.12 155.5,-53.22 145.1,-51.19 146.1,-58.12"/>
</g>
<!-- Node7 -->
<g id="node7" class="node">
<title>Node7</title>
<g id="a_node7"><a xlink:href="Util_8cc.html#a7f2c6ac257cf9618bce2b682aff786b1" target="_top" xlink:title=" ">
<polygon fill="none" stroke="black" points="162.5,-0.5 162.5,-19.5 222.5,-19.5 222.5,-0.5 162.5,-0.5"/>
<text text-anchor="middle" x="192.5" y="-7.5" font-family="Helvetica,sans-Serif" font-size="10.00">trimAxes</text>
</a>
</g>
</g>
<!-- Node1&#45;&gt;Node7 -->
<g id="edge6" class="edge">
<title>Node1&#45;&gt;Node7</title>
<path fill="none" stroke="midnightblue" d="M82.43,-57.46C103.68,-48.21 136.14,-34.09 160.12,-23.65"/>
<polygon fill="midnightblue" stroke="midnightblue" points="161.73,-26.77 169.5,-19.57 158.94,-20.35 161.73,-26.77"/>
</g>
<!-- Node5 -->
<g id="node5" class="node">
<title>Node5</title>
<g id="a_node5"><a xlink:href="structTimerCounter.html#a85a66d3086790b9f2bb18d8e714388cf" target="_top" xlink:title=" ">
<polygon fill="none" stroke="black" points="266,-57.5 266,-76.5 378,-76.5 378,-57.5 266,-57.5"/>
<text text-anchor="middle" x="322" y="-64.5" font-family="Helvetica,sans-Serif" font-size="10.00">TimerCounter::start</text>
</a>
</g>
</g>
<!-- Node4&#45;&gt;Node5 -->
<g id="edge4" class="edge">
<title>Node4&#45;&gt;Node5</title>
<path fill="none" stroke="midnightblue" d="M229.7,-53.39C237.83,-54.61 246.7,-55.93 255.61,-57.26"/>
<polygon fill="midnightblue" stroke="midnightblue" points="255.25,-60.74 265.66,-58.75 256.28,-53.82 255.25,-60.74"/>
</g>
<!-- Node6 -->
<g id="node6" class="node">
<title>Node6</title>
<g id="a_node6"><a xlink:href="structTimerCounter.html#a063980125f92baa0c122454502b876e8" target="_top" xlink:title=" ">
<polygon fill="none" stroke="black" points="267,-19.5 267,-38.5 377,-38.5 377,-19.5 267,-19.5"/>
<text text-anchor="middle" x="322" y="-26.5" font-family="Helvetica,sans-Serif" font-size="10.00">TimerCounter::stop</text>
</a>
</g>
</g>
<!-- Node4&#45;&gt;Node6 -->
<g id="edge5" class="edge">
<title>Node4&#45;&gt;Node6</title>
<path fill="none" stroke="midnightblue" d="M229.7,-42.61C238.13,-41.35 247.36,-39.97 256.61,-38.6"/>
<polygon fill="midnightblue" stroke="midnightblue" points="257.24,-42.04 266.62,-37.1 256.21,-35.12 257.24,-42.04"/>
</g>
</g>
</svg>
