<?xml version="1.0" encoding="UTF-8" standalone="no"?>
<!DOCTYPE svg PUBLIC "-//W3C//DTD SVG 1.1//EN"
 "http://www.w3.org/Graphics/SVG/1.1/DTD/svg11.dtd">
<!-- Generated by graphviz version 2.43.0 (0)
 -->
<!-- Title: FastConverter::calculateMemoryUsage Pages: 1 -->
<svg width="361pt" height="66pt"
 viewBox="0.00 0.00 361.00 66.00" xmlns="http://www.w3.org/2000/svg" xmlns:xlink="http://www.w3.org/1999/xlink">
<g id="graph0" class="graph" transform="scale(1 1) rotate(0) translate(4 62)">
<title>FastConverter::calculateMemoryUsage</title>
<!-- Node1 -->
<g id="node1" class="node">
<title>Node1</title>
<g id="a_node1"><a xlink:title=" ">
<polygon fill="#bfbfbf" stroke="black" points="0,-14 0,-44 134,-44 134,-14 0,-14"/>
<text text-anchor="start" x="8" y="-32" font-family="Helvetica,sans-Serif" font-size="10.00">FastConverter::calculate</text>
<text text-anchor="middle" x="67" y="-21" font-family="Helvetica,sans-Serif" font-size="10.00">MemoryUsage</text>
</a>
</g>
</g>
<!-- Node2 -->
<g id="node2" class="node">
<title>Node2</title>
<g id="a_node2"><a xlink:href="structMipMaps.html#ac92a944add158f9c9cf4d0120fbb2bd9" target="_top" xlink:title=" ">
<polygon fill="none" stroke="black" points="170,-38.5 170,-57.5 256,-57.5 256,-38.5 170,-38.5"/>
<text text-anchor="middle" x="213" y="-45.5" font-family="Helvetica,sans-Serif" font-size="10.00">MipMaps::size</text>
</a>
</g>
</g>
<!-- Node1&#45;&gt;Node2 -->
<g id="edge1" class="edge">
<title>Node1&#45;&gt;Node2</title>
<path fill="none" stroke="midnightblue" d="M134.1,-37.72C142.72,-38.86 151.45,-40.01 159.8,-41.11"/>
<polygon fill="midnightblue" stroke="midnightblue" points="159.39,-44.59 169.76,-42.43 160.31,-37.65 159.39,-44.59"/>
</g>
<!-- Node5 -->
<g id="node5" class="node">
<title>Node5</title>
<g id="a_node5"><a xlink:href="structStats.html#a993cdac7c839c6354dbe264b1c9c913a" target="_top" xlink:title=" ">
<polygon fill="none" stroke="black" points="179.5,-0.5 179.5,-19.5 246.5,-19.5 246.5,-0.5 179.5,-0.5"/>
<text text-anchor="middle" x="213" y="-7.5" font-family="Helvetica,sans-Serif" font-size="10.00">Stats::size</text>
</a>
</g>
</g>
<!-- Node1&#45;&gt;Node5 -->
<g id="edge4" class="edge">
<title>Node1&#45;&gt;Node5</title>
<path fill="none" stroke="midnightblue" d="M134.1,-20.28C145.98,-18.71 158.07,-17.12 169.08,-15.66"/>
<polygon fill="midnightblue" stroke="midnightblue" points="169.79,-19.1 179.25,-14.32 168.88,-12.16 169.79,-19.1"/>
</g>
<!-- Node3 -->
<g id="node3" class="node">
<title>Node3</title>
<g id="a_node3"><a xlink:href="Util_8cc.html#abf3f2f44765d44aa9bdb97699f569b14" target="_top" xlink:title=" ">
<polygon fill="none" stroke="black" points="292,-38.5 292,-57.5 353,-57.5 353,-38.5 292,-38.5"/>
<text text-anchor="middle" x="322.5" y="-45.5" font-family="Helvetica,sans-Serif" font-size="10.00">mipDims</text>
</a>
</g>
</g>
<!-- Node2&#45;&gt;Node3 -->
<g id="edge2" class="edge">
<title>Node2&#45;&gt;Node3</title>
<path fill="none" stroke="midnightblue" d="M256.18,-48C264.53,-48 273.28,-48 281.56,-48"/>
<polygon fill="midnightblue" stroke="midnightblue" points="281.73,-51.5 291.73,-48 281.73,-44.5 281.73,-51.5"/>
</g>
<!-- Node4 -->
<g id="node4" class="node">
<title>Node4</title>
<g id="a_node4"><a xlink:href="Util_8cc.html#a44138b2ce897aad07f85d5e13bad9682" target="_top" xlink:title=" ">
<polygon fill="none" stroke="black" points="296,-0.5 296,-19.5 349,-19.5 349,-0.5 296,-0.5"/>
<text text-anchor="middle" x="322.5" y="-7.5" font-family="Helvetica,sans-Serif" font-size="10.00">product</text>
</a>
</g>
</g>
<!-- Node2&#45;&gt;Node4 -->
<g id="edge3" class="edge">
<title>Node2&#45;&gt;Node4</title>
<path fill="none" stroke="midnightblue" d="M241.13,-38.41C254.77,-33.59 271.48,-27.68 286.12,-22.51"/>
<polygon fill="midnightblue" stroke="midnightblue" points="287.6,-25.7 295.86,-19.06 285.27,-19.1 287.6,-25.7"/>
</g>
<!-- Node5&#45;&gt;Node4 -->
<g id="edge5" class="edge">
<title>Node5&#45;&gt;Node4</title>
<path fill="none" stroke="midnightblue" d="M246.55,-10C258.9,-10 273.05,-10 285.69,-10"/>
<polygon fill="midnightblue" stroke="midnightblue" points="285.89,-13.5 295.89,-10 285.89,-6.5 285.89,-13.5"/>
</g>
</g>
</svg>
