<?xml version="1.0" encoding="UTF-8" standalone="no"?>
<!DOCTYPE svg PUBLIC "-//W3C//DTD SVG 1.1//EN"
 "http://www.w3.org/Graphics/SVG/1.1/DTD/svg11.dtd">
<!-- Generated by graphviz version 2.43.0 (0)
 -->
<!-- Title: common.h Pages: 1 -->
<svg width="398pt" height="252pt"
 viewBox="0.00 0.00 398.00 252.00" xmlns="http://www.w3.org/2000/svg" xmlns:xlink="http://www.w3.org/1999/xlink">
<g id="graph0" class="graph" transform="scale(1 1) rotate(0) translate(4 248)">
<title>common.h</title>
<!-- Node1 -->
<g id="node1" class="node">
<title>Node1</title>
<g id="a_node1"><a xlink:title=" ">
<polygon fill="#bfbfbf" stroke="black" points="132.5,-224.5 132.5,-243.5 200.5,-243.5 200.5,-224.5 132.5,-224.5"/>
<text text-anchor="middle" x="166.5" y="-231.5" font-family="Helvetica,sans-Serif" font-size="10.00">common.h</text>
</a>
</g>
</g>
<!-- Node2 -->
<g id="node2" class="node">
<title>Node2</title>
<g id="a_node2"><a xlink:href="Converter_8h.html" target="_top" xlink:title=" ">
<polygon fill="none" stroke="black" points="160,-56.5 160,-75.5 233,-75.5 233,-56.5 160,-56.5"/>
<text text-anchor="middle" x="196.5" y="-63.5" font-family="Helvetica,sans-Serif" font-size="10.00">Converter.h</text>
</a>
</g>
</g>
<!-- Node1&#45;&gt;Node2 -->
<g id="edge1" class="edge">
<title>Node1&#45;&gt;Node2</title>
<path fill="none" stroke="midnightblue" d="M185.42,-217.9C206.21,-199.98 238.38,-167.95 251.5,-132 254.55,-123.65 255.31,-120.03 251.5,-112 243.73,-95.61 226.75,-83.21 213.7,-75.61"/>
<polygon fill="midnightblue" stroke="midnightblue" points="182.98,-215.38 177.56,-224.48 187.48,-220.75 182.98,-215.38"/>
</g>
<!-- Node7 -->
<g id="node7" class="node">
<title>Node7</title>
<g id="a_node7"><a xlink:href="MipMap_8h.html" target="_top" xlink:title=" ">
<polygon fill="none" stroke="black" points="6,-112.5 6,-131.5 71,-131.5 71,-112.5 6,-112.5"/>
<text text-anchor="middle" x="38.5" y="-119.5" font-family="Helvetica,sans-Serif" font-size="10.00">MipMap.h</text>
</a>
</g>
</g>
<!-- Node1&#45;&gt;Node7 -->
<g id="edge6" class="edge">
<title>Node1&#45;&gt;Node7</title>
<path fill="none" stroke="midnightblue" d="M148.83,-217.82C121.57,-194.39 70.14,-150.19 48.5,-131.59"/>
<polygon fill="midnightblue" stroke="midnightblue" points="146.59,-220.51 156.46,-224.37 151.15,-215.2 146.59,-220.51"/>
</g>
<!-- Node9 -->
<g id="node9" class="node">
<title>Node9</title>
<g id="a_node9"><a xlink:href="Stats_8h.html" target="_top" xlink:title=" ">
<polygon fill="none" stroke="black" points="89.5,-112.5 89.5,-131.5 139.5,-131.5 139.5,-112.5 89.5,-112.5"/>
<text text-anchor="middle" x="114.5" y="-119.5" font-family="Helvetica,sans-Serif" font-size="10.00">Stats.h</text>
</a>
</g>
</g>
<!-- Node1&#45;&gt;Node9 -->
<g id="edge9" class="edge">
<title>Node1&#45;&gt;Node9</title>
<path fill="none" stroke="midnightblue" d="M153.2,-216.21C147.19,-208.04 140.37,-197.87 135.5,-188 126.06,-168.85 119.52,-144.5 116.46,-131.72"/>
<polygon fill="midnightblue" stroke="midnightblue" points="150.42,-218.34 159.26,-224.18 155.99,-214.1 150.42,-218.34"/>
</g>
<!-- Node11 -->
<g id="node11" class="node">
<title>Node11</title>
<g id="a_node11"><a xlink:href="Timer_8h.html" target="_top" xlink:title=" ">
<polygon fill="none" stroke="black" points="300,-168.5 300,-187.5 353,-187.5 353,-168.5 300,-168.5"/>
<text text-anchor="middle" x="326.5" y="-175.5" font-family="Helvetica,sans-Serif" font-size="10.00">Timer.h</text>
</a>
</g>
</g>
<!-- Node1&#45;&gt;Node11 -->
<g id="edge12" class="edge">
<title>Node1&#45;&gt;Node11</title>
<path fill="none" stroke="midnightblue" d="M201.55,-221.17C231.67,-211 274.4,-196.59 301.27,-187.52"/>
<polygon fill="midnightblue" stroke="midnightblue" points="200.21,-217.93 191.85,-224.44 202.45,-224.56 200.21,-217.93"/>
</g>
<!-- Node12 -->
<g id="node12" class="node">
<title>Node12</title>
<g id="a_node12"><a xlink:href="Util_8h.html" target="_top" xlink:title=" ">
<polygon fill="none" stroke="black" points="145,-168.5 145,-187.5 188,-187.5 188,-168.5 145,-168.5"/>
<text text-anchor="middle" x="166.5" y="-175.5" font-family="Helvetica,sans-Serif" font-size="10.00">Util.h</text>
</a>
</g>
</g>
<!-- Node1&#45;&gt;Node12 -->
<g id="edge14" class="edge">
<title>Node1&#45;&gt;Node12</title>
<path fill="none" stroke="midnightblue" d="M166.5,-213.8C166.5,-204.91 166.5,-194.78 166.5,-187.75"/>
<polygon fill="midnightblue" stroke="midnightblue" points="163,-214.08 166.5,-224.08 170,-214.08 163,-214.08"/>
</g>
<!-- Node3 -->
<g id="node3" class="node">
<title>Node3</title>
<g id="a_node3"><a xlink:href="Converter_8cc.html" target="_top" xlink:title=" ">
<polygon fill="none" stroke="black" points="6,-0.5 6,-19.5 83,-19.5 83,-0.5 6,-0.5"/>
<text text-anchor="middle" x="44.5" y="-7.5" font-family="Helvetica,sans-Serif" font-size="10.00">Converter.cc</text>
</a>
</g>
</g>
<!-- Node2&#45;&gt;Node3 -->
<g id="edge2" class="edge">
<title>Node2&#45;&gt;Node3</title>
<path fill="none" stroke="midnightblue" d="M162.83,-53.04C134.23,-42.88 93.89,-28.55 68.47,-19.52"/>
<polygon fill="midnightblue" stroke="midnightblue" points="161.82,-56.39 172.42,-56.44 164.16,-49.8 161.82,-56.39"/>
</g>
<!-- Node4 -->
<g id="node4" class="node">
<title>Node4</title>
<g id="a_node4"><a xlink:href="FastConverter_8cc.html" target="_top" xlink:title=" ">
<polygon fill="none" stroke="black" points="101,-0.5 101,-19.5 198,-19.5 198,-0.5 101,-0.5"/>
<text text-anchor="middle" x="149.5" y="-7.5" font-family="Helvetica,sans-Serif" font-size="10.00">FastConverter.cc</text>
</a>
</g>
</g>
<!-- Node2&#45;&gt;Node4 -->
<g id="edge3" class="edge">
<title>Node2&#45;&gt;Node4</title>
<path fill="none" stroke="midnightblue" d="M182.08,-48.43C173.84,-38.97 163.85,-27.48 157.12,-19.75"/>
<polygon fill="midnightblue" stroke="midnightblue" points="179.53,-50.84 188.74,-56.08 184.81,-46.24 179.53,-50.84"/>
</g>
<!-- Node5 -->
<g id="node5" class="node">
<title>Node5</title>
<g id="a_node5"><a xlink:href="main_8cc.html" target="_top" xlink:title=" ">
<polygon fill="none" stroke="black" points="216,-0.5 216,-19.5 271,-19.5 271,-0.5 216,-0.5"/>
<text text-anchor="middle" x="243.5" y="-7.5" font-family="Helvetica,sans-Serif" font-size="10.00">main.cc</text>
</a>
</g>
</g>
<!-- Node2&#45;&gt;Node5 -->
<g id="edge4" class="edge">
<title>Node2&#45;&gt;Node5</title>
<path fill="none" stroke="midnightblue" d="M210.92,-48.43C219.16,-38.97 229.15,-27.48 235.88,-19.75"/>
<polygon fill="midnightblue" stroke="midnightblue" points="208.19,-46.24 204.26,-56.08 213.47,-50.84 208.19,-46.24"/>
</g>
<!-- Node6 -->
<g id="node6" class="node">
<title>Node6</title>
<g id="a_node6"><a xlink:href="SlowConverter_8cc.html" target="_top" xlink:title=" ">
<polygon fill="none" stroke="black" points="289,-0.5 289,-19.5 390,-19.5 390,-0.5 289,-0.5"/>
<text text-anchor="middle" x="339.5" y="-7.5" font-family="Helvetica,sans-Serif" font-size="10.00">SlowConverter.cc</text>
</a>
</g>
</g>
<!-- Node2&#45;&gt;Node6 -->
<g id="edge5" class="edge">
<title>Node2&#45;&gt;Node6</title>
<path fill="none" stroke="midnightblue" d="M228.53,-52.91C255.41,-42.75 293.14,-28.51 316.95,-19.52"/>
<polygon fill="midnightblue" stroke="midnightblue" points="227.28,-49.64 219.16,-56.44 229.75,-56.19 227.28,-49.64"/>
</g>
<!-- Node7&#45;&gt;Node2 -->
<g id="edge7" class="edge">
<title>Node7&#45;&gt;Node2</title>
<path fill="none" stroke="midnightblue" d="M73.11,-109.17C102.86,-99 145.05,-84.59 171.58,-75.52"/>
<polygon fill="midnightblue" stroke="midnightblue" points="71.87,-105.9 63.54,-112.44 74.13,-112.52 71.87,-105.9"/>
</g>
<!-- Node8 -->
<g id="node8" class="node">
<title>Node8</title>
<g id="a_node8"><a xlink:href="MipMap_8cc.html" target="_top" xlink:title=" ">
<polygon fill="none" stroke="black" points="0,-56.5 0,-75.5 69,-75.5 69,-56.5 0,-56.5"/>
<text text-anchor="middle" x="34.5" y="-63.5" font-family="Helvetica,sans-Serif" font-size="10.00">MipMap.cc</text>
</a>
</g>
</g>
<!-- Node7&#45;&gt;Node8 -->
<g id="edge8" class="edge">
<title>Node7&#45;&gt;Node8</title>
<path fill="none" stroke="midnightblue" d="M37.1,-102.1C36.44,-93.14 35.67,-82.86 35.15,-75.75"/>
<polygon fill="midnightblue" stroke="midnightblue" points="33.61,-102.37 37.84,-112.08 40.59,-101.85 33.61,-102.37"/>
</g>
<!-- Node9&#45;&gt;Node2 -->
<g id="edge10" class="edge">
<title>Node9&#45;&gt;Node2</title>
<path fill="none" stroke="midnightblue" d="M136.33,-106.62C151.31,-96.76 170.7,-83.99 183.36,-75.65"/>
<polygon fill="midnightblue" stroke="midnightblue" points="134.1,-103.9 127.67,-112.32 137.95,-109.75 134.1,-103.9"/>
</g>
<!-- Node10 -->
<g id="node10" class="node">
<title>Node10</title>
<g id="a_node10"><a xlink:href="Stats_8cc.html" target="_top" xlink:title=" ">
<polygon fill="none" stroke="black" points="87,-56.5 87,-75.5 142,-75.5 142,-56.5 87,-56.5"/>
<text text-anchor="middle" x="114.5" y="-63.5" font-family="Helvetica,sans-Serif" font-size="10.00">Stats.cc</text>
</a>
</g>
</g>
<!-- Node9&#45;&gt;Node10 -->
<g id="edge11" class="edge">
<title>Node9&#45;&gt;Node10</title>
<path fill="none" stroke="midnightblue" d="M114.5,-101.8C114.5,-92.91 114.5,-82.78 114.5,-75.75"/>
<polygon fill="midnightblue" stroke="midnightblue" points="111,-102.08 114.5,-112.08 118,-102.08 111,-102.08"/>
</g>
<!-- Node11&#45;&gt;Node2 -->
<g id="edge13" class="edge">
<title>Node11&#45;&gt;Node2</title>
<path fill="none" stroke="midnightblue" d="M318.57,-159.17C311.54,-144.95 300.11,-125.29 285.5,-112 266.93,-95.11 240.84,-82.91 221.71,-75.52"/>
<polygon fill="midnightblue" stroke="midnightblue" points="315.49,-160.82 322.9,-168.39 321.82,-157.85 315.49,-160.82"/>
</g>
<!-- Node12&#45;&gt;Node2 -->
<g id="edge15" class="edge">
<title>Node12&#45;&gt;Node2</title>
<path fill="none" stroke="midnightblue" d="M171.5,-158.67C178.06,-134.62 189.3,-93.39 194.16,-75.59"/>
<polygon fill="midnightblue" stroke="midnightblue" points="168.11,-157.8 168.85,-168.37 174.86,-159.64 168.11,-157.8"/>
</g>
<!-- Node12&#45;&gt;Node7 -->
<g id="edge16" class="edge">
<title>Node12&#45;&gt;Node7</title>
<path fill="none" stroke="midnightblue" d="M136.88,-164.5C112.88,-154.38 79.72,-140.39 58.69,-131.52"/>
<polygon fill="midnightblue" stroke="midnightblue" points="135.64,-167.78 146.22,-168.44 138.36,-161.33 135.64,-167.78"/>
</g>
<!-- Node12&#45;&gt;Node9 -->
<g id="edge17" class="edge">
<title>Node12&#45;&gt;Node9</title>
<path fill="none" stroke="midnightblue" d="M150.82,-160.72C141.66,-151.2 130.45,-139.56 122.93,-131.75"/>
<polygon fill="midnightblue" stroke="midnightblue" points="148.46,-163.31 157.91,-168.08 153.5,-158.45 148.46,-163.31"/>
</g>
<!-- Node13 -->
<g id="node13" class="node">
<title>Node13</title>
<g id="a_node13"><a xlink:href="Util_8cc.html" target="_top" xlink:title=" ">
<polygon fill="none" stroke="black" points="196,-112.5 196,-131.5 243,-131.5 243,-112.5 196,-112.5"/>
<text text-anchor="middle" x="219.5" y="-119.5" font-family="Helvetica,sans-Serif" font-size="10.00">Util.cc</text>
</a>
</g>
</g>
<!-- Node12&#45;&gt;Node13 -->
<g id="edge18" class="edge">
<title>Node12&#45;&gt;Node13</title>
<path fill="none" stroke="midnightblue" d="M182.48,-160.72C191.82,-151.2 203.25,-139.56 210.91,-131.75"/>
<polygon fill="midnightblue" stroke="midnightblue" points="179.76,-158.49 175.25,-168.08 184.75,-163.4 179.76,-158.49"/>
</g>
</g>
</svg>
