<?xml version="1.0" encoding="UTF-8" standalone="no"?>
<!DOCTYPE svg PUBLIC "-//W3C//DTD SVG 1.1//EN"
 "http://www.w3.org/Graphics/SVG/1.1/DTD/svg11.dtd">
<!-- Generated by graphviz version 2.43.0 (0)
 -->
<!-- Title: FastConverter.cc Pages: 1 -->
<!--zoomable 308 -->
<svg id="main" version="1.1" xmlns="http://www.w3.org/2000/svg" xmlns:xlink="http://www.w3.org/1999/xlink" xml:space="preserve" onload="init(evt)">
<style type="text/css"><![CDATA[
.edge:hover path { stroke: red; }
.edge:hover polygon { stroke: red; fill: red; }
]]></style>
<script type="text/javascript"><![CDATA[
var edges = document.getElementsByTagName('g');
if (edges && edges.length) {
  for (var i=0;i<edges.length;i++) {
    if (edges[i].id.substr(0,4)=='edge') {
      edges[i].setAttribute('class','edge');
    }
  }
}
]]></script>
        <defs>
                <circle id="rim" cx="0" cy="0" r="7"/>
                <circle id="rim2" cx="0" cy="0" r="3.5"/>
                <g id="zoomPlus">
                        <use xlink:href="#rim" fill="#404040">
                                <set attributeName="fill" to="#808080" begin="zoomplus.mouseover" end="zoomplus.mouseout"/>
                        </use>
                        <path d="M-4,0h8M0,-4v8" fill="none" stroke="white" stroke-width="1.5" pointer-events="none"/>
                </g>
                <g id="zoomMin">
                        <use xlink:href="#rim" fill="#404040">
                                <set attributeName="fill" to="#808080" begin="zoomminus.mouseover" end="zoomminus.mouseout"/>
                        </use>
                        <path d="M-4,0h8" fill="none" stroke="white" stroke-width="1.5" pointer-events="none"/>
                </g>
                <g id="dirArrow">
                        <path fill="none" stroke="white" stroke-width="1.5" d="M0,-3.0v7 M-2.5,-0.5L0,-3.0L2.5,-0.5"/>
                </g>
               <g id="resetDef">
                       <use xlink:href="#rim2" fill="#404040">
                               <set attributeName="fill" to="#808080" begin="reset.mouseover" end="reset.mouseout"/>
                       </use>
               </g>
        </defs>

<script type="text/javascript">
var viewWidth = 1002;
var viewHeight = 308;
var sectionId = 'dynsection-0';
</script>
<script xlink:href="svgpan.js"/>
<svg id="graph" class="graph">
<g id="viewport">
<title>FastConverter.cc</title>
<!-- Node1 -->
<g id="node1" class="node">
<title>Node1</title>
<g id="a_node1"><a xlink:title=" ">
<polygon fill="#bfbfbf" stroke="black" points="456,-280.5 456,-299.5 553,-299.5 553,-280.5 456,-280.5"/>
<text text-anchor="middle" x="504.5" y="-287.5" font-family="Helvetica,sans-Serif" font-size="10.00">FastConverter.cc</text>
</a>
</g>
</g>
<!-- Node2 -->
<g id="node2" class="node">
<title>Node2</title>
<g id="a_node2"><a xlink:href="Converter_8h.html" target="_top" xlink:title=" ">
<polygon fill="none" stroke="black" points="468,-224.5 468,-243.5 541,-243.5 541,-224.5 468,-224.5"/>
<text text-anchor="middle" x="504.5" y="-231.5" font-family="Helvetica,sans-Serif" font-size="10.00">Converter.h</text>
</a>
</g>
</g>
<!-- Node1&#45;&gt;Node2 -->
<g id="edge1" class="edge">
<title>Node1&#45;&gt;Node2</title>
<path fill="none" stroke="midnightblue" d="M504.5,-280.08C504.5,-273.01 504.5,-262.86 504.5,-253.99"/>
<polygon fill="midnightblue" stroke="midnightblue" points="508,-253.75 504.5,-243.75 501,-253.75 508,-253.75"/>
</g>
<!-- Node3 -->
<g id="node3" class="node">
<title>Node3</title>
<g id="a_node3"><a xlink:href="common_8h.html" target="_top" xlink:title=" ">
<polygon fill="none" stroke="black" points="469.5,-56.5 469.5,-75.5 537.5,-75.5 537.5,-56.5 469.5,-56.5"/>
<text text-anchor="middle" x="503.5" y="-63.5" font-family="Helvetica,sans-Serif" font-size="10.00">common.h</text>
</a>
</g>
</g>
<!-- Node2&#45;&gt;Node3 -->
<g id="edge2" class="edge">
<title>Node2&#45;&gt;Node3</title>
<path fill="none" stroke="midnightblue" d="M469.49,-224.45C450.57,-217.84 428.82,-206.59 417.5,-188 393.01,-147.75 447.35,-103.28 480.43,-81.15"/>
<polygon fill="midnightblue" stroke="midnightblue" points="482.62,-83.89 489.11,-75.52 478.81,-78.02 482.62,-83.89"/>
</g>
<!-- Node18 -->
<g id="node18" class="node">
<title>Node18</title>
<g id="a_node18"><a xlink:href="Stats_8h.html" target="_top" xlink:title=" ">
<polygon fill="none" stroke="black" points="426.5,-168.5 426.5,-187.5 476.5,-187.5 476.5,-168.5 426.5,-168.5"/>
<text text-anchor="middle" x="451.5" y="-175.5" font-family="Helvetica,sans-Serif" font-size="10.00">Stats.h</text>
</a>
</g>
</g>
<!-- Node2&#45;&gt;Node18 -->
<g id="edge17" class="edge">
<title>Node2&#45;&gt;Node18</title>
<path fill="none" stroke="midnightblue" d="M495.75,-224.08C488.03,-216.22 476.6,-204.57 467.28,-195.08"/>
<polygon fill="midnightblue" stroke="midnightblue" points="469.59,-192.44 460.09,-187.75 464.6,-197.34 469.59,-192.44"/>
</g>
<!-- Node19 -->
<g id="node19" class="node">
<title>Node19</title>
<g id="a_node19"><a xlink:href="Util_8h.html" target="_top" xlink:title=" ">
<polygon fill="none" stroke="black" points="482,-112.5 482,-131.5 525,-131.5 525,-112.5 482,-112.5"/>
<text text-anchor="middle" x="503.5" y="-119.5" font-family="Helvetica,sans-Serif" font-size="10.00">Util.h</text>
</a>
</g>
</g>
<!-- Node2&#45;&gt;Node19 -->
<g id="edge27" class="edge">
<title>Node2&#45;&gt;Node19</title>
<path fill="none" stroke="midnightblue" d="M504.42,-224.37C504.26,-206.62 503.89,-165.67 503.67,-141.6"/>
<polygon fill="midnightblue" stroke="midnightblue" points="507.17,-141.56 503.58,-131.59 500.17,-141.62 507.17,-141.56"/>
</g>
<!-- Node20 -->
<g id="node20" class="node">
<title>Node20</title>
<g id="a_node20"><a xlink:href="MipMap_8h.html" target="_top" xlink:title=" ">
<polygon fill="none" stroke="black" points="533,-168.5 533,-187.5 598,-187.5 598,-168.5 533,-168.5"/>
<text text-anchor="middle" x="565.5" y="-175.5" font-family="Helvetica,sans-Serif" font-size="10.00">MipMap.h</text>
</a>
</g>
</g>
<!-- Node2&#45;&gt;Node20 -->
<g id="edge21" class="edge">
<title>Node2&#45;&gt;Node20</title>
<path fill="none" stroke="midnightblue" d="M514.3,-224.32C523.32,-216.34 536.91,-204.31 547.82,-194.65"/>
<polygon fill="midnightblue" stroke="midnightblue" points="550.35,-197.08 555.52,-187.83 545.71,-191.84 550.35,-197.08"/>
</g>
<!-- Node21 -->
<g id="node21" class="node">
<title>Node21</title>
<g id="a_node21"><a xlink:href="Timer_8h.html" target="_top" xlink:title=" ">
<polygon fill="none" stroke="black" points="616,-168.5 616,-187.5 669,-187.5 669,-168.5 616,-168.5"/>
<text text-anchor="middle" x="642.5" y="-175.5" font-family="Helvetica,sans-Serif" font-size="10.00">Timer.h</text>
</a>
</g>
</g>
<!-- Node2&#45;&gt;Node21 -->
<g id="edge24" class="edge">
<title>Node2&#45;&gt;Node21</title>
<path fill="none" stroke="midnightblue" d="M526.37,-224.44C549.28,-215.48 585.48,-201.31 611.37,-191.18"/>
<polygon fill="midnightblue" stroke="midnightblue" points="612.7,-194.42 620.74,-187.52 610.15,-187.9 612.7,-194.42"/>
</g>
<!-- Node4 -->
<g id="node4" class="node">
<title>Node4</title>
<g id="a_node4"><a xlink:title=" ">
<polygon fill="none" stroke="#bfbfbf" points="0,-0.5 0,-19.5 47,-19.5 47,-0.5 0,-0.5"/>
<text text-anchor="middle" x="23.5" y="-7.5" font-family="Helvetica,sans-Serif" font-size="10.00">vector</text>
</a>
</g>
</g>
<!-- Node3&#45;&gt;Node4 -->
<g id="edge3" class="edge">
<title>Node3&#45;&gt;Node4</title>
<path fill="none" stroke="midnightblue" d="M469.49,-63.61C395.81,-60.15 215.92,-49.39 57.1,-20.02"/>
<polygon fill="midnightblue" stroke="midnightblue" points="57.63,-16.56 47.16,-18.15 56.34,-23.44 57.63,-16.56"/>
</g>
<!-- Node5 -->
<g id="node5" class="node">
<title>Node5</title>
<g id="a_node5"><a xlink:title=" ">
<polygon fill="none" stroke="#bfbfbf" points="65,-0.5 65,-19.5 112,-19.5 112,-0.5 65,-0.5"/>
<text text-anchor="middle" x="88.5" y="-7.5" font-family="Helvetica,sans-Serif" font-size="10.00">cmath</text>
</a>
</g>
</g>
<!-- Node3&#45;&gt;Node5 -->
<g id="edge4" class="edge">
<title>Node3&#45;&gt;Node5</title>
<path fill="none" stroke="midnightblue" d="M469.41,-62.8C403.8,-58.18 255.39,-45.86 122.14,-20.07"/>
<polygon fill="midnightblue" stroke="midnightblue" points="122.65,-16.6 112.17,-18.1 121.3,-23.47 122.65,-16.6"/>
</g>
<!-- Node6 -->
<g id="node6" class="node">
<title>Node6</title>
<g id="a_node6"><a xlink:title=" ">
<polygon fill="none" stroke="#bfbfbf" points="130,-0.5 130,-19.5 195,-19.5 195,-0.5 130,-0.5"/>
<text text-anchor="middle" x="162.5" y="-7.5" font-family="Helvetica,sans-Serif" font-size="10.00">functional</text>
</a>
</g>
</g>
<!-- Node3&#45;&gt;Node6 -->
<g id="edge5" class="edge">
<title>Node3&#45;&gt;Node6</title>
<path fill="none" stroke="midnightblue" d="M469.31,-60.55C415.38,-53.39 307.08,-38.39 204.89,-19.97"/>
<polygon fill="midnightblue" stroke="midnightblue" points="205.48,-16.52 195.02,-18.18 204.23,-23.41 205.48,-16.52"/>
</g>
<!-- Node7 -->
<g id="node7" class="node">
<title>Node7</title>
<g id="a_node7"><a xlink:title=" ">
<polygon fill="none" stroke="#bfbfbf" points="213.5,-0.5 213.5,-19.5 277.5,-19.5 277.5,-0.5 213.5,-0.5"/>
<text text-anchor="middle" x="245.5" y="-7.5" font-family="Helvetica,sans-Serif" font-size="10.00">algorithm</text>
</a>
</g>
</g>
<!-- Node3&#45;&gt;Node7 -->
<g id="edge6" class="edge">
<title>Node3&#45;&gt;Node7</title>
<path fill="none" stroke="midnightblue" d="M469.27,-58.03C428.41,-49.68 357.74,-35.15 287.61,-20.22"/>
<polygon fill="midnightblue" stroke="midnightblue" points="288.23,-16.77 277.72,-18.11 286.77,-23.62 288.23,-16.77"/>
</g>
<!-- Node8 -->
<g id="node8" class="node">
<title>Node8</title>
<g id="a_node8"><a xlink:title=" ">
<polygon fill="none" stroke="#bfbfbf" points="295.5,-0.5 295.5,-19.5 355.5,-19.5 355.5,-0.5 295.5,-0.5"/>
<text text-anchor="middle" x="325.5" y="-7.5" font-family="Helvetica,sans-Serif" font-size="10.00">iostream</text>
</a>
</g>
</g>
<!-- Node3&#45;&gt;Node8 -->
<g id="edge7" class="edge">
<title>Node3&#45;&gt;Node8</title>
<path fill="none" stroke="midnightblue" d="M475.3,-56.44C445.09,-47.28 396.99,-32.69 363.47,-22.52"/>
<polygon fill="midnightblue" stroke="midnightblue" points="364.16,-19.07 353.57,-19.52 362.13,-25.77 364.16,-19.07"/>
</g>
<!-- Node9 -->
<g id="node9" class="node">
<title>Node9</title>
<g id="a_node9"><a xlink:title=" ">
<polygon fill="none" stroke="#bfbfbf" points="373.5,-0.5 373.5,-19.5 423.5,-19.5 423.5,-0.5 373.5,-0.5"/>
<text text-anchor="middle" x="398.5" y="-7.5" font-family="Helvetica,sans-Serif" font-size="10.00">chrono</text>
</a>
</g>
</g>
<!-- Node3&#45;&gt;Node9 -->
<g id="edge8" class="edge">
<title>Node3&#45;&gt;Node9</title>
<path fill="none" stroke="midnightblue" d="M486.63,-56.32C469.79,-47.66 443.69,-34.24 424.26,-24.25"/>
<polygon fill="midnightblue" stroke="midnightblue" points="425.82,-21.12 415.33,-19.65 422.62,-27.34 425.82,-21.12"/>
</g>
<!-- Node10 -->
<g id="node10" class="node">
<title>Node10</title>
<g id="a_node10"><a xlink:title=" ">
<polygon fill="none" stroke="#bfbfbf" points="441.5,-0.5 441.5,-19.5 497.5,-19.5 497.5,-0.5 441.5,-0.5"/>
<text text-anchor="middle" x="469.5" y="-7.5" font-family="Helvetica,sans-Serif" font-size="10.00">sstream</text>
</a>
</g>
</g>
<!-- Node3&#45;&gt;Node10 -->
<g id="edge9" class="edge">
<title>Node3&#45;&gt;Node10</title>
<path fill="none" stroke="midnightblue" d="M497.89,-56.08C493.13,-48.53 486.18,-37.49 480.35,-28.23"/>
<polygon fill="midnightblue" stroke="midnightblue" points="483.3,-26.35 475.01,-19.75 477.38,-30.08 483.3,-26.35"/>
</g>
<!-- Node11 -->
<g id="node11" class="node">
<title>Node11</title>
<g id="a_node11"><a xlink:title=" ">
<polygon fill="none" stroke="#bfbfbf" points="515.5,-0.5 515.5,-19.5 559.5,-19.5 559.5,-0.5 515.5,-0.5"/>
<text text-anchor="middle" x="537.5" y="-7.5" font-family="Helvetica,sans-Serif" font-size="10.00">limits</text>
</a>
</g>
</g>
<!-- Node3&#45;&gt;Node11 -->
<g id="edge10" class="edge">
<title>Node3&#45;&gt;Node11</title>
<path fill="none" stroke="midnightblue" d="M509.11,-56.08C513.87,-48.53 520.82,-37.49 526.65,-28.23"/>
<polygon fill="midnightblue" stroke="midnightblue" points="529.62,-30.08 531.99,-19.75 523.7,-26.35 529.62,-30.08"/>
</g>
<!-- Node12 -->
<g id="node12" class="node">
<title>Node12</title>
<g id="a_node12"><a xlink:title=" ">
<polygon fill="none" stroke="#bfbfbf" points="577.5,-0.5 577.5,-19.5 635.5,-19.5 635.5,-0.5 577.5,-0.5"/>
<text text-anchor="middle" x="606.5" y="-7.5" font-family="Helvetica,sans-Serif" font-size="10.00">memory</text>
</a>
</g>
</g>
<!-- Node3&#45;&gt;Node12 -->
<g id="edge11" class="edge">
<title>Node3&#45;&gt;Node12</title>
<path fill="none" stroke="midnightblue" d="M520.05,-56.32C536.49,-47.7 561.93,-34.36 580.97,-24.39"/>
<polygon fill="midnightblue" stroke="midnightblue" points="582.76,-27.4 589.99,-19.65 579.51,-21.2 582.76,-27.4"/>
</g>
<!-- Node13 -->
<g id="node13" class="node">
<title>Node13</title>
<g id="a_node13"><a xlink:title=" ">
<polygon fill="none" stroke="#bfbfbf" points="653.5,-0.5 653.5,-19.5 709.5,-19.5 709.5,-0.5 653.5,-0.5"/>
<text text-anchor="middle" x="681.5" y="-7.5" font-family="Helvetica,sans-Serif" font-size="10.00">numeric</text>
</a>
</g>
</g>
<!-- Node3&#45;&gt;Node13 -->
<g id="edge12" class="edge">
<title>Node3&#45;&gt;Node13</title>
<path fill="none" stroke="midnightblue" d="M531.7,-56.44C561.91,-47.28 610.01,-32.69 643.53,-22.52"/>
<polygon fill="midnightblue" stroke="midnightblue" points="644.87,-25.77 653.43,-19.52 642.84,-19.07 644.87,-25.77"/>
</g>
<!-- Node14 -->
<g id="node14" class="node">
<title>Node14</title>
<g id="a_node14"><a xlink:title=" ">
<polygon fill="none" stroke="#bfbfbf" points="728,-0.5 728,-19.5 781,-19.5 781,-0.5 728,-0.5"/>
<text text-anchor="middle" x="754.5" y="-7.5" font-family="Helvetica,sans-Serif" font-size="10.00">iterator</text>
</a>
</g>
</g>
<!-- Node3&#45;&gt;Node14 -->
<g id="edge13" class="edge">
<title>Node3&#45;&gt;Node14</title>
<path fill="none" stroke="midnightblue" d="M537.85,-58.24C578.45,-50.15 648.31,-35.94 717.97,-20.05"/>
<polygon fill="midnightblue" stroke="midnightblue" points="718.83,-23.45 727.79,-17.8 717.26,-16.62 718.83,-23.45"/>
</g>
<!-- Node15 -->
<g id="node15" class="node">
<title>Node15</title>
<g id="a_node15"><a xlink:title=" ">
<polygon fill="none" stroke="#bfbfbf" points="799.5,-0.5 799.5,-19.5 849.5,-19.5 849.5,-0.5 799.5,-0.5"/>
<text text-anchor="middle" x="824.5" y="-7.5" font-family="Helvetica,sans-Serif" font-size="10.00">cstring</text>
</a>
</g>
</g>
<!-- Node3&#45;&gt;Node15 -->
<g id="edge14" class="edge">
<title>Node3&#45;&gt;Node15</title>
<path fill="none" stroke="midnightblue" d="M537.73,-60.8C589.95,-54.13 692.81,-40.01 789.39,-20.05"/>
<polygon fill="midnightblue" stroke="midnightblue" points="790.25,-23.45 799.32,-17.98 788.81,-16.6 790.25,-23.45"/>
</g>
<!-- Node16 -->
<g id="node16" class="node">
<title>Node16</title>
<g id="a_node16"><a xlink:title=" ">
<polygon fill="none" stroke="#bfbfbf" points="867.5,-0.5 867.5,-19.5 925.5,-19.5 925.5,-0.5 867.5,-0.5"/>
<text text-anchor="middle" x="896.5" y="-7.5" font-family="Helvetica,sans-Serif" font-size="10.00">H5Cpp.h</text>
</a>
</g>
</g>
<!-- Node3&#45;&gt;Node16 -->
<g id="edge15" class="edge">
<title>Node3&#45;&gt;Node16</title>
<path fill="none" stroke="midnightblue" d="M537.96,-61.86C599.92,-55.96 734.41,-41.93 857.16,-20.08"/>
<polygon fill="midnightblue" stroke="midnightblue" points="857.89,-23.51 867.11,-18.29 856.64,-16.62 857.89,-23.51"/>
</g>
<!-- Node17 -->
<g id="node17" class="node">
<title>Node17</title>
<g id="a_node17"><a xlink:title=" ">
<polygon fill="none" stroke="#bfbfbf" points="943.5,-0.5 943.5,-19.5 993.5,-19.5 993.5,-0.5 943.5,-0.5"/>
<text text-anchor="middle" x="968.5" y="-7.5" font-family="Helvetica,sans-Serif" font-size="10.00">fitsio.h</text>
</a>
</g>
</g>
<!-- Node3&#45;&gt;Node17 -->
<g id="edge16" class="edge">
<title>Node3&#45;&gt;Node17</title>
<path fill="none" stroke="midnightblue" d="M537.56,-63.24C609.16,-59.16 780.59,-47.36 933.32,-19.95"/>
<polygon fill="midnightblue" stroke="midnightblue" points="934.14,-23.36 943.35,-18.12 932.88,-16.47 934.14,-23.36"/>
</g>
<!-- Node18&#45;&gt;Node3 -->
<g id="edge18" class="edge">
<title>Node18&#45;&gt;Node3</title>
<path fill="none" stroke="midnightblue" d="M453.46,-168.28C456.52,-155.5 463.06,-131.15 472.5,-112 477.37,-102.13 484.19,-91.96 490.2,-83.79"/>
<polygon fill="midnightblue" stroke="midnightblue" points="492.99,-85.9 496.26,-75.82 487.42,-81.66 492.99,-85.9"/>
</g>
<!-- Node18&#45;&gt;Node19 -->
<g id="edge19" class="edge">
<title>Node18&#45;&gt;Node19</title>
<path fill="none" stroke="midnightblue" d="M460.09,-168.08C467.66,-160.22 478.88,-148.57 488.01,-139.08"/>
<polygon fill="midnightblue" stroke="midnightblue" points="490.66,-141.38 495.07,-131.75 485.62,-136.53 490.66,-141.38"/>
</g>
<!-- Node19&#45;&gt;Node3 -->
<g id="edge20" class="edge">
<title>Node19&#45;&gt;Node3</title>
<path fill="none" stroke="midnightblue" d="M503.5,-112.08C503.5,-105.01 503.5,-94.86 503.5,-85.99"/>
<polygon fill="midnightblue" stroke="midnightblue" points="507,-85.75 503.5,-75.75 500,-85.75 507,-85.75"/>
</g>
<!-- Node20&#45;&gt;Node3 -->
<g id="edge22" class="edge">
<title>Node20&#45;&gt;Node3</title>
<path fill="none" stroke="midnightblue" d="M561.7,-168.4C556.03,-155.78 544.8,-131.62 533.5,-112 528.05,-102.54 521.36,-92.39 515.69,-84.13"/>
<polygon fill="midnightblue" stroke="midnightblue" points="518.42,-81.94 509.83,-75.75 512.69,-85.95 518.42,-81.94"/>
</g>
<!-- Node20&#45;&gt;Node19 -->
<g id="edge23" class="edge">
<title>Node20&#45;&gt;Node19</title>
<path fill="none" stroke="midnightblue" d="M555.54,-168.32C546.37,-160.34 532.56,-148.31 521.47,-138.65"/>
<polygon fill="midnightblue" stroke="midnightblue" points="523.48,-135.76 513.64,-131.83 518.88,-141.04 523.48,-135.76"/>
</g>
<!-- Node21&#45;&gt;Node3 -->
<g id="edge25" class="edge">
<title>Node21&#45;&gt;Node3</title>
<path fill="none" stroke="midnightblue" d="M631.59,-168.37C607.94,-149.65 551.71,-105.15 522.24,-81.83"/>
<polygon fill="midnightblue" stroke="midnightblue" points="524.37,-79.05 514.36,-75.59 520.03,-84.54 524.37,-79.05"/>
</g>
<!-- Node22 -->
<g id="node22" class="node">
<title>Node22</title>
<g id="a_node22"><a xlink:title=" ">
<polygon fill="none" stroke="#bfbfbf" points="620,-112.5 620,-131.5 713,-131.5 713,-112.5 620,-112.5"/>
<text text-anchor="middle" x="666.5" y="-119.5" font-family="Helvetica,sans-Serif" font-size="10.00">unordered_map</text>
</a>
</g>
</g>
<!-- Node21&#45;&gt;Node22 -->
<g id="edge26" class="edge">
<title>Node21&#45;&gt;Node22</title>
<path fill="none" stroke="midnightblue" d="M646.46,-168.08C649.71,-160.77 654.42,-150.18 658.45,-141.1"/>
<polygon fill="midnightblue" stroke="midnightblue" points="661.75,-142.31 662.61,-131.75 655.35,-139.47 661.75,-142.31"/>
</g>
</g>
</svg>
        <g id="navigator" transform="translate(0 0)" fill="#404254">
                <rect fill="#f2f5e9" fill-opacity="0.5" stroke="#606060" stroke-width=".5" x="0" y="0" width="60" height="60"/>
                <use id="zoomplus" xlink:href="#zoomPlus" x="17" y="9" onmousedown="handleZoom(evt,'in')"/>
                <use id="zoomminus" xlink:href="#zoomMin" x="42" y="9" onmousedown="handleZoom(evt,'out')"/>
                <use id="reset" xlink:href="#resetDef" x="30" y="36" onmousedown="handleReset()"/>
                <g id="arrowUp" xlink:href="#dirArrow" transform="translate(30 24)" onmousedown="handlePan(0,-1)">
                  <use xlink:href="#rim" fill="#404040">
                        <set attributeName="fill" to="#808080" begin="arrowUp.mouseover" end="arrowUp.mouseout"/>
                  </use>
                  <path fill="none" stroke="white" stroke-width="1.5" d="M0,-3.0v7 M-2.5,-0.5L0,-3.0L2.5,-0.5"/>
                </g>
                <g id="arrowRight" xlink:href="#dirArrow" transform="rotate(90) translate(36 -43)" onmousedown="handlePan(1,0)">
                  <use xlink:href="#rim" fill="#404040">
                        <set attributeName="fill" to="#808080" begin="arrowRight.mouseover" end="arrowRight.mouseout"/>
                  </use>
                  <path fill="none" stroke="white" stroke-width="1.5" d="M0,-3.0v7 M-2.5,-0.5L0,-3.0L2.5,-0.5"/>
                </g>
                <g id="arrowDown" xlink:href="#dirArrow" transform="rotate(180) translate(-30 -48)" onmousedown="handlePan(0,1)">
                  <use xlink:href="#rim" fill="#404040">
                        <set attributeName="fill" to="#808080" begin="arrowDown.mouseover" end="arrowDown.mouseout"/>
                  </use>
                  <path fill="none" stroke="white" stroke-width="1.5" d="M0,-3.0v7 M-2.5,-0.5L0,-3.0L2.5,-0.5"/>
                </g>
                <g id="arrowLeft" xlink:href="#dirArrow" transform="rotate(270) translate(-36 17)" onmousedown="handlePan(-1,0)">
                  <use xlink:href="#rim" fill="#404040">
                        <set attributeName="fill" to="#808080" begin="arrowLeft.mouseover" end="arrowLeft.mouseout"/>
                  </use>
                  <path fill="none" stroke="white" stroke-width="1.5" d="M0,-3.0v7 M-2.5,-0.5L0,-3.0L2.5,-0.5"/>
                </g>
        </g>
        <svg viewBox="0 0 15 15" width="100%" height="30px" preserveAspectRatio="xMaxYMin meet">
         <g id="arrow_out" transform="scale(0.3 0.3)">
          <a xlink:href="FastConverter_8cc__incl_org.svg" target="_base">
           <rect id="button" ry="5" rx="5" y="6" x="6" height="38" width="38"
                fill="#f2f5e9" fill-opacity="0.5" stroke="#606060" stroke-width="1.0"/>
           <path id="arrow"
             d="M 11.500037,31.436501 C 11.940474,20.09759 22.043105,11.32322 32.158766,21.979434 L 37.068811,17.246167 C 37.068811,17.246167 37.088388,32 37.088388,32 L 22.160133,31.978069 C 22.160133,31.978069 26.997745,27.140456 26.997745,27.140456 C 18.528582,18.264221 13.291696,25.230495 11.500037,31.436501 z"
             style="fill:#404040;"/>
          </a>
         </g>
        </svg>
</svg>
