<?xml version="1.0" encoding="UTF-8" standalone="no"?>
<!DOCTYPE svg PUBLIC "-//W3C//DTD SVG 1.1//EN"
 "http://www.w3.org/Graphics/SVG/1.1/DTD/svg11.dtd">
<!-- Generated by graphviz version 2.43.0 (0)
 -->
<!-- Title: main Pages: 1 -->
<svg width="219pt" height="66pt"
 viewBox="0.00 0.00 219.00 66.00" xmlns="http://www.w3.org/2000/svg" xmlns:xlink="http://www.w3.org/1999/xlink">
<g id="graph0" class="graph" transform="scale(1 1) rotate(0) translate(4 62)">
<title>main</title>
<!-- Node1 -->
<g id="node1" class="node">
<title>Node1</title>
<g id="a_node1"><a xlink:title=" ">
<polygon fill="#bfbfbf" stroke="black" points="0,-19.5 0,-38.5 41,-38.5 41,-19.5 0,-19.5"/>
<text text-anchor="middle" x="20.5" y="-26.5" font-family="Helvetica,sans-Serif" font-size="10.00">main</text>
</a>
</g>
</g>
<!-- Node2 -->
<g id="node2" class="node">
<title>Node2</title>
<g id="a_node2"><a xlink:href="classConverter.html#a681863d942247093b5f9961be367ec97" target="_top" xlink:title=" ">
<polygon fill="none" stroke="black" points="77,-38.5 77,-57.5 211,-57.5 211,-38.5 77,-38.5"/>
<text text-anchor="middle" x="144" y="-45.5" font-family="Helvetica,sans-Serif" font-size="10.00">Converter::getConverter</text>
</a>
</g>
</g>
<!-- Node1&#45;&gt;Node2 -->
<g id="edge1" class="edge">
<title>Node1&#45;&gt;Node2</title>
<path fill="none" stroke="midnightblue" d="M41.02,-32.05C49.74,-33.42 60.6,-35.11 71.95,-36.89"/>
<polygon fill="midnightblue" stroke="midnightblue" points="71.6,-40.38 82.02,-38.46 72.68,-33.46 71.6,-40.38"/>
</g>
<!-- Node3 -->
<g id="node3" class="node">
<title>Node3</title>
<g id="a_node3"><a xlink:href="main_8cc.html#a7e46e04bd5d16ba665ed1d13ec23e81b" target="_top" xlink:title=" ">
<polygon fill="none" stroke="black" points="109,-0.5 109,-19.5 179,-19.5 179,-0.5 109,-0.5"/>
<text text-anchor="middle" x="144" y="-7.5" font-family="Helvetica,sans-Serif" font-size="10.00">getOptions</text>
</a>
</g>
</g>
<!-- Node1&#45;&gt;Node3 -->
<g id="edge2" class="edge">
<title>Node1&#45;&gt;Node3</title>
<path fill="none" stroke="midnightblue" d="M41.02,-25.95C56.56,-23.52 78.91,-20.02 98.73,-16.92"/>
<polygon fill="midnightblue" stroke="midnightblue" points="99.47,-20.35 108.81,-15.35 98.39,-13.43 99.47,-20.35"/>
</g>
</g>
</svg>
