<?xml version="1.0" encoding="UTF-8" standalone="no"?>
<!DOCTYPE svg PUBLIC "-//W3C//DTD SVG 1.1//EN"
 "http://www.w3.org/Graphics/SVG/1.1/DTD/svg11.dtd">
<!-- Generated by graphviz version 2.43.0 (0)
 -->
<!-- Title: main.cc Pages: 1 -->
<!--zoomable 308 -->
<svg id="main" version="1.1" xmlns="http://www.w3.org/2000/svg" xmlns:xlink="http://www.w3.org/1999/xlink" xml:space="preserve" onload="init(evt)">
<style type="text/css"><![CDATA[
.edge:hover path { stroke: red; }
.edge:hover polygon { stroke: red; fill: red; }
]]></style>
<script type="text/javascript"><![CDATA[
var edges = document.getElementsByTagName('g');
if (edges && edges.length) {
  for (var i=0;i<edges.length;i++) {
    if (edges[i].id.substr(0,4)=='edge') {
      edges[i].setAttribute('class','edge');
    }
  }
}
]]></script>
        <defs>
                <circle id="rim" cx="0" cy="0" r="7"/>
                <circle id="rim2" cx="0" cy="0" r="3.5"/>
                <g id="zoomPlus">
                        <use xlink:href="#rim" fill="#404040">
                                <set attributeName="fill" to="#808080" begin="zoomplus.mouseover" end="zoomplus.mouseout"/>
                        </use>
                        <path d="M-4,0h8M0,-4v8" fill="none" stroke="white" stroke-width="1.5" pointer-events="none"/>
                </g>
                <g id="zoomMin">
                        <use xlink:href="#rim" fill="#404040">
                                <set attributeName="fill" to="#808080" begin="zoomminus.mouseover" end="zoomminus.mouseout"/>
                        </use>
                        <path d="M-4,0h8" fill="none" stroke="white" stroke-width="1.5" pointer-events="none"/>
                </g>
                <g id="dirArrow">
                        <path fill="none" stroke="white" stroke-width="1.5" d="M0,-3.0v7 M-2.5,-0.5L0,-3.0L2.5,-0.5"/>
                </g>
               <g id="resetDef">
                       <use xlink:href="#rim2" fill="#404040">
                               <set attributeName="fill" to="#808080" begin="reset.mouseover" end="reset.mouseout"/>
                       </use>
               </g>
        </defs>

<script type="text/javascript">
var viewWidth = 1070;
var viewHeight = 308;
var sectionId = 'dynsection-0';
</script>
<script xlink:href="svgpan.js"/>
<svg id="graph" class="graph">
<g id="viewport">
<title>main.cc</title>
<!-- Node1 -->
<g id="node1" class="node">
<title>Node1</title>
<g id="a_node1"><a xlink:title=" ">
<polygon fill="#bfbfbf" stroke="black" points="138,-280.5 138,-299.5 193,-299.5 193,-280.5 138,-280.5"/>
<text text-anchor="middle" x="165.5" y="-287.5" font-family="Helvetica,sans-Serif" font-size="10.00">main.cc</text>
</a>
</g>
</g>
<!-- Node2 -->
<g id="node2" class="node">
<title>Node2</title>
<g id="a_node2"><a xlink:title=" ">
<polygon fill="none" stroke="#bfbfbf" points="0,-224.5 0,-243.5 57,-243.5 57,-224.5 0,-224.5"/>
<text text-anchor="middle" x="28.5" y="-231.5" font-family="Helvetica,sans-Serif" font-size="10.00">getopt.h</text>
</a>
</g>
</g>
<!-- Node1&#45;&gt;Node2 -->
<g id="edge1" class="edge">
<title>Node1&#45;&gt;Node2</title>
<path fill="none" stroke="midnightblue" d="M143.79,-280.44C121.15,-271.52 85.43,-257.44 59.75,-247.32"/>
<polygon fill="midnightblue" stroke="midnightblue" points="60.69,-243.93 50.11,-243.52 58.13,-250.44 60.69,-243.93"/>
</g>
<!-- Node3 -->
<g id="node3" class="node">
<title>Node3</title>
<g id="a_node3"><a xlink:title=" ">
<polygon fill="none" stroke="#bfbfbf" points="75.5,-224.5 75.5,-243.5 119.5,-243.5 119.5,-224.5 75.5,-224.5"/>
<text text-anchor="middle" x="97.5" y="-231.5" font-family="Helvetica,sans-Serif" font-size="10.00">regex</text>
</a>
</g>
</g>
<!-- Node1&#45;&gt;Node3 -->
<g id="edge2" class="edge">
<title>Node1&#45;&gt;Node3</title>
<path fill="none" stroke="midnightblue" d="M154.57,-280.32C144.33,-272.18 128.78,-259.84 116.5,-250.09"/>
<polygon fill="midnightblue" stroke="midnightblue" points="118.63,-247.31 108.62,-243.83 114.28,-252.79 118.63,-247.31"/>
</g>
<!-- Node4 -->
<g id="node4" class="node">
<title>Node4</title>
<g id="a_node4"><a xlink:title=" ">
<polygon fill="none" stroke="#bfbfbf" points="138,-224.5 138,-243.5 193,-243.5 193,-224.5 138,-224.5"/>
<text text-anchor="middle" x="165.5" y="-231.5" font-family="Helvetica,sans-Serif" font-size="10.00">fstream</text>
</a>
</g>
</g>
<!-- Node1&#45;&gt;Node4 -->
<g id="edge3" class="edge">
<title>Node1&#45;&gt;Node4</title>
<path fill="none" stroke="midnightblue" d="M165.5,-280.08C165.5,-273.01 165.5,-262.86 165.5,-253.99"/>
<polygon fill="midnightblue" stroke="midnightblue" points="169,-253.75 165.5,-243.75 162,-253.75 169,-253.75"/>
</g>
<!-- Node5 -->
<g id="node5" class="node">
<title>Node5</title>
<g id="a_node5"><a xlink:title=" ">
<polygon fill="none" stroke="#bfbfbf" points="67.5,-0.5 67.5,-19.5 123.5,-19.5 123.5,-0.5 67.5,-0.5"/>
<text text-anchor="middle" x="95.5" y="-7.5" font-family="Helvetica,sans-Serif" font-size="10.00">sstream</text>
</a>
</g>
</g>
<!-- Node1&#45;&gt;Node5 -->
<g id="edge4" class="edge">
<title>Node1&#45;&gt;Node5</title>
<path fill="none" stroke="midnightblue" d="M174.04,-280.41C182.13,-271.84 194.11,-257.97 201.5,-244 215.63,-217.28 221.5,-209.23 221.5,-179 221.5,-179 221.5,-179 221.5,-121 221.5,-71.95 166.65,-39.74 129.33,-23.5"/>
<polygon fill="midnightblue" stroke="midnightblue" points="130.37,-20.14 119.79,-19.53 127.68,-26.61 130.37,-20.14"/>
</g>
<!-- Node6 -->
<g id="node6" class="node">
<title>Node6</title>
<g id="a_node6"><a xlink:href="Converter_8h.html" target="_top" xlink:title=" ">
<polygon fill="none" stroke="black" points="452,-224.5 452,-243.5 525,-243.5 525,-224.5 452,-224.5"/>
<text text-anchor="middle" x="488.5" y="-231.5" font-family="Helvetica,sans-Serif" font-size="10.00">Converter.h</text>
</a>
</g>
</g>
<!-- Node1&#45;&gt;Node6 -->
<g id="edge5" class="edge">
<title>Node1&#45;&gt;Node6</title>
<path fill="none" stroke="midnightblue" d="M193.04,-284.4C248.33,-275.15 373.37,-254.25 441.73,-242.82"/>
<polygon fill="midnightblue" stroke="midnightblue" points="442.5,-246.24 451.79,-241.14 441.35,-239.33 442.5,-246.24"/>
</g>
<!-- Node7 -->
<g id="node7" class="node">
<title>Node7</title>
<g id="a_node7"><a xlink:href="common_8h.html" target="_top" xlink:title=" ">
<polygon fill="none" stroke="black" points="506.5,-56.5 506.5,-75.5 574.5,-75.5 574.5,-56.5 506.5,-56.5"/>
<text text-anchor="middle" x="540.5" y="-63.5" font-family="Helvetica,sans-Serif" font-size="10.00">common.h</text>
</a>
</g>
</g>
<!-- Node6&#45;&gt;Node7 -->
<g id="edge6" class="edge">
<title>Node6&#45;&gt;Node7</title>
<path fill="none" stroke="midnightblue" d="M469.2,-224.48C455.07,-217.08 436.94,-204.89 428.5,-188 424.52,-180.05 425.69,-176.43 428.5,-168 442.19,-126.94 484.9,-96.79 513.45,-80.58"/>
<polygon fill="midnightblue" stroke="midnightblue" points="515.42,-83.49 522.52,-75.63 512.07,-77.35 515.42,-83.49"/>
</g>
<!-- Node21 -->
<g id="node21" class="node">
<title>Node21</title>
<g id="a_node21"><a xlink:href="Stats_8h.html" target="_top" xlink:title=" ">
<polygon fill="none" stroke="black" points="437.5,-168.5 437.5,-187.5 487.5,-187.5 487.5,-168.5 437.5,-168.5"/>
<text text-anchor="middle" x="462.5" y="-175.5" font-family="Helvetica,sans-Serif" font-size="10.00">Stats.h</text>
</a>
</g>
</g>
<!-- Node6&#45;&gt;Node21 -->
<g id="edge21" class="edge">
<title>Node6&#45;&gt;Node21</title>
<path fill="none" stroke="midnightblue" d="M484.21,-224.08C480.65,-216.69 475.48,-205.95 471.08,-196.81"/>
<polygon fill="midnightblue" stroke="midnightblue" points="474.21,-195.24 466.71,-187.75 467.9,-198.28 474.21,-195.24"/>
</g>
<!-- Node22 -->
<g id="node22" class="node">
<title>Node22</title>
<g id="a_node22"><a xlink:href="Util_8h.html" target="_top" xlink:title=" ">
<polygon fill="none" stroke="black" points="494,-112.5 494,-131.5 537,-131.5 537,-112.5 494,-112.5"/>
<text text-anchor="middle" x="515.5" y="-119.5" font-family="Helvetica,sans-Serif" font-size="10.00">Util.h</text>
</a>
</g>
</g>
<!-- Node6&#45;&gt;Node22 -->
<g id="edge31" class="edge">
<title>Node6&#45;&gt;Node22</title>
<path fill="none" stroke="midnightblue" d="M490.62,-224.37C494.98,-206.62 505.03,-165.67 510.94,-141.6"/>
<polygon fill="midnightblue" stroke="midnightblue" points="514.41,-142.14 513.39,-131.59 507.61,-140.47 514.41,-142.14"/>
</g>
<!-- Node23 -->
<g id="node23" class="node">
<title>Node23</title>
<g id="a_node23"><a xlink:href="MipMap_8h.html" target="_top" xlink:title=" ">
<polygon fill="none" stroke="black" points="544,-168.5 544,-187.5 609,-187.5 609,-168.5 544,-168.5"/>
<text text-anchor="middle" x="576.5" y="-175.5" font-family="Helvetica,sans-Serif" font-size="10.00">MipMap.h</text>
</a>
</g>
</g>
<!-- Node6&#45;&gt;Node23 -->
<g id="edge25" class="edge">
<title>Node6&#45;&gt;Node23</title>
<path fill="none" stroke="midnightblue" d="M502.64,-224.32C516.37,-215.9 537.44,-202.97 553.56,-193.07"/>
<polygon fill="midnightblue" stroke="midnightblue" points="555.7,-195.87 562.4,-187.65 552.04,-189.9 555.7,-195.87"/>
</g>
<!-- Node24 -->
<g id="node24" class="node">
<title>Node24</title>
<g id="a_node24"><a xlink:href="Timer_8h.html" target="_top" xlink:title=" ">
<polygon fill="none" stroke="black" points="627,-168.5 627,-187.5 680,-187.5 680,-168.5 627,-168.5"/>
<text text-anchor="middle" x="653.5" y="-175.5" font-family="Helvetica,sans-Serif" font-size="10.00">Timer.h</text>
</a>
</g>
</g>
<!-- Node6&#45;&gt;Node24 -->
<g id="edge28" class="edge">
<title>Node6&#45;&gt;Node24</title>
<path fill="none" stroke="midnightblue" d="M514.64,-224.44C542.52,-215.32 586.85,-200.81 617.9,-190.65"/>
<polygon fill="midnightblue" stroke="midnightblue" points="619.06,-193.95 627.48,-187.52 616.88,-187.3 619.06,-193.95"/>
</g>
<!-- Node7&#45;&gt;Node5 -->
<g id="edge13" class="edge">
<title>Node7&#45;&gt;Node5</title>
<path fill="none" stroke="midnightblue" d="M506.44,-62.73C437.72,-57.84 277.47,-44.82 133.59,-19.99"/>
<polygon fill="midnightblue" stroke="midnightblue" points="134.16,-16.53 123.7,-18.26 132.95,-23.43 134.16,-16.53"/>
</g>
<!-- Node8 -->
<g id="node8" class="node">
<title>Node8</title>
<g id="a_node8"><a xlink:title=" ">
<polygon fill="none" stroke="#bfbfbf" points="142,-0.5 142,-19.5 189,-19.5 189,-0.5 142,-0.5"/>
<text text-anchor="middle" x="165.5" y="-7.5" font-family="Helvetica,sans-Serif" font-size="10.00">vector</text>
</a>
</g>
</g>
<!-- Node7&#45;&gt;Node8 -->
<g id="edge7" class="edge">
<title>Node7&#45;&gt;Node8</title>
<path fill="none" stroke="midnightblue" d="M506.15,-62.14C445.78,-56.76 316.6,-43.67 199.06,-20.08"/>
<polygon fill="midnightblue" stroke="midnightblue" points="199.67,-16.63 189.17,-18.07 198.27,-23.49 199.67,-16.63"/>
</g>
<!-- Node9 -->
<g id="node9" class="node">
<title>Node9</title>
<g id="a_node9"><a xlink:title=" ">
<polygon fill="none" stroke="#bfbfbf" points="207,-0.5 207,-19.5 254,-19.5 254,-0.5 207,-0.5"/>
<text text-anchor="middle" x="230.5" y="-7.5" font-family="Helvetica,sans-Serif" font-size="10.00">cmath</text>
</a>
</g>
</g>
<!-- Node7&#45;&gt;Node9 -->
<g id="edge8" class="edge">
<title>Node7&#45;&gt;Node9</title>
<path fill="none" stroke="midnightblue" d="M506.46,-60.76C455.61,-54.15 356.69,-40.23 264,-20.14"/>
<polygon fill="midnightblue" stroke="midnightblue" points="264.71,-16.71 254.19,-17.99 263.21,-23.55 264.71,-16.71"/>
</g>
<!-- Node10 -->
<g id="node10" class="node">
<title>Node10</title>
<g id="a_node10"><a xlink:title=" ">
<polygon fill="none" stroke="#bfbfbf" points="272,-0.5 272,-19.5 337,-19.5 337,-0.5 272,-0.5"/>
<text text-anchor="middle" x="304.5" y="-7.5" font-family="Helvetica,sans-Serif" font-size="10.00">functional</text>
</a>
</g>
</g>
<!-- Node7&#45;&gt;Node10 -->
<g id="edge9" class="edge">
<title>Node7&#45;&gt;Node10</title>
<path fill="none" stroke="midnightblue" d="M506.44,-57.21C464.31,-47.57 392.58,-31.15 346.92,-20.71"/>
<polygon fill="midnightblue" stroke="midnightblue" points="347.56,-17.26 337.04,-18.44 346,-24.09 347.56,-17.26"/>
</g>
<!-- Node11 -->
<g id="node11" class="node">
<title>Node11</title>
<g id="a_node11"><a xlink:title=" ">
<polygon fill="none" stroke="#bfbfbf" points="355.5,-0.5 355.5,-19.5 419.5,-19.5 419.5,-0.5 355.5,-0.5"/>
<text text-anchor="middle" x="387.5" y="-7.5" font-family="Helvetica,sans-Serif" font-size="10.00">algorithm</text>
</a>
</g>
</g>
<!-- Node7&#45;&gt;Node11 -->
<g id="edge10" class="edge">
<title>Node7&#45;&gt;Node11</title>
<path fill="none" stroke="midnightblue" d="M516.26,-56.44C490.63,-47.4 450.01,-33.06 421.26,-22.92"/>
<polygon fill="midnightblue" stroke="midnightblue" points="422.22,-19.54 411.63,-19.52 419.89,-26.15 422.22,-19.54"/>
</g>
<!-- Node12 -->
<g id="node12" class="node">
<title>Node12</title>
<g id="a_node12"><a xlink:title=" ">
<polygon fill="none" stroke="#bfbfbf" points="437.5,-0.5 437.5,-19.5 497.5,-19.5 497.5,-0.5 437.5,-0.5"/>
<text text-anchor="middle" x="467.5" y="-7.5" font-family="Helvetica,sans-Serif" font-size="10.00">iostream</text>
</a>
</g>
</g>
<!-- Node7&#45;&gt;Node12 -->
<g id="edge11" class="edge">
<title>Node7&#45;&gt;Node12</title>
<path fill="none" stroke="midnightblue" d="M528.77,-56.32C517.66,-48.11 500.76,-35.6 487.52,-25.81"/>
<polygon fill="midnightblue" stroke="midnightblue" points="489.56,-22.97 479.44,-19.83 485.4,-28.59 489.56,-22.97"/>
</g>
<!-- Node13 -->
<g id="node13" class="node">
<title>Node13</title>
<g id="a_node13"><a xlink:title=" ">
<polygon fill="none" stroke="#bfbfbf" points="515.5,-0.5 515.5,-19.5 565.5,-19.5 565.5,-0.5 515.5,-0.5"/>
<text text-anchor="middle" x="540.5" y="-7.5" font-family="Helvetica,sans-Serif" font-size="10.00">chrono</text>
</a>
</g>
</g>
<!-- Node7&#45;&gt;Node13 -->
<g id="edge12" class="edge">
<title>Node7&#45;&gt;Node13</title>
<path fill="none" stroke="midnightblue" d="M540.5,-56.08C540.5,-49.01 540.5,-38.86 540.5,-29.99"/>
<polygon fill="midnightblue" stroke="midnightblue" points="544,-29.75 540.5,-19.75 537,-29.75 544,-29.75"/>
</g>
<!-- Node14 -->
<g id="node14" class="node">
<title>Node14</title>
<g id="a_node14"><a xlink:title=" ">
<polygon fill="none" stroke="#bfbfbf" points="583.5,-0.5 583.5,-19.5 627.5,-19.5 627.5,-0.5 583.5,-0.5"/>
<text text-anchor="middle" x="605.5" y="-7.5" font-family="Helvetica,sans-Serif" font-size="10.00">limits</text>
</a>
</g>
</g>
<!-- Node7&#45;&gt;Node14 -->
<g id="edge14" class="edge">
<title>Node7&#45;&gt;Node14</title>
<path fill="none" stroke="midnightblue" d="M550.94,-56.32C560.65,-48.26 575.32,-36.08 587,-26.37"/>
<polygon fill="midnightblue" stroke="midnightblue" points="589.41,-28.92 594.87,-19.83 584.94,-23.53 589.41,-28.92"/>
</g>
<!-- Node15 -->
<g id="node15" class="node">
<title>Node15</title>
<g id="a_node15"><a xlink:title=" ">
<polygon fill="none" stroke="#bfbfbf" points="645.5,-0.5 645.5,-19.5 703.5,-19.5 703.5,-0.5 645.5,-0.5"/>
<text text-anchor="middle" x="674.5" y="-7.5" font-family="Helvetica,sans-Serif" font-size="10.00">memory</text>
</a>
</g>
</g>
<!-- Node7&#45;&gt;Node15 -->
<g id="edge15" class="edge">
<title>Node7&#45;&gt;Node15</title>
<path fill="none" stroke="midnightblue" d="M561.73,-56.44C583.88,-47.52 618.82,-33.44 643.94,-23.32"/>
<polygon fill="midnightblue" stroke="midnightblue" points="645.4,-26.5 653.37,-19.52 642.78,-20.01 645.4,-26.5"/>
</g>
<!-- Node16 -->
<g id="node16" class="node">
<title>Node16</title>
<g id="a_node16"><a xlink:title=" ">
<polygon fill="none" stroke="#bfbfbf" points="721.5,-0.5 721.5,-19.5 777.5,-19.5 777.5,-0.5 721.5,-0.5"/>
<text text-anchor="middle" x="749.5" y="-7.5" font-family="Helvetica,sans-Serif" font-size="10.00">numeric</text>
</a>
</g>
</g>
<!-- Node7&#45;&gt;Node16 -->
<g id="edge16" class="edge">
<title>Node7&#45;&gt;Node16</title>
<path fill="none" stroke="midnightblue" d="M573.62,-56.44C611.1,-46.76 672.05,-31.01 711.46,-20.83"/>
<polygon fill="midnightblue" stroke="midnightblue" points="712.42,-24.19 721.23,-18.3 710.67,-17.42 712.42,-24.19"/>
</g>
<!-- Node17 -->
<g id="node17" class="node">
<title>Node17</title>
<g id="a_node17"><a xlink:title=" ">
<polygon fill="none" stroke="#bfbfbf" points="796,-0.5 796,-19.5 849,-19.5 849,-0.5 796,-0.5"/>
<text text-anchor="middle" x="822.5" y="-7.5" font-family="Helvetica,sans-Serif" font-size="10.00">iterator</text>
</a>
</g>
</g>
<!-- Node7&#45;&gt;Node17 -->
<g id="edge17" class="edge">
<title>Node7&#45;&gt;Node17</title>
<path fill="none" stroke="midnightblue" d="M574.86,-59.43C620.68,-51.84 704.51,-37.43 785.9,-20.01"/>
<polygon fill="midnightblue" stroke="midnightblue" points="786.77,-23.41 795.81,-17.88 785.29,-16.56 786.77,-23.41"/>
</g>
<!-- Node18 -->
<g id="node18" class="node">
<title>Node18</title>
<g id="a_node18"><a xlink:title=" ">
<polygon fill="none" stroke="#bfbfbf" points="867.5,-0.5 867.5,-19.5 917.5,-19.5 917.5,-0.5 867.5,-0.5"/>
<text text-anchor="middle" x="892.5" y="-7.5" font-family="Helvetica,sans-Serif" font-size="10.00">cstring</text>
</a>
</g>
</g>
<!-- Node7&#45;&gt;Node18 -->
<g id="edge18" class="edge">
<title>Node7&#45;&gt;Node18</title>
<path fill="none" stroke="midnightblue" d="M574.61,-61.51C631.36,-55.42 748.88,-41.58 857.52,-19.99"/>
<polygon fill="midnightblue" stroke="midnightblue" points="858.21,-23.42 867.33,-18.02 856.83,-16.56 858.21,-23.42"/>
</g>
<!-- Node19 -->
<g id="node19" class="node">
<title>Node19</title>
<g id="a_node19"><a xlink:title=" ">
<polygon fill="none" stroke="#bfbfbf" points="935.5,-0.5 935.5,-19.5 993.5,-19.5 993.5,-0.5 935.5,-0.5"/>
<text text-anchor="middle" x="964.5" y="-7.5" font-family="Helvetica,sans-Serif" font-size="10.00">H5Cpp.h</text>
</a>
</g>
</g>
<!-- Node7&#45;&gt;Node19 -->
<g id="edge19" class="edge">
<title>Node7&#45;&gt;Node19</title>
<path fill="none" stroke="midnightblue" d="M574.51,-62.38C640.34,-57.01 789.89,-43.41 925,-20.09"/>
<polygon fill="midnightblue" stroke="midnightblue" points="925.86,-23.49 935.11,-18.32 924.66,-16.59 925.86,-23.49"/>
</g>
<!-- Node20 -->
<g id="node20" class="node">
<title>Node20</title>
<g id="a_node20"><a xlink:title=" ">
<polygon fill="none" stroke="#bfbfbf" points="1011.5,-0.5 1011.5,-19.5 1061.5,-19.5 1061.5,-0.5 1011.5,-0.5"/>
<text text-anchor="middle" x="1036.5" y="-7.5" font-family="Helvetica,sans-Serif" font-size="10.00">fitsio.h</text>
</a>
</g>
</g>
<!-- Node7&#45;&gt;Node20 -->
<g id="edge20" class="edge">
<title>Node7&#45;&gt;Node20</title>
<path fill="none" stroke="midnightblue" d="M574.67,-63.56C650.02,-59.99 836.22,-48.96 1001.03,-19.99"/>
<polygon fill="midnightblue" stroke="midnightblue" points="1002.12,-23.35 1011.35,-18.14 1000.89,-16.45 1002.12,-23.35"/>
</g>
<!-- Node21&#45;&gt;Node7 -->
<g id="edge22" class="edge">
<title>Node21&#45;&gt;Node7</title>
<path fill="none" stroke="midnightblue" d="M463.84,-168.3C466.2,-155.13 472.08,-129.77 484.5,-112 493.07,-99.74 505.9,-89.09 517.12,-81.23"/>
<polygon fill="midnightblue" stroke="midnightblue" points="519.27,-84.01 525.66,-75.55 515.4,-78.18 519.27,-84.01"/>
</g>
<!-- Node21&#45;&gt;Node22 -->
<g id="edge23" class="edge">
<title>Node21&#45;&gt;Node22</title>
<path fill="none" stroke="midnightblue" d="M471.25,-168.08C478.97,-160.22 490.4,-148.57 499.72,-139.08"/>
<polygon fill="midnightblue" stroke="midnightblue" points="502.4,-141.34 506.91,-131.75 497.41,-136.44 502.4,-141.34"/>
</g>
<!-- Node22&#45;&gt;Node7 -->
<g id="edge24" class="edge">
<title>Node22&#45;&gt;Node7</title>
<path fill="none" stroke="midnightblue" d="M519.63,-112.08C523.01,-104.77 527.92,-94.18 532.12,-85.1"/>
<polygon fill="midnightblue" stroke="midnightblue" points="535.42,-86.3 536.45,-75.75 529.07,-83.36 535.42,-86.3"/>
</g>
<!-- Node23&#45;&gt;Node7 -->
<g id="edge26" class="edge">
<title>Node23&#45;&gt;Node7</title>
<path fill="none" stroke="midnightblue" d="M573.68,-168.37C567.84,-150.54 554.34,-109.3 546.48,-85.27"/>
<polygon fill="midnightblue" stroke="midnightblue" points="549.75,-84.01 543.31,-75.59 543.1,-86.18 549.75,-84.01"/>
</g>
<!-- Node23&#45;&gt;Node22 -->
<g id="edge27" class="edge">
<title>Node23&#45;&gt;Node22</title>
<path fill="none" stroke="midnightblue" d="M566.7,-168.32C557.68,-160.34 544.09,-148.31 533.18,-138.65"/>
<polygon fill="midnightblue" stroke="midnightblue" points="535.29,-135.84 525.48,-131.83 530.65,-141.08 535.29,-135.84"/>
</g>
<!-- Node24&#45;&gt;Node7 -->
<g id="edge29" class="edge">
<title>Node24&#45;&gt;Node7</title>
<path fill="none" stroke="midnightblue" d="M644.63,-168.37C625.65,-149.89 580.86,-106.29 556.67,-82.74"/>
<polygon fill="midnightblue" stroke="midnightblue" points="558.93,-80.06 549.33,-75.59 554.05,-85.07 558.93,-80.06"/>
</g>
<!-- Node25 -->
<g id="node25" class="node">
<title>Node25</title>
<g id="a_node25"><a xlink:title=" ">
<polygon fill="none" stroke="#bfbfbf" points="632,-112.5 632,-131.5 725,-131.5 725,-112.5 632,-112.5"/>
<text text-anchor="middle" x="678.5" y="-119.5" font-family="Helvetica,sans-Serif" font-size="10.00">unordered_map</text>
</a>
</g>
</g>
<!-- Node24&#45;&gt;Node25 -->
<g id="edge30" class="edge">
<title>Node24&#45;&gt;Node25</title>
<path fill="none" stroke="midnightblue" d="M657.63,-168.08C661.01,-160.77 665.92,-150.18 670.12,-141.1"/>
<polygon fill="midnightblue" stroke="midnightblue" points="673.42,-142.3 674.45,-131.75 667.07,-139.36 673.42,-142.3"/>
</g>
</g>
</svg>
        <g id="navigator" transform="translate(0 0)" fill="#404254">
                <rect fill="#f2f5e9" fill-opacity="0.5" stroke="#606060" stroke-width=".5" x="0" y="0" width="60" height="60"/>
                <use id="zoomplus" xlink:href="#zoomPlus" x="17" y="9" onmousedown="handleZoom(evt,'in')"/>
                <use id="zoomminus" xlink:href="#zoomMin" x="42" y="9" onmousedown="handleZoom(evt,'out')"/>
                <use id="reset" xlink:href="#resetDef" x="30" y="36" onmousedown="handleReset()"/>
                <g id="arrowUp" xlink:href="#dirArrow" transform="translate(30 24)" onmousedown="handlePan(0,-1)">
                  <use xlink:href="#rim" fill="#404040">
                        <set attributeName="fill" to="#808080" begin="arrowUp.mouseover" end="arrowUp.mouseout"/>
                  </use>
                  <path fill="none" stroke="white" stroke-width="1.5" d="M0,-3.0v7 M-2.5,-0.5L0,-3.0L2.5,-0.5"/>
                </g>
                <g id="arrowRight" xlink:href="#dirArrow" transform="rotate(90) translate(36 -43)" onmousedown="handlePan(1,0)">
                  <use xlink:href="#rim" fill="#404040">
                        <set attributeName="fill" to="#808080" begin="arrowRight.mouseover" end="arrowRight.mouseout"/>
                  </use>
                  <path fill="none" stroke="white" stroke-width="1.5" d="M0,-3.0v7 M-2.5,-0.5L0,-3.0L2.5,-0.5"/>
                </g>
                <g id="arrowDown" xlink:href="#dirArrow" transform="rotate(180) translate(-30 -48)" onmousedown="handlePan(0,1)">
                  <use xlink:href="#rim" fill="#404040">
                        <set attributeName="fill" to="#808080" begin="arrowDown.mouseover" end="arrowDown.mouseout"/>
                  </use>
                  <path fill="none" stroke="white" stroke-width="1.5" d="M0,-3.0v7 M-2.5,-0.5L0,-3.0L2.5,-0.5"/>
                </g>
                <g id="arrowLeft" xlink:href="#dirArrow" transform="rotate(270) translate(-36 17)" onmousedown="handlePan(-1,0)">
                  <use xlink:href="#rim" fill="#404040">
                        <set attributeName="fill" to="#808080" begin="arrowLeft.mouseover" end="arrowLeft.mouseout"/>
                  </use>
                  <path fill="none" stroke="white" stroke-width="1.5" d="M0,-3.0v7 M-2.5,-0.5L0,-3.0L2.5,-0.5"/>
                </g>
        </g>
        <svg viewBox="0 0 15 15" width="100%" height="30px" preserveAspectRatio="xMaxYMin meet">
         <g id="arrow_out" transform="scale(0.3 0.3)">
          <a xlink:href="main_8cc__incl_org.svg" target="_base">
           <rect id="button" ry="5" rx="5" y="6" x="6" height="38" width="38"
                fill="#f2f5e9" fill-opacity="0.5" stroke="#606060" stroke-width="1.0"/>
           <path id="arrow"
             d="M 11.500037,31.436501 C 11.940474,20.09759 22.043105,11.32322 32.158766,21.979434 L 37.068811,17.246167 C 37.068811,17.246167 37.088388,32 37.088388,32 L 22.160133,31.978069 C 22.160133,31.978069 26.997745,27.140456 26.997745,27.140456 C 18.528582,18.264221 13.291696,25.230495 11.500037,31.436501 z"
             style="fill:#404040;"/>
          </a>
         </g>
        </svg>
</svg>
