<?xml version="1.0" encoding="UTF-8" standalone="no"?>
<!DOCTYPE svg PUBLIC "-//W3C//DTD SVG 1.1//EN"
 "http://www.w3.org/Graphics/SVG/1.1/DTD/svg11.dtd">
<!-- Generated by graphviz version 2.43.0 (0)
 -->
<!-- Title: MipMap.h Pages: 1 -->
<svg width="392pt" height="140pt"
 viewBox="0.00 0.00 392.00 140.00" xmlns="http://www.w3.org/2000/svg" xmlns:xlink="http://www.w3.org/1999/xlink">
<g id="graph0" class="graph" transform="scale(1 1) rotate(0) translate(4 136)">
<title>MipMap.h</title>
<!-- Node1 -->
<g id="node1" class="node">
<title>Node1</title>
<g id="a_node1"><a xlink:title=" ">
<polygon fill="#bfbfbf" stroke="black" points="202,-112.5 202,-131.5 267,-131.5 267,-112.5 202,-112.5"/>
<text text-anchor="middle" x="234.5" y="-119.5" font-family="Helvetica,sans-Serif" font-size="10.00">MipMap.h</text>
</a>
</g>
</g>
<!-- Node2 -->
<g id="node2" class="node">
<title>Node2</title>
<g id="a_node2"><a xlink:href="Converter_8h.html" target="_top" xlink:title=" ">
<polygon fill="none" stroke="black" points="154,-56.5 154,-75.5 227,-75.5 227,-56.5 154,-56.5"/>
<text text-anchor="middle" x="190.5" y="-63.5" font-family="Helvetica,sans-Serif" font-size="10.00">Converter.h</text>
</a>
</g>
</g>
<!-- Node1&#45;&gt;Node2 -->
<g id="edge1" class="edge">
<title>Node1&#45;&gt;Node2</title>
<path fill="none" stroke="midnightblue" d="M220.77,-104.14C213.1,-94.74 203.87,-83.4 197.63,-75.75"/>
<polygon fill="midnightblue" stroke="midnightblue" points="218.2,-106.54 227.23,-112.08 223.63,-102.12 218.2,-106.54"/>
</g>
<!-- Node7 -->
<g id="node7" class="node">
<title>Node7</title>
<g id="a_node7"><a xlink:href="MipMap_8cc.html" target="_top" xlink:title=" ">
<polygon fill="none" stroke="black" points="245,-56.5 245,-75.5 314,-75.5 314,-56.5 245,-56.5"/>
<text text-anchor="middle" x="279.5" y="-63.5" font-family="Helvetica,sans-Serif" font-size="10.00">MipMap.cc</text>
</a>
</g>
</g>
<!-- Node1&#45;&gt;Node7 -->
<g id="edge6" class="edge">
<title>Node1&#45;&gt;Node7</title>
<path fill="none" stroke="midnightblue" d="M248.55,-104.14C256.39,-94.74 265.83,-83.4 272.21,-75.75"/>
<polygon fill="midnightblue" stroke="midnightblue" points="245.64,-102.16 241.93,-112.08 251.02,-106.64 245.64,-102.16"/>
</g>
<!-- Node3 -->
<g id="node3" class="node">
<title>Node3</title>
<g id="a_node3"><a xlink:href="Converter_8cc.html" target="_top" xlink:title=" ">
<polygon fill="none" stroke="black" points="0,-0.5 0,-19.5 77,-19.5 77,-0.5 0,-0.5"/>
<text text-anchor="middle" x="38.5" y="-7.5" font-family="Helvetica,sans-Serif" font-size="10.00">Converter.cc</text>
</a>
</g>
</g>
<!-- Node2&#45;&gt;Node3 -->
<g id="edge2" class="edge">
<title>Node2&#45;&gt;Node3</title>
<path fill="none" stroke="midnightblue" d="M156.83,-53.04C128.23,-42.88 87.89,-28.55 62.47,-19.52"/>
<polygon fill="midnightblue" stroke="midnightblue" points="155.82,-56.39 166.42,-56.44 158.16,-49.8 155.82,-56.39"/>
</g>
<!-- Node4 -->
<g id="node4" class="node">
<title>Node4</title>
<g id="a_node4"><a xlink:href="FastConverter_8cc.html" target="_top" xlink:title=" ">
<polygon fill="none" stroke="black" points="95,-0.5 95,-19.5 192,-19.5 192,-0.5 95,-0.5"/>
<text text-anchor="middle" x="143.5" y="-7.5" font-family="Helvetica,sans-Serif" font-size="10.00">FastConverter.cc</text>
</a>
</g>
</g>
<!-- Node2&#45;&gt;Node4 -->
<g id="edge3" class="edge">
<title>Node2&#45;&gt;Node4</title>
<path fill="none" stroke="midnightblue" d="M176.08,-48.43C167.84,-38.97 157.85,-27.48 151.12,-19.75"/>
<polygon fill="midnightblue" stroke="midnightblue" points="173.53,-50.84 182.74,-56.08 178.81,-46.24 173.53,-50.84"/>
</g>
<!-- Node5 -->
<g id="node5" class="node">
<title>Node5</title>
<g id="a_node5"><a xlink:href="main_8cc.html" target="_top" xlink:title=" ">
<polygon fill="none" stroke="black" points="210,-0.5 210,-19.5 265,-19.5 265,-0.5 210,-0.5"/>
<text text-anchor="middle" x="237.5" y="-7.5" font-family="Helvetica,sans-Serif" font-size="10.00">main.cc</text>
</a>
</g>
</g>
<!-- Node2&#45;&gt;Node5 -->
<g id="edge4" class="edge">
<title>Node2&#45;&gt;Node5</title>
<path fill="none" stroke="midnightblue" d="M204.92,-48.43C213.16,-38.97 223.15,-27.48 229.88,-19.75"/>
<polygon fill="midnightblue" stroke="midnightblue" points="202.19,-46.24 198.26,-56.08 207.47,-50.84 202.19,-46.24"/>
</g>
<!-- Node6 -->
<g id="node6" class="node">
<title>Node6</title>
<g id="a_node6"><a xlink:href="SlowConverter_8cc.html" target="_top" xlink:title=" ">
<polygon fill="none" stroke="black" points="283,-0.5 283,-19.5 384,-19.5 384,-0.5 283,-0.5"/>
<text text-anchor="middle" x="333.5" y="-7.5" font-family="Helvetica,sans-Serif" font-size="10.00">SlowConverter.cc</text>
</a>
</g>
</g>
<!-- Node2&#45;&gt;Node6 -->
<g id="edge5" class="edge">
<title>Node2&#45;&gt;Node6</title>
<path fill="none" stroke="midnightblue" d="M222.53,-52.91C249.41,-42.75 287.14,-28.51 310.95,-19.52"/>
<polygon fill="midnightblue" stroke="midnightblue" points="221.28,-49.64 213.16,-56.44 223.75,-56.19 221.28,-49.64"/>
</g>
</g>
</svg>
