<?xml version="1.0" encoding="UTF-8" standalone="no"?>
<!DOCTYPE svg PUBLIC "-//W3C//DTD SVG 1.1//EN"
 "http://www.w3.org/Graphics/SVG/1.1/DTD/svg11.dtd">
<!-- Generated by graphviz version 2.43.0 (0)
 -->
<!-- Title: Stats::write Pages: 1 -->
<svg width="363pt" height="123pt"
 viewBox="0.00 0.00 363.00 122.62" xmlns="http://www.w3.org/2000/svg" xmlns:xlink="http://www.w3.org/1999/xlink">
<g id="graph0" class="graph" transform="scale(1 1) rotate(0) translate(4 118.62)">
<title>Stats::write</title>
<!-- Node1 -->
<g id="node1" class="node">
<title>Node1</title>
<g id="a_node1"><a xlink:title=" ">
<polygon fill="#bfbfbf" stroke="black" points="0,-57.5 0,-76.5 72,-76.5 72,-57.5 0,-57.5"/>
<text text-anchor="middle" x="36" y="-64.5" font-family="Helvetica,sans-Serif" font-size="10.00">Stats::write</text>
</a>
</g>
</g>
<!-- Node2 -->
<g id="node2" class="node">
<title>Node2</title>
<g id="a_node2"><a xlink:href="Util_8cc.html#a8170ae742eedc980579141210ecb5aa8" target="_top" xlink:title=" ">
<polygon fill="none" stroke="black" points="286,-57.5 286,-76.5 336,-76.5 336,-57.5 286,-57.5"/>
<text text-anchor="middle" x="311" y="-64.5" font-family="Helvetica,sans-Serif" font-size="10.00">extend</text>
</a>
</g>
</g>
<!-- Node1&#45;&gt;Node2 -->
<g id="edge1" class="edge">
<title>Node1&#45;&gt;Node2</title>
<path fill="none" stroke="midnightblue" d="M50.06,-76.55C63.71,-85.91 86.17,-99.52 108,-105 161.02,-118.3 177.7,-117.15 231,-105 250.78,-100.49 271.39,-90.37 286.59,-81.71"/>
<polygon fill="midnightblue" stroke="midnightblue" points="288.47,-84.66 295.31,-76.56 284.92,-78.63 288.47,-84.66"/>
</g>
<!-- Node3 -->
<g id="node3" class="node">
<title>Node3</title>
<g id="a_node3"><a xlink:href="Util_8cc.html#a7f2c6ac257cf9618bce2b682aff786b1" target="_top" xlink:title=" ">
<polygon fill="none" stroke="black" points="139.5,-76.5 139.5,-95.5 199.5,-95.5 199.5,-76.5 139.5,-76.5"/>
<text text-anchor="middle" x="169.5" y="-83.5" font-family="Helvetica,sans-Serif" font-size="10.00">trimAxes</text>
</a>
</g>
</g>
<!-- Node1&#45;&gt;Node3 -->
<g id="edge2" class="edge">
<title>Node1&#45;&gt;Node3</title>
<path fill="none" stroke="midnightblue" d="M72.24,-72.09C89.87,-74.64 111.27,-77.73 129.41,-80.35"/>
<polygon fill="midnightblue" stroke="midnightblue" points="128.98,-83.83 139.38,-81.79 129.99,-76.9 128.98,-83.83"/>
</g>
<!-- Node4 -->
<g id="node4" class="node">
<title>Node4</title>
<g id="a_node4"><a xlink:href="structStats.html#afa9ca35960c7a71ef00827b491dbe348" target="_top" xlink:title=" ">
<polygon fill="none" stroke="black" points="120.5,-0.5 120.5,-19.5 218.5,-19.5 218.5,-0.5 120.5,-0.5"/>
<text text-anchor="middle" x="169.5" y="-7.5" font-family="Helvetica,sans-Serif" font-size="10.00">Stats::writeBasic</text>
</a>
</g>
</g>
<!-- Node1&#45;&gt;Node4 -->
<g id="edge3" class="edge">
<title>Node1&#45;&gt;Node4</title>
<path fill="none" stroke="midnightblue" d="M52.93,-57.36C67.05,-49.09 88.41,-37.23 108,-29 113.2,-26.81 118.75,-24.74 124.29,-22.83"/>
<polygon fill="midnightblue" stroke="midnightblue" points="125.78,-26.02 134.18,-19.55 123.59,-19.37 125.78,-26.02"/>
</g>
<!-- Node6 -->
<g id="node6" class="node">
<title>Node6</title>
<g id="a_node6"><a xlink:href="structStats.html#afbfc12603fb2ed178fc8e77dc1a65708" target="_top" xlink:title=" ">
<polygon fill="none" stroke="black" points="108,-38.5 108,-57.5 231,-57.5 231,-38.5 108,-38.5"/>
<text text-anchor="middle" x="169.5" y="-45.5" font-family="Helvetica,sans-Serif" font-size="10.00">Stats::writeHistogram</text>
</a>
</g>
</g>
<!-- Node1&#45;&gt;Node6 -->
<g id="edge5" class="edge">
<title>Node1&#45;&gt;Node6</title>
<path fill="none" stroke="midnightblue" d="M72.24,-61.91C80.2,-60.76 88.93,-59.5 97.77,-58.22"/>
<polygon fill="midnightblue" stroke="midnightblue" points="98.38,-61.67 107.78,-56.77 97.38,-54.74 98.38,-61.67"/>
</g>
<!-- Node5 -->
<g id="node5" class="node">
<title>Node5</title>
<g id="a_node5"><a xlink:href="Util_8cc.html#a957a4202599a841d7f7f34ef7c938ed2" target="_top" xlink:title=" ">
<polygon fill="none" stroke="black" points="267,-10.5 267,-29.5 355,-29.5 355,-10.5 267,-10.5"/>
<text text-anchor="middle" x="311" y="-17.5" font-family="Helvetica,sans-Serif" font-size="10.00">writeHdf5Data</text>
</a>
</g>
</g>
<!-- Node4&#45;&gt;Node5 -->
<g id="edge4" class="edge">
<title>Node4&#45;&gt;Node5</title>
<path fill="none" stroke="midnightblue" d="M218.51,-13.44C230.7,-14.32 243.88,-15.26 256.33,-16.15"/>
<polygon fill="midnightblue" stroke="midnightblue" points="256.36,-19.66 266.58,-16.89 256.86,-12.68 256.36,-19.66"/>
</g>
<!-- Node6&#45;&gt;Node2 -->
<g id="edge6" class="edge">
<title>Node6&#45;&gt;Node2</title>
<path fill="none" stroke="midnightblue" d="M231.28,-56.28C246.46,-58.35 262.22,-60.49 275.61,-62.32"/>
<polygon fill="midnightblue" stroke="midnightblue" points="275.4,-65.82 285.78,-63.7 276.35,-58.88 275.4,-65.82"/>
</g>
<!-- Node6&#45;&gt;Node5 -->
<g id="edge7" class="edge">
<title>Node6&#45;&gt;Node5</title>
<path fill="none" stroke="midnightblue" d="M218.12,-38.44C230.57,-35.94 244.08,-33.23 256.81,-30.68"/>
<polygon fill="midnightblue" stroke="midnightblue" points="257.7,-34.07 266.81,-28.67 256.32,-27.21 257.7,-34.07"/>
</g>
</g>
</svg>
