<?xml version="1.0" encoding="UTF-8" standalone="no"?>
<!DOCTYPE svg PUBLIC "-//W3C//DTD SVG 1.1//EN"
 "http://www.w3.org/Graphics/SVG/1.1/DTD/svg11.dtd">
<!-- Generated by graphviz version 2.43.0 (0)
 -->
<!-- Title: Timer::start Pages: 1 -->
<svg width="230pt" height="66pt"
 viewBox="0.00 0.00 230.00 66.00" xmlns="http://www.w3.org/2000/svg" xmlns:xlink="http://www.w3.org/1999/xlink">
<g id="graph0" class="graph" transform="scale(1 1) rotate(0) translate(4 62)">
<title>Timer::start</title>
<!-- Node1 -->
<g id="node1" class="node">
<title>Node1</title>
<g id="a_node1"><a xlink:title=" ">
<polygon fill="#bfbfbf" stroke="black" points="0,-19.5 0,-38.5 74,-38.5 74,-19.5 0,-19.5"/>
<text text-anchor="middle" x="37" y="-26.5" font-family="Helvetica,sans-Serif" font-size="10.00">Timer::start</text>
</a>
</g>
</g>
<!-- Node2 -->
<g id="node2" class="node">
<title>Node2</title>
<g id="a_node2"><a xlink:href="structTimerCounter.html#a85a66d3086790b9f2bb18d8e714388cf" target="_top" xlink:title=" ">
<polygon fill="none" stroke="black" points="110,-38.5 110,-57.5 222,-57.5 222,-38.5 110,-38.5"/>
<text text-anchor="middle" x="166" y="-45.5" font-family="Helvetica,sans-Serif" font-size="10.00">TimerCounter::start</text>
</a>
</g>
</g>
<!-- Node1&#45;&gt;Node2 -->
<g id="edge1" class="edge">
<title>Node1&#45;&gt;Node2</title>
<path fill="none" stroke="midnightblue" d="M74.05,-34.39C82.15,-35.61 90.99,-36.93 99.87,-38.26"/>
<polygon fill="midnightblue" stroke="midnightblue" points="99.47,-41.73 109.87,-39.75 100.5,-34.81 99.47,-41.73"/>
</g>
<!-- Node3 -->
<g id="node3" class="node">
<title>Node3</title>
<g id="a_node3"><a xlink:href="structTimerCounter.html#a063980125f92baa0c122454502b876e8" target="_top" xlink:title=" ">
<polygon fill="none" stroke="black" points="111,-0.5 111,-19.5 221,-19.5 221,-0.5 111,-0.5"/>
<text text-anchor="middle" x="166" y="-7.5" font-family="Helvetica,sans-Serif" font-size="10.00">TimerCounter::stop</text>
</a>
</g>
</g>
<!-- Node1&#45;&gt;Node3 -->
<g id="edge2" class="edge">
<title>Node1&#45;&gt;Node3</title>
<path fill="none" stroke="midnightblue" d="M74.05,-23.61C82.45,-22.35 91.65,-20.97 100.86,-19.6"/>
<polygon fill="midnightblue" stroke="midnightblue" points="101.46,-23.05 110.83,-18.1 100.42,-16.12 101.46,-23.05"/>
</g>
</g>
</svg>
