<?xml version="1.0" encoding="UTF-8" standalone="no"?>
<!DOCTYPE svg PUBLIC "-//W3C//DTD SVG 1.1//EN"
 "http://www.w3.org/Graphics/SVG/1.1/DTD/svg11.dtd">
<!-- Generated by graphviz version 2.43.0 (0)
 -->
<!-- Title: Stats::writeHistogram Pages: 1 -->
<svg width="255pt" height="66pt"
 viewBox="0.00 0.00 255.00 66.00" xmlns="http://www.w3.org/2000/svg" xmlns:xlink="http://www.w3.org/1999/xlink">
<g id="graph0" class="graph" transform="scale(1 1) rotate(0) translate(4 62)">
<title>Stats::writeHistogram</title>
<!-- Node1 -->
<g id="node1" class="node">
<title>Node1</title>
<g id="a_node1"><a xlink:title=" ">
<polygon fill="#bfbfbf" stroke="black" points="0,-19.5 0,-38.5 123,-38.5 123,-19.5 0,-19.5"/>
<text text-anchor="middle" x="61.5" y="-26.5" font-family="Helvetica,sans-Serif" font-size="10.00">Stats::writeHistogram</text>
</a>
</g>
</g>
<!-- Node2 -->
<g id="node2" class="node">
<title>Node2</title>
<g id="a_node2"><a xlink:href="Util_8cc.html#a8170ae742eedc980579141210ecb5aa8" target="_top" xlink:title=" ">
<polygon fill="none" stroke="black" points="178,-38.5 178,-57.5 228,-57.5 228,-38.5 178,-38.5"/>
<text text-anchor="middle" x="203" y="-45.5" font-family="Helvetica,sans-Serif" font-size="10.00">extend</text>
</a>
</g>
</g>
<!-- Node1&#45;&gt;Node2 -->
<g id="edge1" class="edge">
<title>Node1&#45;&gt;Node2</title>
<path fill="none" stroke="midnightblue" d="M123.28,-37.28C138.46,-39.35 154.22,-41.49 167.61,-43.32"/>
<polygon fill="midnightblue" stroke="midnightblue" points="167.4,-46.82 177.78,-44.7 168.35,-39.88 167.4,-46.82"/>
</g>
<!-- Node3 -->
<g id="node3" class="node">
<title>Node3</title>
<g id="a_node3"><a xlink:href="Util_8cc.html#a957a4202599a841d7f7f34ef7c938ed2" target="_top" xlink:title=" ">
<polygon fill="none" stroke="black" points="159,-0.5 159,-19.5 247,-19.5 247,-0.5 159,-0.5"/>
<text text-anchor="middle" x="203" y="-7.5" font-family="Helvetica,sans-Serif" font-size="10.00">writeHdf5Data</text>
</a>
</g>
</g>
<!-- Node1&#45;&gt;Node3 -->
<g id="edge2" class="edge">
<title>Node1&#45;&gt;Node3</title>
<path fill="none" stroke="midnightblue" d="M123.28,-20.72C131.74,-19.57 140.37,-18.39 148.68,-17.26"/>
<polygon fill="midnightblue" stroke="midnightblue" points="149.17,-20.73 158.61,-15.91 148.23,-13.79 149.17,-20.73"/>
</g>
</g>
</svg>
