<?xml version="1.0" encoding="UTF-8" standalone="no"?>
<!DOCTYPE svg PUBLIC "-//W3C//DTD SVG 1.1//EN"
 "http://www.w3.org/Graphics/SVG/1.1/DTD/svg11.dtd">
<!-- Generated by graphviz version 2.43.0 (0)
 -->
<!-- Title: TimerCounter::seconds Pages: 1 -->
<svg width="545pt" height="47pt"
 viewBox="0.00 0.00 545.00 47.00" xmlns="http://www.w3.org/2000/svg" xmlns:xlink="http://www.w3.org/1999/xlink">
<g id="graph0" class="graph" transform="scale(1 1) rotate(0) translate(4 43)">
<title>TimerCounter::seconds</title>
<!-- Node1 -->
<g id="node1" class="node">
<title>Node1</title>
<g id="a_node1"><a xlink:title=" ">
<polygon fill="#bfbfbf" stroke="black" points="408,-19.5 408,-38.5 537,-38.5 537,-19.5 408,-19.5"/>
<text text-anchor="middle" x="472.5" y="-26.5" font-family="Helvetica,sans-Serif" font-size="10.00">TimerCounter::seconds</text>
</a>
</g>
</g>
<!-- Node2 -->
<g id="node2" class="node">
<title>Node2</title>
<g id="a_node2"><a xlink:href="structTimer.html#a5705f56b34fe5f20acd94da7abe328bf" target="_top" xlink:title=" ">
<polygon fill="none" stroke="black" points="143,-19.5 143,-38.5 217,-38.5 217,-19.5 143,-19.5"/>
<text text-anchor="middle" x="180" y="-26.5" font-family="Helvetica,sans-Serif" font-size="10.00">Timer::print</text>
</a>
</g>
</g>
<!-- Node1&#45;&gt;Node2 -->
<g id="edge1" class="edge">
<title>Node1&#45;&gt;Node2</title>
<path fill="none" stroke="midnightblue" d="M397.58,-29C339.84,-29 262.1,-29 217.18,-29"/>
<polygon fill="midnightblue" stroke="midnightblue" points="397.75,-32.5 407.75,-29 397.75,-25.5 397.75,-32.5"/>
</g>
<!-- Node4 -->
<g id="node4" class="node">
<title>Node4</title>
<g id="a_node4"><a xlink:href="structTimerCounter.html#a1b4b0bf7a178ec92cdf6c4703deedcc8" target="_top" xlink:title=" ">
<polygon fill="none" stroke="black" points="253,-0.5 253,-19.5 372,-19.5 372,-0.5 253,-0.5"/>
<text text-anchor="middle" x="312.5" y="-7.5" font-family="Helvetica,sans-Serif" font-size="10.00">TimerCounter::speed</text>
</a>
</g>
</g>
<!-- Node1&#45;&gt;Node4 -->
<g id="edge3" class="edge">
<title>Node1&#45;&gt;Node4</title>
<path fill="none" stroke="midnightblue" d="M397.7,-20.13C389.15,-19.1 380.5,-18.06 372.19,-17.06"/>
<polygon fill="midnightblue" stroke="midnightblue" points="397.34,-23.61 407.69,-21.33 398.18,-16.66 397.34,-23.61"/>
</g>
<!-- Node3 -->
<g id="node3" class="node">
<title>Node3</title>
<g id="a_node3"><a xlink:href="classConverter.html#ab6c99a9eaa83aea8e2964365e6bbc66c" target="_top" xlink:title=" ">
<polygon fill="none" stroke="black" points="0,-19.5 0,-38.5 107,-38.5 107,-19.5 0,-19.5"/>
<text text-anchor="middle" x="53.5" y="-26.5" font-family="Helvetica,sans-Serif" font-size="10.00">Converter::convert</text>
</a>
</g>
</g>
<!-- Node2&#45;&gt;Node3 -->
<g id="edge2" class="edge">
<title>Node2&#45;&gt;Node3</title>
<path fill="none" stroke="midnightblue" d="M132.97,-29C124.55,-29 115.7,-29 107.1,-29"/>
<polygon fill="midnightblue" stroke="midnightblue" points="132.99,-32.5 142.99,-29 132.99,-25.5 132.99,-32.5"/>
</g>
<!-- Node4&#45;&gt;Node2 -->
<g id="edge4" class="edge">
<title>Node4&#45;&gt;Node2</title>
<path fill="none" stroke="midnightblue" d="M242.72,-20.01C233.84,-21.31 225.05,-22.59 217.01,-23.76"/>
<polygon fill="midnightblue" stroke="midnightblue" points="243.35,-23.46 252.74,-18.56 242.34,-16.53 243.35,-23.46"/>
</g>
</g>
</svg>
