<?xml version="1.0" encoding="UTF-8" standalone="no"?>
<!DOCTYPE svg PUBLIC "-//W3C//DTD SVG 1.1//EN"
 "http://www.w3.org/Graphics/SVG/1.1/DTD/svg11.dtd">
<!-- Generated by graphviz version 2.43.0 (0)
 -->
<!-- Title: Stats::accumulateHistogram Pages: 1 -->
<svg width="381pt" height="66pt"
 viewBox="0.00 0.00 381.00 66.00" xmlns="http://www.w3.org/2000/svg" xmlns:xlink="http://www.w3.org/1999/xlink">
<g id="graph0" class="graph" transform="scale(1 1) rotate(0) translate(4 62)">
<title>Stats::accumulateHistogram</title>
<!-- Node1 -->
<g id="node1" class="node">
<title>Node1</title>
<g id="a_node1"><a xlink:title=" ">
<polygon fill="#bfbfbf" stroke="black" points="218,-19.5 218,-38.5 373,-38.5 373,-19.5 218,-19.5"/>
<text text-anchor="middle" x="295.5" y="-26.5" font-family="Helvetica,sans-Serif" font-size="10.00">Stats::accumulateHistogram</text>
</a>
</g>
</g>
<!-- Node2 -->
<g id="node2" class="node">
<title>Node2</title>
<g id="a_node2"><a xlink:href="classFastConverter.html#a29d7369baf5b71da8631de35096519c2" target="_top" xlink:title=" ">
<polygon fill="none" stroke="black" points="2,-38.5 2,-57.5 180,-57.5 180,-38.5 2,-38.5"/>
<text text-anchor="middle" x="91" y="-45.5" font-family="Helvetica,sans-Serif" font-size="10.00">FastConverter::copyAndCalculate</text>
</a>
</g>
</g>
<!-- Node1&#45;&gt;Node2 -->
<g id="edge1" class="edge">
<title>Node1&#45;&gt;Node2</title>
<path fill="none" stroke="midnightblue" d="M207.74,-37.14C198.62,-38 189.35,-38.87 180.22,-39.72"/>
<polygon fill="midnightblue" stroke="midnightblue" points="208.31,-40.6 217.94,-36.18 207.66,-33.63 208.31,-40.6"/>
</g>
<!-- Node3 -->
<g id="node3" class="node">
<title>Node3</title>
<g id="a_node3"><a xlink:href="classSlowConverter.html#a2732ea741a95c7f90c4d0d9bb2f4393a" target="_top" xlink:title=" ">
<polygon fill="none" stroke="black" points="0,-0.5 0,-19.5 182,-19.5 182,-0.5 0,-0.5"/>
<text text-anchor="middle" x="91" y="-7.5" font-family="Helvetica,sans-Serif" font-size="10.00">SlowConverter::copyAndCalculate</text>
</a>
</g>
</g>
<!-- Node1&#45;&gt;Node3 -->
<g id="edge2" class="edge">
<title>Node1&#45;&gt;Node3</title>
<path fill="none" stroke="midnightblue" d="M207.74,-20.86C199.31,-20.07 190.74,-19.26 182.28,-18.47"/>
<polygon fill="midnightblue" stroke="midnightblue" points="207.66,-24.37 217.94,-21.82 208.31,-17.4 207.66,-24.37"/>
</g>
</g>
</svg>
