<?xml version="1.0" encoding="UTF-8" standalone="no"?>
<!DOCTYPE svg PUBLIC "-//W3C//DTD SVG 1.1//EN"
 "http://www.w3.org/Graphics/SVG/1.1/DTD/svg11.dtd">
<!-- Generated by graphviz version 2.43.0 (0)
 -->
<!-- Title: Stats::size Pages: 1 -->
<svg width="249pt" height="88pt"
 viewBox="0.00 0.00 249.00 88.00" xmlns="http://www.w3.org/2000/svg" xmlns:xlink="http://www.w3.org/1999/xlink">
<g id="graph0" class="graph" transform="scale(1 1) rotate(0) translate(4 84)">
<title>Stats::size</title>
<!-- Node1 -->
<g id="node1" class="node">
<title>Node1</title>
<g id="a_node1"><a xlink:title=" ">
<polygon fill="#bfbfbf" stroke="black" points="174,-30 174,-49 241,-49 241,-30 174,-30"/>
<text text-anchor="middle" x="207.5" y="-37" font-family="Helvetica,sans-Serif" font-size="10.00">Stats::size</text>
</a>
</g>
</g>
<!-- Node2 -->
<g id="node2" class="node">
<title>Node2</title>
<g id="a_node2"><a xlink:href="classFastConverter.html#abd437a215044bd33dae24d9e0e8343a5" target="_top" xlink:title=" ">
<polygon fill="none" stroke="black" points="2,-49.5 2,-79.5 136,-79.5 136,-49.5 2,-49.5"/>
<text text-anchor="start" x="10" y="-67.5" font-family="Helvetica,sans-Serif" font-size="10.00">FastConverter::calculate</text>
<text text-anchor="middle" x="69" y="-56.5" font-family="Helvetica,sans-Serif" font-size="10.00">MemoryUsage</text>
</a>
</g>
</g>
<!-- Node1&#45;&gt;Node2 -->
<g id="edge1" class="edge">
<title>Node1&#45;&gt;Node2</title>
<path fill="none" stroke="midnightblue" d="M163.83,-47.31C155.04,-48.92 145.59,-50.66 136.19,-52.38"/>
<polygon fill="midnightblue" stroke="midnightblue" points="164.6,-50.73 173.8,-45.49 163.34,-43.85 164.6,-50.73"/>
</g>
<!-- Node3 -->
<g id="node3" class="node">
<title>Node3</title>
<g id="a_node3"><a xlink:href="classSlowConverter.html#a23d173d41bd39e04d8a1ea203744e7f2" target="_top" xlink:title=" ">
<polygon fill="none" stroke="black" points="0,-0.5 0,-30.5 138,-30.5 138,-0.5 0,-0.5"/>
<text text-anchor="start" x="8" y="-18.5" font-family="Helvetica,sans-Serif" font-size="10.00">SlowConverter::calculate</text>
<text text-anchor="middle" x="69" y="-7.5" font-family="Helvetica,sans-Serif" font-size="10.00">MemoryUsage</text>
</a>
</g>
</g>
<!-- Node1&#45;&gt;Node3 -->
<g id="edge2" class="edge">
<title>Node1&#45;&gt;Node3</title>
<path fill="none" stroke="midnightblue" d="M163.79,-31.99C155.6,-30.55 146.85,-29.01 138.1,-27.47"/>
<polygon fill="midnightblue" stroke="midnightblue" points="163.35,-35.47 173.8,-33.75 164.56,-28.57 163.35,-35.47"/>
</g>
</g>
</svg>
