<?xml version="1.0" encoding="UTF-8" standalone="no"?>
<!DOCTYPE svg PUBLIC "-//W3C//DTD SVG 1.1//EN"
 "http://www.w3.org/Graphics/SVG/1.1/DTD/svg11.dtd">
<!-- Generated by graphviz version 2.43.0 (0)
 -->
<!-- Title: MipMap Pages: 1 -->
<svg width="412pt" height="208pt"
 viewBox="0.00 0.00 412.00 208.00" xmlns="http://www.w3.org/2000/svg" xmlns:xlink="http://www.w3.org/1999/xlink">
<g id="graph0" class="graph" transform="scale(1 1) rotate(0) translate(4 204)">
<title>MipMap</title>
<!-- Node1 -->
<g id="node1" class="node">
<title>Node1</title>
<g id="a_node1"><a xlink:title=" ">
<polygon fill="#bfbfbf" stroke="black" points="224.5,-0.5 224.5,-19.5 280.5,-19.5 280.5,-0.5 224.5,-0.5"/>
<text text-anchor="middle" x="252.5" y="-7.5" font-family="Helvetica,sans-Serif" font-size="10.00">MipMap</text>
</a>
</g>
</g>
<!-- Node2 -->
<g id="node2" class="node">
<title>Node2</title>
<g id="a_node2"><a xlink:title=" ">
<polygon fill="none" stroke="#bfbfbf" points="80,-96 80,-115 205,-115 205,-96 80,-96"/>
<text text-anchor="middle" x="142.5" y="-103" font-family="Helvetica,sans-Serif" font-size="10.00">std::vector&lt; hsize_t &gt;</text>
</a>
</g>
</g>
<!-- Node2&#45;&gt;Node1 -->
<g id="edge1" class="edge">
<title>Node2&#45;&gt;Node1</title>
<path fill="none" stroke="#9a32cd" stroke-dasharray="5,2" d="M150.17,-86.82C157.38,-72.01 169.47,-51.22 185.5,-38 196.72,-28.74 211.53,-22.33 224.37,-18.09"/>
<polygon fill="#9a32cd" stroke="#9a32cd" points="146.97,-85.41 145.96,-95.95 153.32,-88.33 146.97,-85.41"/>
<text text-anchor="middle" x="217" y="-52" font-family="Helvetica,sans-Serif" font-size="10.00"> bufferDims</text>
<text text-anchor="middle" x="217" y="-41" font-family="Helvetica,sans-Serif" font-size="10.00">datasetDims</text>
</g>
<!-- Node3 -->
<g id="node3" class="node">
<title>Node3</title>
<g id="a_node3"><a xlink:title=" ">
<polygon fill="none" stroke="#bfbfbf" points="0,-180.5 0,-199.5 51,-199.5 51,-180.5 0,-180.5"/>
<text text-anchor="middle" x="25.5" y="-187.5" font-family="Helvetica,sans-Serif" font-size="10.00">hsize_t</text>
</a>
</g>
</g>
<!-- Node3&#45;&gt;Node1 -->
<g id="edge4" class="edge">
<title>Node3&#45;&gt;Node1</title>
<path fill="none" stroke="#9a32cd" stroke-dasharray="5,2" d="M17.76,-170.87C8.92,-147.03 -1.86,-105.01 18.5,-78 43.43,-44.93 167.35,-23.22 224.07,-14.87"/>
<polygon fill="#9a32cd" stroke="#9a32cd" points="14.61,-172.43 21.56,-180.42 21.12,-169.84 14.61,-172.43"/>
<text text-anchor="middle" x="44.5" y="-125" font-family="Helvetica,sans-Serif" font-size="10.00"> bufferSize</text>
<text text-anchor="middle" x="44.5" y="-114" font-family="Helvetica,sans-Serif" font-size="10.00">depth</text>
<text text-anchor="middle" x="44.5" y="-103" font-family="Helvetica,sans-Serif" font-size="10.00">height</text>
<text text-anchor="middle" x="44.5" y="-92" font-family="Helvetica,sans-Serif" font-size="10.00">stokes</text>
<text text-anchor="middle" x="44.5" y="-81" font-family="Helvetica,sans-Serif" font-size="10.00">width</text>
</g>
<!-- Node3&#45;&gt;Node2 -->
<g id="edge2" class="edge">
<title>Node3&#45;&gt;Node2</title>
<path fill="none" stroke="#9a32cd" stroke-dasharray="5,2" d="M45.78,-174.7C70.16,-157.51 110.27,-129.23 130.31,-115.1"/>
<polygon fill="#9a32cd" stroke="#9a32cd" points="43.74,-171.86 37.58,-180.48 47.77,-177.58 43.74,-171.86"/>
<text text-anchor="middle" x="102" y="-154" font-family="Helvetica,sans-Serif" font-size="10.00"> elements</text>
</g>
<!-- Node4 -->
<g id="node4" class="node">
<title>Node4</title>
<g id="a_node4"><a xlink:title=" ">
<polygon fill="none" stroke="#bfbfbf" points="223.5,-96 223.5,-115 281.5,-115 281.5,-96 223.5,-96"/>
<text text-anchor="middle" x="252.5" y="-103" font-family="Helvetica,sans-Serif" font-size="10.00">double *</text>
</a>
</g>
</g>
<!-- Node4&#45;&gt;Node1 -->
<g id="edge3" class="edge">
<title>Node4&#45;&gt;Node1</title>
<path fill="none" stroke="#9a32cd" stroke-dasharray="5,2" d="M252.5,-85.74C252.5,-65.62 252.5,-34.55 252.5,-19.61"/>
<polygon fill="#9a32cd" stroke="#9a32cd" points="249,-85.87 252.5,-95.87 256,-85.87 249,-85.87"/>
<text text-anchor="middle" x="264.5" y="-46.5" font-family="Helvetica,sans-Serif" font-size="10.00"> vals</text>
</g>
<!-- Node5 -->
<g id="node5" class="node">
<title>Node5</title>
<g id="a_node5"><a xlink:title=" ">
<polygon fill="none" stroke="#bfbfbf" points="299.5,-96 299.5,-115 355.5,-115 355.5,-96 299.5,-96"/>
<text text-anchor="middle" x="327.5" y="-103" font-family="Helvetica,sans-Serif" font-size="10.00">DataSet</text>
</a>
</g>
</g>
<!-- Node5&#45;&gt;Node1 -->
<g id="edge5" class="edge">
<title>Node5&#45;&gt;Node1</title>
<path fill="none" stroke="#9a32cd" stroke-dasharray="5,2" d="M316.72,-87.42C307.69,-73.59 294.12,-53.86 280.5,-38 274.87,-31.44 267.87,-24.69 262.28,-19.58"/>
<polygon fill="#9a32cd" stroke="#9a32cd" points="313.84,-89.42 322.19,-95.94 319.73,-85.63 313.84,-89.42"/>
<text text-anchor="middle" x="316.5" y="-46.5" font-family="Helvetica,sans-Serif" font-size="10.00"> dataset</text>
</g>
<!-- Node6 -->
<g id="node6" class="node">
<title>Node6</title>
<g id="a_node6"><a xlink:title=" ">
<polygon fill="none" stroke="#bfbfbf" points="375,-96 375,-115 404,-115 404,-96 375,-96"/>
<text text-anchor="middle" x="389.5" y="-103" font-family="Helvetica,sans-Serif" font-size="10.00">int</text>
</a>
</g>
</g>
<!-- Node6&#45;&gt;Node1 -->
<g id="edge6" class="edge">
<title>Node6&#45;&gt;Node1</title>
<path fill="none" stroke="#9a32cd" stroke-dasharray="5,2" d="M380.71,-86.91C372.33,-71.85 358.35,-50.66 340.5,-38 322.77,-25.43 299.04,-18.6 280.69,-14.95"/>
<polygon fill="#9a32cd" stroke="#9a32cd" points="377.62,-88.56 385.39,-95.76 383.81,-85.29 377.62,-88.56"/>
<text text-anchor="middle" x="378" y="-52" font-family="Helvetica,sans-Serif" font-size="10.00"> count</text>
<text text-anchor="middle" x="378" y="-41" font-family="Helvetica,sans-Serif" font-size="10.00">mip</text>
</g>
</g>
</svg>
