<?xml version="1.0" encoding="UTF-8" standalone="no"?>
<!DOCTYPE svg PUBLIC "-//W3C//DTD SVG 1.1//EN"
 "http://www.w3.org/Graphics/SVG/1.1/DTD/svg11.dtd">
<!-- Generated by graphviz version 2.43.0 (0)
 -->
<!-- Title: Timer Pages: 1 -->
<svg width="354pt" height="251pt"
 viewBox="0.00 0.00 354.00 251.00" xmlns="http://www.w3.org/2000/svg" xmlns:xlink="http://www.w3.org/1999/xlink">
<g id="graph0" class="graph" transform="scale(1 1) rotate(0) translate(4 247)">
<title>Timer</title>
<!-- Node1 -->
<g id="node1" class="node">
<title>Node1</title>
<g id="a_node1"><a xlink:title=" ">
<polygon fill="#bfbfbf" stroke="black" points="88,-0.5 88,-19.5 133,-19.5 133,-0.5 88,-0.5"/>
<text text-anchor="middle" x="110.5" y="-7.5" font-family="Helvetica,sans-Serif" font-size="10.00">Timer</text>
</a>
</g>
</g>
<!-- Node2 -->
<g id="node2" class="node">
<title>Node2</title>
<g id="a_node2"><a xlink:title=" ">
<polygon fill="none" stroke="#bfbfbf" points="185,-67.5 185,-97.5 346,-97.5 346,-67.5 185,-67.5"/>
<text text-anchor="start" x="193" y="-85.5" font-family="Helvetica,sans-Serif" font-size="10.00">std::unordered_map</text>
<text text-anchor="middle" x="265.5" y="-74.5" font-family="Helvetica,sans-Serif" font-size="10.00">&lt; std::string, TimerCounter &gt;</text>
</a>
</g>
</g>
<!-- Node2&#45;&gt;Node1 -->
<g id="edge1" class="edge">
<title>Node2&#45;&gt;Node1</title>
<path fill="none" stroke="#9a32cd" stroke-dasharray="5,2" d="M225.26,-63.2C194.31,-49.12 152.94,-30.3 129.26,-19.53"/>
<polygon fill="#9a32cd" stroke="#9a32cd" points="223.95,-66.45 234.51,-67.4 226.85,-60.08 223.95,-66.45"/>
<text text-anchor="middle" x="216.5" y="-41" font-family="Helvetica,sans-Serif" font-size="10.00"> counters</text>
</g>
<!-- Node3 -->
<g id="node3" class="node">
<title>Node3</title>
<g id="a_node3"><a xlink:href="structTimerCounter.html" target="_top" xlink:title=" ">
<polygon fill="none" stroke="black" points="68,-145.5 68,-164.5 151,-164.5 151,-145.5 68,-145.5"/>
<text text-anchor="middle" x="109.5" y="-152.5" font-family="Helvetica,sans-Serif" font-size="10.00">TimerCounter</text>
</a>
</g>
</g>
<!-- Node3&#45;&gt;Node1 -->
<g id="edge7" class="edge">
<title>Node3&#45;&gt;Node1</title>
<path fill="none" stroke="#9a32cd" stroke-dasharray="5,2" d="M106.79,-135.29C104.58,-117.67 102.03,-90.55 103.5,-67 104.55,-50.18 107.35,-30.68 109.07,-19.7"/>
<polygon fill="#9a32cd" stroke="#9a32cd" points="103.34,-135.92 108.15,-145.36 110.28,-134.98 103.34,-135.92"/>
<text text-anchor="middle" x="139.5" y="-80" font-family="Helvetica,sans-Serif" font-size="10.00"> activeCounter</text>
</g>
<!-- Node3&#45;&gt;Node2 -->
<g id="edge2" class="edge">
<title>Node3&#45;&gt;Node2</title>
<path fill="none" stroke="#9a32cd" stroke-dasharray="5,2" d="M137.69,-141.26C165,-128.92 206.3,-110.26 234.51,-97.51"/>
<polygon fill="#9a32cd" stroke="#9a32cd" points="135.99,-138.19 128.32,-145.5 138.87,-144.57 135.99,-138.19"/>
<text text-anchor="middle" x="217" y="-119" font-family="Helvetica,sans-Serif" font-size="10.00"> elements</text>
</g>
<!-- Node4 -->
<g id="node4" class="node">
<title>Node4</title>
<g id="a_node4"><a xlink:title=" ">
<polygon fill="none" stroke="#bfbfbf" points="0,-218 0,-237 29,-237 29,-218 0,-218"/>
<text text-anchor="middle" x="14.5" y="-225" font-family="Helvetica,sans-Serif" font-size="10.00">int</text>
</a>
</g>
</g>
<!-- Node4&#45;&gt;Node3 -->
<g id="edge3" class="edge">
<title>Node4&#45;&gt;Node3</title>
<path fill="none" stroke="#9a32cd" stroke-dasharray="5,2" d="M34.23,-211.86C53.4,-197.63 81.89,-176.49 97.76,-164.72"/>
<polygon fill="#9a32cd" stroke="#9a32cd" points="32.09,-209.09 26.15,-217.86 36.26,-214.71 32.09,-209.09"/>
<text text-anchor="middle" x="87" y="-186" font-family="Helvetica,sans-Serif" font-size="10.00"> value</text>
</g>
<!-- Node5 -->
<g id="node5" class="node">
<title>Node5</title>
<g id="a_node5"><a xlink:title=" ">
<polygon fill="none" stroke="#bfbfbf" points="47.5,-212.5 47.5,-242.5 187.5,-242.5 187.5,-212.5 47.5,-212.5"/>
<text text-anchor="start" x="55.5" y="-230.5" font-family="Helvetica,sans-Serif" font-size="10.00">time_point&lt; std::chrono</text>
<text text-anchor="middle" x="117.5" y="-219.5" font-family="Helvetica,sans-Serif" font-size="10.00">::high_resolution_clock &gt;</text>
</a>
</g>
</g>
<!-- Node5&#45;&gt;Node3 -->
<g id="edge4" class="edge">
<title>Node5&#45;&gt;Node3</title>
<path fill="none" stroke="#9a32cd" stroke-dasharray="5,2" d="M114.73,-202.09C113.27,-189.21 111.56,-174.2 110.51,-164.89"/>
<polygon fill="#9a32cd" stroke="#9a32cd" points="111.28,-202.69 115.88,-212.23 118.23,-201.9 111.28,-202.69"/>
<text text-anchor="middle" x="140" y="-186" font-family="Helvetica,sans-Serif" font-size="10.00"> startTime</text>
</g>
<!-- Node6 -->
<g id="node6" class="node">
<title>Node6</title>
<g id="a_node6"><a xlink:title=" ">
<polygon fill="none" stroke="#bfbfbf" points="233,-145.5 233,-164.5 298,-164.5 298,-145.5 233,-145.5"/>
<text text-anchor="middle" x="265.5" y="-152.5" font-family="Helvetica,sans-Serif" font-size="10.00">std::string</text>
</a>
</g>
</g>
<!-- Node6&#45;&gt;Node2 -->
<g id="edge5" class="edge">
<title>Node6&#45;&gt;Node2</title>
<path fill="none" stroke="#9a32cd" stroke-dasharray="5,2" d="M265.5,-135.24C265.5,-123.41 265.5,-108.38 265.5,-97.58"/>
<polygon fill="#9a32cd" stroke="#9a32cd" points="262,-135.36 265.5,-145.36 269,-135.36 262,-135.36"/>
<text text-anchor="middle" x="278.5" y="-119" font-family="Helvetica,sans-Serif" font-size="10.00"> keys</text>
</g>
<!-- Node7 -->
<g id="node7" class="node">
<title>Node7</title>
<g id="a_node7"><a xlink:title=" ">
<polygon fill="none" stroke="#bfbfbf" points="213.5,-212.5 213.5,-242.5 317.5,-242.5 317.5,-212.5 213.5,-212.5"/>
<text text-anchor="start" x="221.5" y="-230.5" font-family="Helvetica,sans-Serif" font-size="10.00">std::basic_string&lt;</text>
<text text-anchor="middle" x="265.5" y="-219.5" font-family="Helvetica,sans-Serif" font-size="10.00"> Char &gt;</text>
</a>
</g>
</g>
<!-- Node7&#45;&gt;Node6 -->
<g id="edge6" class="edge">
<title>Node7&#45;&gt;Node6</title>
<path fill="none" stroke="midnightblue" d="M265.5,-202.09C265.5,-189.21 265.5,-174.2 265.5,-164.89"/>
<polygon fill="midnightblue" stroke="midnightblue" points="262,-202.23 265.5,-212.23 269,-202.23 262,-202.23"/>
</g>
</g>
</svg>
