<?xml version="1.0" encoding="UTF-8" standalone="no"?>
<!DOCTYPE svg PUBLIC "-//W3C//DTD SVG 1.1//EN"
 "http://www.w3.org/Graphics/SVG/1.1/DTD/svg11.dtd">
<!-- Generated by graphviz version 2.43.0 (0)
 -->
<!-- Title: Stats::write Pages: 1 -->
<svg width="298pt" height="104pt"
 viewBox="0.00 0.00 298.00 104.00" xmlns="http://www.w3.org/2000/svg" xmlns:xlink="http://www.w3.org/1999/xlink">
<g id="graph0" class="graph" transform="scale(1 1) rotate(0) translate(4 100)">
<title>Stats::write</title>
<!-- Node1 -->
<g id="node1" class="node">
<title>Node1</title>
<g id="a_node1"><a xlink:title=" ">
<polygon fill="#bfbfbf" stroke="black" points="218,-38.5 218,-57.5 290,-57.5 290,-38.5 218,-38.5"/>
<text text-anchor="middle" x="254" y="-45.5" font-family="Helvetica,sans-Serif" font-size="10.00">Stats::write</text>
</a>
</g>
</g>
<!-- Node2 -->
<g id="node2" class="node">
<title>Node2</title>
<g id="a_node2"><a xlink:href="classFastConverter.html#a29d7369baf5b71da8631de35096519c2" target="_top" xlink:title=" ">
<polygon fill="none" stroke="black" points="2,-76.5 2,-95.5 180,-95.5 180,-76.5 2,-76.5"/>
<text text-anchor="middle" x="91" y="-83.5" font-family="Helvetica,sans-Serif" font-size="10.00">FastConverter::copyAndCalculate</text>
</a>
</g>
</g>
<!-- Node1&#45;&gt;Node2 -->
<g id="edge1" class="edge">
<title>Node1&#45;&gt;Node2</title>
<path fill="none" stroke="midnightblue" d="M208.96,-60.18C200.06,-62.53 190.75,-64.91 182,-67 168.33,-70.27 153.43,-73.54 139.75,-76.42"/>
<polygon fill="midnightblue" stroke="midnightblue" points="210.03,-63.51 218.79,-57.55 208.22,-56.75 210.03,-63.51"/>
</g>
<!-- Node3 -->
<g id="node3" class="node">
<title>Node3</title>
<g id="a_node3"><a xlink:href="classSlowConverter.html#a2732ea741a95c7f90c4d0d9bb2f4393a" target="_top" xlink:title=" ">
<polygon fill="none" stroke="black" points="0,-38.5 0,-57.5 182,-57.5 182,-38.5 0,-38.5"/>
<text text-anchor="middle" x="91" y="-45.5" font-family="Helvetica,sans-Serif" font-size="10.00">SlowConverter::copyAndCalculate</text>
</a>
</g>
</g>
<!-- Node1&#45;&gt;Node3 -->
<g id="edge2" class="edge">
<title>Node1&#45;&gt;Node3</title>
<path fill="none" stroke="midnightblue" d="M207.54,-48C199.56,-48 191,-48 182.3,-48"/>
<polygon fill="midnightblue" stroke="midnightblue" points="207.67,-51.5 217.67,-48 207.67,-44.5 207.67,-51.5"/>
</g>
<!-- Node4 -->
<g id="node4" class="node">
<title>Node4</title>
<g id="a_node4"><a xlink:href="structStats.html#adfc27957ef5bb1940e7f73d0857d6ac4" target="_top" xlink:title=" ">
<polygon fill="none" stroke="black" points="55,-0.5 55,-19.5 127,-19.5 127,-0.5 55,-0.5"/>
<text text-anchor="middle" x="91" y="-7.5" font-family="Helvetica,sans-Serif" font-size="10.00">Stats::write</text>
</a>
</g>
</g>
<!-- Node1&#45;&gt;Node4 -->
<g id="edge3" class="edge">
<title>Node1&#45;&gt;Node4</title>
<path fill="none" stroke="midnightblue" d="M208.96,-35.82C200.06,-33.47 190.75,-31.09 182,-29 163.98,-24.69 143.82,-20.39 127.15,-16.97"/>
<polygon fill="midnightblue" stroke="midnightblue" points="208.22,-39.25 218.79,-38.45 210.03,-32.49 208.22,-39.25"/>
</g>
</g>
</svg>
