<?xml version="1.0" encoding="UTF-8" standalone="no"?>
<!DOCTYPE svg PUBLIC "-//W3C//DTD SVG 1.1//EN"
 "http://www.w3.org/Graphics/SVG/1.1/DTD/svg11.dtd">
<!-- Generated by graphviz version 2.43.0 (0)
 -->
<!-- Title: Timer::print Pages: 1 -->
<svg width="402pt" height="85pt"
 viewBox="0.00 0.00 402.00 85.00" xmlns="http://www.w3.org/2000/svg" xmlns:xlink="http://www.w3.org/1999/xlink">
<g id="graph0" class="graph" transform="scale(1 1) rotate(0) translate(4 81)">
<title>Timer::print</title>
<!-- Node1 -->
<g id="node1" class="node">
<title>Node1</title>
<g id="a_node1"><a xlink:title=" ">
<polygon fill="#bfbfbf" stroke="black" points="0,-38.5 0,-57.5 74,-57.5 74,-38.5 0,-38.5"/>
<text text-anchor="middle" x="37" y="-45.5" font-family="Helvetica,sans-Serif" font-size="10.00">Timer::print</text>
</a>
</g>
</g>
<!-- Node2 -->
<g id="node2" class="node">
<title>Node2</title>
<g id="a_node2"><a xlink:href="structTimerCounter.html#aded1e4ae6eb21daa55136022db2563cf" target="_top" xlink:title=" ">
<polygon fill="none" stroke="black" points="265,-57.5 265,-76.5 394,-76.5 394,-57.5 265,-57.5"/>
<text text-anchor="middle" x="329.5" y="-64.5" font-family="Helvetica,sans-Serif" font-size="10.00">TimerCounter::seconds</text>
</a>
</g>
</g>
<!-- Node1&#45;&gt;Node2 -->
<g id="edge1" class="edge">
<title>Node1&#45;&gt;Node2</title>
<path fill="none" stroke="midnightblue" d="M67.09,-57.5C80.06,-61.27 95.64,-65.14 110,-67 157.79,-73.2 211.95,-73.25 254.39,-71.72"/>
<polygon fill="midnightblue" stroke="midnightblue" points="254.79,-75.21 264.64,-71.31 254.51,-68.21 254.79,-75.21"/>
</g>
<!-- Node3 -->
<g id="node3" class="node">
<title>Node3</title>
<g id="a_node3"><a xlink:href="structTimerCounter.html#a1b4b0bf7a178ec92cdf6c4703deedcc8" target="_top" xlink:title=" ">
<polygon fill="none" stroke="black" points="110,-38.5 110,-57.5 229,-57.5 229,-38.5 110,-38.5"/>
<text text-anchor="middle" x="169.5" y="-45.5" font-family="Helvetica,sans-Serif" font-size="10.00">TimerCounter::speed</text>
</a>
</g>
</g>
<!-- Node1&#45;&gt;Node3 -->
<g id="edge2" class="edge">
<title>Node1&#45;&gt;Node3</title>
<path fill="none" stroke="midnightblue" d="M74.01,-48C81.92,-48 90.56,-48 99.3,-48"/>
<polygon fill="midnightblue" stroke="midnightblue" points="99.56,-51.5 109.56,-48 99.56,-44.5 99.56,-51.5"/>
</g>
<!-- Node4 -->
<g id="node4" class="node">
<title>Node4</title>
<g id="a_node4"><a xlink:href="structTimerCounter.html#a063980125f92baa0c122454502b876e8" target="_top" xlink:title=" ">
<polygon fill="none" stroke="black" points="114.5,-0.5 114.5,-19.5 224.5,-19.5 224.5,-0.5 114.5,-0.5"/>
<text text-anchor="middle" x="169.5" y="-7.5" font-family="Helvetica,sans-Serif" font-size="10.00">TimerCounter::stop</text>
</a>
</g>
</g>
<!-- Node1&#45;&gt;Node4 -->
<g id="edge4" class="edge">
<title>Node1&#45;&gt;Node4</title>
<path fill="none" stroke="midnightblue" d="M70.93,-38.41C87.62,-33.55 108.09,-27.59 125.96,-22.39"/>
<polygon fill="midnightblue" stroke="midnightblue" points="126.96,-25.74 135.58,-19.59 125,-19.02 126.96,-25.74"/>
</g>
<!-- Node3&#45;&gt;Node2 -->
<g id="edge3" class="edge">
<title>Node3&#45;&gt;Node2</title>
<path fill="none" stroke="midnightblue" d="M229.33,-55.07C237.66,-56.08 246.3,-57.12 254.86,-58.14"/>
<polygon fill="midnightblue" stroke="midnightblue" points="254.5,-61.63 264.85,-59.35 255.34,-54.68 254.5,-61.63"/>
</g>
</g>
</svg>
