<?xml version="1.0" encoding="UTF-8" standalone="no"?>
<!DOCTYPE svg PUBLIC "-//W3C//DTD SVG 1.1//EN"
 "http://www.w3.org/Graphics/SVG/1.1/DTD/svg11.dtd">
<!-- Generated by graphviz version 2.43.0 (0)
 -->
<!-- Title: Stats::createDatasets Pages: 1 -->
<svg width="379pt" height="85pt"
 viewBox="0.00 0.00 379.00 85.00" xmlns="http://www.w3.org/2000/svg" xmlns:xlink="http://www.w3.org/1999/xlink">
<g id="graph0" class="graph" transform="scale(1 1) rotate(0) translate(4 81)">
<title>Stats::createDatasets</title>
<!-- Node1 -->
<g id="node1" class="node">
<title>Node1</title>
<g id="a_node1"><a xlink:title=" ">
<polygon fill="#bfbfbf" stroke="black" points="0,-19.5 0,-38.5 122,-38.5 122,-19.5 0,-19.5"/>
<text text-anchor="middle" x="61" y="-26.5" font-family="Helvetica,sans-Serif" font-size="10.00">Stats::createDatasets</text>
</a>
</g>
</g>
<!-- Node2 -->
<g id="node2" class="node">
<title>Node2</title>
<g id="a_node2"><a xlink:href="Util_8cc.html#a86d0996d4270e7e332c7913164ee8779" target="_top" xlink:title=" ">
<polygon fill="none" stroke="black" points="158,-38.5 158,-57.5 267,-57.5 267,-38.5 158,-38.5"/>
<text text-anchor="middle" x="212.5" y="-45.5" font-family="Helvetica,sans-Serif" font-size="10.00">createHdf5Dataset</text>
</a>
</g>
</g>
<!-- Node1&#45;&gt;Node2 -->
<g id="edge1" class="edge">
<title>Node1&#45;&gt;Node2</title>
<path fill="none" stroke="midnightblue" d="M122.38,-36.67C130.67,-37.73 139.21,-38.81 147.57,-39.88"/>
<polygon fill="midnightblue" stroke="midnightblue" points="147.28,-43.37 157.65,-41.16 148.17,-36.42 147.28,-43.37"/>
</g>
<!-- Node5 -->
<g id="node5" class="node">
<title>Node5</title>
<g id="a_node5"><a xlink:href="Util_8cc.html#a8170ae742eedc980579141210ecb5aa8" target="_top" xlink:title=" ">
<polygon fill="none" stroke="black" points="187.5,-0.5 187.5,-19.5 237.5,-19.5 237.5,-0.5 187.5,-0.5"/>
<text text-anchor="middle" x="212.5" y="-7.5" font-family="Helvetica,sans-Serif" font-size="10.00">extend</text>
</a>
</g>
</g>
<!-- Node1&#45;&gt;Node5 -->
<g id="edge4" class="edge">
<title>Node1&#45;&gt;Node5</title>
<path fill="none" stroke="midnightblue" d="M122.38,-21.33C140.99,-18.96 160.84,-16.44 177.07,-14.38"/>
<polygon fill="midnightblue" stroke="midnightblue" points="177.68,-17.83 187.16,-13.09 176.8,-10.88 177.68,-17.83"/>
</g>
<!-- Node3 -->
<g id="node3" class="node">
<title>Node3</title>
<g id="a_node3"><a xlink:href="Util_8cc.html#a5c5e223a4731b09382b4ae60312119db" target="_top" xlink:title=" ">
<polygon fill="none" stroke="black" points="303,-57.5 303,-76.5 371,-76.5 371,-57.5 303,-57.5"/>
<text text-anchor="middle" x="337" y="-64.5" font-family="Helvetica,sans-Serif" font-size="10.00">hdf5Exists</text>
</a>
</g>
</g>
<!-- Node2&#45;&gt;Node3 -->
<g id="edge2" class="edge">
<title>Node2&#45;&gt;Node3</title>
<path fill="none" stroke="midnightblue" d="M267.23,-56.33C275.73,-57.65 284.42,-59 292.64,-60.28"/>
<polygon fill="midnightblue" stroke="midnightblue" points="292.34,-63.77 302.76,-61.84 293.41,-56.85 292.34,-63.77"/>
</g>
<!-- Node4 -->
<g id="node4" class="node">
<title>Node4</title>
<g id="a_node4"><a xlink:href="Util_8cc.html#a19b14bd24f332d5d68ab9cfcf406a877" target="_top" xlink:title=" ">
<polygon fill="none" stroke="black" points="318,-19.5 318,-38.5 356,-38.5 356,-19.5 318,-19.5"/>
<text text-anchor="middle" x="337" y="-26.5" font-family="Helvetica,sans-Serif" font-size="10.00">split</text>
</a>
</g>
</g>
<!-- Node2&#45;&gt;Node4 -->
<g id="edge3" class="edge">
<title>Node2&#45;&gt;Node4</title>
<path fill="none" stroke="midnightblue" d="M267.23,-39.67C281.25,-37.49 295.81,-35.23 307.9,-33.36"/>
<polygon fill="midnightblue" stroke="midnightblue" points="308.46,-36.81 317.81,-31.82 307.39,-29.9 308.46,-36.81"/>
</g>
</g>
</svg>
