<?xml version="1.0" encoding="UTF-8" standalone="no"?>
<!DOCTYPE svg PUBLIC "-//W3C//DTD SVG 1.1//EN"
 "http://www.w3.org/Graphics/SVG/1.1/DTD/svg11.dtd">
<!-- Generated by graphviz version 2.43.0 (0)
 -->
<!-- Title: TimerCounter::stop Pages: 1 -->
<svg width="446pt" height="142pt"
 viewBox="0.00 0.00 446.00 142.00" xmlns="http://www.w3.org/2000/svg" xmlns:xlink="http://www.w3.org/1999/xlink">
<g id="graph0" class="graph" transform="scale(1 1) rotate(0) translate(4 138)">
<title>TimerCounter::stop</title>
<!-- Node1 -->
<g id="node1" class="node">
<title>Node1</title>
<g id="a_node1"><a xlink:title=" ">
<polygon fill="#bfbfbf" stroke="black" points="328,-95.5 328,-114.5 438,-114.5 438,-95.5 328,-95.5"/>
<text text-anchor="middle" x="383" y="-102.5" font-family="Helvetica,sans-Serif" font-size="10.00">TimerCounter::stop</text>
</a>
</g>
</g>
<!-- Node2 -->
<g id="node2" class="node">
<title>Node2</title>
<g id="a_node2"><a xlink:href="structTimer.html#a5705f56b34fe5f20acd94da7abe328bf" target="_top" xlink:title=" ">
<polygon fill="none" stroke="black" points="218,-114.5 218,-133.5 292,-133.5 292,-114.5 218,-114.5"/>
<text text-anchor="middle" x="255" y="-121.5" font-family="Helvetica,sans-Serif" font-size="10.00">Timer::print</text>
</a>
</g>
</g>
<!-- Node1&#45;&gt;Node2 -->
<g id="edge1" class="edge">
<title>Node1&#45;&gt;Node2</title>
<path fill="none" stroke="midnightblue" d="M317.92,-114.66C309.12,-115.99 300.35,-117.31 292.3,-118.53"/>
<polygon fill="midnightblue" stroke="midnightblue" points="318.47,-118.12 327.83,-113.17 317.42,-111.2 318.47,-118.12"/>
</g>
<!-- Node4 -->
<g id="node4" class="node">
<title>Node4</title>
<g id="a_node4"><a xlink:href="structTimer.html#af8cfe574b7520624a579653a720b87e8" target="_top" xlink:title=" ">
<polygon fill="none" stroke="black" points="218,-76.5 218,-95.5 292,-95.5 292,-76.5 218,-76.5"/>
<text text-anchor="middle" x="255" y="-83.5" font-family="Helvetica,sans-Serif" font-size="10.00">Timer::start</text>
</a>
</g>
</g>
<!-- Node1&#45;&gt;Node4 -->
<g id="edge3" class="edge">
<title>Node1&#45;&gt;Node4</title>
<path fill="none" stroke="midnightblue" d="M317.92,-95.34C309.12,-94.01 300.35,-92.69 292.3,-91.47"/>
<polygon fill="midnightblue" stroke="midnightblue" points="317.42,-98.8 327.83,-96.83 318.47,-91.88 317.42,-98.8"/>
</g>
<!-- Node3 -->
<g id="node3" class="node">
<title>Node3</title>
<g id="a_node3"><a xlink:href="classConverter.html#ab6c99a9eaa83aea8e2964365e6bbc66c" target="_top" xlink:title=" ">
<polygon fill="none" stroke="black" points="37.5,-114.5 37.5,-133.5 144.5,-133.5 144.5,-114.5 37.5,-114.5"/>
<text text-anchor="middle" x="91" y="-121.5" font-family="Helvetica,sans-Serif" font-size="10.00">Converter::convert</text>
</a>
</g>
</g>
<!-- Node2&#45;&gt;Node3 -->
<g id="edge2" class="edge">
<title>Node2&#45;&gt;Node3</title>
<path fill="none" stroke="midnightblue" d="M207.4,-124C187.75,-124 164.77,-124 144.52,-124"/>
<polygon fill="midnightblue" stroke="midnightblue" points="207.64,-127.5 217.64,-124 207.64,-120.5 207.64,-127.5"/>
</g>
<!-- Node4&#45;&gt;Node3 -->
<g id="edge4" class="edge">
<title>Node4&#45;&gt;Node3</title>
<path fill="none" stroke="midnightblue" d="M209.62,-98.08C200.51,-100.46 190.96,-102.87 182,-105 168.17,-108.28 153.08,-111.58 139.28,-114.48"/>
<polygon fill="midnightblue" stroke="midnightblue" points="210.52,-101.47 219.3,-95.53 208.74,-94.7 210.52,-101.47"/>
</g>
<!-- Node5 -->
<g id="node5" class="node">
<title>Node5</title>
<g id="a_node5"><a xlink:href="classConverter.html#a072082b5d0926bb8e93185ad3eaefea5" target="_top" xlink:title=" ">
<polygon fill="none" stroke="black" points="31.5,-76.5 31.5,-95.5 150.5,-95.5 150.5,-76.5 31.5,-76.5"/>
<text text-anchor="middle" x="91" y="-83.5" font-family="Helvetica,sans-Serif" font-size="10.00">Converter::Converter</text>
</a>
</g>
</g>
<!-- Node4&#45;&gt;Node5 -->
<g id="edge5" class="edge">
<title>Node4&#45;&gt;Node5</title>
<path fill="none" stroke="midnightblue" d="M207.58,-86C189.89,-86 169.49,-86 150.81,-86"/>
<polygon fill="midnightblue" stroke="midnightblue" points="207.64,-89.5 217.64,-86 207.64,-82.5 207.64,-89.5"/>
</g>
<!-- Node6 -->
<g id="node6" class="node">
<title>Node6</title>
<g id="a_node6"><a xlink:href="classFastConverter.html#a29d7369baf5b71da8631de35096519c2" target="_top" xlink:title=" ">
<polygon fill="none" stroke="black" points="2,-38.5 2,-57.5 180,-57.5 180,-38.5 2,-38.5"/>
<text text-anchor="middle" x="91" y="-45.5" font-family="Helvetica,sans-Serif" font-size="10.00">FastConverter::copyAndCalculate</text>
</a>
</g>
</g>
<!-- Node4&#45;&gt;Node6 -->
<g id="edge6" class="edge">
<title>Node4&#45;&gt;Node6</title>
<path fill="none" stroke="midnightblue" d="M209.62,-73.92C200.51,-71.54 190.96,-69.13 182,-67 168.17,-63.72 153.08,-60.42 139.28,-57.52"/>
<polygon fill="midnightblue" stroke="midnightblue" points="208.74,-77.3 219.3,-76.47 210.52,-70.53 208.74,-77.3"/>
</g>
<!-- Node7 -->
<g id="node7" class="node">
<title>Node7</title>
<g id="a_node7"><a xlink:href="classSlowConverter.html#a2732ea741a95c7f90c4d0d9bb2f4393a" target="_top" xlink:title=" ">
<polygon fill="none" stroke="black" points="0,-0.5 0,-19.5 182,-19.5 182,-0.5 0,-0.5"/>
<text text-anchor="middle" x="91" y="-7.5" font-family="Helvetica,sans-Serif" font-size="10.00">SlowConverter::copyAndCalculate</text>
</a>
</g>
</g>
<!-- Node4&#45;&gt;Node7 -->
<g id="edge7" class="edge">
<title>Node4&#45;&gt;Node7</title>
<path fill="none" stroke="midnightblue" d="M237.53,-69.25C223.84,-56.3 203.23,-38.97 182,-29 173.76,-25.13 164.73,-22.05 155.66,-19.58"/>
<polygon fill="midnightblue" stroke="midnightblue" points="235.14,-71.8 244.74,-76.27 240.02,-66.79 235.14,-71.8"/>
</g>
</g>
</svg>
