<?xml version="1.0" encoding="UTF-8" standalone="no"?>
<!DOCTYPE svg PUBLIC "-//W3C//DTD SVG 1.1//EN"
 "http://www.w3.org/Graphics/SVG/1.1/DTD/svg11.dtd">
<!-- Generated by graphviz version 2.43.0 (0)
 -->
<!-- Title: MemoryUsage Pages: 1 -->
<svg width="213pt" height="241pt"
 viewBox="0.00 0.00 212.54 241.00" xmlns="http://www.w3.org/2000/svg" xmlns:xlink="http://www.w3.org/1999/xlink">
<g id="graph0" class="graph" transform="scale(1 1) rotate(0) translate(4 237)">
<title>MemoryUsage</title>
<!-- Node1 -->
<g id="node1" class="node">
<title>Node1</title>
<g id="a_node1"><a xlink:title=" ">
<polygon fill="#bfbfbf" stroke="black" points="59.54,-0.5 59.54,-19.5 147.54,-19.5 147.54,-0.5 59.54,-0.5"/>
<text text-anchor="middle" x="103.54" y="-7.5" font-family="Helvetica,sans-Serif" font-size="10.00">MemoryUsage</text>
</a>
</g>
</g>
<!-- Node2 -->
<g id="node2" class="node">
<title>Node2</title>
<g id="a_node2"><a xlink:title=" ">
<polygon fill="none" stroke="#bfbfbf" points="25.04,-145.5 25.04,-164.5 76.04,-164.5 76.04,-145.5 25.04,-145.5"/>
<text text-anchor="middle" x="50.54" y="-152.5" font-family="Helvetica,sans-Serif" font-size="10.00">hsize_t</text>
</a>
</g>
</g>
<!-- Node2&#45;&gt;Node1 -->
<g id="edge1" class="edge">
<title>Node2&#45;&gt;Node1</title>
<path fill="none" stroke="#9a32cd" stroke-dasharray="5,2" d="M32.55,-138.74C14.15,-121.2 -9.85,-91.67 4.54,-67 18.96,-42.27 48.81,-27.59 71.98,-19.5"/>
<polygon fill="#9a32cd" stroke="#9a32cd" points="30.21,-141.34 39.97,-145.47 34.92,-136.16 30.21,-141.34"/>
<text text-anchor="middle" x="17.54" y="-80" font-family="Helvetica,sans-Serif" font-size="10.00"> total</text>
</g>
<!-- Node5 -->
<g id="node5" class="node">
<title>Node5</title>
<g id="a_node5"><a xlink:title=" ">
<polygon fill="none" stroke="#bfbfbf" points="39.54,-67.5 39.54,-97.5 167.54,-97.5 167.54,-67.5 39.54,-67.5"/>
<text text-anchor="start" x="47.54" y="-85.5" font-family="Helvetica,sans-Serif" font-size="10.00">std::unordered_map</text>
<text text-anchor="middle" x="103.54" y="-74.5" font-family="Helvetica,sans-Serif" font-size="10.00">&lt; std::string, hsize_t &gt;</text>
</a>
</g>
</g>
<!-- Node2&#45;&gt;Node5 -->
<g id="edge5" class="edge">
<title>Node2&#45;&gt;Node5</title>
<path fill="none" stroke="#9a32cd" stroke-dasharray="5,2" d="M57.43,-135.88C60.36,-129.31 64.12,-122.03 68.54,-116 73.44,-109.31 79.85,-102.89 85.85,-97.55"/>
<polygon fill="#9a32cd" stroke="#9a32cd" points="54.11,-134.76 53.55,-145.34 60.58,-137.42 54.11,-134.76"/>
<text text-anchor="middle" x="93.04" y="-119" font-family="Helvetica,sans-Serif" font-size="10.00"> elements</text>
</g>
<!-- Node3 -->
<g id="node3" class="node">
<title>Node3</title>
<g id="a_node3"><a xlink:title=" ">
<polygon fill="none" stroke="#bfbfbf" points="110.04,-145.5 110.04,-164.5 175.04,-164.5 175.04,-145.5 110.04,-145.5"/>
<text text-anchor="middle" x="142.54" y="-152.5" font-family="Helvetica,sans-Serif" font-size="10.00">std::string</text>
</a>
</g>
</g>
<!-- Node3&#45;&gt;Node1 -->
<g id="edge2" class="edge">
<title>Node3&#45;&gt;Node1</title>
<path fill="none" stroke="#9a32cd" stroke-dasharray="5,2" d="M157.08,-137.65C171.01,-119.9 188.31,-90.87 176.54,-67 165.44,-44.51 140.5,-28.54 122.87,-19.56"/>
<polygon fill="#9a32cd" stroke="#9a32cd" points="154.34,-135.47 150.65,-145.39 159.73,-139.94 154.34,-135.47"/>
<text text-anchor="middle" x="192.04" y="-80" font-family="Helvetica,sans-Serif" font-size="10.00"> note</text>
</g>
<!-- Node3&#45;&gt;Node5 -->
<g id="edge6" class="edge">
<title>Node3&#45;&gt;Node5</title>
<path fill="none" stroke="#9a32cd" stroke-dasharray="5,2" d="M132.76,-136.32C126.13,-124.34 117.49,-108.72 111.32,-97.58"/>
<polygon fill="#9a32cd" stroke="#9a32cd" points="129.85,-138.3 137.75,-145.36 135.98,-134.91 129.85,-138.3"/>
<text text-anchor="middle" x="138.54" y="-119" font-family="Helvetica,sans-Serif" font-size="10.00"> keys</text>
</g>
<!-- Node4 -->
<g id="node4" class="node">
<title>Node4</title>
<g id="a_node4"><a xlink:title=" ">
<polygon fill="none" stroke="#bfbfbf" points="90.54,-202.5 90.54,-232.5 194.54,-232.5 194.54,-202.5 90.54,-202.5"/>
<text text-anchor="start" x="98.54" y="-220.5" font-family="Helvetica,sans-Serif" font-size="10.00">std::basic_string&lt;</text>
<text text-anchor="middle" x="142.54" y="-209.5" font-family="Helvetica,sans-Serif" font-size="10.00"> Char &gt;</text>
</a>
</g>
</g>
<!-- Node4&#45;&gt;Node3 -->
<g id="edge3" class="edge">
<title>Node4&#45;&gt;Node3</title>
<path fill="none" stroke="midnightblue" d="M142.54,-192.35C142.54,-182.51 142.54,-171.78 142.54,-164.54"/>
<polygon fill="midnightblue" stroke="midnightblue" points="139.04,-192.47 142.54,-202.47 146.04,-192.47 139.04,-192.47"/>
</g>
<!-- Node5&#45;&gt;Node1 -->
<g id="edge4" class="edge">
<title>Node5&#45;&gt;Node1</title>
<path fill="none" stroke="#9a32cd" stroke-dasharray="5,2" d="M103.54,-57.09C103.54,-44.21 103.54,-29.2 103.54,-19.89"/>
<polygon fill="#9a32cd" stroke="#9a32cd" points="100.04,-57.23 103.54,-67.23 107.04,-57.23 100.04,-57.23"/>
<text text-anchor="middle" x="117.54" y="-41" font-family="Helvetica,sans-Serif" font-size="10.00"> sizes</text>
</g>
</g>
</svg>
