<?xml version="1.0" encoding="UTF-8" standalone="no"?>
<!DOCTYPE svg PUBLIC "-//W3C//DTD SVG 1.1//EN"
 "http://www.w3.org/Graphics/SVG/1.1/DTD/svg11.dtd">
<!-- Generated by graphviz version 2.43.0 (0)
 -->
<!-- Title: MipMaps Pages: 1 -->
<svg width="420pt" height="353pt"
 viewBox="0.00 0.00 420.00 353.00" xmlns="http://www.w3.org/2000/svg" xmlns:xlink="http://www.w3.org/1999/xlink">
<g id="graph0" class="graph" transform="scale(1 1) rotate(0) translate(4 349)">
<title>MipMaps</title>
<!-- Node1 -->
<g id="node1" class="node">
<title>Node1</title>
<g id="a_node1"><a xlink:title=" ">
<polygon fill="#bfbfbf" stroke="black" points="36,-0.5 36,-19.5 97,-19.5 97,-0.5 36,-0.5"/>
<text text-anchor="middle" x="66.5" y="-7.5" font-family="Helvetica,sans-Serif" font-size="10.00">MipMaps</text>
</a>
</g>
</g>
<!-- Node2 -->
<g id="node2" class="node">
<title>Node2</title>
<g id="a_node2"><a xlink:title=" ">
<polygon fill="none" stroke="#bfbfbf" points="0,-241 0,-260 125,-260 125,-241 0,-241"/>
<text text-anchor="middle" x="62.5" y="-248" font-family="Helvetica,sans-Serif" font-size="10.00">std::vector&lt; hsize_t &gt;</text>
</a>
</g>
</g>
<!-- Node2&#45;&gt;Node1 -->
<g id="edge1" class="edge">
<title>Node2&#45;&gt;Node1</title>
<path fill="none" stroke="#9a32cd" stroke-dasharray="5,2" d="M62.82,-230.67C63.63,-182.1 65.78,-53.99 66.36,-19.6"/>
<polygon fill="#9a32cd" stroke="#9a32cd" points="59.32,-230.67 62.65,-240.73 66.31,-230.79 59.32,-230.67"/>
<text text-anchor="middle" x="100" y="-119" font-family="Helvetica,sans-Serif" font-size="10.00"> chunkDims</text>
<text text-anchor="middle" x="100" y="-108" font-family="Helvetica,sans-Serif" font-size="10.00">standardDims</text>
</g>
<!-- Node5 -->
<g id="node5" class="node">
<title>Node5</title>
<g id="a_node5"><a xlink:href="structMipMap.html" target="_top" xlink:title=" ">
<polygon fill="none" stroke="black" points="182.5,-145.5 182.5,-164.5 238.5,-164.5 238.5,-145.5 182.5,-145.5"/>
<text text-anchor="middle" x="210.5" y="-152.5" font-family="Helvetica,sans-Serif" font-size="10.00">MipMap</text>
</a>
</g>
</g>
<!-- Node2&#45;&gt;Node5 -->
<g id="edge5" class="edge">
<title>Node2&#45;&gt;Node5</title>
<path fill="none" stroke="#9a32cd" stroke-dasharray="5,2" d="M63.78,-230.46C65.83,-215.43 71.08,-195.04 84.5,-183 98.7,-170.26 149.87,-162.52 182.47,-158.76"/>
<polygon fill="#9a32cd" stroke="#9a32cd" points="60.27,-230.39 62.76,-240.69 67.24,-231.09 60.27,-230.39"/>
<text text-anchor="middle" x="116" y="-197" font-family="Helvetica,sans-Serif" font-size="10.00"> bufferDims</text>
<text text-anchor="middle" x="116" y="-186" font-family="Helvetica,sans-Serif" font-size="10.00">datasetDims</text>
</g>
<!-- Node3 -->
<g id="node3" class="node">
<title>Node3</title>
<g id="a_node3"><a xlink:title=" ">
<polygon fill="none" stroke="#bfbfbf" points="87,-325.5 87,-344.5 138,-344.5 138,-325.5 87,-325.5"/>
<text text-anchor="middle" x="112.5" y="-332.5" font-family="Helvetica,sans-Serif" font-size="10.00">hsize_t</text>
</a>
</g>
</g>
<!-- Node3&#45;&gt;Node2 -->
<g id="edge2" class="edge">
<title>Node3&#45;&gt;Node2</title>
<path fill="none" stroke="#9a32cd" stroke-dasharray="5,2" d="M102.13,-316.9C91.64,-299.57 75.82,-273.48 67.71,-260.1"/>
<polygon fill="#9a32cd" stroke="#9a32cd" points="99.16,-318.74 107.34,-325.48 105.15,-315.12 99.16,-318.74"/>
<text text-anchor="middle" x="120" y="-299" font-family="Helvetica,sans-Serif" font-size="10.00"> elements</text>
</g>
<!-- Node3&#45;&gt;Node5 -->
<g id="edge7" class="edge">
<title>Node3&#45;&gt;Node5</title>
<path fill="none" stroke="#9a32cd" stroke-dasharray="5,2" d="M136,-319.31C140.32,-315.72 144.43,-311.58 147.5,-307 169.05,-274.85 155.33,-258.61 170.5,-223 179.95,-200.82 195.6,-177.09 204.25,-164.69"/>
<polygon fill="#9a32cd" stroke="#9a32cd" points="133.61,-316.72 127.65,-325.48 137.77,-322.35 133.61,-316.72"/>
<text text-anchor="middle" x="196.5" y="-270" font-family="Helvetica,sans-Serif" font-size="10.00"> bufferSize</text>
<text text-anchor="middle" x="196.5" y="-259" font-family="Helvetica,sans-Serif" font-size="10.00">depth</text>
<text text-anchor="middle" x="196.5" y="-248" font-family="Helvetica,sans-Serif" font-size="10.00">height</text>
<text text-anchor="middle" x="196.5" y="-237" font-family="Helvetica,sans-Serif" font-size="10.00">stokes</text>
<text text-anchor="middle" x="196.5" y="-226" font-family="Helvetica,sans-Serif" font-size="10.00">width</text>
</g>
<!-- Node4 -->
<g id="node4" class="node">
<title>Node4</title>
<g id="a_node4"><a xlink:title=" ">
<polygon fill="none" stroke="#bfbfbf" points="132.5,-67.5 132.5,-86.5 262.5,-86.5 262.5,-67.5 132.5,-67.5"/>
<text text-anchor="middle" x="197.5" y="-74.5" font-family="Helvetica,sans-Serif" font-size="10.00">std::vector&lt; MipMap &gt;</text>
</a>
</g>
</g>
<!-- Node4&#45;&gt;Node1 -->
<g id="edge3" class="edge">
<title>Node4&#45;&gt;Node1</title>
<path fill="none" stroke="#9a32cd" stroke-dasharray="5,2" d="M170.84,-62.77C144.9,-49.9 106.22,-30.71 83.97,-19.67"/>
<polygon fill="#9a32cd" stroke="#9a32cd" points="169.59,-66.06 180.1,-67.37 172.7,-59.79 169.59,-66.06"/>
<text text-anchor="middle" x="165" y="-41" font-family="Helvetica,sans-Serif" font-size="10.00"> mipMaps</text>
</g>
<!-- Node5&#45;&gt;Node4 -->
<g id="edge4" class="edge">
<title>Node5&#45;&gt;Node4</title>
<path fill="none" stroke="#9a32cd" stroke-dasharray="5,2" d="M207.29,-135.22C204.63,-119.7 200.98,-98.36 198.97,-86.62"/>
<polygon fill="#9a32cd" stroke="#9a32cd" points="203.87,-136.02 209.01,-145.28 210.77,-134.83 203.87,-136.02"/>
<text text-anchor="middle" x="230" y="-113.5" font-family="Helvetica,sans-Serif" font-size="10.00"> elements</text>
</g>
<!-- Node6 -->
<g id="node6" class="node">
<title>Node6</title>
<g id="a_node6"><a xlink:title=" ">
<polygon fill="none" stroke="#bfbfbf" points="231.5,-241 231.5,-260 289.5,-260 289.5,-241 231.5,-241"/>
<text text-anchor="middle" x="260.5" y="-248" font-family="Helvetica,sans-Serif" font-size="10.00">double *</text>
</a>
</g>
</g>
<!-- Node6&#45;&gt;Node5 -->
<g id="edge6" class="edge">
<title>Node6&#45;&gt;Node5</title>
<path fill="none" stroke="#9a32cd" stroke-dasharray="5,2" d="M251.06,-231.85C240.33,-211.78 223.24,-179.83 215.1,-164.61"/>
<polygon fill="#9a32cd" stroke="#9a32cd" points="248.08,-233.7 255.89,-240.87 254.26,-230.4 248.08,-233.7"/>
<text text-anchor="middle" x="247.5" y="-191.5" font-family="Helvetica,sans-Serif" font-size="10.00"> vals</text>
</g>
<!-- Node7 -->
<g id="node7" class="node">
<title>Node7</title>
<g id="a_node7"><a xlink:title=" ">
<polygon fill="none" stroke="#bfbfbf" points="307.5,-241 307.5,-260 363.5,-260 363.5,-241 307.5,-241"/>
<text text-anchor="middle" x="335.5" y="-248" font-family="Helvetica,sans-Serif" font-size="10.00">DataSet</text>
</a>
</g>
</g>
<!-- Node7&#45;&gt;Node5 -->
<g id="edge8" class="edge">
<title>Node7&#45;&gt;Node5</title>
<path fill="none" stroke="#9a32cd" stroke-dasharray="5,2" d="M320.51,-233.32C306.64,-218.95 284.98,-197.96 263.5,-183 253.16,-175.8 240.64,-169.33 230.36,-164.53"/>
<polygon fill="#9a32cd" stroke="#9a32cd" points="318.29,-236.08 327.71,-240.92 323.37,-231.26 318.29,-236.08"/>
<text text-anchor="middle" x="310.5" y="-191.5" font-family="Helvetica,sans-Serif" font-size="10.00"> dataset</text>
</g>
<!-- Node8 -->
<g id="node8" class="node">
<title>Node8</title>
<g id="a_node8"><a xlink:title=" ">
<polygon fill="none" stroke="#bfbfbf" points="383,-241 383,-260 412,-260 412,-241 383,-241"/>
<text text-anchor="middle" x="397.5" y="-248" font-family="Helvetica,sans-Serif" font-size="10.00">int</text>
</a>
</g>
</g>
<!-- Node8&#45;&gt;Node5 -->
<g id="edge9" class="edge">
<title>Node8&#45;&gt;Node5</title>
<path fill="none" stroke="#9a32cd" stroke-dasharray="5,2" d="M385.64,-231.97C374.31,-216.65 355.85,-195.02 334.5,-183 304.45,-166.09 264.8,-159.76 238.52,-157.4"/>
<polygon fill="#9a32cd" stroke="#9a32cd" points="383.09,-234.43 391.73,-240.56 388.8,-230.38 383.09,-234.43"/>
<text text-anchor="middle" x="377" y="-197" font-family="Helvetica,sans-Serif" font-size="10.00"> count</text>
<text text-anchor="middle" x="377" y="-186" font-family="Helvetica,sans-Serif" font-size="10.00">mip</text>
</g>
</g>
</svg>
