<?xml version="1.0" encoding="UTF-8" standalone="no"?>
<!DOCTYPE svg PUBLIC "-//W3C//DTD SVG 1.1//EN"
 "http://www.w3.org/Graphics/SVG/1.1/DTD/svg11.dtd">
<!-- Generated by graphviz version 2.43.0 (0)
 -->
<!-- Title: Stats Pages: 1 -->
<svg width="764pt" height="219pt"
 viewBox="0.00 0.00 763.50 219.00" xmlns="http://www.w3.org/2000/svg" xmlns:xlink="http://www.w3.org/1999/xlink">
<g id="graph0" class="graph" transform="scale(1 1) rotate(0) translate(4 215)">
<title>Stats</title>
<!-- Node1 -->
<g id="node1" class="node">
<title>Node1</title>
<g id="a_node1"><a xlink:title=" ">
<polygon fill="#bfbfbf" stroke="black" points="358,-0.5 358,-19.5 399,-19.5 399,-0.5 358,-0.5"/>
<text text-anchor="middle" x="378.5" y="-7.5" font-family="Helvetica,sans-Serif" font-size="10.00">Stats</text>
</a>
</g>
</g>
<!-- Node2 -->
<g id="node2" class="node">
<title>Node2</title>
<g id="a_node2"><a xlink:title=" ">
<polygon fill="none" stroke="#bfbfbf" points="0,-123.5 0,-142.5 47,-142.5 47,-123.5 0,-123.5"/>
<text text-anchor="middle" x="23.5" y="-130.5" font-family="Helvetica,sans-Serif" font-size="10.00">float *</text>
</a>
</g>
</g>
<!-- Node2&#45;&gt;Node1 -->
<g id="edge1" class="edge">
<title>Node2&#45;&gt;Node1</title>
<path fill="none" stroke="#9a32cd" stroke-dasharray="5,2" d="M17.19,-113.64C11.22,-92.49 5.69,-58.08 24.5,-38 47.36,-13.59 285.82,-11.16 357.95,-10.99"/>
<polygon fill="#9a32cd" stroke="#9a32cd" points="13.9,-114.84 20.23,-123.34 20.58,-112.75 13.9,-114.84"/>
<text text-anchor="middle" x="47.5" y="-74" font-family="Helvetica,sans-Serif" font-size="10.00"> maxVals</text>
<text text-anchor="middle" x="47.5" y="-63" font-family="Helvetica,sans-Serif" font-size="10.00">minVals</text>
</g>
<!-- Node3 -->
<g id="node3" class="node">
<title>Node3</title>
<g id="a_node3"><a xlink:title=" ">
<polygon fill="none" stroke="#bfbfbf" points="201,-123.5 201,-142.5 326,-142.5 326,-123.5 201,-123.5"/>
<text text-anchor="middle" x="263.5" y="-130.5" font-family="Helvetica,sans-Serif" font-size="10.00">std::vector&lt; hsize_t &gt;</text>
</a>
</g>
</g>
<!-- Node3&#45;&gt;Node1 -->
<g id="edge2" class="edge">
<title>Node3&#45;&gt;Node1</title>
<path fill="none" stroke="#9a32cd" stroke-dasharray="5,2" d="M259.79,-113.36C256.79,-92.45 255.58,-58.75 273.5,-38 284.39,-25.4 330.42,-17.31 357.79,-13.53"/>
<polygon fill="#9a32cd" stroke="#9a32cd" points="256.39,-114.24 261.54,-123.5 263.29,-113.05 256.39,-114.24"/>
<text text-anchor="middle" x="322" y="-74" font-family="Helvetica,sans-Serif" font-size="10.00"> basicDatasetDims</text>
<text text-anchor="middle" x="322" y="-63" font-family="Helvetica,sans-Serif" font-size="10.00">fullBasicBufferDims</text>
</g>
<!-- Node4 -->
<g id="node4" class="node">
<title>Node4</title>
<g id="a_node4"><a xlink:title=" ">
<polygon fill="none" stroke="#bfbfbf" points="75,-191.5 75,-210.5 126,-210.5 126,-191.5 75,-191.5"/>
<text text-anchor="middle" x="100.5" y="-198.5" font-family="Helvetica,sans-Serif" font-size="10.00">hsize_t</text>
</a>
</g>
</g>
<!-- Node4&#45;&gt;Node1 -->
<g id="edge5" class="edge">
<title>Node4&#45;&gt;Node1</title>
<path fill="none" stroke="#9a32cd" stroke-dasharray="5,2" d="M93.28,-181.32C88.08,-164.57 83.69,-139.94 94.5,-122 151.2,-27.92 302.57,-13.43 357.89,-11.31"/>
<polygon fill="#9a32cd" stroke="#9a32cd" points="90.07,-182.75 96.67,-191.04 96.68,-180.45 90.07,-182.75"/>
<text text-anchor="middle" x="143.5" y="-136" font-family="Helvetica,sans-Serif" font-size="10.00"> numBins</text>
<text text-anchor="middle" x="143.5" y="-125" font-family="Helvetica,sans-Serif" font-size="10.00">partialHistMultiplier</text>
</g>
<!-- Node4&#45;&gt;Node3 -->
<g id="edge3" class="edge">
<title>Node4&#45;&gt;Node3</title>
<path fill="none" stroke="#9a32cd" stroke-dasharray="5,2" d="M131.28,-187.54C163.8,-174.37 214.19,-153.97 242.44,-142.53"/>
<polygon fill="#9a32cd" stroke="#9a32cd" points="129.76,-184.37 121.81,-191.37 132.39,-190.86 129.76,-184.37"/>
<text text-anchor="middle" x="216" y="-165" font-family="Helvetica,sans-Serif" font-size="10.00"> elements</text>
</g>
<!-- Node5 -->
<g id="node5" class="node">
<title>Node5</title>
<g id="a_node5"><a xlink:title=" ">
<polygon fill="none" stroke="#bfbfbf" points="344.5,-123.5 344.5,-142.5 402.5,-142.5 402.5,-123.5 344.5,-123.5"/>
<text text-anchor="middle" x="373.5" y="-130.5" font-family="Helvetica,sans-Serif" font-size="10.00">double *</text>
</a>
</g>
</g>
<!-- Node5&#45;&gt;Node1 -->
<g id="edge4" class="edge">
<title>Node5&#45;&gt;Node1</title>
<path fill="none" stroke="#9a32cd" stroke-dasharray="5,2" d="M374.29,-112.99C375.39,-86.35 377.34,-39 378.14,-19.62"/>
<polygon fill="#9a32cd" stroke="#9a32cd" points="370.78,-113.16 373.86,-123.3 377.77,-113.45 370.78,-113.16"/>
<text text-anchor="middle" x="396" y="-74" font-family="Helvetica,sans-Serif" font-size="10.00"> sums</text>
<text text-anchor="middle" x="396" y="-63" font-family="Helvetica,sans-Serif" font-size="10.00">sumsSq</text>
</g>
<!-- Node6 -->
<g id="node6" class="node">
<title>Node6</title>
<g id="a_node6"><a xlink:title=" ">
<polygon fill="none" stroke="#bfbfbf" points="420.5,-123.5 420.5,-142.5 476.5,-142.5 476.5,-123.5 420.5,-123.5"/>
<text text-anchor="middle" x="448.5" y="-130.5" font-family="Helvetica,sans-Serif" font-size="10.00">DataSet</text>
</a>
</g>
</g>
<!-- Node6&#45;&gt;Node1 -->
<g id="edge6" class="edge">
<title>Node6&#45;&gt;Node1</title>
<path fill="none" stroke="#9a32cd" stroke-dasharray="5,2" d="M446.5,-113.21C443.54,-92.92 436.38,-60.48 419.5,-38 413.67,-30.23 404.9,-24.03 396.97,-19.53"/>
<polygon fill="#9a32cd" stroke="#9a32cd" points="443.06,-113.86 447.78,-123.34 450,-112.98 443.06,-113.86"/>
<text text-anchor="middle" x="467" y="-96" font-family="Helvetica,sans-Serif" font-size="10.00"> histDset</text>
<text text-anchor="middle" x="467" y="-85" font-family="Helvetica,sans-Serif" font-size="10.00">maxDset</text>
<text text-anchor="middle" x="467" y="-74" font-family="Helvetica,sans-Serif" font-size="10.00">minDset</text>
<text text-anchor="middle" x="467" y="-63" font-family="Helvetica,sans-Serif" font-size="10.00">nanDset</text>
<text text-anchor="middle" x="467" y="-52" font-family="Helvetica,sans-Serif" font-size="10.00">ssqDset</text>
<text text-anchor="middle" x="467" y="-41" font-family="Helvetica,sans-Serif" font-size="10.00">sumDset</text>
</g>
<!-- Node7 -->
<g id="node7" class="node">
<title>Node7</title>
<g id="a_node7"><a xlink:title=" ">
<polygon fill="none" stroke="#bfbfbf" points="494.5,-123.5 494.5,-142.5 532.5,-142.5 532.5,-123.5 494.5,-123.5"/>
<text text-anchor="middle" x="513.5" y="-130.5" font-family="Helvetica,sans-Serif" font-size="10.00">bool</text>
</a>
</g>
</g>
<!-- Node7&#45;&gt;Node1 -->
<g id="edge7" class="edge">
<title>Node7&#45;&gt;Node1</title>
<path fill="none" stroke="#9a32cd" stroke-dasharray="5,2" d="M514.53,-113.33C514.62,-92.14 511.34,-57.94 491.5,-38 478.69,-25.13 428.03,-17.01 399.08,-13.32"/>
<polygon fill="#9a32cd" stroke="#9a32cd" points="511.03,-113.23 514.23,-123.33 518.03,-113.44 511.03,-113.23"/>
<text text-anchor="middle" x="578.5" y="-74" font-family="Helvetica,sans-Serif" font-size="10.00"> buffersAllocated</text>
<text text-anchor="middle" x="578.5" y="-63" font-family="Helvetica,sans-Serif" font-size="10.00">histogramBuffersAllocated</text>
</g>
<!-- Node8 -->
<g id="node8" class="node">
<title>Node8</title>
<g id="a_node8"><a xlink:title=" ">
<polygon fill="none" stroke="#bfbfbf" points="637,-123.5 637,-142.5 696,-142.5 696,-123.5 637,-123.5"/>
<text text-anchor="middle" x="666.5" y="-130.5" font-family="Helvetica,sans-Serif" font-size="10.00">int64_t *</text>
</a>
</g>
</g>
<!-- Node8&#45;&gt;Node1 -->
<g id="edge8" class="edge">
<title>Node8&#45;&gt;Node1</title>
<path fill="none" stroke="#9a32cd" stroke-dasharray="5,2" d="M667.98,-113.17C668.54,-91.54 665.74,-56.66 644.5,-38 626.2,-21.91 458.93,-14.05 399.41,-11.74"/>
<polygon fill="#9a32cd" stroke="#9a32cd" points="664.47,-113.2 667.44,-123.37 671.46,-113.57 664.47,-113.2"/>
<text text-anchor="middle" x="711.5" y="-79.5" font-family="Helvetica,sans-Serif" font-size="10.00"> histograms</text>
<text text-anchor="middle" x="711.5" y="-68.5" font-family="Helvetica,sans-Serif" font-size="10.00">nanCounts</text>
<text text-anchor="middle" x="711.5" y="-57.5" font-family="Helvetica,sans-Serif" font-size="10.00">partialHistograms</text>
</g>
</g>
</svg>
