<?xml version="1.0" encoding="UTF-8" standalone="no"?>
<!DOCTYPE svg PUBLIC "-//W3C//DTD SVG 1.1//EN"
 "http://www.w3.org/Graphics/SVG/1.1/DTD/svg11.dtd">
<!-- Generated by graphviz version 2.43.0 (0)
 -->
<!-- Title: Timer::start Pages: 1 -->
<svg width="300pt" height="142pt"
 viewBox="0.00 0.00 300.00 142.00" xmlns="http://www.w3.org/2000/svg" xmlns:xlink="http://www.w3.org/1999/xlink">
<g id="graph0" class="graph" transform="scale(1 1) rotate(0) translate(4 138)">
<title>Timer::start</title>
<!-- Node1 -->
<g id="node1" class="node">
<title>Node1</title>
<g id="a_node1"><a xlink:title=" ">
<polygon fill="#bfbfbf" stroke="black" points="218,-57.5 218,-76.5 292,-76.5 292,-57.5 218,-57.5"/>
<text text-anchor="middle" x="255" y="-64.5" font-family="Helvetica,sans-Serif" font-size="10.00">Timer::start</text>
</a>
</g>
</g>
<!-- Node2 -->
<g id="node2" class="node">
<title>Node2</title>
<g id="a_node2"><a xlink:href="classConverter.html#ab6c99a9eaa83aea8e2964365e6bbc66c" target="_top" xlink:title=" ">
<polygon fill="none" stroke="black" points="37.5,-114.5 37.5,-133.5 144.5,-133.5 144.5,-114.5 37.5,-114.5"/>
<text text-anchor="middle" x="91" y="-121.5" font-family="Helvetica,sans-Serif" font-size="10.00">Converter::convert</text>
</a>
</g>
</g>
<!-- Node1&#45;&gt;Node2 -->
<g id="edge1" class="edge">
<title>Node1&#45;&gt;Node2</title>
<path fill="none" stroke="midnightblue" d="M230.09,-81.77C216.43,-89.66 198.74,-98.95 182,-105 170.14,-109.29 157.02,-112.74 144.56,-115.46"/>
<polygon fill="midnightblue" stroke="midnightblue" points="232.02,-84.7 238.84,-76.6 228.45,-78.68 232.02,-84.7"/>
</g>
<!-- Node3 -->
<g id="node3" class="node">
<title>Node3</title>
<g id="a_node3"><a xlink:href="classConverter.html#a072082b5d0926bb8e93185ad3eaefea5" target="_top" xlink:title=" ">
<polygon fill="none" stroke="black" points="31.5,-76.5 31.5,-95.5 150.5,-95.5 150.5,-76.5 31.5,-76.5"/>
<text text-anchor="middle" x="91" y="-83.5" font-family="Helvetica,sans-Serif" font-size="10.00">Converter::Converter</text>
</a>
</g>
</g>
<!-- Node1&#45;&gt;Node3 -->
<g id="edge2" class="edge">
<title>Node1&#45;&gt;Node3</title>
<path fill="none" stroke="midnightblue" d="M207.58,-72.44C189.89,-74.52 169.49,-76.91 150.81,-79.1"/>
<polygon fill="midnightblue" stroke="midnightblue" points="208.12,-75.91 217.64,-71.26 207.3,-68.95 208.12,-75.91"/>
</g>
<!-- Node4 -->
<g id="node4" class="node">
<title>Node4</title>
<g id="a_node4"><a xlink:href="classFastConverter.html#a29d7369baf5b71da8631de35096519c2" target="_top" xlink:title=" ">
<polygon fill="none" stroke="black" points="2,-38.5 2,-57.5 180,-57.5 180,-38.5 2,-38.5"/>
<text text-anchor="middle" x="91" y="-45.5" font-family="Helvetica,sans-Serif" font-size="10.00">FastConverter::copyAndCalculate</text>
</a>
</g>
</g>
<!-- Node1&#45;&gt;Node4 -->
<g id="edge3" class="edge">
<title>Node1&#45;&gt;Node4</title>
<path fill="none" stroke="midnightblue" d="M207.64,-61.56C196.86,-60.3 185.06,-58.91 173.26,-57.53"/>
<polygon fill="midnightblue" stroke="midnightblue" points="207.3,-65.05 217.64,-62.74 208.12,-58.09 207.3,-65.05"/>
</g>
<!-- Node5 -->
<g id="node5" class="node">
<title>Node5</title>
<g id="a_node5"><a xlink:href="classSlowConverter.html#a2732ea741a95c7f90c4d0d9bb2f4393a" target="_top" xlink:title=" ">
<polygon fill="none" stroke="black" points="0,-0.5 0,-19.5 182,-19.5 182,-0.5 0,-0.5"/>
<text text-anchor="middle" x="91" y="-7.5" font-family="Helvetica,sans-Serif" font-size="10.00">SlowConverter::copyAndCalculate</text>
</a>
</g>
</g>
<!-- Node1&#45;&gt;Node5 -->
<g id="edge4" class="edge">
<title>Node1&#45;&gt;Node5</title>
<path fill="none" stroke="midnightblue" d="M230.09,-52.23C216.43,-44.34 198.74,-35.05 182,-29 171.64,-25.25 160.32,-22.15 149.32,-19.61"/>
<polygon fill="midnightblue" stroke="midnightblue" points="228.45,-55.32 238.84,-57.4 232.02,-49.3 228.45,-55.32"/>
</g>
</g>
</svg>
