<?xml version="1.0" encoding="UTF-8" standalone="no"?>
<!DOCTYPE svg PUBLIC "-//W3C//DTD SVG 1.1//EN"
 "http://www.w3.org/Graphics/SVG/1.1/DTD/svg11.dtd">
<!-- Generated by graphviz version 2.43.0 (0)
 -->
<!-- Title: Stats::write Pages: 1 -->
<svg width="363pt" height="66pt"
 viewBox="0.00 0.00 363.00 66.00" xmlns="http://www.w3.org/2000/svg" xmlns:xlink="http://www.w3.org/1999/xlink">
<g id="graph0" class="graph" transform="scale(1 1) rotate(0) translate(4 62)">
<title>Stats::write</title>
<!-- Node1 -->
<g id="node1" class="node">
<title>Node1</title>
<g id="a_node1"><a xlink:title=" ">
<polygon fill="#bfbfbf" stroke="black" points="0,-19.5 0,-38.5 72,-38.5 72,-19.5 0,-19.5"/>
<text text-anchor="middle" x="36" y="-26.5" font-family="Helvetica,sans-Serif" font-size="10.00">Stats::write</text>
</a>
</g>
</g>
<!-- Node2 -->
<g id="node2" class="node">
<title>Node2</title>
<g id="a_node2"><a xlink:href="structStats.html#afa9ca35960c7a71ef00827b491dbe348" target="_top" xlink:title=" ">
<polygon fill="none" stroke="black" points="120.5,-38.5 120.5,-57.5 218.5,-57.5 218.5,-38.5 120.5,-38.5"/>
<text text-anchor="middle" x="169.5" y="-45.5" font-family="Helvetica,sans-Serif" font-size="10.00">Stats::writeBasic</text>
</a>
</g>
</g>
<!-- Node1&#45;&gt;Node2 -->
<g id="edge1" class="edge">
<title>Node1&#45;&gt;Node2</title>
<path fill="none" stroke="midnightblue" d="M72.24,-34.09C83.89,-35.77 97.17,-37.69 110.08,-39.56"/>
<polygon fill="midnightblue" stroke="midnightblue" points="109.91,-43.07 120.31,-41.04 110.91,-36.14 109.91,-43.07"/>
</g>
<!-- Node4 -->
<g id="node4" class="node">
<title>Node4</title>
<g id="a_node4"><a xlink:href="structStats.html#afbfc12603fb2ed178fc8e77dc1a65708" target="_top" xlink:title=" ">
<polygon fill="none" stroke="black" points="108,-0.5 108,-19.5 231,-19.5 231,-0.5 108,-0.5"/>
<text text-anchor="middle" x="169.5" y="-7.5" font-family="Helvetica,sans-Serif" font-size="10.00">Stats::writeHistogram</text>
</a>
</g>
</g>
<!-- Node1&#45;&gt;Node4 -->
<g id="edge3" class="edge">
<title>Node1&#45;&gt;Node4</title>
<path fill="none" stroke="midnightblue" d="M72.24,-23.91C80.2,-22.76 88.93,-21.5 97.77,-20.22"/>
<polygon fill="midnightblue" stroke="midnightblue" points="98.38,-23.67 107.78,-18.77 97.38,-16.74 98.38,-23.67"/>
</g>
<!-- Node3 -->
<g id="node3" class="node">
<title>Node3</title>
<g id="a_node3"><a xlink:href="Util_8cc.html#a957a4202599a841d7f7f34ef7c938ed2" target="_top" xlink:title=" ">
<polygon fill="none" stroke="black" points="267,-38.5 267,-57.5 355,-57.5 355,-38.5 267,-38.5"/>
<text text-anchor="middle" x="311" y="-45.5" font-family="Helvetica,sans-Serif" font-size="10.00">writeHdf5Data</text>
</a>
</g>
</g>
<!-- Node2&#45;&gt;Node3 -->
<g id="edge2" class="edge">
<title>Node2&#45;&gt;Node3</title>
<path fill="none" stroke="midnightblue" d="M218.51,-48C230.7,-48 243.88,-48 256.33,-48"/>
<polygon fill="midnightblue" stroke="midnightblue" points="256.58,-51.5 266.58,-48 256.58,-44.5 256.58,-51.5"/>
</g>
<!-- Node4&#45;&gt;Node3 -->
<g id="edge5" class="edge">
<title>Node4&#45;&gt;Node3</title>
<path fill="none" stroke="midnightblue" d="M205.7,-19.59C223.71,-24.49 245.83,-30.52 265.06,-35.76"/>
<polygon fill="midnightblue" stroke="midnightblue" points="264.24,-39.16 274.81,-38.41 266.08,-32.41 264.24,-39.16"/>
</g>
<!-- Node5 -->
<g id="node5" class="node">
<title>Node5</title>
<g id="a_node5"><a xlink:href="Util_8cc.html#a8170ae742eedc980579141210ecb5aa8" target="_top" xlink:title=" ">
<polygon fill="none" stroke="black" points="286,-0.5 286,-19.5 336,-19.5 336,-0.5 286,-0.5"/>
<text text-anchor="middle" x="311" y="-7.5" font-family="Helvetica,sans-Serif" font-size="10.00">extend</text>
</a>
</g>
</g>
<!-- Node4&#45;&gt;Node5 -->
<g id="edge4" class="edge">
<title>Node4&#45;&gt;Node5</title>
<path fill="none" stroke="midnightblue" d="M231.28,-10C246.46,-10 262.22,-10 275.61,-10"/>
<polygon fill="midnightblue" stroke="midnightblue" points="275.78,-13.5 285.78,-10 275.78,-6.5 275.78,-13.5"/>
</g>
</g>
</svg>
