<?xml version="1.0" encoding="UTF-8" standalone="no"?>
<!DOCTYPE svg PUBLIC "-//W3C//DTD SVG 1.1//EN"
 "http://www.w3.org/Graphics/SVG/1.1/DTD/svg11.dtd">
<!-- Generated by graphviz version 2.43.0 (0)
 -->
<!-- Title: MipMap::createBuffers Pages: 1 -->
<svg width="292pt" height="66pt"
 viewBox="0.00 0.00 292.00 66.00" xmlns="http://www.w3.org/2000/svg" xmlns:xlink="http://www.w3.org/1999/xlink">
<g id="graph0" class="graph" transform="scale(1 1) rotate(0) translate(4 62)">
<title>MipMap::createBuffers</title>
<!-- Node1 -->
<g id="node1" class="node">
<title>Node1</title>
<g id="a_node1"><a xlink:title=" ">
<polygon fill="#bfbfbf" stroke="black" points="0,-19.5 0,-38.5 127,-38.5 127,-19.5 0,-19.5"/>
<text text-anchor="middle" x="63.5" y="-26.5" font-family="Helvetica,sans-Serif" font-size="10.00">MipMap::createBuffers</text>
</a>
</g>
</g>
<!-- Node2 -->
<g id="node2" class="node">
<title>Node2</title>
<g id="a_node2"><a xlink:href="Util_8cc.html#a44138b2ce897aad07f85d5e13bad9682" target="_top" xlink:title=" ">
<polygon fill="none" stroke="black" points="197,-38.5 197,-57.5 250,-57.5 250,-38.5 197,-38.5"/>
<text text-anchor="middle" x="223.5" y="-45.5" font-family="Helvetica,sans-Serif" font-size="10.00">product</text>
</a>
</g>
</g>
<!-- Node1&#45;&gt;Node2 -->
<g id="edge1" class="edge">
<title>Node1&#45;&gt;Node2</title>
<path fill="none" stroke="midnightblue" d="M127.4,-36.56C147.5,-38.98 169.05,-41.57 186.54,-43.68"/>
<polygon fill="midnightblue" stroke="midnightblue" points="186.51,-47.2 196.86,-44.92 187.35,-40.25 186.51,-47.2"/>
</g>
<!-- Node3 -->
<g id="node3" class="node">
<title>Node3</title>
<g id="a_node3"><a xlink:href="structMipMap.html#a3739ec1231557014ff5d608772e6b85b" target="_top" xlink:title=" ">
<polygon fill="none" stroke="black" points="163,-0.5 163,-19.5 284,-19.5 284,-0.5 163,-0.5"/>
<text text-anchor="middle" x="223.5" y="-7.5" font-family="Helvetica,sans-Serif" font-size="10.00">MipMap::resetBuffers</text>
</a>
</g>
</g>
<!-- Node1&#45;&gt;Node3 -->
<g id="edge2" class="edge">
<title>Node1&#45;&gt;Node3</title>
<path fill="none" stroke="midnightblue" d="M127.4,-21.44C135.72,-20.44 144.29,-19.41 152.72,-18.39"/>
<polygon fill="midnightblue" stroke="midnightblue" points="153.39,-21.84 162.9,-17.17 152.55,-14.89 153.39,-21.84"/>
</g>
</g>
</svg>
