<?xml version="1.0" encoding="UTF-8" standalone="no"?>
<!DOCTYPE svg PUBLIC "-//W3C//DTD SVG 1.1//EN"
 "http://www.w3.org/Graphics/SVG/1.1/DTD/svg11.dtd">
<!-- Generated by graphviz version 2.43.0 (0)
 -->
<!-- Title: MipMap::createDataset Pages: 1 -->
<svg width="388pt" height="85pt"
 viewBox="0.00 0.00 388.00 85.00" xmlns="http://www.w3.org/2000/svg" xmlns:xlink="http://www.w3.org/1999/xlink">
<g id="graph0" class="graph" transform="scale(1 1) rotate(0) translate(4 81)">
<title>MipMap::createDataset</title>
<!-- Node1 -->
<g id="node1" class="node">
<title>Node1</title>
<g id="a_node1"><a xlink:title=" ">
<polygon fill="#bfbfbf" stroke="black" points="0,-19.5 0,-38.5 131,-38.5 131,-19.5 0,-19.5"/>
<text text-anchor="middle" x="65.5" y="-26.5" font-family="Helvetica,sans-Serif" font-size="10.00">MipMap::createDataset</text>
</a>
</g>
</g>
<!-- Node2 -->
<g id="node2" class="node">
<title>Node2</title>
<g id="a_node2"><a xlink:href="Util_8cc.html#a86d0996d4270e7e332c7913164ee8779" target="_top" xlink:title=" ">
<polygon fill="none" stroke="black" points="167,-38.5 167,-57.5 276,-57.5 276,-38.5 167,-38.5"/>
<text text-anchor="middle" x="221.5" y="-45.5" font-family="Helvetica,sans-Serif" font-size="10.00">createHdf5Dataset</text>
</a>
</g>
</g>
<!-- Node1&#45;&gt;Node2 -->
<g id="edge1" class="edge">
<title>Node1&#45;&gt;Node2</title>
<path fill="none" stroke="midnightblue" d="M131.36,-37C139.78,-38.04 148.39,-39.1 156.79,-40.14"/>
<polygon fill="midnightblue" stroke="midnightblue" points="156.54,-43.64 166.89,-41.39 157.4,-36.69 156.54,-43.64"/>
</g>
<!-- Node5 -->
<g id="node5" class="node">
<title>Node5</title>
<g id="a_node5"><a xlink:href="Util_8cc.html#a4a78e05131d2390178c5560d12a9f72c" target="_top" xlink:title=" ">
<polygon fill="none" stroke="black" points="186.5,-0.5 186.5,-19.5 256.5,-19.5 256.5,-0.5 186.5,-0.5"/>
<text text-anchor="middle" x="221.5" y="-7.5" font-family="Helvetica,sans-Serif" font-size="10.00">useChunks</text>
</a>
</g>
</g>
<!-- Node1&#45;&gt;Node5 -->
<g id="edge4" class="edge">
<title>Node1&#45;&gt;Node5</title>
<path fill="none" stroke="midnightblue" d="M131.36,-21C146.43,-19.14 162.13,-17.2 176.08,-15.48"/>
<polygon fill="midnightblue" stroke="midnightblue" points="176.88,-18.91 186.37,-14.21 176.02,-11.96 176.88,-18.91"/>
</g>
<!-- Node3 -->
<g id="node3" class="node">
<title>Node3</title>
<g id="a_node3"><a xlink:href="Util_8cc.html#a5c5e223a4731b09382b4ae60312119db" target="_top" xlink:title=" ">
<polygon fill="none" stroke="black" points="312,-57.5 312,-76.5 380,-76.5 380,-57.5 312,-57.5"/>
<text text-anchor="middle" x="346" y="-64.5" font-family="Helvetica,sans-Serif" font-size="10.00">hdf5Exists</text>
</a>
</g>
</g>
<!-- Node2&#45;&gt;Node3 -->
<g id="edge2" class="edge">
<title>Node2&#45;&gt;Node3</title>
<path fill="none" stroke="midnightblue" d="M276.23,-56.33C284.73,-57.65 293.42,-59 301.64,-60.28"/>
<polygon fill="midnightblue" stroke="midnightblue" points="301.34,-63.77 311.76,-61.84 302.41,-56.85 301.34,-63.77"/>
</g>
<!-- Node4 -->
<g id="node4" class="node">
<title>Node4</title>
<g id="a_node4"><a xlink:href="Util_8cc.html#a19b14bd24f332d5d68ab9cfcf406a877" target="_top" xlink:title=" ">
<polygon fill="none" stroke="black" points="327,-19.5 327,-38.5 365,-38.5 365,-19.5 327,-19.5"/>
<text text-anchor="middle" x="346" y="-26.5" font-family="Helvetica,sans-Serif" font-size="10.00">split</text>
</a>
</g>
</g>
<!-- Node2&#45;&gt;Node4 -->
<g id="edge3" class="edge">
<title>Node2&#45;&gt;Node4</title>
<path fill="none" stroke="midnightblue" d="M276.23,-39.67C290.25,-37.49 304.81,-35.23 316.9,-33.36"/>
<polygon fill="midnightblue" stroke="midnightblue" points="317.46,-36.81 326.81,-31.82 316.39,-29.9 317.46,-36.81"/>
</g>
</g>
</svg>
