<?xml version="1.0" encoding="UTF-8" standalone="no"?>
<!DOCTYPE svg PUBLIC "-//W3C//DTD SVG 1.1//EN"
 "http://www.w3.org/Graphics/SVG/1.1/DTD/svg11.dtd">
<!-- Generated by graphviz version 2.43.0 (0)
 -->
<!-- Title: mipDims Pages: 1 -->
<svg width="455pt" height="181pt"
 viewBox="0.00 0.00 455.00 180.50" xmlns="http://www.w3.org/2000/svg" xmlns:xlink="http://www.w3.org/1999/xlink">
<g id="graph0" class="graph" transform="scale(1 1) rotate(0) translate(4 176.5)">
<title>mipDims</title>
<!-- Node1 -->
<g id="node1" class="node">
<title>Node1</title>
<g id="a_node1"><a xlink:title=" ">
<polygon fill="#bfbfbf" stroke="black" points="386,-85 386,-104 447,-104 447,-85 386,-85"/>
<text text-anchor="middle" x="416.5" y="-92" font-family="Helvetica,sans-Serif" font-size="10.00">mipDims</text>
</a>
</g>
</g>
<!-- Node2 -->
<g id="node2" class="node">
<title>Node2</title>
<g id="a_node2"><a xlink:href="structMipMaps.html#a2dc892b175561f17a8dca34f562bdee5" target="_top" xlink:title=" ">
<polygon fill="none" stroke="black" points="218,-123 218,-142 350,-142 350,-123 218,-123"/>
<text text-anchor="middle" x="284" y="-130" font-family="Helvetica,sans-Serif" font-size="10.00">MipMaps::createBuffers</text>
</a>
</g>
</g>
<!-- Node1&#45;&gt;Node2 -->
<g id="edge1" class="edge">
<title>Node1&#45;&gt;Node2</title>
<path fill="none" stroke="midnightblue" d="M376.19,-105.95C357.51,-111.39 335.45,-117.81 317.7,-122.98"/>
<polygon fill="midnightblue" stroke="midnightblue" points="377.26,-109.28 385.89,-103.12 375.31,-102.56 377.26,-109.28"/>
</g>
<!-- Node5 -->
<g id="node5" class="node">
<title>Node5</title>
<g id="a_node5"><a xlink:href="structMipMaps.html#ac5c39adc7e1953f90873e674889940d1" target="_top" xlink:title=" ">
<polygon fill="none" stroke="black" points="228.5,-85 228.5,-104 339.5,-104 339.5,-85 228.5,-85"/>
<text text-anchor="middle" x="284" y="-92" font-family="Helvetica,sans-Serif" font-size="10.00">MipMaps::MipMaps</text>
</a>
</g>
</g>
<!-- Node1&#45;&gt;Node5 -->
<g id="edge4" class="edge">
<title>Node1&#45;&gt;Node5</title>
<path fill="none" stroke="midnightblue" d="M375.82,-94.5C364.42,-94.5 351.78,-94.5 339.65,-94.5"/>
<polygon fill="midnightblue" stroke="midnightblue" points="375.89,-98 385.89,-94.5 375.89,-91 375.89,-98"/>
</g>
<!-- Node6 -->
<g id="node6" class="node">
<title>Node6</title>
<g id="a_node6"><a xlink:href="structMipMaps.html#ac92a944add158f9c9cf4d0120fbb2bd9" target="_top" xlink:title=" ">
<polygon fill="none" stroke="black" points="241,-47 241,-66 327,-66 327,-47 241,-47"/>
<text text-anchor="middle" x="284" y="-54" font-family="Helvetica,sans-Serif" font-size="10.00">MipMaps::size</text>
</a>
</g>
</g>
<!-- Node1&#45;&gt;Node6 -->
<g id="edge5" class="edge">
<title>Node1&#45;&gt;Node6</title>
<path fill="none" stroke="midnightblue" d="M376.19,-83.05C357.51,-77.61 335.45,-71.19 317.7,-66.02"/>
<polygon fill="midnightblue" stroke="midnightblue" points="375.31,-86.44 385.89,-85.88 377.26,-79.72 375.31,-86.44"/>
</g>
<!-- Node3 -->
<g id="node3" class="node">
<title>Node3</title>
<g id="a_node3"><a xlink:href="classFastConverter.html#a29d7369baf5b71da8631de35096519c2" target="_top" xlink:title=" ">
<polygon fill="none" stroke="black" points="2,-153 2,-172 180,-172 180,-153 2,-153"/>
<text text-anchor="middle" x="91" y="-160" font-family="Helvetica,sans-Serif" font-size="10.00">FastConverter::copyAndCalculate</text>
</a>
</g>
</g>
<!-- Node2&#45;&gt;Node3 -->
<g id="edge2" class="edge">
<title>Node2&#45;&gt;Node3</title>
<path fill="none" stroke="midnightblue" d="M212.21,-143.62C192.6,-146.7 171.5,-150.01 152.54,-152.99"/>
<polygon fill="midnightblue" stroke="midnightblue" points="212.97,-147.04 222.3,-142.03 211.88,-140.13 212.97,-147.04"/>
</g>
<!-- Node4 -->
<g id="node4" class="node">
<title>Node4</title>
<g id="a_node4"><a xlink:href="classSlowConverter.html#a2732ea741a95c7f90c4d0d9bb2f4393a" target="_top" xlink:title=" ">
<polygon fill="none" stroke="black" points="0,-115 0,-134 182,-134 182,-115 0,-115"/>
<text text-anchor="middle" x="91" y="-122" font-family="Helvetica,sans-Serif" font-size="10.00">SlowConverter::copyAndCalculate</text>
</a>
</g>
</g>
<!-- Node2&#45;&gt;Node4 -->
<g id="edge3" class="edge">
<title>Node2&#45;&gt;Node4</title>
<path fill="none" stroke="midnightblue" d="M207.72,-129.35C199.36,-129 190.78,-128.64 182.25,-128.28"/>
<polygon fill="midnightblue" stroke="midnightblue" points="207.67,-132.85 217.8,-129.77 207.96,-125.85 207.67,-132.85"/>
</g>
<!-- Node7 -->
<g id="node7" class="node">
<title>Node7</title>
<g id="a_node7"><a xlink:href="classFastConverter.html#abd437a215044bd33dae24d9e0e8343a5" target="_top" xlink:title=" ">
<polygon fill="none" stroke="black" points="24,-49.5 24,-79.5 158,-79.5 158,-49.5 24,-49.5"/>
<text text-anchor="start" x="32" y="-67.5" font-family="Helvetica,sans-Serif" font-size="10.00">FastConverter::calculate</text>
<text text-anchor="middle" x="91" y="-56.5" font-family="Helvetica,sans-Serif" font-size="10.00">MemoryUsage</text>
</a>
</g>
</g>
<!-- Node6&#45;&gt;Node7 -->
<g id="edge6" class="edge">
<title>Node6&#45;&gt;Node7</title>
<path fill="none" stroke="midnightblue" d="M230.35,-58.71C208.07,-59.64 181.86,-60.74 158.28,-61.72"/>
<polygon fill="midnightblue" stroke="midnightblue" points="230.77,-62.19 240.61,-58.28 230.47,-55.2 230.77,-62.19"/>
</g>
<!-- Node8 -->
<g id="node8" class="node">
<title>Node8</title>
<g id="a_node8"><a xlink:href="classSlowConverter.html#a23d173d41bd39e04d8a1ea203744e7f2" target="_top" xlink:title=" ">
<polygon fill="none" stroke="black" points="22,-0.5 22,-30.5 160,-30.5 160,-0.5 22,-0.5"/>
<text text-anchor="start" x="30" y="-18.5" font-family="Helvetica,sans-Serif" font-size="10.00">SlowConverter::calculate</text>
<text text-anchor="middle" x="91" y="-7.5" font-family="Helvetica,sans-Serif" font-size="10.00">MemoryUsage</text>
</a>
</g>
</g>
<!-- Node6&#45;&gt;Node8 -->
<g id="edge7" class="edge">
<title>Node6&#45;&gt;Node8</title>
<path fill="none" stroke="midnightblue" d="M230.59,-45.25C208.84,-40.58 183.32,-35.1 160.15,-30.13"/>
<polygon fill="midnightblue" stroke="midnightblue" points="230.1,-48.72 240.61,-47.4 231.57,-41.88 230.1,-48.72"/>
</g>
</g>
</svg>
