<?xml version="1.0" encoding="UTF-8" standalone="no"?>
<!DOCTYPE svg PUBLIC "-//W3C//DTD SVG 1.1//EN"
 "http://www.w3.org/Graphics/SVG/1.1/DTD/svg11.dtd">
<!-- Generated by graphviz version 2.43.0 (0)
 -->
<!-- Title: product Pages: 1 -->
<svg width="472pt" height="293pt"
 viewBox="0.00 0.00 472.00 292.56" xmlns="http://www.w3.org/2000/svg" xmlns:xlink="http://www.w3.org/1999/xlink">
<g id="graph0" class="graph" transform="scale(1 1) rotate(0) translate(4 288.56)">
<title>product</title>
<!-- Node1 -->
<g id="node1" class="node">
<title>Node1</title>
<g id="a_node1"><a xlink:title=" ">
<polygon fill="#bfbfbf" stroke="black" points="411,-133.5 411,-152.5 464,-152.5 464,-133.5 411,-133.5"/>
<text text-anchor="middle" x="437.5" y="-140.5" font-family="Helvetica,sans-Serif" font-size="10.00">product</text>
</a>
</g>
</g>
<!-- Node2 -->
<g id="node2" class="node">
<title>Node2</title>
<g id="a_node2"><a xlink:href="classSlowConverter.html#a23d173d41bd39e04d8a1ea203744e7f2" target="_top" xlink:title=" ">
<polygon fill="none" stroke="black" points="22,-237 22,-267 160,-267 160,-237 22,-237"/>
<text text-anchor="start" x="30" y="-255" font-family="Helvetica,sans-Serif" font-size="10.00">SlowConverter::calculate</text>
<text text-anchor="middle" x="91" y="-244" font-family="Helvetica,sans-Serif" font-size="10.00">MemoryUsage</text>
</a>
</g>
</g>
<!-- Node1&#45;&gt;Node2 -->
<g id="edge1" class="edge">
<title>Node1&#45;&gt;Node2</title>
<path fill="none" stroke="midnightblue" d="M432.47,-162.4C425.76,-189.16 409.45,-236.44 375,-257 302.1,-300.5 198.72,-283.02 139.19,-267.04"/>
<polygon fill="midnightblue" stroke="midnightblue" points="435.89,-163.16 434.72,-152.63 429.07,-161.59 435.89,-163.16"/>
</g>
<!-- Node3 -->
<g id="node3" class="node">
<title>Node3</title>
<g id="a_node3"><a xlink:href="structStats.html#a9a2fbf756586a53e577d65b0e2108694" target="_top" xlink:title=" ">
<polygon fill="none" stroke="black" points="218,-152.5 218,-171.5 375,-171.5 375,-152.5 218,-152.5"/>
<text text-anchor="middle" x="296.5" y="-159.5" font-family="Helvetica,sans-Serif" font-size="10.00">Stats::clearHistogramBuffers</text>
</a>
</g>
</g>
<!-- Node1&#45;&gt;Node3 -->
<g id="edge2" class="edge">
<title>Node1&#45;&gt;Node3</title>
<path fill="none" stroke="midnightblue" d="M400.52,-147.92C390.27,-149.32 378.74,-150.89 367.21,-152.47"/>
<polygon fill="midnightblue" stroke="midnightblue" points="401.25,-151.35 410.68,-146.53 400.3,-144.42 401.25,-151.35"/>
</g>
<!-- Node5 -->
<g id="node5" class="node">
<title>Node5</title>
<g id="a_node5"><a xlink:href="classSlowConverter.html#a2732ea741a95c7f90c4d0d9bb2f4393a" target="_top" xlink:title=" ">
<polygon fill="none" stroke="black" points="0,-111.5 0,-130.5 182,-130.5 182,-111.5 0,-111.5"/>
<text text-anchor="middle" x="91" y="-118.5" font-family="Helvetica,sans-Serif" font-size="10.00">SlowConverter::copyAndCalculate</text>
</a>
</g>
</g>
<!-- Node1&#45;&gt;Node5 -->
<g id="edge6" class="edge">
<title>Node1&#45;&gt;Node5</title>
<path fill="none" stroke="midnightblue" d="M417.21,-127.19C405.71,-118.82 390.39,-109.37 375,-105 289.32,-80.66 183.33,-98.74 128.58,-111.42"/>
<polygon fill="midnightblue" stroke="midnightblue" points="415.12,-130 425.19,-133.29 419.37,-124.44 415.12,-130"/>
</g>
<!-- Node6 -->
<g id="node6" class="node">
<title>Node6</title>
<g id="a_node6"><a xlink:href="classConverter.html#ab6c99a9eaa83aea8e2964365e6bbc66c" target="_top" xlink:title=" ">
<polygon fill="none" stroke="black" points="243,-38.5 243,-57.5 350,-57.5 350,-38.5 243,-38.5"/>
<text text-anchor="middle" x="296.5" y="-45.5" font-family="Helvetica,sans-Serif" font-size="10.00">Converter::convert</text>
</a>
</g>
</g>
<!-- Node1&#45;&gt;Node6 -->
<g id="edge5" class="edge">
<title>Node1&#45;&gt;Node6</title>
<path fill="none" stroke="midnightblue" d="M424.96,-124.65C413.97,-108.58 396,-85.72 375,-72 365.45,-65.76 354.18,-61.07 343.24,-57.57"/>
<polygon fill="midnightblue" stroke="midnightblue" points="422.18,-126.78 430.6,-133.2 428.02,-122.93 422.18,-126.78"/>
</g>
<!-- Node7 -->
<g id="node7" class="node">
<title>Node7</title>
<g id="a_node7"><a xlink:href="structMipMap.html#ac8ce461abd824942b9d2b9a0cf1b32cf" target="_top" xlink:title=" ">
<polygon fill="none" stroke="black" points="233,-0.5 233,-19.5 360,-19.5 360,-0.5 233,-0.5"/>
<text text-anchor="middle" x="296.5" y="-7.5" font-family="Helvetica,sans-Serif" font-size="10.00">MipMap::createBuffers</text>
</a>
</g>
</g>
<!-- Node1&#45;&gt;Node7 -->
<g id="edge7" class="edge">
<title>Node1&#45;&gt;Node7</title>
<path fill="none" stroke="midnightblue" d="M431.39,-123.6C423.61,-97.95 406.29,-53.19 375,-29 369.96,-25.1 364.23,-21.99 358.22,-19.51"/>
<polygon fill="midnightblue" stroke="midnightblue" points="428.05,-124.64 434.16,-133.3 434.78,-122.73 428.05,-124.64"/>
</g>
<!-- Node8 -->
<g id="node8" class="node">
<title>Node8</title>
<g id="a_node8"><a xlink:href="structStats.html#aa23cf0c75f62b2f900f38fe7f2a112c9" target="_top" xlink:title=" ">
<polygon fill="none" stroke="black" points="240,-114.5 240,-133.5 353,-133.5 353,-114.5 240,-114.5"/>
<text text-anchor="middle" x="296.5" y="-121.5" font-family="Helvetica,sans-Serif" font-size="10.00">Stats::createBuffers</text>
</a>
</g>
</g>
<!-- Node1&#45;&gt;Node8 -->
<g id="edge8" class="edge">
<title>Node1&#45;&gt;Node8</title>
<path fill="none" stroke="midnightblue" d="M400.65,-138.1C386.18,-136.12 369.14,-133.79 353.13,-131.6"/>
<polygon fill="midnightblue" stroke="midnightblue" points="400.3,-141.58 410.68,-139.47 401.25,-134.65 400.3,-141.58"/>
</g>
<!-- Node9 -->
<g id="node9" class="node">
<title>Node9</title>
<g id="a_node9"><a xlink:href="structMipMaps.html#ac92a944add158f9c9cf4d0120fbb2bd9" target="_top" xlink:title=" ">
<polygon fill="none" stroke="black" points="253.5,-228.5 253.5,-247.5 339.5,-247.5 339.5,-228.5 253.5,-228.5"/>
<text text-anchor="middle" x="296.5" y="-235.5" font-family="Helvetica,sans-Serif" font-size="10.00">MipMaps::size</text>
</a>
</g>
</g>
<!-- Node1&#45;&gt;Node9 -->
<g id="edge11" class="edge">
<title>Node1&#45;&gt;Node9</title>
<path fill="none" stroke="midnightblue" d="M426.44,-161.36C415.91,-178.85 397.73,-204.57 375,-219 364.47,-225.68 351.77,-230.01 339.72,-232.82"/>
<polygon fill="midnightblue" stroke="midnightblue" points="429.52,-163.03 431.49,-152.62 423.46,-159.53 429.52,-163.03"/>
</g>
<!-- Node11 -->
<g id="node11" class="node">
<title>Node11</title>
<g id="a_node11"><a xlink:href="structStats.html#a993cdac7c839c6354dbe264b1c9c913a" target="_top" xlink:title=" ">
<polygon fill="none" stroke="black" points="263,-190.5 263,-209.5 330,-209.5 330,-190.5 263,-190.5"/>
<text text-anchor="middle" x="296.5" y="-197.5" font-family="Helvetica,sans-Serif" font-size="10.00">Stats::size</text>
</a>
</g>
</g>
<!-- Node1&#45;&gt;Node11 -->
<g id="edge14" class="edge">
<title>Node1&#45;&gt;Node11</title>
<path fill="none" stroke="midnightblue" d="M415.06,-158.56C403.63,-166.24 389.07,-175.1 375,-181 360.82,-186.94 344.36,-191.31 330.28,-194.34"/>
<polygon fill="midnightblue" stroke="midnightblue" points="417.25,-161.3 423.48,-152.73 413.27,-155.55 417.25,-161.3"/>
</g>
<!-- Node4 -->
<g id="node4" class="node">
<title>Node4</title>
<g id="a_node4"><a xlink:href="classFastConverter.html#a29d7369baf5b71da8631de35096519c2" target="_top" xlink:title=" ">
<polygon fill="none" stroke="black" points="2,-149.5 2,-168.5 180,-168.5 180,-149.5 2,-149.5"/>
<text text-anchor="middle" x="91" y="-156.5" font-family="Helvetica,sans-Serif" font-size="10.00">FastConverter::copyAndCalculate</text>
</a>
</g>
</g>
<!-- Node3&#45;&gt;Node4 -->
<g id="edge3" class="edge">
<title>Node3&#45;&gt;Node4</title>
<path fill="none" stroke="midnightblue" d="M207.75,-160.71C198.62,-160.57 189.33,-160.43 180.19,-160.3"/>
<polygon fill="midnightblue" stroke="midnightblue" points="207.93,-164.21 217.98,-160.86 208.04,-157.21 207.93,-164.21"/>
</g>
<!-- Node3&#45;&gt;Node5 -->
<g id="edge4" class="edge">
<title>Node3&#45;&gt;Node5</title>
<path fill="none" stroke="midnightblue" d="M238.42,-150.5C207.15,-144.2 168.87,-136.49 139.29,-130.53"/>
<polygon fill="midnightblue" stroke="midnightblue" points="237.81,-153.95 248.3,-152.49 239.19,-147.08 237.81,-153.95"/>
</g>
<!-- Node8&#45;&gt;Node4 -->
<g id="edge9" class="edge">
<title>Node8&#45;&gt;Node4</title>
<path fill="none" stroke="midnightblue" d="M230.14,-135.24C203.44,-139.83 172.9,-145.09 147.33,-149.48"/>
<polygon fill="midnightblue" stroke="midnightblue" points="230.9,-138.66 240.16,-133.52 229.71,-131.76 230.9,-138.66"/>
</g>
<!-- Node8&#45;&gt;Node5 -->
<g id="edge10" class="edge">
<title>Node8&#45;&gt;Node5</title>
<path fill="none" stroke="midnightblue" d="M229.67,-123.03C214.59,-122.81 198.3,-122.57 182.39,-122.33"/>
<polygon fill="midnightblue" stroke="midnightblue" points="229.84,-126.53 239.89,-123.18 229.95,-119.53 229.84,-126.53"/>
</g>
<!-- Node9&#45;&gt;Node2 -->
<g id="edge13" class="edge">
<title>Node9&#45;&gt;Node2</title>
<path fill="none" stroke="midnightblue" d="M243.21,-241.6C217.92,-243.34 187.24,-245.45 160.15,-247.31"/>
<polygon fill="midnightblue" stroke="midnightblue" points="243.6,-245.08 253.33,-240.9 243.12,-238.1 243.6,-245.08"/>
</g>
<!-- Node10 -->
<g id="node10" class="node">
<title>Node10</title>
<g id="a_node10"><a xlink:href="classFastConverter.html#abd437a215044bd33dae24d9e0e8343a5" target="_top" xlink:title=" ">
<polygon fill="none" stroke="black" points="24,-188 24,-218 158,-218 158,-188 24,-188"/>
<text text-anchor="start" x="32" y="-206" font-family="Helvetica,sans-Serif" font-size="10.00">FastConverter::calculate</text>
<text text-anchor="middle" x="91" y="-195" font-family="Helvetica,sans-Serif" font-size="10.00">MemoryUsage</text>
</a>
</g>
</g>
<!-- Node9&#45;&gt;Node10 -->
<g id="edge12" class="edge">
<title>Node9&#45;&gt;Node10</title>
<path fill="none" stroke="midnightblue" d="M243.33,-229.03C217.39,-224.57 185.77,-219.13 158.15,-214.38"/>
<polygon fill="midnightblue" stroke="midnightblue" points="242.89,-232.5 253.33,-230.75 244.07,-225.6 242.89,-232.5"/>
</g>
<!-- Node11&#45;&gt;Node2 -->
<g id="edge16" class="edge">
<title>Node11&#45;&gt;Node2</title>
<path fill="none" stroke="midnightblue" d="M252.61,-210.39C241.34,-213.15 229.21,-216.16 218,-219 195.31,-224.75 170.38,-231.25 148.72,-236.94"/>
<polygon fill="midnightblue" stroke="midnightblue" points="253.78,-213.7 262.66,-207.93 252.12,-206.9 253.78,-213.7"/>
</g>
<!-- Node11&#45;&gt;Node10 -->
<g id="edge15" class="edge">
<title>Node11&#45;&gt;Node10</title>
<path fill="none" stroke="midnightblue" d="M252.78,-200.63C225.42,-201.03 189.37,-201.56 158.34,-202.02"/>
<polygon fill="midnightblue" stroke="midnightblue" points="252.86,-204.13 262.8,-200.48 252.75,-197.13 252.86,-204.13"/>
</g>
</g>
</svg>
