<?xml version="1.0" encoding="UTF-8" standalone="no"?>
<!DOCTYPE svg PUBLIC "-//W3C//DTD SVG 1.1//EN"
 "http://www.w3.org/Graphics/SVG/1.1/DTD/svg11.dtd">
<!-- Generated by graphviz version 2.43.0 (0)
 -->
<!-- Title: extend Pages: 1 -->
<svg width="578pt" height="142pt"
 viewBox="0.00 0.00 578.00 142.00" xmlns="http://www.w3.org/2000/svg" xmlns:xlink="http://www.w3.org/1999/xlink">
<g id="graph0" class="graph" transform="scale(1 1) rotate(0) translate(4 138)">
<title>extend</title>
<!-- Node1 -->
<g id="node1" class="node">
<title>Node1</title>
<g id="a_node1"><a xlink:title=" ">
<polygon fill="#bfbfbf" stroke="black" points="520,-76.5 520,-95.5 570,-95.5 570,-76.5 520,-76.5"/>
<text text-anchor="middle" x="545" y="-83.5" font-family="Helvetica,sans-Serif" font-size="10.00">extend</text>
</a>
</g>
</g>
<!-- Node2 -->
<g id="node2" class="node">
<title>Node2</title>
<g id="a_node2"><a xlink:href="structStats.html#a0c985afe392acd9894a95be91d165158" target="_top" xlink:title=" ">
<polygon fill="none" stroke="black" points="361.5,-114.5 361.5,-133.5 483.5,-133.5 483.5,-114.5 361.5,-114.5"/>
<text text-anchor="middle" x="422.5" y="-121.5" font-family="Helvetica,sans-Serif" font-size="10.00">Stats::createDatasets</text>
</a>
</g>
</g>
<!-- Node1&#45;&gt;Node2 -->
<g id="edge1" class="edge">
<title>Node1&#45;&gt;Node2</title>
<path fill="none" stroke="midnightblue" d="M510.12,-96.74C501.6,-99.44 492.46,-102.33 484,-105 474.24,-108.08 463.58,-111.43 453.97,-114.45"/>
<polygon fill="midnightblue" stroke="midnightblue" points="511.3,-100.04 519.77,-93.69 509.18,-93.37 511.3,-100.04"/>
</g>
<!-- Node4 -->
<g id="node4" class="node">
<title>Node4</title>
<g id="a_node4"><a xlink:href="structStats.html#a9abae77f0f701f8486dc26dcdcd8b913" target="_top" xlink:title=" ">
<polygon fill="none" stroke="black" points="386.5,-76.5 386.5,-95.5 458.5,-95.5 458.5,-76.5 386.5,-76.5"/>
<text text-anchor="middle" x="422.5" y="-83.5" font-family="Helvetica,sans-Serif" font-size="10.00">Stats::write</text>
</a>
</g>
</g>
<!-- Node1&#45;&gt;Node4 -->
<g id="edge3" class="edge">
<title>Node1&#45;&gt;Node4</title>
<path fill="none" stroke="midnightblue" d="M509.86,-86C493.8,-86 474.68,-86 458.52,-86"/>
<polygon fill="midnightblue" stroke="midnightblue" points="509.9,-89.5 519.9,-86 509.9,-82.5 509.9,-89.5"/>
</g>
<!-- Node5 -->
<g id="node5" class="node">
<title>Node5</title>
<g id="a_node5"><a xlink:href="structStats.html#afbfc12603fb2ed178fc8e77dc1a65708" target="_top" xlink:title=" ">
<polygon fill="none" stroke="black" points="361,-38.5 361,-57.5 484,-57.5 484,-38.5 361,-38.5"/>
<text text-anchor="middle" x="422.5" y="-45.5" font-family="Helvetica,sans-Serif" font-size="10.00">Stats::writeHistogram</text>
</a>
</g>
</g>
<!-- Node1&#45;&gt;Node5 -->
<g id="edge4" class="edge">
<title>Node1&#45;&gt;Node5</title>
<path fill="none" stroke="midnightblue" d="M510.12,-75.26C501.6,-72.56 492.46,-69.67 484,-67 474.24,-63.92 463.58,-60.57 453.97,-57.55"/>
<polygon fill="midnightblue" stroke="midnightblue" points="509.18,-78.63 519.77,-78.31 511.3,-71.96 509.18,-78.63"/>
</g>
<!-- Node3 -->
<g id="node3" class="node">
<title>Node3</title>
<g id="a_node3"><a xlink:href="classConverter.html#ab6c99a9eaa83aea8e2964365e6bbc66c" target="_top" xlink:title=" ">
<polygon fill="none" stroke="black" points="218,-114.5 218,-133.5 325,-133.5 325,-114.5 218,-114.5"/>
<text text-anchor="middle" x="271.5" y="-121.5" font-family="Helvetica,sans-Serif" font-size="10.00">Converter::convert</text>
</a>
</g>
</g>
<!-- Node2&#45;&gt;Node3 -->
<g id="edge2" class="edge">
<title>Node2&#45;&gt;Node3</title>
<path fill="none" stroke="midnightblue" d="M351.15,-124C342.42,-124 333.62,-124 325.23,-124"/>
<polygon fill="midnightblue" stroke="midnightblue" points="351.33,-127.5 361.33,-124 351.33,-120.5 351.33,-127.5"/>
</g>
<!-- Node6 -->
<g id="node6" class="node">
<title>Node6</title>
<g id="a_node6"><a xlink:href="structStats.html#ac39934ff1c0817c2416411a34b856f66" target="_top" xlink:title=" ">
<polygon fill="none" stroke="black" points="235.5,-38.5 235.5,-57.5 307.5,-57.5 307.5,-38.5 235.5,-38.5"/>
<text text-anchor="middle" x="271.5" y="-45.5" font-family="Helvetica,sans-Serif" font-size="10.00">Stats::write</text>
</a>
</g>
</g>
<!-- Node5&#45;&gt;Node6 -->
<g id="edge5" class="edge">
<title>Node5&#45;&gt;Node6</title>
<path fill="none" stroke="midnightblue" d="M350.65,-48C335.77,-48 320.7,-48 307.81,-48"/>
<polygon fill="midnightblue" stroke="midnightblue" points="350.9,-51.5 360.9,-48 350.9,-44.5 350.9,-51.5"/>
</g>
<!-- Node7 -->
<g id="node7" class="node">
<title>Node7</title>
<g id="a_node7"><a xlink:href="classFastConverter.html#a29d7369baf5b71da8631de35096519c2" target="_top" xlink:title=" ">
<polygon fill="none" stroke="black" points="2,-76.5 2,-95.5 180,-95.5 180,-76.5 2,-76.5"/>
<text text-anchor="middle" x="91" y="-83.5" font-family="Helvetica,sans-Serif" font-size="10.00">FastConverter::copyAndCalculate</text>
</a>
</g>
</g>
<!-- Node6&#45;&gt;Node7 -->
<g id="edge6" class="edge">
<title>Node6&#45;&gt;Node7</title>
<path fill="none" stroke="midnightblue" d="M225.36,-57.72C211.46,-60.71 196.1,-64 182,-67 167.47,-70.09 151.62,-73.45 137.33,-76.46"/>
<polygon fill="midnightblue" stroke="midnightblue" points="226.15,-61.13 235.19,-55.61 224.68,-54.29 226.15,-61.13"/>
</g>
<!-- Node8 -->
<g id="node8" class="node">
<title>Node8</title>
<g id="a_node8"><a xlink:href="classSlowConverter.html#a2732ea741a95c7f90c4d0d9bb2f4393a" target="_top" xlink:title=" ">
<polygon fill="none" stroke="black" points="0,-38.5 0,-57.5 182,-57.5 182,-38.5 0,-38.5"/>
<text text-anchor="middle" x="91" y="-45.5" font-family="Helvetica,sans-Serif" font-size="10.00">SlowConverter::copyAndCalculate</text>
</a>
</g>
</g>
<!-- Node6&#45;&gt;Node8 -->
<g id="edge7" class="edge">
<title>Node6&#45;&gt;Node8</title>
<path fill="none" stroke="midnightblue" d="M225.1,-48C211.98,-48 197.17,-48 182.33,-48"/>
<polygon fill="midnightblue" stroke="midnightblue" points="225.23,-51.5 235.23,-48 225.23,-44.5 225.23,-51.5"/>
</g>
<!-- Node9 -->
<g id="node9" class="node">
<title>Node9</title>
<g id="a_node9"><a xlink:href="structStats.html#adfc27957ef5bb1940e7f73d0857d6ac4" target="_top" xlink:title=" ">
<polygon fill="none" stroke="black" points="55,-0.5 55,-19.5 127,-19.5 127,-0.5 55,-0.5"/>
<text text-anchor="middle" x="91" y="-7.5" font-family="Helvetica,sans-Serif" font-size="10.00">Stats::write</text>
</a>
</g>
</g>
<!-- Node6&#45;&gt;Node9 -->
<g id="edge8" class="edge">
<title>Node6&#45;&gt;Node9</title>
<path fill="none" stroke="midnightblue" d="M225.36,-38.28C211.46,-35.29 196.1,-32 182,-29 163.88,-25.14 143.7,-20.88 127.05,-17.37"/>
<polygon fill="midnightblue" stroke="midnightblue" points="224.68,-41.71 235.19,-40.39 226.15,-34.87 224.68,-41.71"/>
</g>
</g>
</svg>
