<?xml version="1.0" encoding="UTF-8" standalone="no"?>
<!DOCTYPE svg PUBLIC "-//W3C//DTD SVG 1.1//EN"
 "http://www.w3.org/Graphics/SVG/1.1/DTD/svg11.dtd">
<!-- Generated by graphviz version 2.43.0 (0)
 -->
<!-- Title: writeHdf5Data Pages: 1 -->
<svg width="581pt" height="166pt"
 viewBox="0.00 0.00 581.00 165.75" xmlns="http://www.w3.org/2000/svg" xmlns:xlink="http://www.w3.org/1999/xlink">
<g id="graph0" class="graph" transform="scale(1 1) rotate(0) translate(4 161.75)">
<title>writeHdf5Data</title>
<!-- Node1 -->
<g id="node1" class="node">
<title>Node1</title>
<g id="a_node1"><a xlink:title=" ">
<polygon fill="#bfbfbf" stroke="black" points="485,-69.38 485,-88.38 573,-88.38 573,-69.38 485,-69.38"/>
<text text-anchor="middle" x="529" y="-76.38" font-family="Helvetica,sans-Serif" font-size="10.00">writeHdf5Data</text>
</a>
</g>
</g>
<!-- Node2 -->
<g id="node2" class="node">
<title>Node2</title>
<g id="a_node2"><a xlink:href="classFastConverter.html#a29d7369baf5b71da8631de35096519c2" target="_top" xlink:title=" ">
<polygon fill="none" stroke="black" points="2,-126.38 2,-145.38 180,-145.38 180,-126.38 2,-126.38"/>
<text text-anchor="middle" x="91" y="-133.38" font-family="Helvetica,sans-Serif" font-size="10.00">FastConverter::copyAndCalculate</text>
</a>
</g>
</g>
<!-- Node1&#45;&gt;Node2 -->
<g id="edge1" class="edge">
<title>Node1&#45;&gt;Node2</title>
<path fill="none" stroke="midnightblue" d="M511.55,-95.58C496.69,-109.39 473.44,-127.98 449,-135.88 344.32,-169.7 213.17,-156.62 142.59,-145.42"/>
<polygon fill="midnightblue" stroke="midnightblue" points="514.13,-97.95 518.91,-88.49 509.28,-92.91 514.13,-97.95"/>
</g>
<!-- Node3 -->
<g id="node3" class="node">
<title>Node3</title>
<g id="a_node3"><a xlink:href="classSlowConverter.html#a2732ea741a95c7f90c4d0d9bb2f4393a" target="_top" xlink:title=" ">
<polygon fill="none" stroke="black" points="0,-12.38 0,-31.38 182,-31.38 182,-12.38 0,-12.38"/>
<text text-anchor="middle" x="91" y="-19.38" font-family="Helvetica,sans-Serif" font-size="10.00">SlowConverter::copyAndCalculate</text>
</a>
</g>
</g>
<!-- Node1&#45;&gt;Node3 -->
<g id="edge2" class="edge">
<title>Node1&#45;&gt;Node3</title>
<path fill="none" stroke="midnightblue" d="M511.55,-62.18C496.69,-48.36 473.44,-29.77 449,-21.88 344.32,11.95 213.17,-1.13 142.59,-12.34"/>
<polygon fill="midnightblue" stroke="midnightblue" points="509.28,-64.84 518.91,-69.26 514.13,-59.8 509.28,-64.84"/>
</g>
<!-- Node4 -->
<g id="node4" class="node">
<title>Node4</title>
<g id="a_node4"><a xlink:href="structMipMap.html#aad0d64a658b11d5a5c43ed74b892b54b" target="_top" xlink:title=" ">
<polygon fill="none" stroke="black" points="344.5,-69.38 344.5,-88.38 430.5,-88.38 430.5,-69.38 344.5,-69.38"/>
<text text-anchor="middle" x="387.5" y="-76.38" font-family="Helvetica,sans-Serif" font-size="10.00">MipMap::write</text>
</a>
</g>
</g>
<!-- Node1&#45;&gt;Node4 -->
<g id="edge3" class="edge">
<title>Node1&#45;&gt;Node4</title>
<path fill="none" stroke="midnightblue" d="M474.35,-78.88C459.95,-78.88 444.58,-78.88 430.89,-78.88"/>
<polygon fill="midnightblue" stroke="midnightblue" points="474.63,-82.38 484.63,-78.88 474.63,-75.38 474.63,-82.38"/>
</g>
<!-- Node5 -->
<g id="node5" class="node">
<title>Node5</title>
<g id="a_node5"><a xlink:href="structStats.html#afa9ca35960c7a71ef00827b491dbe348" target="_top" xlink:title=" ">
<polygon fill="none" stroke="black" points="338.5,-31.38 338.5,-50.38 436.5,-50.38 436.5,-31.38 338.5,-31.38"/>
<text text-anchor="middle" x="387.5" y="-38.38" font-family="Helvetica,sans-Serif" font-size="10.00">Stats::writeBasic</text>
</a>
</g>
</g>
<!-- Node1&#45;&gt;Node5 -->
<g id="edge4" class="edge">
<title>Node1&#45;&gt;Node5</title>
<path fill="none" stroke="midnightblue" d="M483.04,-66.63C463.82,-61.39 441.7,-55.37 423.69,-50.46"/>
<polygon fill="midnightblue" stroke="midnightblue" points="482.23,-70.04 492.8,-69.29 484.07,-63.28 482.23,-70.04"/>
</g>
<!-- Node8 -->
<g id="node8" class="node">
<title>Node8</title>
<g id="a_node8"><a xlink:href="structStats.html#afbfc12603fb2ed178fc8e77dc1a65708" target="_top" xlink:title=" ">
<polygon fill="none" stroke="black" points="326,-107.38 326,-126.38 449,-126.38 449,-107.38 326,-107.38"/>
<text text-anchor="middle" x="387.5" y="-114.38" font-family="Helvetica,sans-Serif" font-size="10.00">Stats::writeHistogram</text>
</a>
</g>
</g>
<!-- Node1&#45;&gt;Node8 -->
<g id="edge9" class="edge">
<title>Node1&#45;&gt;Node8</title>
<path fill="none" stroke="midnightblue" d="M483.04,-91.12C463.82,-96.36 441.7,-102.39 423.69,-107.29"/>
<polygon fill="midnightblue" stroke="midnightblue" points="484.07,-94.47 492.8,-88.47 482.23,-87.72 484.07,-94.47"/>
</g>
<!-- Node6 -->
<g id="node6" class="node">
<title>Node6</title>
<g id="a_node6"><a xlink:href="structStats.html#ac39934ff1c0817c2416411a34b856f66" target="_top" xlink:title=" ">
<polygon fill="none" stroke="black" points="218,-69.38 218,-88.38 290,-88.38 290,-69.38 218,-69.38"/>
<text text-anchor="middle" x="254" y="-76.38" font-family="Helvetica,sans-Serif" font-size="10.00">Stats::write</text>
</a>
</g>
</g>
<!-- Node5&#45;&gt;Node6 -->
<g id="edge5" class="edge">
<title>Node5&#45;&gt;Node6</title>
<path fill="none" stroke="midnightblue" d="M343.62,-53.27C325.61,-58.47 304.99,-64.43 288.17,-69.29"/>
<polygon fill="midnightblue" stroke="midnightblue" points="344.68,-56.6 353.32,-50.47 342.74,-49.88 344.68,-56.6"/>
</g>
<!-- Node6&#45;&gt;Node2 -->
<g id="edge6" class="edge">
<title>Node6&#45;&gt;Node2</title>
<path fill="none" stroke="midnightblue" d="M216.48,-91.8C186.86,-102.29 145.77,-116.84 119.04,-126.3"/>
<polygon fill="midnightblue" stroke="midnightblue" points="217.79,-95.05 226.05,-88.42 215.46,-88.45 217.79,-95.05"/>
</g>
<!-- Node6&#45;&gt;Node3 -->
<g id="edge7" class="edge">
<title>Node6&#45;&gt;Node3</title>
<path fill="none" stroke="midnightblue" d="M216.48,-65.95C186.86,-55.46 145.77,-40.91 119.04,-31.45"/>
<polygon fill="midnightblue" stroke="midnightblue" points="215.46,-69.3 226.05,-69.34 217.79,-62.7 215.46,-69.3"/>
</g>
<!-- Node7 -->
<g id="node7" class="node">
<title>Node7</title>
<g id="a_node7"><a xlink:href="structStats.html#adfc27957ef5bb1940e7f73d0857d6ac4" target="_top" xlink:title=" ">
<polygon fill="none" stroke="black" points="55,-69.38 55,-88.38 127,-88.38 127,-69.38 55,-69.38"/>
<text text-anchor="middle" x="91" y="-76.38" font-family="Helvetica,sans-Serif" font-size="10.00">Stats::write</text>
</a>
</g>
</g>
<!-- Node6&#45;&gt;Node7 -->
<g id="edge8" class="edge">
<title>Node6&#45;&gt;Node7</title>
<path fill="none" stroke="midnightblue" d="M207.52,-78.88C182.07,-78.88 150.82,-78.88 127.25,-78.88"/>
<polygon fill="midnightblue" stroke="midnightblue" points="207.67,-82.38 217.67,-78.88 207.67,-75.38 207.67,-82.38"/>
</g>
<!-- Node8&#45;&gt;Node6 -->
<g id="edge10" class="edge">
<title>Node8&#45;&gt;Node6</title>
<path fill="none" stroke="midnightblue" d="M343.62,-104.49C325.61,-99.28 304.99,-93.32 288.17,-88.46"/>
<polygon fill="midnightblue" stroke="midnightblue" points="342.74,-107.87 353.32,-107.29 344.68,-101.15 342.74,-107.87"/>
</g>
</g>
</svg>
