<?xml version="1.0" encoding="UTF-8" standalone="no"?>
<!DOCTYPE svg PUBLIC "-//W3C//DTD SVG 1.1//EN"
 "http://www.w3.org/Graphics/SVG/1.1/DTD/svg11.dtd">
<!-- Generated by graphviz version 2.43.0 (0)
 -->
<!-- Title: trimAxes Pages: 1 -->
<svg width="286pt" height="230pt"
 viewBox="0.00 0.00 286.00 229.50" xmlns="http://www.w3.org/2000/svg" xmlns:xlink="http://www.w3.org/1999/xlink">
<g id="graph0" class="graph" transform="scale(1 1) rotate(0) translate(4 225.5)">
<title>trimAxes</title>
<!-- Node1 -->
<g id="node1" class="node">
<title>Node1</title>
<g id="a_node1"><a xlink:title=" ">
<polygon fill="#bfbfbf" stroke="black" points="218,-95.5 218,-114.5 278,-114.5 278,-95.5 218,-95.5"/>
<text text-anchor="middle" x="248" y="-102.5" font-family="Helvetica,sans-Serif" font-size="10.00">trimAxes</text>
</a>
</g>
</g>
<!-- Node2 -->
<g id="node2" class="node">
<title>Node2</title>
<g id="a_node2"><a xlink:href="classSlowConverter.html#a23d173d41bd39e04d8a1ea203744e7f2" target="_top" xlink:title=" ">
<polygon fill="none" stroke="black" points="22,-191 22,-221 160,-221 160,-191 22,-191"/>
<text text-anchor="start" x="30" y="-209" font-family="Helvetica,sans-Serif" font-size="10.00">SlowConverter::calculate</text>
<text text-anchor="middle" x="91" y="-198" font-family="Helvetica,sans-Serif" font-size="10.00">MemoryUsage</text>
</a>
</g>
</g>
<!-- Node1&#45;&gt;Node2 -->
<g id="edge1" class="edge">
<title>Node1&#45;&gt;Node2</title>
<path fill="none" stroke="midnightblue" d="M236.02,-123.2C224.63,-140.57 205.23,-166.21 182,-181 175.3,-185.27 167.86,-188.82 160.22,-191.77"/>
<polygon fill="midnightblue" stroke="midnightblue" points="239.12,-124.85 241.51,-114.53 233.2,-121.11 239.12,-124.85"/>
</g>
<!-- Node3 -->
<g id="node3" class="node">
<title>Node3</title>
<g id="a_node3"><a xlink:href="classConverter.html#a072082b5d0926bb8e93185ad3eaefea5" target="_top" xlink:title=" ">
<polygon fill="none" stroke="black" points="31.5,-152.5 31.5,-171.5 150.5,-171.5 150.5,-152.5 31.5,-152.5"/>
<text text-anchor="middle" x="91" y="-159.5" font-family="Helvetica,sans-Serif" font-size="10.00">Converter::Converter</text>
</a>
</g>
</g>
<!-- Node1&#45;&gt;Node3 -->
<g id="edge2" class="edge">
<title>Node1&#45;&gt;Node3</title>
<path fill="none" stroke="midnightblue" d="M225.13,-120.17C212.92,-128.02 197.16,-137.15 182,-143 172.17,-146.8 161.42,-149.9 150.89,-152.41"/>
<polygon fill="midnightblue" stroke="midnightblue" points="227.29,-122.94 233.7,-114.5 223.43,-117.1 227.29,-122.94"/>
</g>
<!-- Node4 -->
<g id="node4" class="node">
<title>Node4</title>
<g id="a_node4"><a xlink:href="classFastConverter.html#a29d7369baf5b71da8631de35096519c2" target="_top" xlink:title=" ">
<polygon fill="none" stroke="black" points="2,-114.5 2,-133.5 180,-133.5 180,-114.5 2,-114.5"/>
<text text-anchor="middle" x="91" y="-121.5" font-family="Helvetica,sans-Serif" font-size="10.00">FastConverter::copyAndCalculate</text>
</a>
</g>
</g>
<!-- Node1&#45;&gt;Node4 -->
<g id="edge3" class="edge">
<title>Node1&#45;&gt;Node4</title>
<path fill="none" stroke="midnightblue" d="M207.65,-109.82C196.03,-111.25 182.9,-112.86 169.75,-114.47"/>
<polygon fill="midnightblue" stroke="midnightblue" points="208.35,-113.26 217.85,-108.57 207.49,-106.32 208.35,-113.26"/>
</g>
<!-- Node5 -->
<g id="node5" class="node">
<title>Node5</title>
<g id="a_node5"><a xlink:href="classSlowConverter.html#a2732ea741a95c7f90c4d0d9bb2f4393a" target="_top" xlink:title=" ">
<polygon fill="none" stroke="black" points="0,-76.5 0,-95.5 182,-95.5 182,-76.5 0,-76.5"/>
<text text-anchor="middle" x="91" y="-83.5" font-family="Helvetica,sans-Serif" font-size="10.00">SlowConverter::copyAndCalculate</text>
</a>
</g>
</g>
<!-- Node1&#45;&gt;Node5 -->
<g id="edge4" class="edge">
<title>Node1&#45;&gt;Node5</title>
<path fill="none" stroke="midnightblue" d="M207.65,-100.18C196.03,-98.75 182.9,-97.14 169.75,-95.53"/>
<polygon fill="midnightblue" stroke="midnightblue" points="207.49,-103.68 217.85,-101.43 208.35,-96.74 207.49,-103.68"/>
</g>
<!-- Node6 -->
<g id="node6" class="node">
<title>Node6</title>
<g id="a_node6"><a xlink:href="structStats.html#a9abae77f0f701f8486dc26dcdcd8b913" target="_top" xlink:title=" ">
<polygon fill="none" stroke="black" points="55,-38.5 55,-57.5 127,-57.5 127,-38.5 55,-38.5"/>
<text text-anchor="middle" x="91" y="-45.5" font-family="Helvetica,sans-Serif" font-size="10.00">Stats::write</text>
</a>
</g>
</g>
<!-- Node1&#45;&gt;Node6 -->
<g id="edge5" class="edge">
<title>Node1&#45;&gt;Node6</title>
<path fill="none" stroke="midnightblue" d="M225.13,-89.83C212.92,-81.98 197.16,-72.85 182,-67 164.57,-60.27 144.27,-55.72 127.37,-52.77"/>
<polygon fill="midnightblue" stroke="midnightblue" points="223.43,-92.9 233.7,-95.5 227.29,-87.06 223.43,-92.9"/>
</g>
<!-- Node7 -->
<g id="node7" class="node">
<title>Node7</title>
<g id="a_node7"><a xlink:href="structMipMap.html#aad0d64a658b11d5a5c43ed74b892b54b" target="_top" xlink:title=" ">
<polygon fill="none" stroke="black" points="48,-0.5 48,-19.5 134,-19.5 134,-0.5 48,-0.5"/>
<text text-anchor="middle" x="91" y="-7.5" font-family="Helvetica,sans-Serif" font-size="10.00">MipMap::write</text>
</a>
</g>
</g>
<!-- Node1&#45;&gt;Node7 -->
<g id="edge6" class="edge">
<title>Node1&#45;&gt;Node7</title>
<path fill="none" stroke="midnightblue" d="M236.22,-86.48C224.97,-68.87 205.68,-43.06 182,-29 167.72,-20.52 150.19,-15.8 134.4,-13.18"/>
<polygon fill="midnightblue" stroke="midnightblue" points="233.41,-88.59 241.62,-95.29 239.38,-84.93 233.41,-88.59"/>
</g>
</g>
</svg>
