<?xml version="1.0" encoding="UTF-8" standalone="no"?>
<!DOCTYPE svg PUBLIC "-//W3C//DTD SVG 1.1//EN"
 "http://www.w3.org/Graphics/SVG/1.1/DTD/svg11.dtd">
<!-- Generated by graphviz version 2.43.0 (0)
 -->
<!-- Title: split Pages: 1 -->
<svg width="501pt" height="80pt"
 viewBox="0.00 0.00 501.00 79.59" xmlns="http://www.w3.org/2000/svg" xmlns:xlink="http://www.w3.org/1999/xlink">
<g id="graph0" class="graph" transform="scale(1 1) rotate(0) translate(4 75.59)">
<title>split</title>
<!-- Node1 -->
<g id="node1" class="node">
<title>Node1</title>
<g id="a_node1"><a xlink:title=" ">
<polygon fill="#bfbfbf" stroke="black" points="455,-38.5 455,-57.5 493,-57.5 493,-38.5 455,-38.5"/>
<text text-anchor="middle" x="474" y="-45.5" font-family="Helvetica,sans-Serif" font-size="10.00">split</text>
</a>
</g>
</g>
<!-- Node2 -->
<g id="node2" class="node">
<title>Node2</title>
<g id="a_node2"><a xlink:href="Util_8cc.html#a86d0996d4270e7e332c7913164ee8779" target="_top" xlink:title=" ">
<polygon fill="none" stroke="black" points="310,-38.5 310,-57.5 419,-57.5 419,-38.5 310,-38.5"/>
<text text-anchor="middle" x="364.5" y="-45.5" font-family="Helvetica,sans-Serif" font-size="10.00">createHdf5Dataset</text>
</a>
</g>
</g>
<!-- Node1&#45;&gt;Node2 -->
<g id="edge1" class="edge">
<title>Node1&#45;&gt;Node2</title>
<path fill="none" stroke="midnightblue" d="M444.67,-48C436.77,-48 427.92,-48 419.08,-48"/>
<polygon fill="midnightblue" stroke="midnightblue" points="444.76,-51.5 454.76,-48 444.76,-44.5 444.76,-51.5"/>
</g>
<!-- Node3 -->
<g id="node3" class="node">
<title>Node3</title>
<g id="a_node3"><a xlink:href="classConverter.html#ab6c99a9eaa83aea8e2964365e6bbc66c" target="_top" xlink:title=" ">
<polygon fill="none" stroke="black" points="0,-38.5 0,-57.5 107,-57.5 107,-38.5 0,-38.5"/>
<text text-anchor="middle" x="53.5" y="-45.5" font-family="Helvetica,sans-Serif" font-size="10.00">Converter::convert</text>
</a>
</g>
</g>
<!-- Node2&#45;&gt;Node3 -->
<g id="edge2" class="edge">
<title>Node2&#45;&gt;Node3</title>
<path fill="none" stroke="midnightblue" d="M317.4,-59.71C303.54,-62.71 288.24,-65.51 274,-67 216.1,-73.08 200.9,-73.14 143,-67 125.5,-65.14 106.37,-61.27 90.39,-57.51"/>
<polygon fill="midnightblue" stroke="midnightblue" points="318.21,-63.12 327.2,-57.51 316.67,-56.29 318.21,-63.12"/>
</g>
<!-- Node4 -->
<g id="node4" class="node">
<title>Node4</title>
<g id="a_node4"><a xlink:href="structMipMap.html#af2c6a636b8d2cfc5c7fea468445637fd" target="_top" xlink:title=" ">
<polygon fill="none" stroke="black" points="143,-38.5 143,-57.5 274,-57.5 274,-38.5 143,-38.5"/>
<text text-anchor="middle" x="208.5" y="-45.5" font-family="Helvetica,sans-Serif" font-size="10.00">MipMap::createDataset</text>
</a>
</g>
</g>
<!-- Node2&#45;&gt;Node4 -->
<g id="edge3" class="edge">
<title>Node2&#45;&gt;Node4</title>
<path fill="none" stroke="midnightblue" d="M299.55,-48C291.17,-48 282.57,-48 274.18,-48"/>
<polygon fill="midnightblue" stroke="midnightblue" points="299.64,-51.5 309.64,-48 299.64,-44.5 299.64,-51.5"/>
</g>
<!-- Node5 -->
<g id="node5" class="node">
<title>Node5</title>
<g id="a_node5"><a xlink:href="structStats.html#a0c985afe392acd9894a95be91d165158" target="_top" xlink:title=" ">
<polygon fill="none" stroke="black" points="147.5,-0.5 147.5,-19.5 269.5,-19.5 269.5,-0.5 147.5,-0.5"/>
<text text-anchor="middle" x="208.5" y="-7.5" font-family="Helvetica,sans-Serif" font-size="10.00">Stats::createDatasets</text>
</a>
</g>
</g>
<!-- Node2&#45;&gt;Node5 -->
<g id="edge4" class="edge">
<title>Node2&#45;&gt;Node5</title>
<path fill="none" stroke="midnightblue" d="M314.71,-35.96C293.19,-30.65 268.27,-24.5 248.08,-19.52"/>
<polygon fill="midnightblue" stroke="midnightblue" points="314.09,-39.41 324.64,-38.41 315.77,-32.62 314.09,-39.41"/>
</g>
<!-- Node5&#45;&gt;Node3 -->
<g id="edge5" class="edge">
<title>Node5&#45;&gt;Node3</title>
<path fill="none" stroke="midnightblue" d="M159.02,-22.04C137.65,-27.35 112.89,-33.5 92.83,-38.48"/>
<polygon fill="midnightblue" stroke="midnightblue" points="160.03,-25.4 168.89,-19.59 158.34,-18.6 160.03,-25.4"/>
</g>
</g>
</svg>
