<?xml version="1.0" encoding="UTF-8" standalone="no"?>
<!DOCTYPE svg PUBLIC "-//W3C//DTD SVG 1.1//EN"
 "http://www.w3.org/Graphics/SVG/1.1/DTD/svg11.dtd">
<!-- Generated by graphviz version 2.43.0 (0)
 -->
<!-- Title: Util.h Pages: 1 -->
<svg width="392pt" height="196pt"
 viewBox="0.00 0.00 392.00 196.00" xmlns="http://www.w3.org/2000/svg" xmlns:xlink="http://www.w3.org/1999/xlink">
<g id="graph0" class="graph" transform="scale(1 1) rotate(0) translate(4 192)">
<title>Util.h</title>
<!-- Node1 -->
<g id="node1" class="node">
<title>Node1</title>
<g id="a_node1"><a xlink:title=" ">
<polygon fill="#bfbfbf" stroke="black" points="195,-168.5 195,-187.5 238,-187.5 238,-168.5 195,-168.5"/>
<text text-anchor="middle" x="216.5" y="-175.5" font-family="Helvetica,sans-Serif" font-size="10.00">Util.h</text>
</a>
</g>
</g>
<!-- Node2 -->
<g id="node2" class="node">
<title>Node2</title>
<g id="a_node2"><a xlink:href="Converter_8h.html" target="_top" xlink:title=" ">
<polygon fill="none" stroke="black" points="154,-56.5 154,-75.5 227,-75.5 227,-56.5 154,-56.5"/>
<text text-anchor="middle" x="190.5" y="-63.5" font-family="Helvetica,sans-Serif" font-size="10.00">Converter.h</text>
</a>
</g>
</g>
<!-- Node1&#45;&gt;Node2 -->
<g id="edge1" class="edge">
<title>Node1&#45;&gt;Node2</title>
<path fill="none" stroke="midnightblue" d="M212.09,-158.35C206.4,-134.25 196.72,-93.31 192.53,-75.59"/>
<polygon fill="midnightblue" stroke="midnightblue" points="208.75,-159.44 214.46,-168.37 215.57,-157.83 208.75,-159.44"/>
</g>
<!-- Node7 -->
<g id="node7" class="node">
<title>Node7</title>
<g id="a_node7"><a xlink:href="MipMap_8h.html" target="_top" xlink:title=" ">
<polygon fill="none" stroke="black" points="97,-112.5 97,-131.5 162,-131.5 162,-112.5 97,-112.5"/>
<text text-anchor="middle" x="129.5" y="-119.5" font-family="Helvetica,sans-Serif" font-size="10.00">MipMap.h</text>
</a>
</g>
</g>
<!-- Node1&#45;&gt;Node7 -->
<g id="edge6" class="edge">
<title>Node1&#45;&gt;Node7</title>
<path fill="none" stroke="midnightblue" d="M193.78,-162.9C177.83,-153 157,-140.07 143.44,-131.65"/>
<polygon fill="midnightblue" stroke="midnightblue" points="192.18,-166.02 202.52,-168.32 195.87,-160.08 192.18,-166.02"/>
</g>
<!-- Node9 -->
<g id="node9" class="node">
<title>Node9</title>
<g id="a_node9"><a xlink:href="Stats_8h.html" target="_top" xlink:title=" ">
<polygon fill="none" stroke="black" points="218.5,-112.5 218.5,-131.5 268.5,-131.5 268.5,-112.5 218.5,-112.5"/>
<text text-anchor="middle" x="243.5" y="-119.5" font-family="Helvetica,sans-Serif" font-size="10.00">Stats.h</text>
</a>
</g>
</g>
<!-- Node1&#45;&gt;Node9 -->
<g id="edge9" class="edge">
<title>Node1&#45;&gt;Node9</title>
<path fill="none" stroke="midnightblue" d="M225.51,-158.98C230.09,-149.82 235.45,-139.09 239.12,-131.75"/>
<polygon fill="midnightblue" stroke="midnightblue" points="222.3,-157.57 220.96,-168.08 228.56,-160.7 222.3,-157.57"/>
</g>
<!-- Node11 -->
<g id="node11" class="node">
<title>Node11</title>
<g id="a_node11"><a xlink:href="Util_8cc.html" target="_top" xlink:title=" ">
<polygon fill="none" stroke="black" points="287,-112.5 287,-131.5 334,-131.5 334,-112.5 287,-112.5"/>
<text text-anchor="middle" x="310.5" y="-119.5" font-family="Helvetica,sans-Serif" font-size="10.00">Util.cc</text>
</a>
</g>
</g>
<!-- Node1&#45;&gt;Node11 -->
<g id="edge12" class="edge">
<title>Node1&#45;&gt;Node11</title>
<path fill="none" stroke="midnightblue" d="M240.56,-163.18C257.86,-153.24 280.65,-140.15 295.43,-131.65"/>
<polygon fill="midnightblue" stroke="midnightblue" points="238.53,-160.31 231.6,-168.32 242.02,-166.38 238.53,-160.31"/>
</g>
<!-- Node3 -->
<g id="node3" class="node">
<title>Node3</title>
<g id="a_node3"><a xlink:href="Converter_8cc.html" target="_top" xlink:title=" ">
<polygon fill="none" stroke="black" points="0,-0.5 0,-19.5 77,-19.5 77,-0.5 0,-0.5"/>
<text text-anchor="middle" x="38.5" y="-7.5" font-family="Helvetica,sans-Serif" font-size="10.00">Converter.cc</text>
</a>
</g>
</g>
<!-- Node2&#45;&gt;Node3 -->
<g id="edge2" class="edge">
<title>Node2&#45;&gt;Node3</title>
<path fill="none" stroke="midnightblue" d="M156.83,-53.04C128.23,-42.88 87.89,-28.55 62.47,-19.52"/>
<polygon fill="midnightblue" stroke="midnightblue" points="155.82,-56.39 166.42,-56.44 158.16,-49.8 155.82,-56.39"/>
</g>
<!-- Node4 -->
<g id="node4" class="node">
<title>Node4</title>
<g id="a_node4"><a xlink:href="FastConverter_8cc.html" target="_top" xlink:title=" ">
<polygon fill="none" stroke="black" points="95,-0.5 95,-19.5 192,-19.5 192,-0.5 95,-0.5"/>
<text text-anchor="middle" x="143.5" y="-7.5" font-family="Helvetica,sans-Serif" font-size="10.00">FastConverter.cc</text>
</a>
</g>
</g>
<!-- Node2&#45;&gt;Node4 -->
<g id="edge3" class="edge">
<title>Node2&#45;&gt;Node4</title>
<path fill="none" stroke="midnightblue" d="M176.08,-48.43C167.84,-38.97 157.85,-27.48 151.12,-19.75"/>
<polygon fill="midnightblue" stroke="midnightblue" points="173.53,-50.84 182.74,-56.08 178.81,-46.24 173.53,-50.84"/>
</g>
<!-- Node5 -->
<g id="node5" class="node">
<title>Node5</title>
<g id="a_node5"><a xlink:href="main_8cc.html" target="_top" xlink:title=" ">
<polygon fill="none" stroke="black" points="210,-0.5 210,-19.5 265,-19.5 265,-0.5 210,-0.5"/>
<text text-anchor="middle" x="237.5" y="-7.5" font-family="Helvetica,sans-Serif" font-size="10.00">main.cc</text>
</a>
</g>
</g>
<!-- Node2&#45;&gt;Node5 -->
<g id="edge4" class="edge">
<title>Node2&#45;&gt;Node5</title>
<path fill="none" stroke="midnightblue" d="M204.92,-48.43C213.16,-38.97 223.15,-27.48 229.88,-19.75"/>
<polygon fill="midnightblue" stroke="midnightblue" points="202.19,-46.24 198.26,-56.08 207.47,-50.84 202.19,-46.24"/>
</g>
<!-- Node6 -->
<g id="node6" class="node">
<title>Node6</title>
<g id="a_node6"><a xlink:href="SlowConverter_8cc.html" target="_top" xlink:title=" ">
<polygon fill="none" stroke="black" points="283,-0.5 283,-19.5 384,-19.5 384,-0.5 283,-0.5"/>
<text text-anchor="middle" x="333.5" y="-7.5" font-family="Helvetica,sans-Serif" font-size="10.00">SlowConverter.cc</text>
</a>
</g>
</g>
<!-- Node2&#45;&gt;Node6 -->
<g id="edge5" class="edge">
<title>Node2&#45;&gt;Node6</title>
<path fill="none" stroke="midnightblue" d="M222.53,-52.91C249.41,-42.75 287.14,-28.51 310.95,-19.52"/>
<polygon fill="midnightblue" stroke="midnightblue" points="221.28,-49.64 213.16,-56.44 223.75,-56.19 221.28,-49.64"/>
</g>
<!-- Node7&#45;&gt;Node2 -->
<g id="edge7" class="edge">
<title>Node7&#45;&gt;Node2</title>
<path fill="none" stroke="midnightblue" d="M146.97,-105.54C157.84,-95.91 171.44,-83.87 180.52,-75.83"/>
<polygon fill="midnightblue" stroke="midnightblue" points="144.47,-103.07 139.3,-112.32 149.11,-108.32 144.47,-103.07"/>
</g>
<!-- Node8 -->
<g id="node8" class="node">
<title>Node8</title>
<g id="a_node8"><a xlink:href="MipMap_8cc.html" target="_top" xlink:title=" ">
<polygon fill="none" stroke="black" points="67,-56.5 67,-75.5 136,-75.5 136,-56.5 67,-56.5"/>
<text text-anchor="middle" x="101.5" y="-63.5" font-family="Helvetica,sans-Serif" font-size="10.00">MipMap.cc</text>
</a>
</g>
</g>
<!-- Node7&#45;&gt;Node8 -->
<g id="edge8" class="edge">
<title>Node7&#45;&gt;Node8</title>
<path fill="none" stroke="midnightblue" d="M120.16,-102.98C115.41,-93.82 109.84,-83.09 106.04,-75.75"/>
<polygon fill="midnightblue" stroke="midnightblue" points="117.17,-104.82 124.88,-112.08 123.38,-101.59 117.17,-104.82"/>
</g>
<!-- Node9&#45;&gt;Node2 -->
<g id="edge10" class="edge">
<title>Node9&#45;&gt;Node2</title>
<path fill="none" stroke="midnightblue" d="M227.52,-104.72C218.18,-95.2 206.75,-83.56 199.09,-75.75"/>
<polygon fill="midnightblue" stroke="midnightblue" points="225.25,-107.4 234.75,-112.08 230.24,-102.49 225.25,-107.4"/>
</g>
<!-- Node10 -->
<g id="node10" class="node">
<title>Node10</title>
<g id="a_node10"><a xlink:href="Stats_8cc.html" target="_top" xlink:title=" ">
<polygon fill="none" stroke="black" points="245,-56.5 245,-75.5 300,-75.5 300,-56.5 245,-56.5"/>
<text text-anchor="middle" x="272.5" y="-63.5" font-family="Helvetica,sans-Serif" font-size="10.00">Stats.cc</text>
</a>
</g>
</g>
<!-- Node9&#45;&gt;Node10 -->
<g id="edge11" class="edge">
<title>Node9&#45;&gt;Node10</title>
<path fill="none" stroke="midnightblue" d="M253.18,-102.98C258.1,-93.82 263.86,-83.09 267.8,-75.75"/>
<polygon fill="midnightblue" stroke="midnightblue" points="249.94,-101.62 248.29,-112.08 256.1,-104.93 249.94,-101.62"/>
</g>
</g>
</svg>
